<svg width="24" height="25" viewBox="0 0 24 25" fill="none" xmlns="http://www.w3.org/2000/svg">
<path d="M13.2686 4.16768C13.5686 3.86772 13.9755 3.69922 14.3998 3.69922C14.8241 3.69922 15.231 3.86772 15.531 4.16768L22.731 11.3677C23.031 11.6677 23.1995 12.0746 23.1995 12.4989C23.1995 12.9231 23.031 13.33 22.731 13.6301L15.531 20.8301C15.2292 21.1215 14.8251 21.2828 14.4056 21.2792C13.986 21.2755 13.5847 21.1072 13.2881 20.8106C12.9914 20.5139 12.8232 20.1126 12.8195 19.6931C12.8159 19.2736 12.9772 18.8694 13.2686 18.5677L17.5998 14.0989H2.3998C1.97546 14.0989 1.56849 13.9303 1.26843 13.6302C0.968376 13.3302 0.799805 12.9232 0.799805 12.4989C0.799805 12.0745 0.968376 11.6676 1.26843 11.3675C1.56849 11.0674 1.97546 10.8989 2.3998 10.8989H17.5998L13.2686 6.43008C12.9687 6.13003 12.8001 5.72314 12.8001 5.29888C12.8001 4.87461 12.9687 4.46772 13.2686 4.16768Z" fill="black"/>
</svg>
