<svg width="277" height="60" viewBox="0 0 277 60" fill="none" xmlns="http://www.w3.org/2000/svg">
<mask id="path-1-inside-1_361_842" fill="white">
<path d="M0 0.5H277V59.5H0V0.5Z"/>
</mask>
<path d="M277 57.5H0V61.5H277V57.5Z" fill="black" mask="url(#path-1-inside-1_361_842)"/>
<path d="M28.2969 27.6094C28.1667 27.1875 27.987 26.8099 27.7578 26.4766C27.5339 26.138 27.263 25.849 26.9453 25.6094C26.6328 25.3698 26.2734 25.1901 25.8672 25.0703C25.4609 24.9453 25.0182 24.8828 24.5391 24.8828C23.6797 24.8828 22.9141 25.099 22.2422 25.5313C21.5703 25.9635 21.0417 26.599 20.6563 27.4375C20.276 28.2708 20.0859 29.2865 20.0859 30.4844C20.0859 31.6927 20.276 32.7161 20.6563 33.5547C21.0365 34.3932 21.5651 35.0312 22.2422 35.4687C22.9193 35.901 23.7057 36.1172 24.6016 36.1172C25.4141 36.1172 26.1172 35.9609 26.7109 35.6484C27.3099 35.3359 27.7708 34.8932 28.0938 34.3203C28.4167 33.7422 28.5781 33.0651 28.5781 32.2891L29.2344 32.3906H24.8906V30.125H31.3828V32.0469C31.3828 33.4167 31.0911 34.6016 30.5078 35.6016C29.9245 36.6016 29.1224 37.3724 28.1016 37.9141C27.0807 38.4505 25.9089 38.7187 24.5859 38.7187C23.112 38.7187 21.8177 38.388 20.7031 37.7266C19.5938 37.0599 18.7266 36.1146 18.1016 34.8906C17.4818 33.6615 17.1719 32.2031 17.1719 30.5156C17.1719 29.224 17.3542 28.0703 17.7188 27.0547C18.0885 26.0391 18.6042 25.1771 19.2656 24.4687C19.9271 23.7552 20.7031 23.2135 21.5938 22.8437C22.4844 22.4687 23.4531 22.2812 24.5 22.2812C25.3854 22.2812 26.2109 22.4115 26.9766 22.6719C27.7422 22.9271 28.4219 23.2917 29.0156 23.7656C29.6146 24.2396 30.1068 24.8021 30.4922 25.4531C30.8776 26.1042 31.1302 26.8229 31.25 27.6094H28.2969ZM39.373 38.7344C38.1699 38.7344 37.1309 38.4844 36.2559 37.9844C35.3861 37.4792 34.7168 36.7656 34.248 35.8437C33.7793 34.9167 33.5449 33.8255 33.5449 32.5703C33.5449 31.3359 33.7793 30.2526 34.248 29.3203C34.722 28.3828 35.3835 27.6536 36.2324 27.1328C37.0814 26.6068 38.0788 26.3438 39.2246 26.3438C39.9642 26.3438 40.6621 26.4635 41.3184 26.7031C41.9798 26.9375 42.5632 27.3021 43.0684 27.7969C43.5788 28.2917 43.9798 28.9219 44.2715 29.6875C44.5632 30.4479 44.709 31.3542 44.709 32.4062V33.2734H34.873V31.3672H41.998C41.9928 30.8255 41.8757 30.3437 41.6465 29.9219C41.4173 29.4948 41.097 29.1589 40.6855 28.9141C40.2793 28.6693 39.8053 28.5469 39.2637 28.5469C38.6855 28.5469 38.1777 28.6875 37.7402 28.9687C37.3027 29.2448 36.9616 29.6094 36.7168 30.0625C36.4772 30.5104 36.3548 31.0026 36.3496 31.5391V33.2031C36.3496 33.901 36.4772 34.5 36.7324 35C36.9876 35.4948 37.3444 35.875 37.8027 36.1406C38.2611 36.401 38.7975 36.5312 39.4121 36.5312C39.8236 36.5312 40.196 36.474 40.5293 36.3594C40.8626 36.2396 41.1517 36.0651 41.3965 35.8359C41.6413 35.6068 41.8262 35.3229 41.9512 34.9844L44.5918 35.2812C44.4251 35.9792 44.1074 36.5885 43.6387 37.1094C43.1751 37.625 42.5814 38.026 41.8574 38.3125C41.1335 38.5937 40.3053 38.7344 39.373 38.7344ZM53.0938 26.5V28.6875H46.1953V26.5H53.0938ZM47.8984 23.625H50.7266V34.8906C50.7266 35.2708 50.7839 35.5625 50.8984 35.7656C51.0182 35.9635 51.1745 36.099 51.3672 36.1719C51.5599 36.2448 51.7734 36.2812 52.0078 36.2812C52.1849 36.2812 52.3464 36.2682 52.4922 36.2422C52.6432 36.2161 52.7578 36.1927 52.8359 36.1719L53.3125 38.3828C53.1615 38.4349 52.9453 38.4922 52.6641 38.5547C52.388 38.6172 52.0495 38.6536 51.6484 38.6641C50.9401 38.6849 50.3021 38.5781 49.7344 38.3437C49.1667 38.1042 48.7161 37.7344 48.3828 37.2344C48.0547 36.7344 47.8932 36.1094 47.8984 35.3594V23.625ZM70.4004 29.6719L67.8223 29.9531C67.7493 29.6927 67.6217 29.4479 67.4395 29.2188C67.2624 28.9896 67.0228 28.8047 66.7207 28.6641C66.4186 28.5234 66.0488 28.4531 65.6113 28.4531C65.0228 28.4531 64.528 28.5807 64.127 28.8359C63.7311 29.0911 63.5358 29.4219 63.541 29.8281C63.5358 30.1771 63.6634 30.4609 63.9238 30.6797C64.1895 30.8984 64.627 31.0781 65.2363 31.2188L67.2832 31.6562C68.4186 31.901 69.2624 32.2891 69.8145 32.8203C70.3717 33.3516 70.653 34.0469 70.6582 34.9062C70.653 35.6615 70.4316 36.3281 69.9941 36.9062C69.5618 37.4792 68.9603 37.9271 68.1895 38.25C67.4186 38.5729 66.5332 38.7344 65.5332 38.7344C64.0645 38.7344 62.8822 38.4271 61.9863 37.8125C61.0905 37.1927 60.5566 36.3307 60.3848 35.2266L63.1426 34.9609C63.2676 35.5026 63.5332 35.9115 63.9395 36.1875C64.3457 36.4635 64.8743 36.6016 65.5254 36.6016C66.1973 36.6016 66.7363 36.4635 67.1426 36.1875C67.554 35.9115 67.7598 35.5703 67.7598 35.1641C67.7598 34.8203 67.627 34.5365 67.3613 34.3125C67.1009 34.0885 66.6947 33.9167 66.1426 33.7969L64.0957 33.3672C62.9447 33.1276 62.0931 32.724 61.541 32.1562C60.9889 31.5833 60.7155 30.8594 60.7207 29.9844C60.7155 29.2448 60.916 28.6042 61.3223 28.0625C61.7337 27.5156 62.304 27.0937 63.0332 26.7969C63.7676 26.4948 64.6139 26.3438 65.5723 26.3438C66.9785 26.3438 68.0853 26.6432 68.8926 27.2422C69.7051 27.8411 70.2077 28.651 70.4004 29.6719ZM78.9824 26.5V28.6875H72.084V26.5H78.9824ZM73.7871 23.625H76.6152V34.8906C76.6152 35.2708 76.6725 35.5625 76.7871 35.7656C76.9069 35.9635 77.0632 36.099 77.2559 36.1719C77.4486 36.2448 77.6621 36.2812 77.8965 36.2812C78.0736 36.2812 78.235 36.2682 78.3809 36.2422C78.5319 36.2161 78.6465 36.1927 78.7246 36.1719L79.2012 38.3828C79.0501 38.4349 78.834 38.4922 78.5527 38.5547C78.2767 38.6172 77.9382 38.6536 77.5371 38.6641C76.8288 38.6849 76.1908 38.5781 75.623 38.3437C75.0553 38.1042 74.6048 37.7344 74.2715 37.2344C73.9434 36.7344 73.7819 36.1094 73.7871 35.3594V23.625ZM84.8008 38.7422C84.0404 38.7422 83.3555 38.6068 82.7461 38.3359C82.1419 38.0599 81.6628 37.6536 81.3086 37.1172C80.9596 36.5807 80.7852 35.9193 80.7852 35.1328C80.7852 34.4557 80.9102 33.8958 81.1602 33.4531C81.4102 33.0104 81.7513 32.6562 82.1836 32.3906C82.6159 32.125 83.1029 31.9245 83.6445 31.7891C84.1914 31.6484 84.7565 31.5469 85.3398 31.4844C86.043 31.4115 86.6133 31.3464 87.0508 31.2891C87.4883 31.2266 87.806 31.1328 88.0039 31.0078C88.207 30.8776 88.3086 30.6771 88.3086 30.4062V30.3594C88.3086 29.7708 88.1341 29.3151 87.7852 28.9922C87.4362 28.6693 86.9336 28.5078 86.2773 28.5078C85.5846 28.5078 85.0352 28.6589 84.6289 28.9609C84.2279 29.263 83.957 29.6198 83.8164 30.0312L81.1758 29.6562C81.3841 28.9271 81.7279 28.3177 82.207 27.8281C82.6862 27.3333 83.2721 26.9635 83.9648 26.7187C84.6576 26.4688 85.4232 26.3438 86.2617 26.3438C86.8398 26.3438 87.4154 26.4115 87.9883 26.5469C88.5612 26.6823 89.0846 26.9062 89.5586 27.2187C90.0326 27.526 90.4128 27.9453 90.6992 28.4766C90.9909 29.0078 91.1367 29.6719 91.1367 30.4687V38.5H88.418V36.8516H88.3242C88.1523 37.1849 87.9102 37.4974 87.5977 37.7891C87.2904 38.0755 86.9023 38.3073 86.4336 38.4844C85.9701 38.6563 85.4258 38.7422 84.8008 38.7422ZM85.5352 36.6641C86.1029 36.6641 86.5951 36.5521 87.0117 36.3281C87.4284 36.099 87.7487 35.7969 87.9727 35.4219C88.2018 35.0469 88.3164 34.638 88.3164 34.1953V32.7812C88.2279 32.8542 88.0768 32.9219 87.8633 32.9844C87.6549 33.0469 87.4206 33.1016 87.1602 33.1484C86.8997 33.1953 86.6419 33.237 86.3867 33.2734C86.1315 33.3099 85.9102 33.3411 85.7227 33.3672C85.3008 33.4245 84.9232 33.5182 84.5898 33.6484C84.2565 33.7786 83.9935 33.9609 83.8008 34.1953C83.6081 34.4245 83.5117 34.7214 83.5117 35.0859C83.5117 35.6068 83.7018 36 84.082 36.2656C84.4622 36.5312 84.9466 36.6641 85.5352 36.6641ZM93.9805 38.5V26.5H96.7227V28.5H96.8477C97.0664 27.8073 97.4414 27.2734 97.9727 26.8984C98.5091 26.5182 99.1211 26.3281 99.8086 26.3281C99.9648 26.3281 100.139 26.3359 100.332 26.3516C100.53 26.362 100.694 26.3802 100.824 26.4062V29.0078C100.704 28.9661 100.514 28.9297 100.254 28.8984C99.9987 28.862 99.7513 28.8437 99.5117 28.8437C98.9961 28.8437 98.5326 28.9557 98.1211 29.1797C97.7148 29.3984 97.3945 29.7031 97.1602 30.0937C96.9258 30.4844 96.8086 30.9349 96.8086 31.4453V38.5H93.9805ZM109.34 26.5V28.6875H102.441V26.5H109.34ZM104.145 23.625H106.973V34.8906C106.973 35.2708 107.03 35.5625 107.145 35.7656C107.264 35.9635 107.421 36.099 107.613 36.1719C107.806 36.2448 108.02 36.2812 108.254 36.2812C108.431 36.2812 108.592 36.2682 108.738 36.2422C108.889 36.2161 109.004 36.1927 109.082 36.1719L109.559 38.3828C109.408 38.4349 109.191 38.4922 108.91 38.5547C108.634 38.6172 108.296 38.6536 107.895 38.6641C107.186 38.6849 106.548 38.5781 105.98 38.3437C105.413 38.1042 104.962 37.7344 104.629 37.2344C104.301 36.7344 104.139 36.1094 104.145 35.3594V23.625ZM116.889 38.7344C115.686 38.7344 114.646 38.4844 113.771 37.9844C112.902 37.4792 112.232 36.7656 111.764 35.8437C111.295 34.9167 111.061 33.8255 111.061 32.5703C111.061 31.3359 111.295 30.2526 111.764 29.3203C112.238 28.3828 112.899 27.6536 113.748 27.1328C114.597 26.6068 115.594 26.3438 116.74 26.3438C117.48 26.3438 118.178 26.4635 118.834 26.7031C119.495 26.9375 120.079 27.3021 120.584 27.7969C121.094 28.2917 121.495 28.9219 121.787 29.6875C122.079 30.4479 122.225 31.3542 122.225 32.4062V33.2734H112.389V31.3672H119.514C119.508 30.8255 119.391 30.3437 119.162 29.9219C118.933 29.4948 118.613 29.1589 118.201 28.9141C117.795 28.6693 117.321 28.5469 116.779 28.5469C116.201 28.5469 115.693 28.6875 115.256 28.9687C114.818 29.2448 114.477 29.6094 114.232 30.0625C113.993 30.5104 113.87 31.0026 113.865 31.5391V33.2031C113.865 33.901 113.993 34.5 114.248 35C114.503 35.4948 114.86 35.875 115.318 36.1406C115.777 36.401 116.313 36.5312 116.928 36.5312C117.339 36.5312 117.712 36.474 118.045 36.3594C118.378 36.2396 118.667 36.0651 118.912 35.8359C119.157 35.6068 119.342 35.3229 119.467 34.9844L122.107 35.2812C121.941 35.9792 121.623 36.5885 121.154 37.1094C120.691 37.625 120.097 38.026 119.373 38.3125C118.649 38.5937 117.821 38.7344 116.889 38.7344ZM129.07 38.7109C128.128 38.7109 127.284 38.4688 126.539 37.9844C125.794 37.5 125.206 36.7969 124.773 35.875C124.341 34.9531 124.125 33.8333 124.125 32.5156C124.125 31.1823 124.344 30.0573 124.781 29.1406C125.224 28.2187 125.82 27.5234 126.57 27.0547C127.32 26.5807 128.156 26.3438 129.078 26.3438C129.781 26.3438 130.359 26.4635 130.812 26.7031C131.266 26.9375 131.625 27.2214 131.891 27.5547C132.156 27.8828 132.362 28.1927 132.508 28.4844H132.625V22.5H135.461V38.5H132.68V36.6094H132.508C132.362 36.901 132.151 37.2109 131.875 37.5391C131.599 37.862 131.234 38.138 130.781 38.3672C130.328 38.5964 129.758 38.7109 129.07 38.7109ZM129.859 36.3906C130.458 36.3906 130.969 36.2292 131.391 35.9062C131.813 35.5781 132.133 35.1224 132.352 34.5391C132.57 33.9557 132.68 33.276 132.68 32.5C132.68 31.724 132.57 31.0495 132.352 30.4766C132.138 29.9036 131.82 29.4583 131.398 29.1406C130.982 28.8229 130.469 28.6641 129.859 28.6641C129.229 28.6641 128.703 28.8281 128.281 29.1562C127.859 29.4844 127.542 29.9375 127.328 30.5156C127.115 31.0937 127.008 31.7552 127.008 32.5C127.008 33.25 127.115 33.9193 127.328 34.5078C127.547 35.0911 127.867 35.5521 128.289 35.8906C128.716 36.224 129.24 36.3906 129.859 36.3906ZM146.76 31.4687V38.5H143.932V26.5H146.635V28.5391H146.775C147.051 27.8672 147.492 27.3333 148.096 26.9375C148.705 26.5417 149.458 26.3438 150.354 26.3438C151.182 26.3438 151.903 26.5208 152.518 26.875C153.137 27.2292 153.617 27.7422 153.955 28.4141C154.299 29.0859 154.468 29.901 154.463 30.8594V38.5H151.635V31.2969C151.635 30.4948 151.426 29.8672 151.01 29.4141C150.598 28.9609 150.028 28.7344 149.299 28.7344C148.804 28.7344 148.364 28.8437 147.979 29.0625C147.598 29.276 147.299 29.5859 147.08 29.9922C146.867 30.3984 146.76 30.8906 146.76 31.4687ZM162.572 38.7344C161.4 38.7344 160.385 38.4766 159.525 37.9609C158.666 37.4453 157.999 36.724 157.525 35.7969C157.057 34.8698 156.822 33.7865 156.822 32.5469C156.822 31.3073 157.057 30.2214 157.525 29.2891C157.999 28.3568 158.666 27.6328 159.525 27.1172C160.385 26.6016 161.4 26.3438 162.572 26.3438C163.744 26.3438 164.76 26.6016 165.619 27.1172C166.479 27.6328 167.143 28.3568 167.611 29.2891C168.085 30.2214 168.322 31.3073 168.322 32.5469C168.322 33.7865 168.085 34.8698 167.611 35.7969C167.143 36.724 166.479 37.4453 165.619 37.9609C164.76 38.4766 163.744 38.7344 162.572 38.7344ZM162.588 36.4687C163.223 36.4687 163.755 36.2943 164.182 35.9453C164.609 35.5911 164.926 35.1172 165.135 34.5234C165.348 33.9297 165.455 33.2682 165.455 32.5391C165.455 31.8047 165.348 31.1406 165.135 30.5469C164.926 29.9479 164.609 29.4714 164.182 29.1172C163.755 28.763 163.223 28.5859 162.588 28.5859C161.937 28.5859 161.395 28.763 160.963 29.1172C160.536 29.4714 160.215 29.9479 160.002 30.5469C159.794 31.1406 159.689 31.8047 159.689 32.5391C159.689 33.2682 159.794 33.9297 160.002 34.5234C160.215 35.1172 160.536 35.5911 160.963 35.9453C161.395 36.2943 161.937 36.4687 162.588 36.4687ZM172.855 38.5L169.465 26.5H172.348L174.457 34.9375H174.566L176.723 26.5H179.574L181.73 34.8906H181.848L183.926 26.5H186.816L183.418 38.5H180.473L178.223 30.3906H178.059L175.809 38.5H172.855Z" fill="black"/>
<path d="M250.269 21.6688C250.569 21.3688 250.976 21.2003 251.4 21.2003C251.824 21.2003 252.231 21.3688 252.531 21.6688L259.731 28.8688C260.031 29.1688 260.199 29.5757 260.199 30C260.199 30.4242 260.031 30.8311 259.731 31.1312L252.531 38.3312C252.229 38.6226 251.825 38.7839 251.406 38.7803C250.986 38.7766 250.585 38.6083 250.288 38.3117C249.991 38.015 249.823 37.6137 249.82 37.1942C249.816 36.7747 249.977 36.3705 250.269 36.0688L254.6 31.6H239.4C238.975 31.6 238.568 31.4314 238.268 31.1313C237.968 30.8313 237.8 30.4243 237.8 30C237.8 29.5756 237.968 29.1687 238.268 28.8686C238.568 28.5685 238.975 28.4 239.4 28.4H254.6L250.269 23.9312C249.969 23.6311 249.8 23.2242 249.8 22.8C249.8 22.3757 249.969 21.9688 250.269 21.6688Z" fill="black"/>
</svg>
