<svg width="265" height="177" viewBox="0 0 265 177" fill="none" xmlns="http://www.w3.org/2000/svg">
<path d="M45.1593 30.1875L31.1002 58.6031L35.2978 58.7624L23.3834 81.3405H29.6409L19.8818 101.402H74.4436L62.4302 81.3405L68.186 81.0927L56.6744 58.5217L60.9286 58.2739L45.1593 30.1875Z" fill="#F5F5F5"/>
<path d="M47.4843 58.4805C47.5515 58.4805 47.4596 73.2033 47.2723 91.3635C47.0851 109.524 46.8801 159.625 46.8095 159.625C46.7388 159.625 46.8342 109.527 47.0215 91.36C47.2087 73.1927 47.4137 58.4805 47.4843 58.4805Z" fill="#E0E0E0"/>
<path d="M53.2222 64.7508C53.2787 64.7933 52.0738 66.4465 50.5368 68.4466C48.9998 70.4467 47.7102 72.0326 47.6501 71.9866C47.59 71.9406 48.7984 70.2909 50.339 68.2908C51.8795 66.2907 53.1692 64.7084 53.2222 64.7508Z" fill="#E0E0E0"/>
<path d="M47.3713 71.4725C47.3289 71.5256 46.1381 70.6689 44.7142 69.5573C43.2903 68.4458 42.1702 67.5006 42.2126 67.4333C42.255 67.3661 43.4457 68.2369 44.8697 69.3485C46.2936 70.46 47.4137 71.4158 47.3713 71.4725Z" fill="#E0E0E0"/>
<path d="M47.0497 83.4335C46.7303 83.2277 46.432 82.9905 46.1593 82.7255C45.6293 82.276 44.8979 81.6635 44.0782 80.9874C43.2585 80.3113 42.5059 79.7236 41.9582 79.2953C41.649 79.0794 41.3615 78.834 41.0996 78.5625C41.4439 78.7182 41.7678 78.9155 42.0642 79.1501C42.6401 79.5466 43.4139 80.1201 44.2372 80.7927C45.0605 81.4653 45.7777 82.1096 46.2795 82.591C46.5684 82.8405 46.827 83.1233 47.0497 83.4335Z" fill="#E0E0E0"/>
<path d="M53.2292 76.0399C53.2822 76.0823 51.9643 77.8099 50.286 79.9091C48.6076 82.0083 47.2013 83.6686 47.1448 83.6261C47.0883 83.5836 48.4098 81.8561 50.0916 79.7533C51.7735 77.6506 53.1762 75.9974 53.2292 76.0399Z" fill="#E0E0E0"/>
<path d="M201.241 148.095C194.835 143.348 193.619 134.895 194.125 127.348C194.209 126.087 194.125 124.753 194.754 123.669C195.383 122.586 196.838 121.871 197.962 122.441C198.895 122.915 199.273 124.016 199.771 124.937C200.445 126.165 201.45 127.178 202.672 127.861C203.47 128.303 204.467 128.594 205.283 128.179C206.403 127.617 206.58 126.119 206.615 124.862L206.795 117.85C206.831 116.597 206.866 115.315 207.3 114.136C207.735 112.957 208.64 111.881 209.859 111.587C211.078 111.294 212.547 112.033 212.759 113.269C212.797 113.789 212.797 114.31 212.759 114.83C212.759 115.354 213.007 115.938 213.501 116.101C213.996 116.264 214.523 115.924 214.915 115.57C216.268 114.345 217.208 112.738 218.095 111.149C218.982 109.559 219.837 107.92 221.07 106.578C222.303 105.237 223.981 104.196 225.801 104.153C227.621 104.111 229.522 105.286 229.921 107.067C230.32 108.848 229.214 110.607 228.041 112.002C226.284 114.073 224.239 115.879 221.967 117.365C221.528 117.585 221.171 117.94 220.946 118.377C220.642 119.206 221.42 120.062 222.243 120.367C223.179 120.721 224.207 120.646 225.193 120.795C226.179 120.944 227.236 121.407 227.582 122.346C228.059 123.645 226.932 124.951 225.836 125.797C223.637 127.491 221.164 128.796 218.526 129.656C217.579 129.964 216.59 130.226 215.816 130.849C215.042 131.472 214.551 132.587 214.978 133.482C215.406 134.378 216.561 134.704 217.544 134.544C218.526 134.385 219.42 133.9 220.37 133.585C222.137 132.99 224.381 133.185 225.448 134.711C226.154 135.716 226.154 137.083 225.762 138.251C225.298 139.388 224.61 140.42 223.738 141.285C220.85 144.489 217.165 146.867 213.06 148.177C208.968 149.43 205.209 149.681 201.237 148.095" fill="#EBEBEB"/>
<path d="M200.64 159.962C200.545 158.288 200.594 156.68 200.976 153.696C201.446 150.204 202.253 146.766 203.386 143.43C204.791 139.357 206.43 135.367 208.293 131.483L209.742 128.417C210.219 127.412 210.692 126.413 211.215 125.468C212.225 123.65 213.335 121.891 214.54 120.197C215.682 118.572 216.823 117.071 217.9 115.673C218.978 114.275 220.02 112.997 221.006 111.871C222.563 110.087 224.258 108.43 226.077 106.915C226.72 106.373 227.232 105.973 227.582 105.704L227.985 105.4C228.073 105.333 228.122 105.301 228.122 105.301C228.083 105.341 228.04 105.379 227.995 105.414L227.607 105.733C227.253 106.012 226.759 106.423 226.126 106.972C224.329 108.511 222.65 110.184 221.105 111.977C220.123 113.106 219.098 114.392 218.024 115.79C216.95 117.188 215.816 118.693 214.685 120.317C213.486 122.007 212.382 123.762 211.378 125.574C210.859 126.516 210.389 127.507 209.912 128.516C209.435 129.525 208.951 130.545 208.463 131.582C206.601 135.459 204.962 139.44 203.552 143.504C202.414 146.828 201.596 150.252 201.106 153.732C200.711 156.702 200.569 158.309 200.64 159.98" fill="#E0E0E0"/>
<path d="M211.265 125.449C211.214 125.272 211.181 125.09 211.166 124.907C211.113 124.553 211.053 124.05 210.986 123.424C210.848 122.171 210.721 120.429 210.583 118.51C210.445 116.591 210.286 114.86 210.123 113.611C210.042 112.984 209.975 112.482 209.918 112.131C209.882 111.952 209.862 111.769 209.858 111.586C209.92 111.76 209.964 111.939 209.993 112.12C210.067 112.474 210.159 112.967 210.254 113.593C210.452 114.839 210.632 116.577 210.77 118.496C210.908 120.415 211.028 122.121 211.123 123.413C211.173 124.015 211.215 124.514 211.243 124.9C211.266 125.082 211.273 125.265 211.265 125.449Z" fill="#E0E0E0"/>
<path d="M227.67 122.975C227.615 122.991 227.558 122.998 227.5 122.996L227.016 123.024C226.596 123.042 225.988 123.07 225.25 123.131C223.752 123.237 221.685 123.456 219.416 123.803C217.148 124.15 215.109 124.557 213.646 124.893C212.911 125.056 212.321 125.205 211.911 125.308L211.441 125.421C211.388 125.439 211.332 125.448 211.275 125.449C211.275 125.449 211.325 125.421 211.431 125.386L211.894 125.237C212.297 125.113 212.883 124.943 213.614 124.762C215.074 124.391 217.116 123.966 219.388 123.616C221.66 123.265 223.734 123.067 225.243 122.996C225.992 122.954 226.603 122.946 227.009 122.95H227.497C227.556 122.95 227.614 122.958 227.67 122.975Z" fill="#E0E0E0"/>
<path d="M203.58 143.134C203.537 143.071 203.503 143.003 203.477 142.932L203.22 142.341C203 141.824 202.697 141.066 202.336 140.128C201.63 138.255 200.697 135.636 199.718 132.733C198.739 129.83 197.842 127.204 197.16 125.317C196.807 124.393 196.538 123.635 196.337 123.087C196.245 122.839 196.171 122.637 196.11 122.481C196.079 122.411 196.058 122.337 196.047 122.262C196.085 122.327 196.118 122.396 196.146 122.467L196.404 123.058C196.623 123.575 196.927 124.333 197.287 125.267C197.994 127.143 198.93 129.763 199.905 132.666C200.88 135.569 201.781 138.195 202.474 140.079C202.827 141.002 203.096 141.76 203.301 142.309C203.393 142.557 203.463 142.758 203.523 142.914C203.548 142.986 203.567 143.059 203.58 143.134Z" fill="#E0E0E0"/>
<path d="M225.472 136.949C225.402 136.981 225.328 137.006 225.253 137.024L224.617 137.208L222.271 137.866C220.289 138.425 217.565 139.233 214.554 140.132C211.544 141.031 208.809 141.817 206.816 142.344C205.82 142.61 205.014 142.815 204.452 142.946L203.806 143.095C203.732 143.116 203.656 143.129 203.58 143.134C203.65 143.101 203.723 143.076 203.799 143.059L204.435 142.875L206.781 142.217C208.763 141.657 211.487 140.85 214.498 139.951C217.508 139.052 220.243 138.266 222.236 137.739C223.228 137.473 224.038 137.268 224.599 137.137L225.246 136.988C225.32 136.967 225.396 136.953 225.472 136.949Z" fill="#E0E0E0"/>
<path d="M183.733 37.4344H231.433C231.433 37.4344 227.228 29.7349 214.946 30.8606C203.216 31.9226 202.619 27.0764 196.654 26.4781C190.69 25.8799 185.719 30.4642 183.733 37.4344Z" fill="#EBEBEB"/>
<path d="M151.601 50.7705H177.748C177.748 50.7705 175.433 46.5543 168.702 47.1668C162.272 47.7544 161.947 45.0923 158.678 44.7666C155.41 44.441 152.689 46.9508 151.601 50.7705Z" fill="#EBEBEB"/>
<path d="M225.921 159.533C225.921 159.583 184.09 159.625 132.503 159.625C80.9168 159.625 39.0786 159.583 39.0786 159.533C39.0786 159.484 80.9133 159.441 132.5 159.441C184.087 159.441 225.921 159.48 225.921 159.533Z" fill="#263238"/>
<path d="M193.719 126.491H73.4688C73.0124 126.491 72.5747 126.309 72.252 125.986C71.9293 125.663 71.748 125.224 71.748 124.767C71.748 124.31 71.9293 123.871 72.252 123.548C72.5747 123.225 73.0124 123.043 73.4688 123.043H193.719C194.175 123.043 194.613 123.225 194.935 123.548C195.258 123.871 195.439 124.31 195.439 124.767C195.439 125.224 195.258 125.663 194.935 125.986C194.613 126.309 194.175 126.491 193.719 126.491Z" fill="#455A64"/>
<path d="M88.9236 126.492H85.521V159.545H88.9236V126.492Z" fill="#455A64"/>
<path d="M172.911 126.492H169.508V159.545H172.911V126.492Z" fill="#455A64"/>
<path d="M151.817 65.0764C151.12 64.5942 150.299 64.3242 149.452 64.2988C148.606 64.2735 147.77 64.4938 147.046 64.9334C146.321 65.3729 145.739 66.0129 145.369 66.7763C145 67.5397 144.858 68.3938 144.962 69.2359C145.072 70.1103 145.439 70.9882 145.216 71.8413C144.796 73.4343 142.552 74.0574 142.255 75.6787C142.139 76.3194 142.365 76.9637 142.538 77.5903C142.711 78.2169 142.817 78.9249 142.492 79.4877C142.255 79.9055 141.821 80.1674 141.482 80.5073C140.386 81.6011 140.422 83.5198 141.323 84.7553C142.224 85.9907 143.86 86.6031 145.404 86.5536C146.954 86.4401 148.448 85.928 149.743 85.0668" fill="#263238"/>
<path d="M150.375 65.6153C150.629 64.8779 151.068 64.2184 151.651 63.7007C152.233 63.1829 152.939 62.8243 153.7 62.6594C155.209 62.3054 157.081 61.8028 158.463 62.5072C159.325 62.9497 160.152 63.5904 160.491 64.5002C160.894 65.5622 160.276 67.5871 159.965 68.6987C159.654 69.8102 159.424 71.0705 160.035 72.0475C160.647 73.0245 161.837 73.3644 162.586 74.1963C163.084 74.7929 163.33 75.5604 163.272 76.3357C163.214 77.111 162.856 77.8332 162.275 78.3487C163.611 78.2708 164.749 79.6337 164.689 80.9718C164.629 82.31 163.668 83.4852 162.477 84.0906C161.286 84.6959 159.908 84.8234 158.573 84.8269C156.91 84.8307 155.252 84.6587 153.626 84.3136C152.29 84.0304 150.898 83.5808 150.029 82.5259C149.23 81.5559 149.008 80.232 149.008 78.9859C149.008 74.5361 151.329 70.1359 150.319 65.7959" fill="#263238"/>
<path d="M158.347 98.619L160.06 103.993C160.386 105.089 161.007 106.073 161.856 106.837C162.704 107.602 163.747 108.117 164.869 108.326L176.314 110.45L179.427 110.351L176.314 106.499L167.714 103.561C167.301 103.471 166.921 103.27 166.614 102.979C166.308 102.688 166.087 102.319 165.975 101.911L162.534 94.4453L158.198 97.1109L158.347 98.619Z" fill="#B78876"/>
<path d="M141.475 93.3623C141.634 94.1942 144.054 100.248 144.054 100.248C144.054 100.248 153.474 97.0616 153.35 96.5766C153.248 96.1978 151.439 90.1373 149.269 86.7814C148.861 86.1333 148.307 85.5899 147.652 85.1946C146.997 84.7994 146.258 84.5633 145.496 84.5052C145.072 84.4769 144.153 84.9194 143.902 85.061C141.92 86.1832 140.234 86.9372 141.475 93.3623Z" fill="#455A64"/>
<path d="M154.76 81.632C159.021 82.1099 159.707 85.0092 161.699 87.866L164.572 93.176L159.272 96.4221L159.456 104.564L161.971 112.352L142.096 110.479L143.93 103.81L141.284 93.3388C141.082 91.9228 140.535 89.2572 140.906 87.8553C142.061 83.4693 146.616 82.1913 149.739 81.3701C150.386 81.2037 153.502 81.2143 154.043 81.3453" fill="#FBDEF5"/>
<path d="M141.648 93.278L141.69 93.3913C141.715 93.4727 141.754 93.586 141.8 93.7276C141.895 94.0285 142.033 94.4604 142.206 95.0127C142.56 96.1313 143.051 97.7278 143.655 99.6642L143.588 99.6323L152.421 96.3614L152.64 96.2693L152.605 96.3437C152.069 94.3494 151.375 92.401 150.531 90.5168C149.877 88.9666 148.991 87.5256 147.902 86.2441C147.476 85.7618 146.974 85.3539 146.414 85.0369C145.995 84.7949 145.524 84.6554 145.04 84.6298C144.947 84.6246 144.854 84.6246 144.761 84.6298L144.513 84.6546L144.305 84.6794L144.135 84.7254L143.902 84.7856L143.821 84.8033C143.845 84.7889 143.871 84.7793 143.899 84.775L144.128 84.7006L144.298 84.6511C144.368 84.6359 144.439 84.6253 144.51 84.6192L144.757 84.5873C144.853 84.5803 144.948 84.5803 145.043 84.5873C145.539 84.6049 146.024 84.7408 146.457 84.9838C147.026 85.2985 147.538 85.7066 147.973 86.191C149.079 87.4713 149.981 88.9164 150.644 90.4744C151.497 92.3627 152.195 94.3173 152.732 96.3189V96.372L152.683 96.3932L152.46 96.4853C149.146 97.7278 146.072 98.8323 143.602 99.735L143.552 99.7562V99.7032C142.969 97.7597 142.492 96.1631 142.139 95.0374C141.973 94.4816 141.846 94.0462 141.757 93.7418C141.715 93.6002 141.683 93.4869 141.659 93.3878C141.652 93.3515 141.649 93.3148 141.648 93.278Z" fill="#263238"/>
<path d="M152.287 95.1381C152.287 95.1699 150.255 95.8779 147.725 96.7169C145.195 97.5559 143.132 98.2108 143.132 98.1754C143.132 98.14 145.164 97.4355 147.697 96.5966C150.23 95.7576 152.266 95.1027 152.287 95.1381Z" fill="#263238"/>
<g opacity="0.3">
<path d="M144.086 99.5185C144.469 101.252 144.966 102.959 145.573 104.627C145.954 105.688 146.495 106.683 147.178 107.579C148.187 108.746 149.535 109.569 151.032 109.933C152.522 110.294 154.066 110.37 155.583 110.156L148.019 105.873L146.005 98.8672L144.086 99.5185Z" fill="black"/>
</g>
<path d="M144.955 99.1214L146.821 105.239C147.143 106.34 147.763 107.331 148.611 108.102C149.46 108.874 150.504 109.396 151.63 109.61L163.074 111.788L166.187 111.688L163.074 107.777L154.47 104.803C154.056 104.71 153.675 104.505 153.369 104.209C153.063 103.914 152.844 103.54 152.735 103.129L151.142 96.9727L144.955 99.1214Z" fill="#B78876"/>
<path d="M159.473 104.352C159.443 104.161 159.425 103.969 159.42 103.775C159.403 103.368 159.374 102.837 159.343 102.193C159.286 100.858 159.222 99.007 159.159 96.9786C159.095 94.9501 159.053 93.0846 159.028 91.7606C159.028 91.1163 159.028 90.5853 159.01 90.1782C159.002 89.9845 159.008 89.7905 159.028 89.5977C159.063 89.788 159.081 89.9811 159.081 90.1747C159.102 90.5818 159.127 91.1128 159.159 91.7571C159.215 93.0916 159.283 94.9431 159.343 96.9715C159.403 98.9999 159.452 100.865 159.473 102.189C159.473 102.834 159.473 103.368 159.495 103.772C159.506 103.966 159.499 104.16 159.473 104.352Z" fill="#263238"/>
<g opacity="0.3">
<path d="M158.212 99.1197C158.421 99.2542 157.884 100.454 156.771 101.598C155.658 102.741 154.477 103.307 154.34 103.099C154.202 102.89 155.075 102.037 156.106 100.953C157.138 99.8701 157.993 98.9816 158.212 99.1197Z" fill="black"/>
</g>
<path d="M163.805 91.7653C163.095 92.2869 162.35 92.76 161.576 93.1813C160.831 93.6556 160.055 94.0767 159.251 94.4415C160.705 93.4426 162.227 92.5471 163.805 91.7617V91.7653Z" fill="#263238"/>
<path d="M151.135 92.1262C151.135 92.1439 150.993 92.105 150.75 92.1262C150.402 92.1586 150.068 92.2805 149.781 92.4802C149.353 92.7769 148.965 93.1279 148.626 93.5245C148.205 94.0396 147.644 94.4219 147.011 94.6255C146.305 94.7848 145.633 94.537 145.072 94.3777C144.589 94.1927 144.069 94.1283 143.556 94.1901C143.215 94.2496 142.908 94.4307 142.69 94.6998C142.62 94.8067 142.558 94.9192 142.506 95.0361C142.506 95.0361 142.506 94.9972 142.506 94.9299C142.532 94.8334 142.573 94.7414 142.626 94.6573C142.837 94.3518 143.157 94.1389 143.52 94.0626C144.056 93.9773 144.604 94.0284 145.114 94.2113C145.679 94.3671 146.319 94.5936 146.962 94.4485C147.561 94.2499 148.093 93.8883 148.499 93.4042C148.853 93.0053 149.26 92.6563 149.707 92.367C150.017 92.1701 150.376 92.0646 150.743 92.0625C150.84 92.062 150.938 92.0751 151.032 92.1015C151.103 92.1085 151.138 92.1192 151.135 92.1262Z" fill="#FAFAFA"/>
<path d="M159.353 90.8247C159.238 90.7921 159.12 90.7719 159 90.7645C158.677 90.7883 158.37 90.912 158.12 91.1185C157.951 91.2353 157.767 91.384 157.562 91.522C157.333 91.6737 157.074 91.7717 156.802 91.8088C156.184 91.8608 155.563 91.7381 155.011 91.4548C154.483 91.1744 153.939 90.9261 153.382 90.7114C152.934 90.5448 152.444 90.5299 151.986 90.6689C151.676 90.7591 151.403 90.9479 151.209 91.207C151.082 91.3911 151.05 91.522 151.032 91.5185C151.015 91.515 151.032 91.4831 151.032 91.4229C151.054 91.3331 151.09 91.2471 151.138 91.168C151.322 90.874 151.604 90.6545 151.933 90.5485C152.416 90.3797 152.942 90.3797 153.424 90.5485C153.992 90.7558 154.545 91.0031 155.078 91.2884C155.598 91.5575 156.182 91.6799 156.767 91.6424C157.237 91.5439 157.674 91.3257 158.035 91.0087C158.31 90.8009 158.645 90.6912 158.989 90.6972C159.083 90.7022 159.175 90.7275 159.258 90.7716C159.314 90.7963 159.353 90.8176 159.353 90.8247Z" fill="#FAFAFA"/>
<path d="M158.894 92.5923C159.118 92.5351 159.335 92.4532 159.541 92.348C160.002 92.0263 160.399 91.6203 160.71 91.1515C161.041 90.661 161.506 90.2763 162.049 90.0435C162.161 89.9967 162.281 89.9727 162.403 89.9727C162.524 89.9727 162.644 89.9967 162.756 90.0435C162.526 90.0508 162.299 90.0926 162.081 90.1674C161.582 90.4249 161.156 90.8033 160.841 91.2683C160.518 91.7563 160.091 92.1662 159.59 92.4684C159.381 92.5935 159.133 92.6376 158.894 92.5923Z" fill="#FAFAFA"/>
<path d="M190.404 151.612L190.348 148.008L183.61 148.072L183.638 153.346L184.055 153.367C185.917 153.452 193.521 153.675 194.761 153.286C196.143 152.851 190.404 151.612 190.404 151.612Z" fill="#FBDEF5"/>
<g opacity="0.4">
<path d="M193.21 152.32C193.21 152.32 195.22 152.88 194.977 153.212C194.733 153.545 187.037 153.612 183.642 153.347V153.195H192.616C192.616 153.195 192.818 152.338 193.21 152.32Z" fill="white"/>
</g>
<path d="M183.539 153.19H183.656L183.988 153.208L185.214 153.25C186.249 153.279 187.687 153.3 189.26 153.286C190.832 153.271 192.27 153.233 193.302 153.187L194.528 153.126L194.86 153.102C194.899 153.107 194.938 153.107 194.977 153.102H194.86H194.507L193.284 153.137C192.249 153.165 190.811 153.201 189.242 153.211C187.673 153.222 186.232 153.211 185.2 153.211H183.974H183.521L183.539 153.19Z" fill="#263238"/>
<path d="M192.62 153.285C192.672 153.082 192.747 152.884 192.843 152.697C192.962 152.525 193.1 152.367 193.256 152.227C193.048 152.304 192.877 152.457 192.775 152.655C192.648 152.839 192.593 153.063 192.62 153.285Z" fill="#263238"/>
<path d="M190.624 152.305C190.624 152.305 190.737 152.199 190.832 152.043C190.927 151.888 190.995 151.75 190.973 151.739C190.952 151.728 190.86 151.845 190.765 152.001C190.669 152.157 190.606 152.291 190.624 152.305Z" fill="#263238"/>
<path d="M190.094 152.018C190.094 152.035 190.214 151.965 190.33 151.858C190.447 151.752 190.525 151.653 190.511 151.635C190.496 151.618 190.39 151.692 190.274 151.798C190.157 151.904 190.062 152.004 190.094 152.018Z" fill="#263238"/>
<path d="M189.74 151.384C189.74 151.409 189.896 151.427 190.094 151.427C190.213 151.439 190.333 151.426 190.447 151.388C190.334 151.345 190.213 151.331 190.094 151.345C189.974 151.332 189.854 151.345 189.74 151.384Z" fill="#263238"/>
<path d="M189.602 150.941C189.724 151.005 189.858 151.042 189.996 151.051C190.133 151.06 190.271 151.041 190.401 150.995C190.134 150.979 189.868 150.961 189.602 150.941Z" fill="#263238"/>
<path d="M190.846 151.714C190.99 151.738 191.137 151.738 191.281 151.714C191.437 151.693 191.591 151.657 191.74 151.608C191.831 151.581 191.919 151.544 192.002 151.498C192.053 151.467 192.091 151.418 192.108 151.36C192.114 151.327 192.111 151.294 192.099 151.263C192.087 151.233 192.067 151.206 192.04 151.186C191.874 151.107 191.686 151.088 191.507 151.133C191.329 151.178 191.171 151.283 191.062 151.431C190.995 151.516 190.948 151.615 190.924 151.721C190.915 151.759 190.915 151.799 190.924 151.838C190.967 151.709 191.033 151.589 191.118 151.484C191.21 151.37 191.333 151.285 191.472 151.239C191.555 151.21 191.644 151.198 191.733 151.204C191.821 151.209 191.908 151.232 191.987 151.271C192.058 151.321 192.03 151.402 191.956 151.448C191.878 151.491 191.796 151.527 191.712 151.554C191.567 151.605 191.418 151.646 191.267 151.675C191.012 151.696 190.846 151.7 190.846 151.714Z" fill="#263238"/>
<path d="M190.959 151.737C191.012 151.645 191.029 151.537 191.005 151.433C190.992 151.32 190.951 151.211 190.885 151.118C190.849 151.055 190.797 151.002 190.736 150.964C190.674 150.926 190.604 150.903 190.532 150.898C190.488 150.909 190.45 150.935 190.425 150.973C190.4 151.01 190.39 151.056 190.397 151.1C190.41 151.17 190.436 151.236 190.475 151.295C190.533 151.39 190.601 151.478 190.68 151.557C190.748 151.634 190.835 151.694 190.931 151.73C190.931 151.73 190.843 151.652 190.723 151.514C190.652 151.435 190.591 151.348 190.539 151.256C190.479 151.164 190.436 151.001 190.539 150.98C190.641 150.959 190.758 151.075 190.825 151.164C190.886 151.247 190.928 151.342 190.949 151.444C190.961 151.541 190.965 151.639 190.959 151.737Z" fill="#263238"/>
<path d="M183.663 151.344C183.663 151.344 183.853 151.323 184.161 151.344C184.558 151.385 184.935 151.537 185.249 151.783C185.568 152.029 185.812 152.358 185.956 152.735C186.058 153.025 186.072 153.22 186.086 153.216C186.093 153.172 186.093 153.127 186.086 153.082C186.072 152.962 186.046 152.843 186.009 152.728C185.885 152.332 185.644 151.983 185.317 151.727C184.991 151.471 184.595 151.32 184.182 151.294C184.059 151.282 183.934 151.282 183.811 151.294C183.709 151.326 183.663 151.337 183.663 151.344Z" fill="#263238"/>
<path d="M184.338 148.527C184.292 148.987 184.275 149.45 184.288 149.911C184.275 150.374 184.287 150.838 184.324 151.299C184.369 150.838 184.386 150.375 184.373 149.911C184.386 149.45 184.374 148.988 184.338 148.527Z" fill="#263238"/>
<path d="M186.914 152.605C187.237 152.677 187.568 152.707 187.899 152.694C188.23 152.709 188.562 152.681 188.885 152.609C188.885 152.584 188.443 152.609 187.899 152.609C187.355 152.609 186.914 152.577 186.914 152.605Z" fill="#263238"/>
<path d="M185.603 152.612C185.603 152.63 185.638 152.704 185.684 152.807C185.73 152.91 185.754 152.995 185.779 152.995C185.804 152.995 185.811 152.889 185.758 152.772C185.705 152.655 185.617 152.595 185.603 152.612Z" fill="#263238"/>
<path d="M185.097 152C185.097 152 185.125 152.085 185.196 152.156C185.267 152.227 185.337 152.269 185.352 152.255C185.366 152.241 185.323 152.166 185.253 152.096C185.182 152.025 185.115 151.982 185.097 152Z" fill="#263238"/>
<path d="M184.384 151.717C184.384 151.742 184.479 151.738 184.578 151.774C184.677 151.809 184.748 151.858 184.765 151.844C184.783 151.83 184.726 151.735 184.603 151.696C184.479 151.657 184.377 151.699 184.384 151.717Z" fill="#263238"/>
<path d="M183.875 151.59C183.875 151.611 183.906 151.647 183.963 151.668C184.019 151.689 184.069 151.689 184.079 151.668C184.09 151.647 184.048 151.611 183.991 151.59C183.935 151.569 183.882 151.569 183.875 151.59Z" fill="#263238"/>
<g opacity="0.3">
<path d="M183.67 151.164L190.401 150.994L190.383 150.18L183.62 150.286L183.67 151.164Z" fill="black"/>
</g>
<path d="M163.074 112.66L182.762 113.014C184.288 113.043 185.751 113.624 186.883 114.649C188.015 115.675 188.738 117.075 188.921 118.593L192.825 150.382H182.133L178.865 122.926H163.339L163.074 112.66Z" fill="#263238"/>
<path d="M192.69 148.355C192.69 148.404 190.348 148.461 187.461 148.478C184.574 148.496 182.228 148.478 182.228 148.422C182.228 148.365 184.567 148.312 187.457 148.294C190.348 148.277 192.69 148.305 192.69 148.355Z" fill="#455A64"/>
<path d="M144.616 123.046C136.758 120.441 142.121 109.898 142.121 109.898L176.469 113.134C177.125 113.129 177.775 113.255 178.382 113.503C178.989 113.751 179.541 114.117 180.006 114.58C180.471 115.043 180.84 115.594 181.092 116.201C181.343 116.807 181.473 117.458 181.472 118.115C181.473 118.769 181.344 119.416 181.095 120.02C180.845 120.624 180.479 121.173 180.018 121.635C179.557 122.098 179.009 122.464 178.406 122.714C177.803 122.964 177.157 123.092 176.504 123.092L144.616 123.046Z" fill="#263238"/>
<path d="M155.092 111.873L155.191 111.129L163.982 110.782L168.296 99.8828L184.733 101.001L179.186 113.101L155.092 111.873Z" fill="#455A64"/>
<path d="M174.766 106.952C174.675 107.097 174.543 107.212 174.388 107.281C174.232 107.351 174.059 107.373 173.891 107.344C173.722 107.315 173.567 107.237 173.443 107.119C173.319 107.002 173.233 106.85 173.195 106.683C173.157 106.516 173.17 106.342 173.231 106.183C173.292 106.023 173.4 105.885 173.539 105.787C173.678 105.688 173.844 105.633 174.015 105.629C174.185 105.625 174.353 105.672 174.497 105.763C174.69 105.885 174.827 106.079 174.877 106.302C174.927 106.525 174.887 106.759 174.766 106.952Z" fill="white"/>
<path d="M151.764 111.657C151.798 111.651 151.832 111.651 151.866 111.657H152.166L153.315 111.703L157.555 111.901L171.49 112.609C172.169 112.641 172.844 112.698 173.504 112.705C174.165 112.712 174.822 112.74 175.465 112.779C176.108 112.818 176.741 112.861 177.356 112.924C177.967 112.964 178.57 113.083 179.151 113.278C179.705 113.475 180.214 113.783 180.645 114.185C181.045 114.572 181.355 115.044 181.553 115.565C181.727 116.047 181.846 116.547 181.907 117.055C181.974 117.524 182.007 117.998 182.005 118.471C182.018 119.288 181.857 120.098 181.532 120.847C181.277 121.409 180.895 121.904 180.415 122.291C180.112 122.533 179.767 122.717 179.398 122.836C179.269 122.878 179.137 122.904 179.002 122.914C179.002 122.914 179.14 122.886 179.387 122.801C179.745 122.672 180.078 122.48 180.37 122.234C180.826 121.849 181.188 121.365 181.43 120.818C181.738 120.081 181.888 119.286 181.868 118.486C181.865 118.021 181.828 117.557 181.758 117.098C181.697 116.601 181.578 116.113 181.405 115.643C181.216 115.143 180.917 114.692 180.532 114.323C180.114 113.94 179.624 113.647 179.09 113.459C178.52 113.264 177.926 113.145 177.324 113.105C176.713 113.045 176.084 113.002 175.441 112.967C174.797 112.931 174.147 112.907 173.487 112.896C172.826 112.885 172.151 112.832 171.469 112.8L157.534 112.022L153.294 111.763L152.145 111.685L151.848 111.661L151.764 111.657Z" fill="#455A64"/>
<path d="M147.562 66.2983L147.584 67.3603L147.796 83.1947C147.82 85.0355 151.59 86.94 153.555 86.8975C155.537 86.8551 154.831 84.7417 154.968 83.0035C155.071 81.6726 155.087 80.3364 155.018 79.0033C155.018 79.0033 157.523 78.5856 158.042 75.3076C158.3 73.6792 158.219 71.0065 158.081 68.8223C158.052 68.3564 157.93 67.9011 157.72 67.4839C157.511 67.0668 157.22 66.6964 156.864 66.3951C156.508 66.0938 156.095 65.8677 155.65 65.7306C155.204 65.5935 154.736 65.5482 154.272 65.5974L147.562 66.2983Z" fill="#B78876"/>
<path d="M157.233 70.9309C157.234 71.0408 157.192 71.1468 157.117 71.2261C157.041 71.3055 156.937 71.352 156.827 71.3557C156.774 71.36 156.72 71.3536 156.669 71.3367C156.619 71.3199 156.572 71.293 156.532 71.2577C156.491 71.2224 156.459 71.1793 156.435 71.1311C156.412 71.0828 156.399 71.0304 156.396 70.9769C156.395 70.8676 156.436 70.7621 156.512 70.6828C156.587 70.6036 156.69 70.5567 156.799 70.5521C156.852 70.5478 156.906 70.5542 156.957 70.571C157.008 70.5878 157.055 70.6146 157.096 70.6499C157.136 70.6852 157.169 70.7282 157.193 70.7764C157.217 70.8247 157.23 70.8772 157.233 70.9309Z" fill="#263238"/>
<path d="M157.52 70.2043C157.467 70.2574 157.149 70.0237 156.696 70.0237C156.244 70.0237 155.915 70.2503 155.866 70.1972C155.817 70.1441 155.894 70.0733 156.039 69.9671C156.234 69.8315 156.466 69.7598 156.703 69.7618C156.938 69.76 157.168 69.8345 157.357 69.9742C157.498 70.0945 157.544 70.1795 157.52 70.2043Z" fill="#263238"/>
<path d="M152.834 70.9309C152.836 71.0405 152.795 71.1464 152.72 71.2259C152.645 71.3054 152.541 71.352 152.432 71.3557C152.378 71.3605 152.324 71.3544 152.273 71.3378C152.222 71.3212 152.174 71.2944 152.134 71.2591C152.093 71.2237 152.06 71.1805 152.037 71.132C152.013 71.0835 152 71.0307 151.997 70.9769C151.996 70.8676 152.038 70.7621 152.113 70.6828C152.188 70.6036 152.291 70.5567 152.4 70.5521C152.453 70.5478 152.507 70.5542 152.558 70.571C152.609 70.5878 152.656 70.6146 152.697 70.6499C152.737 70.6852 152.77 70.7282 152.794 70.7764C152.818 70.8247 152.831 70.8772 152.834 70.9309Z" fill="#263238"/>
<path d="M153.082 70.2863C153.029 70.3394 152.711 70.1058 152.258 70.1058C151.806 70.1058 151.477 70.3323 151.428 70.2792C151.379 70.2261 151.456 70.1553 151.601 70.0491C151.797 69.9131 152.03 69.8413 152.269 69.8438C152.504 69.843 152.733 69.9174 152.923 70.0562C153.06 70.1624 153.106 70.2615 153.082 70.2863Z" fill="#263238"/>
<path d="M154.721 73.6326C154.958 73.5581 155.204 73.5141 155.453 73.5017C155.569 73.5017 155.679 73.4663 155.696 73.3884C155.709 73.2651 155.682 73.141 155.619 73.0344C155.513 72.7547 155.396 72.4609 155.265 72.1529C154.949 71.4086 154.693 70.6404 154.499 69.8555C154.875 70.573 155.193 71.3201 155.449 72.0892L155.774 72.9707C155.847 73.11 155.868 73.2704 155.834 73.4238C155.817 73.4647 155.791 73.5012 155.758 73.5306C155.725 73.5601 155.686 73.5816 155.643 73.5937C155.58 73.6122 155.515 73.6217 155.449 73.622C155.208 73.6559 154.963 73.6595 154.721 73.6326Z" fill="#263238"/>
<path d="M155.032 78.9921C153.492 79.0152 151.975 78.6096 150.651 77.8203C150.651 77.8203 151.711 80.0718 154.986 79.7638L155.032 78.9921Z" fill="#AA6550"/>
<path d="M154.53 74.7326C154.444 74.6239 154.332 74.5392 154.204 74.4865C154.076 74.4339 153.936 74.415 153.799 74.4317C153.699 74.4397 153.603 74.468 153.515 74.5149C153.426 74.5618 153.349 74.6262 153.287 74.7043C153.226 74.7799 153.189 74.8725 153.183 74.9695C153.177 75.0664 153.201 75.163 153.251 75.2459C153.324 75.3264 153.419 75.3834 153.524 75.4099C153.629 75.4363 153.739 75.431 153.841 75.3946C154.056 75.3168 154.253 75.1964 154.421 75.0406C154.47 75.003 154.513 74.9575 154.548 74.9061C154.565 74.8811 154.575 74.8515 154.575 74.8211C154.575 74.7907 154.565 74.7611 154.548 74.7361" fill="#AA6550"/>
<path d="M153.393 73.9531C153.463 73.9531 153.467 74.4416 153.884 74.7886C154.301 75.1355 154.827 75.0859 154.831 75.1426C154.834 75.1992 154.714 75.2381 154.477 75.2452C154.191 75.2481 153.912 75.1504 153.689 74.9691C153.474 74.7924 153.337 74.5381 153.308 74.2611C153.304 74.0735 153.347 73.9531 153.393 73.9531Z" fill="#263238"/>
<path d="M150.223 64.7828C150.223 64.7438 150.276 64.7226 150.305 64.7332C150.333 64.7438 150.34 64.7863 150.326 64.8252C150.312 64.8642 150.273 64.8854 150.245 64.8748C150.23 64.8653 150.219 64.8504 150.215 64.8331C150.211 64.8159 150.214 64.7978 150.223 64.7828Z" fill="#263238"/>
<path d="M147.393 81.8018C147.873 81.6188 148.308 81.3343 148.668 80.9678C149.029 80.6013 149.306 80.1613 149.481 79.6778C149.824 78.7043 149.849 77.6468 149.552 76.6582C149.421 76.2015 149.237 75.7024 149.439 75.2741C149.624 74.9845 149.864 74.7343 150.146 74.5377C150.707 73.9942 151.04 73.2556 151.075 72.4739C151.103 71.6961 150.961 70.9216 150.658 70.2048C150.502 69.8083 150.305 69.3764 150.456 68.9729C150.587 68.6951 150.782 68.4524 151.025 68.2649C151.492 67.829 151.877 67.3136 152.163 66.7427C152.284 66.5513 152.36 66.3354 152.387 66.1107C152.414 65.8859 152.391 65.658 152.319 65.4435C152.082 64.9514 151.463 64.7957 150.905 64.7567C149.612 64.6576 148.181 64.9443 147.372 65.9497C146.633 66.8489 146.549 68.1056 146.496 69.2702C146.333 72.9412 146.171 76.6476 146.803 80.269" fill="#263238"/>
<path d="M159.353 65.9338C159.174 66.0464 158.987 66.148 158.795 66.2382C158.627 66.3628 158.469 66.5001 158.322 66.6489C158.24 66.7303 158.149 66.8223 158.067 66.9144C158.043 66.9392 158.032 66.9639 158.007 66.9887L157.915 67.0808L157.686 67.2967C157.465 67.4995 157.229 67.6842 156.979 67.8489C156.609 68.0991 156.198 68.2802 155.764 68.3835C154.928 68.5647 154.057 68.4574 153.29 68.079C152.759 67.8228 152.292 67.4488 151.926 66.9852C151.372 66.2418 151.283 65.64 151.541 65.3108C151.799 64.9815 152.442 65.0311 153.163 65.2081C153.512 65.2996 153.866 65.3705 154.223 65.4205C154.506 65.462 154.794 65.4549 155.075 65.3993C155.211 65.3658 155.344 65.3184 155.47 65.2577C155.654 65.1762 155.884 65.0523 156.145 64.9284C156.279 64.8647 156.417 64.801 156.569 64.7444L156.795 64.6629C156.877 64.6346 156.968 64.6028 157.053 64.5815C157.374 64.5009 157.706 64.4746 158.036 64.5036C158.297 64.5154 158.552 64.5849 158.783 64.7074C159.014 64.8298 159.215 65.002 159.371 65.2116C159.573 65.5444 159.491 65.8028 159.353 65.9338Z" fill="#263238"/>
<path d="M153.198 68.5161C153.152 68.64 152.704 68.5799 152.174 68.6436C151.644 68.7073 151.216 68.8524 151.145 68.7427C151.114 68.6896 151.188 68.5763 151.361 68.456C151.59 68.3059 151.852 68.2136 152.124 68.1869C152.395 68.1563 152.67 68.189 152.926 68.2825C153.12 68.3604 153.216 68.4595 153.198 68.5161Z" fill="#263238"/>
<path d="M157.354 68.8942C157.272 68.9968 156.961 68.8942 156.587 68.8942C156.212 68.8942 155.898 68.9614 155.824 68.8552C155.792 68.8021 155.841 68.6995 155.983 68.6004C156.169 68.485 156.385 68.4272 156.603 68.4342C156.822 68.4411 157.034 68.5124 157.212 68.6393C157.343 68.7384 157.389 68.8446 157.354 68.8942Z" fill="#263238"/>
<path d="M60.7486 116.73L64.2395 115.852L65.9178 122.39L60.8263 123.728L60.6956 123.328C60.1338 121.558 57.9572 114.245 58.0102 112.946C58.0738 111.508 60.7486 116.73 60.7486 116.73Z" fill="#FBDEF5"/>
<g opacity="0.4">
<path d="M59.36 114.195C59.36 114.195 58.3 112.393 58.0421 112.719C57.7842 113.045 59.7063 120.507 60.8405 123.728L60.9854 123.679L58.6534 114.992C58.6534 114.992 59.4272 114.581 59.36 114.195Z" fill="white"/>
</g>
<path d="M60.9993 123.783C60.9822 123.748 60.9691 123.712 60.9604 123.674C60.9286 123.578 60.8933 123.472 60.858 123.355C60.759 123.036 60.6389 122.647 60.5046 122.18C60.2114 121.185 59.8227 119.808 59.427 118.286C59.0312 116.764 58.7203 115.358 58.48 114.346L58.2221 113.146C58.2009 113.022 58.1797 112.916 58.1585 112.816C58.1373 112.717 58.1408 112.703 58.1408 112.703C58.1572 112.738 58.169 112.775 58.1762 112.813C58.1974 112.912 58.2256 113.018 58.2539 113.139C58.3316 113.464 58.4235 113.847 58.5366 114.332C58.7733 115.34 59.1125 116.735 59.5047 118.264C59.8969 119.794 60.282 121.178 60.5647 122.176C60.6954 122.64 60.8085 123.036 60.8968 123.355C60.9286 123.475 60.9604 123.582 60.9852 123.681C60.9931 123.714 60.9978 123.749 60.9993 123.783Z" fill="#263238"/>
<path d="M58.5508 115.022C58.734 114.924 58.9059 114.805 59.0631 114.668C59.203 114.51 59.3217 114.334 59.4164 114.145C59.3811 114.363 59.2799 114.566 59.1265 114.725C58.973 114.885 58.7746 114.993 58.5578 115.037L58.5508 115.022Z" fill="#263238"/>
<path d="M60.0278 116.697C60.0278 116.697 60.0985 116.563 60.2222 116.428C60.3458 116.294 60.4624 116.198 60.4801 116.212C60.4978 116.226 60.4094 116.35 60.2822 116.485C60.155 116.619 60.042 116.715 60.0278 116.697Z" fill="#263238"/>
<path d="M60.4412 117.175C60.4236 117.175 60.4624 117.041 60.5366 116.903C60.6108 116.765 60.6815 116.662 60.7027 116.673C60.7239 116.683 60.6815 116.804 60.6073 116.942C60.5331 117.08 60.4624 117.175 60.4412 117.175Z" fill="#263238"/>
<path d="M61.1442 117.328C61.0318 117.119 60.969 116.886 60.9604 116.648C61.0287 116.747 61.0734 116.859 61.0912 116.978C61.1337 117.089 61.1517 117.209 61.1442 117.328Z" fill="#263238"/>
<path d="M61.6073 117.332C61.5044 117.237 61.4319 117.114 61.3989 116.978C61.3419 116.851 61.3246 116.711 61.3494 116.574C61.4046 116.696 61.4472 116.823 61.4766 116.953C61.5337 117.074 61.5776 117.201 61.6073 117.332Z" fill="#263238"/>
<path d="M60.5366 116.327C60.4797 116.193 60.4451 116.05 60.4341 115.905C60.4191 115.749 60.4191 115.591 60.4341 115.435C60.4358 115.339 60.4489 115.244 60.473 115.151C60.4881 115.094 60.5248 115.044 60.5755 115.013C60.605 114.999 60.6379 114.993 60.6704 114.997C60.7029 115.001 60.7337 115.014 60.7592 115.034C60.8791 115.174 60.9468 115.351 60.9507 115.535C60.9545 115.719 60.8943 115.899 60.7804 116.043C60.715 116.13 60.6318 116.201 60.5366 116.252C60.5033 116.274 60.4661 116.288 60.4271 116.295C60.5441 116.217 60.6479 116.122 60.7345 116.012C60.8205 115.887 60.8695 115.741 60.8758 115.59C60.8856 115.412 60.8276 115.236 60.7133 115.098C60.6461 115.045 60.5719 115.098 60.5472 115.176C60.5271 115.262 60.5141 115.35 60.5083 115.438C60.4959 115.592 60.4959 115.747 60.5083 115.902C60.5119 116.164 60.5507 116.323 60.5366 116.327Z" fill="#263238"/>
<path d="M60.4907 116.226C60.5675 116.155 60.6684 116.114 60.7734 116.113C60.8923 116.096 61.0136 116.108 61.1267 116.149C61.1978 116.168 61.2629 116.205 61.316 116.257C61.3691 116.308 61.4085 116.372 61.4306 116.442C61.4316 116.488 61.4154 116.531 61.3852 116.565C61.3549 116.599 61.313 116.619 61.2681 116.623C61.199 116.629 61.1295 116.622 61.0631 116.602C60.9564 116.57 60.8543 116.525 60.7593 116.467C60.668 116.421 60.5883 116.354 60.5261 116.272C60.5261 116.272 60.625 116.336 60.7875 116.418C60.8823 116.465 60.9818 116.501 61.0843 116.527C61.1868 116.563 61.3564 116.559 61.3458 116.449C61.3352 116.34 61.1974 116.262 61.0985 116.219C61.0016 116.182 60.8982 116.165 60.7946 116.17C60.6919 116.18 60.5902 116.199 60.4907 116.226Z" fill="#263238"/>
<path d="M62.7521 123.19C62.7521 123.19 62.7203 122.995 62.6107 122.712C62.4688 122.337 62.2239 122.01 61.9044 121.769C61.5849 121.528 61.2038 121.382 60.8052 121.349C60.5013 121.324 60.3105 121.349 60.3105 121.349C60.352 121.331 60.3962 121.32 60.4413 121.317C60.5637 121.295 60.6882 121.288 60.8123 121.296C61.2257 121.315 61.6239 121.458 61.9544 121.708C62.2848 121.957 62.5322 122.301 62.6637 122.694C62.7031 122.809 62.7315 122.928 62.7485 123.048C62.7553 123.095 62.7565 123.143 62.7521 123.19Z" fill="#263238"/>
<path d="M65.2924 121.809C64.8589 121.969 64.4165 122.103 63.9674 122.212C63.525 122.349 63.0742 122.457 62.6177 122.534C63.055 122.375 63.5009 122.24 63.9533 122.131C64.3932 121.998 64.8403 121.89 65.2924 121.809Z" fill="#263238"/>
<path d="M60.6919 120.362C60.4099 119.762 60.2376 119.117 60.1831 118.457C60.2078 118.457 60.2891 118.885 60.4304 119.413C60.5718 119.94 60.7166 120.362 60.6919 120.362Z" fill="#263238"/>
<path d="M61.0243 121.639C61.0243 121.661 60.9254 121.639 60.8159 121.611C60.7063 121.583 60.6145 121.59 60.6109 121.569C60.6074 121.547 60.7063 121.508 60.83 121.53C60.9537 121.551 61.0385 121.622 61.0243 121.639Z" fill="#263238"/>
<path d="M61.7487 121.968C61.7487 121.968 61.6604 121.968 61.5721 121.912C61.4837 121.855 61.4272 121.806 61.4378 121.788C61.4484 121.77 61.5297 121.788 61.6145 121.841C61.6993 121.894 61.7593 121.947 61.7487 121.968Z" fill="#263238"/>
<path d="M62.1864 122.588C62.1617 122.588 62.1405 122.503 62.084 122.415C62.0274 122.326 61.9568 122.27 61.9674 122.252C61.978 122.234 62.0804 122.252 62.1511 122.369C62.2218 122.486 62.2218 122.588 62.1864 122.588Z" fill="#263238"/>
<path d="M62.4588 123.044C62.4376 123.044 62.3952 123.044 62.3599 122.98C62.3246 122.916 62.314 122.881 62.3316 122.867C62.3493 122.853 62.3917 122.884 62.427 122.934C62.4624 122.983 62.4765 123.033 62.4588 123.044Z" fill="#263238"/>
<g opacity="0.3">
<path d="M62.925 123.13L61.3491 116.574L62.1371 116.379L63.7836 122.949L62.925 123.13Z" fill="black"/>
</g>
<path d="M63.7342 123.497L89.9762 121.068L129.306 121.95L121.034 112.926L92.7958 111.57L61.6318 114.519L63.7342 123.497Z" fill="#263238"/>
<path d="M67.9811 118.38C67.7156 118.507 67.427 118.578 67.1331 118.589C66.8392 118.648 66.5366 118.648 66.2427 118.589C66.811 118.399 67.4124 118.327 68.0093 118.38H67.9811Z" fill="#455A64"/>
<path d="M71.4934 118.014C71.2187 118.133 70.9231 118.194 70.6242 118.195C70.3316 118.255 70.0299 118.255 69.7373 118.195C70.3073 118.013 70.9092 117.952 71.504 118.018L71.4934 118.014Z" fill="#455A64"/>
<path d="M75.0125 117.698C74.7366 117.815 74.4392 117.871 74.1398 117.864C73.8472 117.924 73.5456 117.924 73.2529 117.864C73.5288 117.747 73.8261 117.689 74.1257 117.695C74.4186 117.637 74.72 117.638 75.0125 117.698Z" fill="#455A64"/>
<path d="M78.5352 117.439C77.961 117.601 77.3597 117.643 76.7686 117.563C77.0454 117.45 77.3427 117.397 77.6413 117.407C77.9382 117.355 78.2427 117.366 78.5352 117.439Z" fill="#455A64"/>
<path d="M82.0615 117.229C81.7823 117.337 81.4839 117.385 81.1852 117.371C80.8898 117.417 80.588 117.403 80.2983 117.328C80.5775 117.221 80.8759 117.173 81.1746 117.187C81.47 117.14 81.7718 117.155 82.0615 117.229Z" fill="#455A64"/>
<path d="M85.5914 117.08C85.0138 117.227 84.4121 117.251 83.8247 117.151C84.1044 117.046 84.4032 117.003 84.701 117.023C84.9984 116.979 85.3019 116.998 85.5914 117.08Z" fill="#455A64"/>
<path d="M89.1246 116.976C88.8415 117.071 88.5426 117.109 88.2448 117.089C87.9474 117.127 87.6456 117.103 87.3579 117.018C87.6405 116.921 87.9398 116.883 88.2377 116.905C88.535 116.866 88.8373 116.89 89.1246 116.976Z" fill="#455A64"/>
<path d="M92.6583 116.924C92.3735 117.016 92.0733 117.051 91.7749 117.027C91.4778 117.06 91.177 117.031 90.8916 116.942C91.4744 116.821 92.0755 116.821 92.6583 116.942V116.924Z" fill="#455A64"/>
<path d="M96.1915 116.923C95.9061 117.013 95.6055 117.043 95.3081 117.012C95.0103 117.043 94.7092 117.01 94.4248 116.916C95.0073 116.794 95.609 116.794 96.1915 116.916V116.923Z" fill="#455A64"/>
<path d="M99.7247 116.977C99.437 117.061 99.1354 117.086 98.8378 117.051C98.5404 117.076 98.241 117.04 97.958 116.945C98.2439 116.858 98.5447 116.831 98.8413 116.867C99.1402 116.843 99.4408 116.88 99.7247 116.977Z" fill="#455A64"/>
<path d="M103.254 117.079C102.966 117.158 102.665 117.18 102.368 117.142C102.069 117.16 101.77 117.119 101.488 117.022C101.776 116.938 102.078 116.916 102.375 116.958C102.673 116.938 102.972 116.979 103.254 117.079Z" fill="#455A64"/>
<path d="M106.784 117.239C106.495 117.313 106.193 117.329 105.897 117.285C105.599 117.303 105.3 117.257 105.021 117.15C105.31 117.075 105.612 117.059 105.908 117.101C106.206 117.084 106.505 117.131 106.784 117.239Z" fill="#455A64"/>
<path d="M110.311 117.446C109.72 117.532 109.119 117.493 108.544 117.332C108.836 117.263 109.138 117.251 109.434 117.297C109.733 117.287 110.031 117.338 110.311 117.446Z" fill="#455A64"/>
<path d="M113.837 117.717C113.245 117.794 112.643 117.746 112.07 117.575C112.362 117.509 112.663 117.502 112.957 117.554C113.259 117.547 113.558 117.602 113.837 117.717Z" fill="#455A64"/>
<path d="M115.702 117.881C115.702 117.934 115.67 117.973 115.639 117.969C115.607 117.966 115.589 117.923 115.596 117.87C115.603 117.817 115.628 117.782 115.656 117.785C115.685 117.789 115.706 117.828 115.702 117.881Z" fill="#455A64"/>
<path d="M65.8363 123.23C65.7694 123.129 65.7171 123.019 65.6809 122.904C65.5925 122.692 65.4724 122.376 65.3275 121.984C65.0484 121.205 64.6951 120.111 64.3665 118.883C64.0379 117.654 63.8082 116.532 63.6598 115.714C63.5891 115.304 63.5361 114.974 63.5079 114.741C63.4831 114.624 63.4748 114.505 63.4831 114.387C63.6087 114.817 63.7101 115.255 63.787 115.697C63.9637 116.507 64.2181 117.622 64.5431 118.844C64.8682 120.065 65.2003 121.159 65.4477 121.952C65.6001 122.37 65.7299 122.797 65.8363 123.23Z" fill="#455A64"/>
<path d="M82.2066 121.002L82.7543 117.438L89.4217 118.425L88.6867 123.647L88.2698 123.611C86.4148 123.441 78.8499 122.617 77.6698 122.061C76.3519 121.438 82.2066 121.002 82.2066 121.002Z" fill="#FBDEF5"/>
<g opacity="0.4">
<path d="M79.3302 121.316C79.3302 121.316 77.2597 121.596 77.4611 121.961C77.6625 122.325 85.2697 123.447 88.6723 123.649V123.497L79.7825 122.265C79.7825 122.265 79.7153 121.391 79.3302 121.316Z" fill="white"/>
</g>
<path d="M88.7893 123.512H88.6727L88.3406 123.484L87.1216 123.356C86.0934 123.243 84.673 123.066 83.1113 122.84C81.5495 122.613 80.1362 122.369 79.1186 122.181L77.9137 121.955L77.5886 121.884C77.5499 121.879 77.5119 121.87 77.4756 121.855H77.5886L77.9208 121.909L79.1469 122.132C80.1645 122.305 81.5778 122.535 83.1395 122.765C84.7013 122.995 86.1181 123.179 87.1463 123.307L88.3618 123.459L88.6904 123.505L88.7893 123.512Z" fill="#263238"/>
<path d="M79.7793 122.366C79.7568 122.157 79.7093 121.952 79.638 121.754C79.5389 121.566 79.4205 121.39 79.2847 121.227C79.4804 121.335 79.6299 121.511 79.7051 121.722C79.81 121.92 79.8365 122.15 79.7793 122.366Z" fill="#263238"/>
<path d="M81.8957 121.658C81.8745 121.658 81.7968 121.537 81.7226 121.367C81.6484 121.197 81.6201 121.066 81.6201 121.066C81.6201 121.066 81.7191 121.187 81.7933 121.353C81.8483 121.446 81.8833 121.55 81.8957 121.658Z" fill="#263238"/>
<path d="M82.4752 121.449C82.4752 121.449 82.3656 121.378 82.2632 121.258C82.1607 121.137 82.0971 121.027 82.1148 121.013C82.1324 120.999 82.2278 121.084 82.3268 121.204C82.4257 121.325 82.4928 121.42 82.4752 121.449Z" fill="#263238"/>
<path d="M82.9098 120.868C82.7939 120.898 82.6723 120.898 82.5565 120.868C82.4337 120.867 82.3128 120.838 82.2031 120.783C82.2031 120.758 82.3621 120.762 82.5565 120.783C82.6791 120.784 82.7999 120.813 82.9098 120.868Z" fill="#263238"/>
<path d="M83.0935 120.445C82.9662 120.502 82.8248 120.521 82.6871 120.498C82.5485 120.5 82.4121 120.462 82.2949 120.388C82.4286 120.383 82.5625 120.393 82.6942 120.416C82.8279 120.413 82.9616 120.422 83.0935 120.445Z" fill="#263238"/>
<path d="M81.7544 121.04C81.6092 121.046 81.4642 121.024 81.3269 120.976C81.1742 120.935 81.0262 120.878 80.8852 120.807C80.7966 120.77 80.7134 120.721 80.6379 120.661C80.5929 120.624 80.5628 120.571 80.5531 120.513C80.551 120.48 80.5581 120.447 80.5738 120.418C80.5894 120.39 80.6129 120.366 80.6414 120.35C80.8173 120.294 81.0069 120.301 81.1783 120.369C81.3496 120.438 81.492 120.563 81.5813 120.725C81.6338 120.82 81.6673 120.925 81.6802 121.033C81.6876 121.072 81.6876 121.111 81.6802 121.15C81.6554 121.011 81.6076 120.877 81.5389 120.753C81.4586 120.626 81.3432 120.526 81.2068 120.463C81.1279 120.422 81.0416 120.397 80.9531 120.39C80.8645 120.383 80.7754 120.393 80.6909 120.421C80.6167 120.463 80.6308 120.545 80.6909 120.601C80.7594 120.656 80.8341 120.702 80.9135 120.739C81.0509 120.811 81.1939 120.871 81.341 120.92C81.5919 121.005 81.7544 121.03 81.7544 121.04Z" fill="#263238"/>
<path d="M81.6412 121.048C81.6027 120.95 81.6027 120.841 81.6412 120.743C81.6706 120.633 81.7264 120.531 81.8038 120.446C81.8491 120.388 81.9085 120.341 81.9766 120.312C82.0446 120.283 82.1189 120.272 82.1924 120.28C82.2345 120.295 82.2688 120.326 82.288 120.367C82.3072 120.407 82.3097 120.453 82.2949 120.496C82.2757 120.563 82.2419 120.626 82.196 120.68C82.1242 120.765 82.0436 120.842 81.9557 120.91C81.8779 120.977 81.7843 121.023 81.6836 121.044C81.6836 121.044 81.779 120.981 81.9168 120.864C81.9985 120.794 82.0719 120.716 82.1359 120.63C82.2066 120.549 82.2737 120.393 82.1677 120.358C82.109 120.356 82.0508 120.368 81.9975 120.392C81.9442 120.417 81.8972 120.453 81.8603 120.499C81.788 120.572 81.7325 120.661 81.6978 120.758C81.6686 120.852 81.6497 120.949 81.6412 121.048Z" fill="#263238"/>
<path d="M88.9198 121.661C88.756 121.634 88.5909 121.615 88.4251 121.605C88.0267 121.593 87.6327 121.692 87.2874 121.892C86.9439 122.095 86.6628 122.389 86.4747 122.741C86.3299 123.014 86.2945 123.205 86.2769 123.201C86.2765 123.155 86.2837 123.108 86.2981 123.063C86.3286 122.941 86.3712 122.823 86.4253 122.709C86.6032 122.336 86.8887 122.024 87.245 121.814C87.6028 121.604 88.0156 121.509 88.4287 121.541C88.5486 121.548 88.6672 121.57 88.782 121.605C88.8774 121.637 88.9233 121.654 88.9198 121.661Z" fill="#263238"/>
<path d="M88.6405 118.781C88.6185 119.244 88.5701 119.705 88.4957 120.162C88.4466 120.621 88.3711 121.078 88.2695 121.528C88.2916 121.066 88.34 120.605 88.4144 120.148C88.4614 119.688 88.5369 119.232 88.6405 118.781Z" fill="#263238"/>
<path d="M85.5066 122.461C85.1762 122.488 84.8437 122.472 84.5172 122.415C84.1885 122.383 83.8653 122.308 83.5562 122.192C83.5562 122.167 83.9908 122.259 84.5278 122.333C85.0649 122.408 85.5066 122.436 85.5066 122.461Z" fill="#263238"/>
<path d="M86.8282 122.652C86.8282 122.652 86.7787 122.741 86.7187 122.833C86.6586 122.925 86.6233 123.01 86.5985 123.006C86.5738 123.003 86.5809 122.897 86.648 122.787C86.7151 122.677 86.8141 122.635 86.8282 122.652Z" fill="#263238"/>
<path d="M87.4076 122.129C87.4076 122.147 87.3688 122.21 87.291 122.271C87.2133 122.331 87.1356 122.363 87.1214 122.345C87.1073 122.327 87.1603 122.264 87.2416 122.203C87.3228 122.143 87.397 122.094 87.4076 122.129Z" fill="#263238"/>
<path d="M88.1567 121.934C88.1567 121.955 88.0578 121.934 87.9553 121.962C87.8529 121.991 87.7751 122.026 87.7575 122.008C87.7398 121.991 87.814 121.906 87.9412 121.881C88.0684 121.856 88.1638 121.916 88.1567 121.934Z" fill="#263238"/>
<path d="M88.6868 121.88C88.6868 121.902 88.6479 121.93 88.5914 121.944C88.5349 121.958 88.4783 121.944 88.4748 121.926C88.4713 121.909 88.5137 121.877 88.5702 121.863C88.6267 121.849 88.6868 121.856 88.6868 121.88Z" fill="#263238"/>
<g opacity="0.3">
<path d="M88.9376 121.483L82.2949 120.39L82.4257 119.586L89.1072 120.62L88.9376 121.483Z" fill="black"/>
</g>
<path d="M117.66 65.457C116.664 67.0677 117.353 69.705 117.66 71.5812C117.968 73.4574 118.367 75.3938 117.83 77.2098C117.54 78.1904 116.978 79.1037 116.911 80.1197C116.823 81.4331 117.561 82.6331 118.123 83.819C118.685 85.0049 119.077 86.4811 118.353 87.5785C118.081 87.9962 117.646 88.3856 117.699 88.8847C117.77 89.4972 118.611 89.7485 119.162 89.4689C119.713 89.1892 120.024 88.6016 120.296 88.0529C120.454 88.3826 120.542 88.7413 120.555 89.1068C120.569 89.4722 120.507 89.8364 120.374 90.1769C121.342 90.5411 122.393 90.6274 123.408 90.426C124.423 90.2246 125.362 89.7436 126.119 89.037V74.7708L117.66 65.457Z" fill="#FBDEF5"/>
<path d="M120.289 83.9404L112.763 92.2842L116.893 98.5712C116.893 98.5712 126.235 91.07 126.546 90.1177C127.302 87.8025 127.691 81.6642 123.398 82.2412C122.193 82.4207 121.092 83.0229 120.289 83.9404Z" fill="#455A64"/>
<path d="M123.084 83.7192L130.709 79.7969C130.709 79.7969 137.623 81.1315 137.75 88.9619C137.878 96.7924 137.365 109.437 137.365 109.437H119.476L123.084 83.7192Z" fill="#455A64"/>
<path d="M123.801 82.7228C123.469 80.8713 123.094 78.9243 123.094 78.9243C123.094 78.9243 120.642 78.9491 119.6 75.9189C118.607 73.0303 117.886 66.0777 117.886 66.0777C119.459 65.0981 121.294 64.624 123.144 64.7189C124.994 64.8139 126.77 65.4733 128.235 66.6087L130.68 81.7068C130.967 83.4591 129.688 85.0981 127.811 85.3884C125.907 85.6681 124.115 84.4892 123.801 82.7228Z" fill="#FFBE9D"/>
<path d="M119.073 71.3575C119.091 71.4619 119.148 71.5555 119.233 71.6183C119.318 71.681 119.424 71.7081 119.529 71.6938C119.581 71.6894 119.631 71.6746 119.677 71.6504C119.723 71.6262 119.764 71.5929 119.797 71.5526C119.83 71.5124 119.854 71.4659 119.869 71.416C119.884 71.366 119.888 71.3137 119.882 71.2619C119.865 71.1575 119.808 71.064 119.723 71.0012C119.637 70.9384 119.531 70.9113 119.427 70.9256C119.375 70.93 119.324 70.9448 119.278 70.969C119.232 70.9933 119.192 71.0265 119.159 71.0668C119.126 71.107 119.101 71.1535 119.087 71.2035C119.072 71.2534 119.067 71.3058 119.073 71.3575Z" fill="#263238"/>
<path d="M118.978 70.9511C119.035 70.9936 119.3 70.7175 119.727 70.6432C120.155 70.5688 120.511 70.7281 120.547 70.6644C120.582 70.6007 120.497 70.5547 120.345 70.4768C120.136 70.3823 119.904 70.3527 119.678 70.3918C119.454 70.4301 119.248 70.5392 119.091 70.7033C118.978 70.8308 118.95 70.9299 118.978 70.9511Z" fill="#263238"/>
<path d="M123.476 70.7985C123.494 70.9023 123.552 70.995 123.637 71.057C123.722 71.1191 123.827 71.1457 123.931 71.1313C123.983 71.1269 124.034 71.1121 124.08 71.0879C124.126 71.0637 124.166 71.0304 124.199 70.9901C124.232 70.9499 124.257 70.9034 124.271 70.8535C124.286 70.8035 124.291 70.7512 124.285 70.6994C124.267 70.595 124.21 70.5015 124.125 70.4387C124.04 70.3759 123.934 70.3488 123.829 70.3631C123.777 70.368 123.727 70.3831 123.681 70.4078C123.635 70.4324 123.594 70.4659 123.561 70.5065C123.528 70.547 123.504 70.5937 123.489 70.6439C123.474 70.694 123.47 70.7466 123.476 70.7985Z" fill="#263238"/>
<path d="M123.483 70.3185C123.543 70.361 123.804 70.0814 124.235 70.007C124.666 69.9327 125.016 70.092 125.055 70.0318C125.094 69.9716 125.006 69.9185 124.85 69.8442C124.642 69.7493 124.411 69.7197 124.186 69.7592C123.962 69.7975 123.757 69.9067 123.599 70.0708C123.483 70.1947 123.455 70.2973 123.483 70.3185Z" fill="#263238"/>
<path d="M122.486 73.7805C122.252 73.7524 122.014 73.7524 121.78 73.7805C121.67 73.7805 121.561 73.7805 121.529 73.7132C121.492 73.5982 121.492 73.4743 121.529 73.3592C121.585 73.076 121.646 72.7787 121.706 72.4671C121.886 71.7052 122.004 70.9297 122.059 70.1484C121.824 70.8946 121.648 71.6581 121.532 72.4317C121.476 72.7468 121.419 73.0442 121.37 73.3274C121.317 73.4702 121.317 73.627 121.37 73.7699C121.392 73.8063 121.422 73.8369 121.459 73.8591C121.495 73.8812 121.536 73.8944 121.578 73.8973C121.642 73.9065 121.706 73.9065 121.769 73.8973C122.012 73.8894 122.253 73.8502 122.486 73.7805Z" fill="#263238"/>
<path d="M123.083 78.9416C124.552 78.7058 125.927 78.0661 127.055 77.0938C127.055 77.0938 126.422 79.4124 123.257 79.6709L123.083 78.9416Z" fill="#EB996E"/>
<path d="M122.85 74.7877C122.915 74.6711 123.008 74.5726 123.12 74.5009C123.232 74.4292 123.36 74.3866 123.493 74.377C123.589 74.3698 123.686 74.3818 123.778 74.4121C123.869 74.4425 123.954 74.4907 124.027 74.554C124.097 74.6151 124.147 74.6966 124.169 74.7874C124.191 74.8781 124.185 74.9735 124.15 75.0603C124.096 75.15 124.015 75.2213 123.919 75.2648C123.824 75.3083 123.717 75.3222 123.613 75.3045C123.398 75.267 123.191 75.1877 123.006 75.0709C122.951 75.0449 122.902 75.0089 122.861 74.9647C122.842 74.9433 122.829 74.9169 122.825 74.8887C122.821 74.8604 122.824 74.8315 122.836 74.8054" fill="#EB996E"/>
<path d="M123.801 73.8601C123.734 73.8601 123.801 74.3345 123.472 74.7345C123.144 75.1345 122.628 75.1734 122.635 75.2407C122.642 75.308 122.762 75.3115 122.971 75.2796C123.245 75.2361 123.495 75.0969 123.677 74.8867C123.849 74.6823 123.937 74.4206 123.925 74.1539C123.907 73.9557 123.833 73.8495 123.801 73.8601Z" fill="#263238"/>
<path d="M126.119 64.3798C125.288 66.2171 122.585 68.4543 120.515 69.2473C120.702 68.8685 121.872 67.803 122.062 67.4207C121.221 68.3375 120.009 69.5765 118.727 69.8987C118.577 69.9427 118.417 69.9427 118.268 69.8987C118.184 69.8539 118.111 69.7904 118.056 69.713C118.001 69.6356 117.965 69.5465 117.95 69.4526C117.701 68.5273 117.553 67.5778 117.508 66.6206C117.465 65.8116 117.732 65.0166 118.253 64.3975C118.96 63.601 120.119 63.2187 121.232 62.9815C122.155 62.7466 123.116 62.6961 124.059 62.8328C124.981 63.0134 125.825 63.5408 126.119 64.3267" fill="#FBDEF5"/>
<path d="M131.087 71.2989C131.102 70.59 131.076 69.8808 131.009 69.1749C130.797 67.5536 130.009 61.2241 123.289 62.7569L125.437 64.6827C125.437 64.6827 125.02 68.4811 127.808 70.5166C127.808 70.5166 127.808 74.3079 129.73 75.6744C129.73 75.6744 131.076 73.1043 131.087 71.3131" fill="#FBDEF5"/>
<path d="M127.684 70.2479C128.005 70.1172 128.356 70.078 128.698 70.1346C129.042 70.1944 129.348 70.3878 129.55 70.6727C129.733 70.9695 129.799 71.3245 129.733 71.6674C129.666 72.0069 129.525 72.3272 129.32 72.6055C129.184 72.8138 129.001 72.9873 128.786 73.1117C128.678 73.1712 128.557 73.2024 128.433 73.2024C128.31 73.2024 128.188 73.1712 128.08 73.1117" fill="#FFBE9D"/>
<path d="M128.225 72.2335C128.189 72.2547 128.37 72.4317 128.659 72.2937C128.812 72.2085 128.926 72.0678 128.977 71.9007C129.036 71.712 129.059 71.5138 129.044 71.3166C129.033 71.1059 128.946 70.9062 128.801 70.7538C128.74 70.6887 128.665 70.6386 128.581 70.6073C128.498 70.576 128.409 70.5643 128.32 70.5732C128.006 70.6228 127.946 70.8564 127.967 70.8564C127.988 70.8564 128.101 70.7431 128.32 70.7573C128.453 70.7834 128.572 70.8562 128.657 70.9626C128.741 71.069 128.784 71.2021 128.779 71.3379C128.806 71.4794 128.799 71.6251 128.761 71.7638C128.722 71.9025 128.652 72.0305 128.557 72.1379C128.394 72.2653 128.26 72.2158 128.225 72.2335Z" fill="#EB996E"/>
<path d="M136.415 109.437H129.754L130.708 90.5366L121.91 90.8304C121.91 90.8304 120.412 103.928 120.26 105.628C110.791 96.9617 104.261 91.4924 99.7493 88.2356C93.7427 83.8885 90.4991 87.2479 89.2448 88.8162C85.9305 92.958 80.2383 119.373 80.2383 119.373L90.5591 121.016L95.9581 98.1759C95.9581 98.1759 107.724 112.58 117.236 120.935C120.603 123.894 126.907 123.498 129.306 122.549C129.32 122.549 136.648 118.559 136.415 109.437Z" fill="#263238"/>
<path d="M126.419 111.512C126.338 111.918 126.299 112.332 126.303 112.747C126.314 113.244 126.429 113.733 126.641 114.182C126.853 114.631 127.158 115.03 127.534 115.353C127.91 115.677 128.35 115.918 128.825 116.059C129.3 116.201 129.8 116.242 130.292 116.177C130.7 116.117 131.101 116.016 131.489 115.877C131.402 115.949 131.303 116.007 131.196 116.046C130.914 116.178 130.614 116.265 130.306 116.305C129.796 116.383 129.275 116.35 128.779 116.208C128.283 116.066 127.824 115.818 127.432 115.482C127.04 115.146 126.725 114.73 126.508 114.261C126.291 113.792 126.178 113.282 126.175 112.765C126.17 112.453 126.21 112.141 126.295 111.841C126.32 111.726 126.362 111.615 126.419 111.512Z" fill="#455A64"/>
<path d="M90.9516 118.997C90.9516 119.05 88.6444 118.735 85.8177 118.289C82.991 117.843 80.7014 117.457 80.7085 117.404C80.7156 117.351 83.0158 117.67 85.846 118.112C88.6762 118.555 90.9587 118.944 90.9516 118.997Z" fill="#455A64"/>
<path d="M86.2451 117.699C86.2659 117.998 86.225 118.298 86.1249 118.581C86.0862 118.878 85.9851 119.164 85.8281 119.42C85.8479 118.824 85.9899 118.238 86.2451 117.699Z" fill="#455A64"/>
<path d="M87.1106 114.266C87.1267 114.565 87.0822 114.865 86.9799 115.147C86.9348 115.444 86.8289 115.728 86.6689 115.983C86.699 115.386 86.8493 114.802 87.1106 114.266Z" fill="#455A64"/>
<path d="M88.0363 110.848C88.0474 111.147 87.9981 111.446 87.8914 111.726C87.8406 112.021 87.73 112.303 87.5664 112.554C87.5557 112.255 87.6049 111.956 87.7112 111.676C87.7621 111.381 87.8727 111.099 88.0363 110.848Z" fill="#455A64"/>
<path d="M89.0398 107.453C88.9909 108.047 88.8201 108.624 88.538 109.149C88.5322 108.849 88.5875 108.552 88.7005 108.274C88.7545 107.98 88.8701 107.7 89.0398 107.453Z" fill="#455A64"/>
<path d="M90.0682 104.074C90.0692 104.375 90.0091 104.672 89.8915 104.949C89.8285 105.241 89.7084 105.517 89.5382 105.763C89.5351 105.463 89.5953 105.167 89.7149 104.892C89.7748 104.598 89.8951 104.319 90.0682 104.074Z" fill="#455A64"/>
<path d="M91.1599 100.711C91.158 101.01 91.0929 101.306 90.9691 101.578C90.9068 101.869 90.7866 102.145 90.6157 102.389C90.6854 101.797 90.8754 101.226 91.174 100.711H91.1599Z" fill="#455A64"/>
<path d="M92.3262 97.3516C92.317 97.6504 92.2473 97.9443 92.1212 98.2153C92.0532 98.5069 91.9243 98.7807 91.7432 99.0189C91.8201 98.4287 92.0187 97.8609 92.3262 97.3516Z" fill="#455A64"/>
<path d="M93.5236 94.0312C93.5096 94.3306 93.4363 94.6242 93.3081 94.895C93.234 95.1853 93.1018 95.4575 92.9194 95.695C92.9314 95.3954 93.0048 95.1014 93.135 94.8313C93.2073 94.5403 93.3397 94.2678 93.5236 94.0312Z" fill="#455A64"/>
<path d="M95.3505 93.8473C95.3116 93.8827 95.0184 93.6137 94.6898 93.2526C94.3612 92.8915 94.128 92.5694 94.1668 92.5446C94.2057 92.5198 94.499 92.7782 94.8276 93.1393C95.1562 93.5004 95.4 93.8084 95.3505 93.8473Z" fill="#455A64"/>
<path d="M97.7355 96.4615C97.7002 96.4969 97.3998 96.2314 97.0712 95.8703C96.7426 95.5092 96.5024 95.1906 96.5412 95.1623C96.5801 95.134 96.8769 95.3924 97.2055 95.7535C97.5341 96.1145 97.7744 96.4261 97.7355 96.4615Z" fill="#455A64"/>
<path d="M100.138 99.0565C100.099 99.0919 99.785 98.8299 99.4705 98.4724C99.156 98.1148 98.8981 97.7962 98.9334 97.7644C98.9688 97.7325 99.2868 97.9909 99.6048 98.3485C99.8268 98.5476 100.008 98.788 100.138 99.0565Z" fill="#455A64"/>
<path d="M102.552 101.639C102.516 101.675 102.198 101.416 101.88 101.059C101.562 100.701 101.304 100.386 101.343 100.351C101.382 100.315 101.697 100.577 102.015 100.931C102.238 101.13 102.42 101.371 102.552 101.639Z" fill="#455A64"/>
<path d="M104.975 104.218C104.936 104.253 104.622 103.995 104.3 103.637C103.979 103.279 103.724 102.964 103.763 102.929C103.802 102.894 104.099 103.152 104.435 103.51C104.77 103.867 105.01 104.182 104.975 104.218Z" fill="#455A64"/>
<path d="M107.413 106.788C107.378 106.824 107.06 106.565 106.742 106.211C106.424 105.857 106.163 105.539 106.198 105.503C106.233 105.468 106.551 105.73 106.873 106.084C107.194 106.438 107.442 106.753 107.413 106.788Z" fill="#455A64"/>
<path d="M109.837 109.359C109.798 109.394 109.484 109.136 109.162 108.778C108.841 108.421 108.583 108.109 108.618 108.07C108.653 108.031 108.971 108.293 109.293 108.651C109.614 109.008 109.886 109.323 109.837 109.359Z" fill="#455A64"/>
<path d="M112.268 111.929C112.229 111.96 111.915 111.702 111.593 111.348C111.272 110.994 111.014 110.675 111.053 110.64C111.092 110.605 111.406 110.863 111.728 111.217C112.049 111.571 112.304 111.893 112.268 111.929Z" fill="#455A64"/>
<path d="M114.692 114.499C114.656 114.535 114.338 114.276 114.02 113.919C113.702 113.561 113.444 113.25 113.48 113.211C113.515 113.172 113.833 113.434 114.155 113.791C114.476 114.149 114.731 114.468 114.692 114.499Z" fill="#455A64"/>
<path d="M117.222 116.963C116.937 116.863 116.681 116.694 116.476 116.471C116.123 116.142 115.868 115.82 115.904 115.784C115.939 115.749 116.257 116.011 116.61 116.333C116.964 116.655 117.25 116.921 117.222 116.963Z" fill="#455A64"/>
<path d="M120.416 118.4C119.809 118.422 119.211 118.24 118.72 117.883C119.013 117.916 119.3 117.993 119.571 118.109C119.865 118.166 120.149 118.264 120.416 118.4Z" fill="#455A64"/>
<path d="M123.889 118.074C123.655 118.268 123.371 118.391 123.07 118.428C122.864 118.479 122.653 118.505 122.441 118.506C122.278 118.506 122.176 118.506 122.176 118.467C122.176 118.428 122.564 118.357 123.027 118.251C123.307 118.158 123.596 118.099 123.889 118.074Z" fill="#455A64"/>
<path d="M126.755 116.038C126.79 116.074 126.543 116.392 126.168 116.711C125.793 117.03 125.444 117.235 125.415 117.193C125.387 117.15 125.684 116.892 126.048 116.573C126.412 116.254 126.719 116.003 126.755 116.038Z" fill="#455A64"/>
<path d="M109.533 87.8848L100.636 82.9961L100.318 83.6864L109.173 88.6566L109.533 87.8848Z" fill="#263238"/>
<path d="M107.392 87.6578C107.392 87.6578 105.329 84.9674 105.028 84.3797C104.728 83.7921 104.219 82.769 104.06 82.762C103.901 82.7549 103.353 82.8929 104.244 84.6452C105.134 86.3975 103.424 85.4276 103.424 85.4276L101.717 84.4718C101.717 84.4718 100.834 88.2667 101.64 89.3251C102.403 90.236 103.248 91.0739 104.166 91.8279L107.392 87.6578Z" fill="#FFBE9D"/>
<path d="M103.611 91.1176C103.611 91.1176 114.321 104.984 118.158 105.904C121.995 106.825 132.083 96.1055 132.083 96.1055L127.709 90.6397C127.709 90.6397 119.497 98.2047 118.95 97.9144C118.402 97.6242 107.392 87.6484 107.392 87.6484L103.611 91.1176Z" fill="#FFBE9D"/>
<path d="M130.998 86.2459L122.462 94.9826L127.907 102.148C127.907 102.148 136.563 95.3437 136.638 92.5613C136.701 90.1966 135.995 85.7078 133.239 85.3892C132.825 85.3532 132.408 85.4116 132.02 85.56C131.632 85.7084 131.283 85.9429 130.998 86.2459Z" fill="#455A64"/>
<path d="M92.9264 110.309C92.921 110.38 92.9104 110.451 92.8946 110.521C92.8663 110.67 92.8275 110.875 92.778 111.119C92.6649 111.657 92.5095 112.415 92.3151 113.353L90.6615 121.031L90.6439 121.113H90.5591L86.5664 120.472L80.2241 119.452H80.1357L80.1569 119.367C80.7541 116.914 81.2629 114.84 81.6233 113.349C81.8035 112.641 81.9483 112.061 82.0543 111.647C82.1038 111.463 82.1427 111.314 82.1745 111.201C82.185 111.148 82.2016 111.097 82.2239 111.048C82.2212 111.101 82.2129 111.153 82.1992 111.204L82.1038 111.661C82.0119 112.072 81.8812 112.649 81.7222 113.371L80.3089 119.389L80.2417 119.29L86.6017 120.288L90.5803 120.925L90.4813 120.992C91.1703 117.913 91.7675 115.247 92.1985 113.328L92.7109 111.105C92.7745 110.861 92.8204 110.663 92.8593 110.514C92.8728 110.443 92.8953 110.374 92.9264 110.309Z" fill="#455A64"/>
<path d="M119.426 122.179C119.376 122.185 119.325 122.185 119.274 122.179C119.129 122.159 118.987 122.122 118.85 122.069C118.352 121.865 117.899 121.563 117.518 121.181L113.72 117.528C112.24 116.112 110.893 114.809 109.954 113.864L108.826 112.752C108.684 112.619 108.551 112.474 108.431 112.32C108.589 112.434 108.738 112.561 108.876 112.699L110.045 113.786C111.024 114.706 112.37 115.988 113.847 117.411C115.324 118.834 116.674 120.126 117.61 121.078C117.972 121.46 118.401 121.771 118.875 121.995C119.218 122.147 119.426 122.158 119.426 122.179Z" fill="#455A64"/>
<path d="M124.419 110.866C123.52 110.093 122.661 109.276 121.843 108.417C120.986 107.598 120.17 106.737 119.398 105.836C120.3 106.605 121.16 107.423 121.974 108.286C122.834 109.102 123.65 109.964 124.419 110.866Z" fill="#455A64"/>
<path d="M122.462 82.4828L121.9 90.8301L123.253 90.9823L123.695 82.2031C123.268 82.2055 122.848 82.301 122.462 82.4828Z" fill="#263238"/>
<path d="M122.391 85.0999C121.408 85.2226 120.413 85.2226 119.43 85.0999C120.413 84.9771 121.408 84.9771 122.391 85.0999Z" fill="#FAFAFA"/>
<path d="M137.683 87.8616C137.683 87.9111 132.981 87.9536 127.179 87.9536C121.377 87.9536 116.678 87.9111 116.678 87.8616C116.678 87.812 121.377 87.7695 127.179 87.7695C132.981 87.7695 137.683 87.812 137.683 87.8616Z" fill="#FAFAFA"/>
<path d="M121.568 91.4514C121.568 91.501 119.762 91.5435 117.536 91.5435C115.31 91.5435 113.508 91.501 113.508 91.4514C113.508 91.4019 115.31 91.3594 117.536 91.3594C119.762 91.3594 121.568 91.3983 121.568 91.4514Z" fill="#FAFAFA"/>
<path d="M137.684 91.178C137.684 91.2275 135.21 91.27 132.172 91.27C129.133 91.27 126.663 91.2275 126.663 91.178C126.663 91.1284 129.136 91.0859 132.172 91.0859C135.207 91.0859 137.684 91.1249 137.684 91.178Z" fill="#FAFAFA"/>
<path d="M137.683 94.5569C137.683 94.6064 134.503 94.6489 130.553 94.6489C126.603 94.6489 123.426 94.6064 123.426 94.5569C123.426 94.5073 126.606 94.4648 130.553 94.4648C134.5 94.4648 137.683 94.5179 137.683 94.5569Z" fill="#FAFAFA"/>
<path d="M137.768 98.7639C137.768 98.817 135.005 98.856 131.595 98.856C128.186 98.856 125.433 98.8135 125.433 98.7639C125.433 98.7144 128.196 98.6719 131.606 98.6719C135.016 98.6719 137.768 98.7108 137.768 98.7639Z" fill="#FAFAFA"/>
<path d="M137.545 101.869C137.545 101.919 135.864 101.961 133.79 101.961C131.715 101.961 130.037 101.919 130.037 101.869C130.037 101.82 131.719 101.777 133.79 101.777C135.86 101.777 137.545 101.82 137.545 101.869Z" fill="#FAFAFA"/>
<path d="M137.545 104.967C137.545 105.017 135.864 105.059 133.79 105.059C131.715 105.059 130.037 105.017 130.037 104.967C130.037 104.917 131.719 104.875 133.79 104.875C135.86 104.875 137.545 104.917 137.545 104.967Z" fill="#FAFAFA"/>
<path d="M136.199 93.8569C136.168 93.9248 136.129 93.9889 136.083 94.048L135.729 94.5896C135.24 95.2447 134.717 95.8744 134.164 96.4765C132.244 98.5365 130.177 100.454 127.981 102.215L127.91 102.275L127.857 102.197L125.08 98.4376L122.504 94.8728L122.458 94.8091L122.511 94.756L128.613 88.6707L130.38 86.9007L130.86 86.437C130.915 86.3803 130.974 86.3282 131.037 86.2812C130.991 86.344 130.94 86.4032 130.885 86.4583L130.422 86.9432C130.005 87.3751 129.415 87.984 128.677 88.738L122.638 94.8799V94.7631L125.235 98.3031L127.977 102.07H127.85C130.044 100.322 132.119 98.4301 134.061 96.4056C134.768 95.6481 135.302 94.9896 135.659 94.5578C135.821 94.3383 135.952 94.1648 136.051 94.0374C136.094 93.9724 136.144 93.9119 136.199 93.8569Z" fill="#263238"/>
<path d="M125.324 65.6306C124.815 66.9192 125.324 69.4149 126.479 70.5477C127.462 71.5176 127.861 73.0044 127.995 74.385C128.154 76.0134 127.391 77.6808 127.808 79.2667C128.091 80.3287 128.868 81.1889 129.278 82.2084C129.61 83.0789 129.673 84.0297 129.456 84.9363C129.24 85.8428 128.755 86.6627 128.066 87.2883C128.432 87.5852 128.867 87.7855 129.33 87.8712C129.794 87.9568 130.271 87.925 130.719 87.7787C131.167 87.6323 131.572 87.3761 131.896 87.0332C132.22 86.6904 132.453 86.2719 132.574 85.8157L132.666 87.7556C134.043 86.9297 135.042 85.5967 135.45 84.042C135.858 82.4872 135.643 80.8342 134.85 79.4366C134.21 78.3144 133.189 77.3126 133.126 76.017C133.083 75.1709 133.479 74.3496 133.479 73.5036C133.461 72.1477 132.461 71.0256 131.885 69.8149C131.377 68.7246 131.2 67.5103 130.769 66.3882C130.338 65.266 129.536 64.165 128.366 63.9102" fill="#FBDEF5"/>
<path d="M59.3599 149.409C60.4864 148.796 61.779 148.561 63.0487 148.736C63.7389 148.755 64.4031 149.004 64.9355 149.444C65.4231 149.922 65.5609 150.811 65.0592 151.278C64.7323 151.525 64.3302 151.65 63.9215 151.632C62.9357 151.678 61.8368 151.572 61.0948 152.209C60.6673 152.563 60.3881 153.151 59.8758 153.349C59.6113 153.427 59.3285 153.417 59.0703 153.32C58.8121 153.223 58.5925 153.044 58.4448 152.811C58.163 152.332 58.0733 151.764 58.1939 151.221C58.2376 150.85 58.3654 150.494 58.5675 150.18C58.7696 149.866 59.0406 149.602 59.3599 149.409Z" fill="#FBDEF5"/>
<path opacity="0.2" d="M59.3599 149.409C60.4864 148.796 61.779 148.561 63.0487 148.736C63.7389 148.755 64.4031 149.004 64.9355 149.444C65.4231 149.922 65.5609 150.811 65.0592 151.278C64.7323 151.525 64.3302 151.65 63.9215 151.632C62.9357 151.678 61.8368 151.572 61.0948 152.209C60.6673 152.563 60.3881 153.151 59.8758 153.349C59.6113 153.427 59.3285 153.417 59.0703 153.32C58.8121 153.223 58.5925 153.044 58.4448 152.811C58.163 152.332 58.0733 151.764 58.1939 151.221C58.2376 150.85 58.3654 150.494 58.5675 150.18C58.7696 149.866 59.0406 149.602 59.3599 149.409Z" fill="white"/>
<path d="M56.4837 144.552C57.2328 145.5 58.5578 145.093 59.1443 144.452C59.7309 143.812 59.9429 142.923 60.1337 142.074C60.5718 140.134 61.0064 138.102 60.487 136.187C60.3543 135.604 60.0647 135.069 59.6496 134.64C59.4394 134.429 59.1777 134.277 58.8906 134.199C58.6035 134.122 58.3012 134.121 58.0137 134.197C57.3459 134.417 56.9537 135.107 56.6957 135.758C55.9097 137.677 55.5597 139.747 55.6711 141.819C55.7241 142.785 55.8972 143.787 56.4873 144.552" fill="#FBDEF5"/>
<path opacity="0.3" d="M56.4837 144.552C57.2328 145.5 58.5578 145.093 59.1443 144.452C59.7309 143.812 59.9429 142.923 60.1337 142.074C60.5718 140.134 61.0064 138.102 60.487 136.187C60.3543 135.604 60.0647 135.069 59.6496 134.64C59.4394 134.429 59.1777 134.277 58.8906 134.199C58.6035 134.122 58.3012 134.121 58.0137 134.197C57.3459 134.417 56.9537 135.107 56.6957 135.758C55.9097 137.677 55.5597 139.747 55.6711 141.819C55.7241 142.785 55.8972 143.787 56.4873 144.552" fill="black"/>
<path d="M54.6675 146.081C54.9936 145.595 55.1961 145.037 55.2577 144.454C55.3193 143.872 55.238 143.283 55.0209 142.739C54.5786 141.65 53.845 140.705 52.9009 140.007C51.8249 139.155 50.5936 138.521 49.2757 138.141C48.7634 137.968 48.2196 137.908 47.6821 137.968C47.4141 137.998 47.1577 138.094 46.9353 138.247C46.7129 138.4 46.5314 138.606 46.4066 138.845C46.078 139.553 46.4808 140.407 46.9048 141.083C47.6516 142.272 48.4904 143.402 49.4135 144.46C50.1555 145.309 51 146.145 52.0741 146.485C53.1482 146.825 54.24 146.715 54.7559 145.95" fill="#FBDEF5"/>
<path d="M57.3106 159.472C57.3397 159.323 57.3527 159.171 57.3495 159.019C57.3495 158.69 57.3777 158.279 57.3954 157.787C57.4131 157.295 57.4625 156.647 57.565 155.971C57.6832 155.237 57.8605 154.514 58.095 153.808C58.3213 153.104 58.6473 152.437 59.0631 151.826C59.3998 151.326 59.8442 150.909 60.3634 150.605C60.7158 150.404 61.0973 150.259 61.4941 150.176C61.6448 150.16 61.7938 150.13 61.9393 150.088C61.7879 150.07 61.6349 150.07 61.4835 150.088C61.0687 150.143 60.6675 150.273 60.2998 150.474C59.7525 150.772 59.282 151.194 58.9253 151.705C58.4911 152.328 58.1517 153.011 57.9183 153.734C57.6804 154.449 57.5054 155.183 57.3954 155.929C57.3153 156.538 57.2716 157.151 57.2647 157.766C57.2647 158.286 57.2647 158.711 57.2647 159.001C57.2639 159.159 57.2793 159.317 57.3106 159.472Z" fill="#263238"/>
<path d="M57.3424 158.523C57.3471 158.454 57.3471 158.384 57.3424 158.315C57.3424 158.159 57.3177 157.961 57.3036 157.72C57.2718 157.203 57.2294 156.453 57.2011 155.525C57.141 153.674 57.2011 151.674 57.3248 148.849C57.459 146.194 57.6781 143.1 57.9643 141.061C58.0279 140.6 58.0915 140.186 58.1551 139.825C58.2187 139.464 58.2646 139.149 58.3141 138.894C58.3636 138.639 58.3918 138.459 58.4201 138.307C58.4364 138.238 58.4447 138.168 58.4448 138.098C58.4158 138.162 58.3955 138.23 58.3848 138.299C58.3459 138.452 58.3 138.653 58.2434 138.88C58.1869 139.107 58.1198 139.443 58.0526 139.807C57.9855 140.172 57.9042 140.583 57.8371 141.039C57.4634 143.432 57.2193 145.842 57.1057 148.261C56.9644 151.093 56.975 153.66 57.0704 155.514C57.1128 156.442 57.1799 157.192 57.2329 157.706C57.2612 157.95 57.2859 158.145 57.3036 158.3C57.3055 158.376 57.3186 158.451 57.3424 158.523Z" fill="#263238"/>
<path d="M57.063 153.586C57.0659 153.378 57.053 153.17 57.0241 152.963C56.9746 152.563 56.8863 151.99 56.7344 151.285C56.5433 150.465 56.3074 149.655 56.0277 148.86C55.7024 147.881 55.3019 146.928 54.8299 146.011C54.0163 144.315 52.9017 142.782 51.5404 141.487C51.3043 141.264 51.0541 141.057 50.7913 140.867C50.6782 140.782 50.5758 140.697 50.4733 140.63L50.1871 140.456C50.0145 140.341 49.8338 140.238 49.6465 140.148C50.2766 140.589 50.8796 141.068 51.452 141.582C52.7703 142.893 53.8563 144.42 54.6638 146.096C55.1276 147.011 55.529 147.958 55.8652 148.928C56.1867 149.816 56.4164 150.634 56.593 151.328C56.7697 152.022 56.8686 152.592 56.9464 152.984C56.9712 153.188 57.0102 153.389 57.063 153.586Z" fill="#263238"/>
<path d="M107.06 46.9348C106.956 46.9462 106.853 46.9687 106.753 47.0021C106.611 47.055 106.485 47.1428 106.387 47.2572C106.288 47.3716 106.219 47.5091 106.187 47.657C106.163 47.8791 106.157 48.1029 106.17 48.326C106.17 48.5774 106.17 48.85 106.17 49.1438C106.17 49.7361 106.17 50.4123 106.17 51.1722C106.17 52.6944 106.17 54.5458 106.187 56.6804C106.187 57.215 106.187 57.7672 106.187 58.3372V58.7655C106.178 58.9047 106.192 59.0445 106.226 59.1797C106.267 59.3113 106.338 59.4311 106.435 59.5291C106.532 59.6271 106.65 59.7003 106.781 59.7425C106.92 59.7804 107.065 59.7948 107.209 59.785H110.622V59.8594C110.622 61.1054 110.622 62.4294 110.622 63.7994L110.484 63.7427L114.413 59.7992L114.438 59.7744H114.473H129.723H131.896C132.073 59.7744 132.249 59.7744 132.426 59.7744C132.675 59.7519 132.909 59.6488 133.094 59.4808C133.279 59.3128 133.404 59.089 133.451 58.8434C133.472 58.6732 133.479 58.5015 133.472 58.3301V56.7442C133.472 56.0362 133.472 55.3494 133.472 54.6626V50.5916C133.472 49.9297 133.472 49.2748 133.472 48.6305V48.1455C133.469 47.9966 133.436 47.8499 133.376 47.7136C133.288 47.505 133.14 47.3269 132.952 47.2012C132.764 47.0754 132.543 47.0074 132.316 47.0056H125.667H119.42L110.378 46.9773L107.905 46.9596L110.378 46.9419L119.427 46.8711H125.674H132.369C132.538 46.871 132.705 46.9034 132.861 46.9667C133.179 47.1015 133.433 47.3555 133.567 47.6747C133.635 47.8325 133.672 48.002 133.677 48.1738V50.6235C133.677 51.9475 133.677 53.2986 133.677 54.6768V58.3442C133.684 58.5263 133.676 58.7087 133.652 58.8894C133.616 59.0784 133.54 59.2574 133.429 59.4144C133.318 59.5713 133.175 59.7026 133.009 59.7992C132.843 59.8958 132.657 59.9538 132.465 59.9691C132.267 59.9691 132.112 59.9691 131.917 59.9691H129.744H114.494L114.558 59.9443L110.618 63.8808L110.48 64.0189V63.8242C110.48 62.4542 110.48 61.1302 110.48 59.8841L110.555 59.9585H107.216C107.059 59.9692 106.901 59.9537 106.749 59.9125C106.597 59.8631 106.459 59.7773 106.347 59.6626C106.235 59.5479 106.152 59.4077 106.106 59.254C106.07 59.1071 106.056 58.9556 106.064 58.8044V58.3761C106.064 57.8062 106.064 57.2539 106.064 56.7194C106.064 54.5954 106.064 52.7333 106.081 51.2111C106.081 50.4489 106.081 49.7727 106.081 49.1827C106.081 48.8889 106.081 48.6163 106.081 48.365C106.074 48.138 106.084 47.9108 106.11 47.6853C106.147 47.5325 106.221 47.3915 106.327 47.2752C106.433 47.1589 106.566 47.0711 106.714 47.0198C106.82 46.9623 106.939 46.933 107.06 46.9348Z" fill="#263238"/>
<path d="M116.452 53.37C116.452 53.5747 116.392 53.7751 116.279 53.9456C116.166 54.1161 116.005 54.2492 115.816 54.3278C115.628 54.4065 115.42 54.4273 115.22 54.3875C115.019 54.3477 114.835 54.2492 114.69 54.1044C114.546 53.9597 114.448 53.7752 114.408 53.5743C114.368 53.3735 114.389 53.1653 114.467 52.9763C114.546 52.7873 114.679 52.6259 114.849 52.5126C115.019 52.3993 115.219 52.3391 115.423 52.3398C115.696 52.3398 115.958 52.4484 116.15 52.6416C116.343 52.8348 116.452 53.0968 116.452 53.37Z" fill="#455A64"/>
<path d="M120.518 53.37C120.518 53.5737 120.458 53.7729 120.345 53.9423C120.232 54.1117 120.071 54.2437 119.884 54.3217C119.696 54.3997 119.489 54.4201 119.29 54.3803C119.09 54.3406 118.907 54.2425 118.763 54.0984C118.619 53.9543 118.521 53.7708 118.482 53.571C118.442 53.3711 118.462 53.164 118.54 52.9758C118.618 52.7875 118.75 52.6266 118.919 52.5135C119.088 52.4003 119.287 52.3398 119.49 52.3398C119.763 52.3398 120.024 52.4484 120.217 52.6416C120.41 52.8348 120.518 53.0968 120.518 53.37Z" fill="#455A64"/>
<path d="M124.585 53.37C124.585 53.5737 124.525 53.7729 124.412 53.9423C124.299 54.1117 124.138 54.2437 123.95 54.3217C123.763 54.3997 123.556 54.4201 123.356 54.3803C123.157 54.3406 122.974 54.2425 122.83 54.0984C122.686 53.9543 122.588 53.7708 122.549 53.571C122.509 53.3711 122.529 53.164 122.607 52.9758C122.685 52.7875 122.817 52.6266 122.986 52.5135C123.155 52.4003 123.354 52.3398 123.557 52.3398C123.692 52.3398 123.826 52.3665 123.95 52.4183C124.075 52.47 124.189 52.5459 124.284 52.6416C124.38 52.7372 124.455 52.8508 124.507 52.9758C124.559 53.1007 124.585 53.2347 124.585 53.37Z" fill="#455A64"/>
<path d="M105.438 64.75H73.7195C73.5591 64.75 73.4003 64.7817 73.2522 64.8433C73.1041 64.9049 72.9695 64.9952 72.8563 65.109C72.743 65.2227 72.6533 65.3578 72.5923 65.5064C72.5312 65.655 72.5 65.8142 72.5005 65.9748V76.2408C72.5 76.4014 72.5312 76.5604 72.5923 76.7088C72.6534 76.8572 72.7432 76.992 72.8565 77.1055C72.9698 77.219 73.1043 77.3089 73.2524 77.3701C73.4006 77.4313 73.5593 77.4626 73.7195 77.4621H98.0995L101.986 81.3561V77.4621H105.442C105.682 77.4621 105.912 77.3667 106.081 77.1967C106.251 77.0268 106.346 76.7963 106.346 76.5559V65.6562C106.346 65.5369 106.323 65.4188 106.277 65.3086C106.231 65.1984 106.164 65.0984 106.08 65.0142C105.996 64.93 105.896 64.8633 105.785 64.818C105.675 64.7726 105.557 64.7495 105.438 64.75Z" fill="#455A64"/>
<path d="M79.7931 70.9448C79.7938 71.1783 79.7253 71.4067 79.5963 71.6011C79.4673 71.7955 79.2836 71.9471 79.0684 72.0368C78.8533 72.1264 78.6164 72.1501 78.3879 72.1047C78.1593 72.0593 77.9493 71.947 77.7846 71.7819C77.6198 71.6168 77.5077 71.4065 77.4624 71.1775C77.4171 70.9485 77.4407 70.7112 77.5302 70.4956C77.6197 70.2801 77.771 70.096 77.9651 69.9667C78.1591 69.8375 78.3871 69.7688 78.6201 69.7695C78.9312 69.7695 79.2296 69.8934 79.4495 70.1138C79.6695 70.3342 79.7931 70.6331 79.7931 70.9448Z" fill="#FAFAFA"/>
<path d="M101.407 69.7678C101.407 69.8174 97.121 69.8599 91.8351 69.8599C86.5492 69.8599 82.2598 69.8174 82.2598 69.7678C82.2598 69.7183 86.5457 69.6758 91.8351 69.6758C97.1245 69.6758 101.407 69.7147 101.407 69.7678Z" fill="#FAFAFA"/>
<path d="M101.407 71.4475C101.407 71.4971 97.121 71.5395 91.8351 71.5395C86.5492 71.5395 82.2598 71.4971 82.2598 71.4475C82.2598 71.3979 86.5457 71.3555 91.8351 71.3555C97.1245 71.3555 101.407 71.3944 101.407 71.4475Z" fill="#FAFAFA"/>
<path d="M91.2343 73.3577C91.2343 73.4108 89.2238 73.4497 86.7434 73.4497C84.263 73.4497 82.249 73.4108 82.249 73.3577C82.249 73.3046 84.2595 73.2656 86.7434 73.2656C89.2274 73.2656 91.2343 73.3081 91.2343 73.3577Z" fill="#FAFAFA"/>
<path d="M174.08 81.4219C173.978 81.4333 173.877 81.4558 173.78 81.4891C173.64 81.5407 173.516 81.6268 173.418 81.7394C173.32 81.8521 173.253 81.9876 173.221 82.1334C173.197 82.3532 173.191 82.5746 173.204 82.7954C173.204 83.0397 173.204 83.3087 173.204 83.599C173.204 84.1795 173.204 84.8451 173.204 85.5955C173.204 87.0965 173.204 88.9196 173.221 91.0224C173.221 91.5498 173.221 92.0844 173.221 92.6543V93.0756C173.212 93.2125 173.226 93.3499 173.26 93.4827C173.3 93.613 173.37 93.7317 173.465 93.8286C173.561 93.9255 173.678 93.9975 173.808 94.0384C173.945 94.0753 174.087 94.0885 174.228 94.0774H177.589V94.1553C177.589 95.3801 177.589 96.6828 177.589 98.0493L177.451 97.9926L181.338 94.0986L181.362 94.0738H198.573C198.75 94.0738 198.926 94.0738 199.096 94.0738C199.341 94.0527 199.572 93.9521 199.754 93.7872C199.937 93.6224 200.061 93.4023 200.107 93.1605C200.126 92.9926 200.133 92.8233 200.128 92.6543V89.0435C200.128 87.6877 200.128 86.3531 200.128 85.0504V82.6396C200.124 82.492 200.092 82.3464 200.032 82.2113C199.944 82.0108 199.799 81.8401 199.616 81.7196C199.433 81.5991 199.22 81.5338 199.001 81.5316H192.404H186.252L177.345 81.4998H174.925L177.345 81.4821L186.252 81.4537H192.404H195.831H199.011C199.263 81.4539 199.51 81.5277 199.721 81.666C199.931 81.8043 200.098 82.0012 200.198 82.2325C200.268 82.3872 200.306 82.5548 200.308 82.7246V85.1389C200.308 86.4416 200.308 87.7762 200.308 89.132V92.7428C200.316 92.9224 200.309 93.1025 200.287 93.2809C200.251 93.4672 200.176 93.6438 200.067 93.7983C199.957 93.9529 199.815 94.0819 199.651 94.1765C199.487 94.273 199.303 94.3311 199.114 94.3464C198.919 94.3464 198.76 94.3464 198.573 94.3464H196.453H181.429L181.489 94.3216C180.147 95.6668 178.851 96.9589 177.603 98.1979L177.469 98.336V98.1413C177.469 96.789 177.469 95.4863 177.469 94.2473L177.543 94.3216H174.257C174.101 94.3306 173.945 94.3151 173.794 94.2756C173.644 94.226 173.509 94.1414 173.399 94.0287C173.289 93.916 173.208 93.7785 173.161 93.6278C173.124 93.4822 173.111 93.3316 173.123 93.1818V92.7605C173.123 92.1976 173.123 91.656 173.123 91.1286C173.123 89.0258 173.123 87.2027 173.14 85.7017C173.14 84.9513 173.14 84.2857 173.14 83.7052C173.14 83.4149 173.14 83.1459 173.14 82.9016C173.133 82.677 173.142 82.4522 173.168 82.229C173.205 82.0778 173.278 81.9381 173.383 81.823C173.487 81.7079 173.619 81.6211 173.766 81.5706C173.856 81.4947 173.964 81.4435 174.08 81.4219Z" fill="#263238"/>
<path d="M178.501 88.2607C179.149 88.2607 179.674 87.7345 179.674 87.0854C179.674 86.4363 179.149 85.9102 178.501 85.9102C177.853 85.9102 177.328 86.4363 177.328 87.0854C177.328 87.7345 177.853 88.2607 178.501 88.2607Z" fill="#455A64"/>
<path d="M197.245 85.9084C197.245 85.9615 193.86 86.0005 189.687 86.0005C185.514 86.0005 182.133 85.9615 182.133 85.9084C182.133 85.8553 185.514 85.8164 189.687 85.8164C193.86 85.8164 197.245 85.8589 197.245 85.9084Z" fill="#263238"/>
<path d="M197.245 87.5881C197.245 87.6412 193.86 87.6802 189.687 87.6802C185.514 87.6802 182.133 87.6412 182.133 87.5881C182.133 87.535 185.514 87.4961 189.687 87.4961C193.86 87.4961 197.245 87.5386 197.245 87.5881Z" fill="#263238"/>
<path d="M191.115 89.4983C191.115 89.5479 189.104 89.5903 186.624 89.5903C184.143 89.5903 182.133 89.5479 182.133 89.4983C182.133 89.4487 184.143 89.4062 186.624 89.4062C189.104 89.4062 191.115 89.4487 191.115 89.4983Z" fill="#263238"/>
<path d="M166.83 61.9142H182.32C182.48 61.9137 182.639 61.945 182.788 62.0061C182.936 62.0673 183.071 62.1572 183.184 62.2706C183.298 62.3841 183.388 62.5189 183.449 62.6673C183.511 62.8157 183.542 62.9748 183.542 63.1355V73.4015C183.542 73.7263 183.414 74.0379 183.184 74.2676C182.955 74.4973 182.644 74.6263 182.32 74.6263H174.158L170.271 78.5203V74.6263H166.819C166.579 74.6263 166.349 74.531 166.178 74.3611C166.008 74.1912 165.912 73.9608 165.911 73.7201V62.8204C165.911 62.7002 165.935 62.5812 165.981 62.4703C166.028 62.3594 166.096 62.2589 166.181 62.1745C166.267 62.0902 166.368 62.0238 166.479 61.9791C166.591 61.9344 166.71 61.9123 166.83 61.9142Z" fill="#FBDEF5"/>
<path d="M171.964 68.4954C171.964 68.6761 171.91 68.8529 171.81 69.0031C171.71 69.1534 171.567 69.2705 171.4 69.3395C171.233 69.4085 171.05 69.4264 170.873 69.3909C170.696 69.3553 170.534 69.268 170.406 69.1399C170.279 69.0118 170.192 68.8488 170.158 68.6714C170.123 68.494 170.141 68.3102 170.211 68.1434C170.281 67.9766 170.398 67.8342 170.548 67.7342C170.699 67.6343 170.875 67.5813 171.056 67.582C171.175 67.582 171.294 67.6057 171.404 67.6516C171.514 67.6976 171.615 67.7649 171.699 67.8498C171.783 67.9346 171.85 68.0353 171.896 68.1461C171.941 68.2569 171.964 68.3756 171.964 68.4954Z" fill="#FAFAFA"/>
<path d="M175.568 68.4954C175.568 68.676 175.514 68.8526 175.414 69.0028C175.314 69.153 175.172 69.27 175.005 69.3392C174.839 69.4083 174.655 69.4264 174.478 69.3911C174.302 69.3559 174.139 69.2689 174.012 69.1412C173.884 69.0134 173.797 68.8507 173.762 68.6735C173.727 68.4964 173.745 68.3127 173.814 68.1458C173.883 67.979 174 67.8363 174.15 67.736C174.3 67.6356 174.476 67.582 174.656 67.582C174.776 67.5816 174.895 67.6049 175.006 67.6506C175.116 67.6963 175.217 67.7636 175.302 67.8485C175.387 67.9334 175.454 68.0343 175.499 68.1453C175.545 68.2563 175.568 68.3753 175.568 68.4954Z" fill="#FAFAFA"/>
<path d="M179.172 68.4954C179.172 68.676 179.118 68.8526 179.018 69.0028C178.918 69.153 178.776 69.27 178.609 69.3391C178.443 69.4083 178.259 69.4264 178.082 69.3911C177.906 69.3559 177.743 69.2689 177.616 69.1412C177.488 69.0134 177.401 68.8507 177.366 68.6735C177.331 68.4964 177.349 68.3127 177.418 68.1458C177.487 67.979 177.604 67.8363 177.754 67.736C177.904 67.6356 178.08 67.582 178.26 67.582C178.502 67.582 178.734 67.6783 178.905 67.8495C179.076 68.0208 179.172 68.2531 179.172 68.4954Z" fill="#FAFAFA"/>
</svg>
