<svg width="238" height="238" viewBox="0 0 238 238" fill="none" xmlns="http://www.w3.org/2000/svg">
<path d="M119.486 234.107C182.221 234.107 233.078 203.342 233.078 165.391C233.078 127.441 182.221 96.6758 119.486 96.6758C56.7502 96.6758 5.89307 127.441 5.89307 165.391C5.89307 203.342 56.7502 234.107 119.486 234.107Z" fill="#F5F5F5"/>
<path d="M139.943 106.42C134.193 109.752 134.193 115.126 139.943 118.448C145.693 121.771 155.023 121.78 160.778 118.448C166.533 115.116 166.533 109.742 160.778 106.42C155.023 103.097 145.708 103.097 139.943 106.42Z" fill="#E0E0E0"/>
<path d="M48.7899 169.784L14.356 150.087C14.2742 150.049 14.2051 149.988 14.1567 149.912C14.1082 149.836 14.0825 149.747 14.0825 149.657C14.0825 149.566 14.1082 149.478 14.1567 149.402C14.2051 149.325 14.2742 149.264 14.356 149.226L108.371 94.9619C108.602 94.8444 108.858 94.7832 109.118 94.7832C109.378 94.7832 109.634 94.8444 109.865 94.9619L144.299 114.659C144.381 114.697 144.45 114.758 144.499 114.834C144.547 114.911 144.573 114.999 144.573 115.09C144.573 115.18 144.547 115.268 144.499 115.345C144.45 115.421 144.381 115.482 144.299 115.52L50.2845 169.784C50.0529 169.902 49.7969 169.963 49.5372 169.963C49.2775 169.963 49.0215 169.902 48.7899 169.784Z" fill="#E0E0E0"/>
<path d="M75.8554 199.872C80.5085 199.872 84.2806 197.694 84.2806 195.007C84.2806 192.321 80.5085 190.143 75.8554 190.143C71.2023 190.143 67.4302 192.321 67.4302 195.007C67.4302 197.694 71.2023 199.872 75.8554 199.872Z" fill="#E0E0E0"/>
<path d="M225.276 172.336L135.517 224.105L89.9448 197.94L179.704 146.17L225.276 172.336Z" fill="#E0E0E0"/>
<path d="M23.0287 138.892C23.0287 138.892 23.2429 131.833 21.5246 126.954C19.8062 122.075 16.4504 118.553 13.028 117.434C9.60554 116.316 6.0403 118.862 9.24854 121.961C12.4568 125.06 18.5639 128.868 19.6634 137.821L23.0287 138.892Z" fill="#301D2C"/>
<g opacity="0.15">
<path d="M23.0287 138.892C23.0287 138.892 23.2429 131.833 21.5246 126.954C19.8062 122.075 16.4504 118.553 13.028 117.434C9.60554 116.316 6.0403 118.862 9.24854 121.961C12.4568 125.06 18.5639 128.868 19.6634 137.821L23.0287 138.892Z" fill="black"/>
</g>
<path d="M21.6439 135.789H21.682C21.7322 135.781 21.7772 135.753 21.8074 135.713C21.8376 135.672 21.8507 135.621 21.8438 135.57C20.3016 125.665 14.1898 120.219 11.1767 118.734C11.1312 118.711 11.0786 118.708 11.0304 118.724C10.9822 118.74 10.9424 118.774 10.9196 118.82C10.8969 118.865 10.8932 118.918 10.9092 118.966C10.9253 119.014 10.9599 119.054 11.0053 119.077C13.9613 120.529 19.9446 125.865 21.4773 135.627C21.4825 135.669 21.5019 135.708 21.5322 135.738C21.5625 135.767 21.6019 135.785 21.6439 135.789Z" fill="white"/>
<path d="M7.57812 129.577C7.6162 130.329 8.19216 130.933 8.74908 131.448C9.306 131.962 9.90576 132.514 10.0248 133.256C10.2723 134.756 8.43968 136.041 8.74908 137.54C9.05848 139.04 10.9149 139.492 12.1239 139.996C12.9337 140.268 13.604 140.848 13.9898 141.61C14.1783 142.292 14.2221 143.005 14.1184 143.705C14.0708 144.99 14.2945 146.898 15.3512 147.779C16.5745 148.802 18.6499 149.364 20.1112 148.664C22.853 147.351 25.6376 145.261 25.8994 141.977C25.9706 141.012 25.8241 140.043 25.4707 139.143C25.1172 138.242 24.5658 137.433 23.8573 136.774C23.3147 136.274 22.6911 135.874 22.177 135.346C21.1251 134.275 21.3012 132.809 20.9775 131.433C20.6872 130.205 19.4972 129.61 18.3357 129.377C17.1743 129.144 16.0128 129.377 14.9656 128.901C13.9184 128.425 13.0616 127.797 11.9621 127.473C11.3968 127.276 10.7941 127.21 10.1995 127.28C9.60498 127.35 9.03414 127.554 8.53013 127.878C8.24509 128.062 8.00938 128.313 7.84348 128.609C7.67757 128.905 7.58648 129.238 7.57812 129.577Z" fill="#301D2C"/>
<path d="M20.782 145.123C20.8043 145.125 20.8268 145.124 20.8483 145.117C20.8699 145.111 20.8899 145.1 20.9072 145.086C20.9246 145.072 20.9388 145.054 20.9492 145.034C20.9596 145.015 20.9659 144.993 20.9676 144.97C22.0719 134.356 12.4472 129.096 10.0196 128.363C9.99838 128.356 9.97603 128.354 9.95391 128.356C9.93179 128.359 9.91034 128.365 9.89082 128.376C9.8713 128.386 9.85411 128.401 9.84026 128.418C9.82641 128.436 9.81619 128.456 9.81018 128.477C9.79664 128.52 9.80054 128.567 9.82102 128.607C9.84151 128.647 9.87694 128.677 9.91966 128.691C12.2997 129.405 21.7245 134.551 20.6487 144.937C20.6431 144.979 20.6537 145.022 20.6785 145.056C20.7033 145.091 20.7403 145.115 20.782 145.123Z" fill="white"/>
<path d="M11.3623 135.942C11.3946 135.953 11.43 135.953 11.4623 135.942C12.708 135.483 14.0397 135.306 15.362 135.422C16.6844 135.538 17.9647 135.945 19.1116 136.613C19.1508 136.635 19.1973 136.642 19.241 136.63C19.2846 136.618 19.322 136.59 19.3448 136.551C19.3558 136.531 19.3628 136.51 19.3654 136.487C19.3679 136.465 19.3661 136.442 19.3599 136.421C19.3537 136.399 19.3433 136.379 19.3293 136.361C19.3153 136.343 19.2979 136.329 19.2782 136.318C18.0855 135.623 16.754 135.201 15.379 135.08C14.0039 134.96 12.6194 135.146 11.3242 135.623C11.2905 135.637 11.2622 135.661 11.2437 135.693C11.2252 135.724 11.2176 135.761 11.2219 135.797C11.2262 135.833 11.2423 135.867 11.2676 135.893C11.293 135.919 11.3263 135.936 11.3623 135.942Z" fill="white"/>
<path d="M139.049 94.9581C139.056 94.8866 139.082 94.8181 139.124 94.7596C139.165 94.7011 139.222 94.6547 139.287 94.6249C139.465 94.5357 139.662 94.4893 139.861 94.4893C140.06 94.4893 140.256 94.5357 140.434 94.6249C140.5 94.6547 140.556 94.7011 140.598 94.7596C140.64 94.8181 140.665 94.8866 140.672 94.9581L137.783 112.008C137.777 112.058 137.759 112.104 137.729 112.144C137.7 112.184 137.661 112.216 137.616 112.237C137.491 112.3 137.352 112.333 137.212 112.333C137.071 112.333 136.933 112.3 136.807 112.237C136.762 112.216 136.723 112.184 136.694 112.144C136.665 112.104 136.647 112.058 136.641 112.008L139.049 94.9581Z" fill="#455A64"/>
<path d="M161.321 94.9581C161.315 94.8863 161.29 94.8174 161.248 94.7587C161.206 94.7001 161.149 94.6538 161.083 94.6249C160.905 94.5357 160.709 94.4893 160.51 94.4893C160.311 94.4893 160.114 94.5357 159.936 94.6249C159.871 94.6547 159.814 94.7011 159.773 94.7596C159.731 94.8181 159.705 94.8866 159.698 94.9581L162.588 112.008C162.594 112.057 162.613 112.104 162.642 112.144C162.671 112.183 162.71 112.215 162.754 112.237C162.881 112.3 163.02 112.333 163.161 112.333C163.302 112.333 163.442 112.3 163.568 112.237C163.613 112.215 163.651 112.183 163.68 112.144C163.709 112.104 163.728 112.057 163.735 112.008L161.321 94.9581Z" fill="#455A64"/>
<path d="M151.097 96.2478C151.09 96.177 151.064 96.1093 151.022 96.0516C150.981 95.994 150.924 95.9484 150.859 95.9194C150.682 95.828 150.485 95.7803 150.286 95.7803C150.086 95.7803 149.889 95.828 149.712 95.9194C149.647 95.9484 149.591 95.994 149.549 96.0516C149.507 96.1093 149.481 96.177 149.474 96.2478L149.712 116.53C149.718 116.579 149.736 116.626 149.765 116.667C149.794 116.707 149.834 116.738 149.879 116.759C150.004 116.824 150.144 116.858 150.286 116.858C150.427 116.858 150.567 116.824 150.693 116.759C150.738 116.738 150.777 116.707 150.806 116.667C150.835 116.626 150.854 116.579 150.859 116.53L151.097 96.2478Z" fill="#455A64"/>
<path d="M164.82 89.3411C164.82 87.1943 163.392 85.0571 160.574 83.4054C154.896 80.1305 145.695 80.1305 140.016 83.4054C137.16 85.0476 135.77 87.2134 135.77 89.3411V90.493C135.803 92.616 137.227 94.7294 140.025 96.3431C145.704 99.6227 154.905 99.6227 160.584 96.3431C163.388 94.7294 164.806 92.616 164.839 90.493L164.82 89.3411Z" fill="#301D2C"/>
<path d="M140.006 83.4054C134.327 86.685 134.327 91.9972 140.006 95.2768C145.685 98.5564 154.886 98.5517 160.565 95.2768C166.243 92.0019 166.243 86.7088 160.565 83.4054C154.886 80.1019 145.685 80.1305 140.006 83.4054Z" fill="#301D2C"/>
<path opacity="0.45" d="M140.006 83.4054C134.327 86.685 134.327 91.9972 140.006 95.2768C145.685 98.5564 154.886 98.5517 160.565 95.2768C166.243 92.0019 166.243 86.7088 160.565 83.4054C154.886 80.1019 145.685 80.1305 140.006 83.4054Z" fill="white"/>
<g opacity="0.05">
<path d="M153.468 86.5661C155.281 87.6133 155.281 89.3079 153.468 90.3741C152.452 90.8882 151.329 91.156 150.191 91.156C149.052 91.156 147.929 90.8882 146.913 90.3741C145.1 89.3269 145.1 87.6323 146.913 86.5661C147.929 86.052 149.052 85.7842 150.191 85.7842C151.329 85.7842 152.452 86.052 153.468 86.5661Z" fill="black"/>
</g>
<path d="M147.308 88.693C145.728 87.0841 144.804 83.0667 146.356 81.791H154.181C155.719 83.0667 154.795 87.0841 153.229 88.693L153.187 88.7359L153.129 88.7882L152.987 88.9167L152.949 88.9453L152.83 89.0357C152.765 89.0819 152.698 89.1248 152.63 89.1643C151.902 89.535 151.097 89.7282 150.281 89.7282C149.464 89.7282 148.659 89.535 147.932 89.1643C147.86 89.1262 147.794 89.0833 147.722 89.0357L147.613 88.9501L147.565 88.9167L147.432 88.793L147.365 88.7311L147.308 88.693Z" fill="#EBEBEB"/>
<path d="M153.486 81.2773C155.276 82.3055 155.276 83.981 153.486 85.0092C152.485 85.5176 151.378 85.7826 150.254 85.7826C149.131 85.7826 148.024 85.5176 147.022 85.0092C145.237 83.981 145.237 82.3055 147.022 81.2773C148.024 80.7689 149.131 80.5039 150.254 80.5039C151.378 80.5039 152.485 80.7689 153.486 81.2773Z" fill="#FAFAFA"/>
<path d="M152.221 82.0058C153.311 82.6342 153.311 83.6528 152.221 84.2811C151.611 84.5887 150.938 84.7489 150.255 84.7489C149.572 84.7489 148.899 84.5887 148.289 84.2811C147.204 83.6528 147.204 82.6342 148.289 82.0058C148.899 81.6983 149.572 81.5381 150.255 81.5381C150.938 81.5381 151.611 81.6983 152.221 82.0058Z" fill="#EBEBEB"/>
<path d="M148.289 83.0865C148.898 82.7767 149.571 82.6152 150.255 82.6152C150.938 82.6152 151.612 82.7767 152.221 83.0865C152.483 83.2284 152.707 83.4327 152.873 83.6815C152.709 83.9329 152.485 84.1391 152.221 84.2812C151.611 84.5888 150.938 84.749 150.255 84.749C149.572 84.749 148.899 84.5888 148.289 84.2812C148.025 84.1391 147.8 83.9329 147.637 83.6815C147.802 83.4327 148.026 83.2284 148.289 83.0865Z" fill="#E0E0E0"/>
<path d="M151.983 83.6811C152.542 83.1134 153.022 82.473 153.411 81.7771C154.068 80.6157 154.192 79.0592 153.849 78.864C153.506 78.6688 152.126 80.2254 152.126 80.2254C152.253 79.5719 152.303 78.9056 152.273 78.2404C152.216 77.2075 151.964 76.265 151.664 76.0794C151.364 75.8938 150.712 77.1932 150.422 78.1405C150.131 79.0877 149.969 79.8636 149.969 79.8636C149.855 79.1266 149.685 78.3994 149.46 77.6883C149.113 76.703 148.798 76.484 148.556 76.5792C148.313 76.6744 148.156 77.1361 148.08 78.4404C148.052 79.0661 148.071 79.6929 148.137 80.3158C148.137 80.3158 147.661 79.7779 147.109 79.2591C146.556 78.7402 146.261 78.607 146.09 78.7164C145.919 78.8259 145.871 79.716 146.794 81.382C147.251 82.2295 147.837 83.0004 148.532 83.6668C148.532 83.6668 149.808 84.5046 151.983 83.6811Z" fill="#301D2C"/>
<path opacity="0.3" d="M151.983 83.6811C152.542 83.1134 153.022 82.473 153.411 81.7771C154.068 80.6157 154.192 79.0592 153.849 78.864C153.506 78.6688 152.126 80.2254 152.126 80.2254C152.253 79.5719 152.303 78.9056 152.273 78.2404C152.216 77.2075 151.964 76.265 151.664 76.0794C151.364 75.8938 150.712 77.1932 150.422 78.1405C150.131 79.0877 149.969 79.8636 149.969 79.8636C149.855 79.1266 149.685 78.3994 149.46 77.6883C149.113 76.703 148.798 76.484 148.556 76.5792C148.313 76.6744 148.156 77.1361 148.08 78.4404C148.052 79.0661 148.071 79.6929 148.137 80.3158C148.137 80.3158 147.661 79.7779 147.109 79.2591C146.556 78.7402 146.261 78.607 146.09 78.7164C145.919 78.8259 145.871 79.716 146.794 81.382C147.251 82.2295 147.837 83.0004 148.532 83.6668C148.532 83.6668 149.808 84.5046 151.983 83.6811Z" fill="black"/>
<path d="M151.106 60.4094C150.944 60.2989 150.755 60.2351 150.559 60.225C150.364 60.215 150.169 60.259 149.997 60.3523C148.911 60.8283 147.879 62.4657 147.693 64.0365C147.583 64.9885 147.798 65.6597 148.217 65.9691L149.307 66.7783C149.468 66.8866 149.657 66.9487 149.851 66.958C150.046 66.9672 150.239 66.9232 150.411 66.8306C151.496 66.3546 152.529 64.7172 152.715 63.1464C152.824 62.223 152.615 61.5328 152.201 61.2424C152.015 61.0806 151.291 60.5474 151.106 60.4094Z" fill="#301D2C"/>
<path opacity="0.3" d="M151.106 60.4094C150.944 60.2989 150.755 60.2351 150.559 60.225C150.364 60.215 150.169 60.259 149.997 60.3523C148.911 60.8283 147.879 62.4657 147.693 64.0365C147.583 64.9885 147.798 65.6597 148.217 65.9691L149.307 66.7783C149.468 66.8866 149.657 66.9487 149.851 66.958C150.046 66.9672 150.239 66.9232 150.411 66.8306C151.496 66.3546 152.529 64.7172 152.715 63.1464C152.824 62.223 152.615 61.5328 152.201 61.2424C152.015 61.0806 151.291 60.5474 151.106 60.4094Z" fill="black"/>
<path d="M153.014 55.0214C152.115 54.3598 150.92 54.2503 149.535 54.8453C147.155 55.8592 145.289 58.2297 143.913 61.4855C143.633 62.1471 143.656 62.8088 143.966 63.0563C144.327 63.3467 144.951 63.7655 145.256 64.0083C145.641 64.3177 146.322 63.8512 146.684 63.0182C147.636 60.7096 148.859 59.1626 150.525 58.4486C151.063 58.1926 151.669 58.1191 152.253 58.2392C152.44 58.5341 152.583 58.8549 152.677 59.1912C152.706 59.3166 152.777 59.4287 152.876 59.5101L154.176 60.4621C154.452 60.662 154.909 60.4621 155.29 59.9528C155.483 59.7028 155.622 59.4157 155.699 59.1093C155.776 58.803 155.789 58.4841 155.737 58.1725C155.517 57.3117 155.027 56.5442 154.338 55.9829L153.014 55.0214Z" fill="#301D2C"/>
<path opacity="0.3" d="M153.014 55.0214C152.115 54.3598 150.92 54.2503 149.535 54.8453C147.155 55.8592 145.289 58.2297 143.913 61.4855C143.633 62.1471 143.656 62.8088 143.966 63.0563C144.327 63.3467 144.951 63.7655 145.256 64.0083C145.641 64.3177 146.322 63.8512 146.684 63.0182C147.636 60.7096 148.859 59.1626 150.525 58.4486C151.063 58.1926 151.669 58.1191 152.253 58.2392C152.44 58.5341 152.583 58.8549 152.677 59.1912C152.706 59.3166 152.777 59.4287 152.876 59.5101L154.176 60.4621C154.452 60.662 154.909 60.4621 155.29 59.9528C155.483 59.7028 155.622 59.4157 155.699 59.1093C155.776 58.803 155.789 58.4841 155.737 58.1725C155.517 57.3117 155.027 56.5442 154.338 55.9829L153.014 55.0214Z" fill="black"/>
<path d="M157.66 53.398C157.265 52.3208 156.578 51.3748 155.676 50.6657C155.452 50.4991 154.576 49.847 154.357 49.7137C152.929 48.638 150.987 48.4619 148.764 49.4139C145.251 50.9228 142.409 53.8883 140.163 58.634C139.834 59.3337 139.815 60.062 140.163 60.3428C140.539 60.6475 141.115 61.0283 141.453 61.2948C141.824 61.5995 142.467 61.1663 142.838 60.3761C144.661 56.492 146.879 54.2548 149.754 53.0172C151.239 52.3841 152.558 52.3651 153.638 52.8601C154.078 53.3608 154.425 53.9364 154.662 54.5594C154.7 54.6626 154.766 54.7532 154.852 54.8212L156.147 55.7732C156.428 55.9827 156.875 55.8065 157.261 55.2972C157.467 55.0318 157.611 54.7229 157.68 54.3938C157.749 54.0647 157.742 53.7241 157.66 53.398Z" fill="#301D2C"/>
<path opacity="0.3" d="M157.66 53.398C157.265 52.3208 156.578 51.3748 155.676 50.6657C155.452 50.4991 154.576 49.847 154.357 49.7137C152.929 48.638 150.987 48.4619 148.764 49.4139C145.251 50.9228 142.409 53.8883 140.163 58.634C139.834 59.3337 139.815 60.062 140.163 60.3428C140.539 60.6475 141.115 61.0283 141.453 61.2948C141.824 61.5995 142.467 61.1663 142.838 60.3761C144.661 56.492 146.879 54.2548 149.754 53.0172C151.239 52.3841 152.558 52.3651 153.638 52.8601C154.078 53.3608 154.425 53.9364 154.662 54.5594C154.7 54.6626 154.766 54.7532 154.852 54.8212L156.147 55.7732C156.428 55.9827 156.875 55.8065 157.261 55.2972C157.467 55.0318 157.611 54.7229 157.68 54.3938C157.749 54.0647 157.742 53.7241 157.66 53.398Z" fill="black"/>
<path d="M152.715 63.1469C152.529 64.7177 151.496 66.3646 150.411 66.8311C149.326 67.2976 148.593 66.4075 148.778 64.8415C148.964 63.2754 149.997 61.6237 151.082 61.1572C152.167 60.6907 152.9 61.5809 152.715 63.1469Z" fill="#301D2C"/>
<path d="M150.83 55.8018C148.45 56.8204 146.58 59.1909 145.209 62.4657C144.928 63.1274 144.952 63.789 145.256 64.0366C145.642 64.346 146.323 63.8795 146.684 63.0465C147.636 60.7379 148.86 59.1909 150.526 58.4769C152.192 57.7629 153.482 58.4769 153.972 60.1667C154.148 60.7807 154.786 60.6807 155.29 59.9858C155.484 59.7358 155.623 59.4487 155.7 59.1424C155.777 58.836 155.79 58.5171 155.738 58.2056C155.024 55.816 153.196 54.7879 150.83 55.8018Z" fill="#301D2C"/>
<path d="M150.059 50.3464C146.541 51.8601 143.699 54.8208 141.457 59.5713C141.124 60.2663 141.11 60.9993 141.457 61.2754C141.829 61.58 142.471 61.1469 142.843 60.3567C144.666 56.4725 146.884 54.2353 149.759 52.9977C152.634 51.7601 154.909 52.8454 155.947 55.4967C156.161 56.0394 156.761 55.9394 157.251 55.2635C157.455 55.0022 157.598 54.6985 157.669 54.3747C157.739 54.0509 157.737 53.7154 157.66 53.3928C156.371 50.1655 153.586 48.8375 150.059 50.3464Z" fill="#301D2C"/>
<path d="M109.504 97.9462L111.47 96.8134L122.175 40.8072C122.532 38.9365 121.49 38.1892 119.838 39.1412L33.8817 88.7071C32.0696 89.8898 30.772 91.7145 30.2499 93.8145L19.7493 148.754C19.688 149.065 19.7241 149.386 19.8528 149.675C19.9815 149.964 20.1964 150.206 20.4681 150.368L44.5584 164.31L134.465 112.426L109.504 97.9462Z" fill="#455A64"/>
<path d="M31.326 94.5051L20.854 149.34L112.722 96.6519L123.256 41.493C123.613 39.6271 122.566 38.8797 120.919 39.8317L34.9626 89.3976C33.1487 90.5795 31.8494 92.4043 31.326 94.5051Z" fill="#263238"/>
<path d="M110.747 97.4326L20.835 149.34L45.2633 163.449L135.17 111.541L110.747 97.4326Z" fill="#37474F"/>
<path d="M122.375 40.902L35.7429 90.8249C33.8389 91.9197 33.2487 93.6809 33.5867 96.0323L42.9924 161.649C43.3304 163.986 45.1915 165.357 47.0908 164.257L132.947 114.715C134.851 113.621 136.112 110.836 135.779 108.494L126.421 43.1535C126.088 40.8163 124.274 39.8072 122.375 40.902Z" fill="#455A64"/>
<path d="M128.216 42.4305C127.83 42.2977 127.419 42.2548 127.014 42.3052C126.608 42.3555 126.22 42.4977 125.879 42.7208L40.0224 92.2725C39.0604 92.8756 38.2985 93.7502 37.8328 94.7857L35.0625 93.61C35.6718 92.282 36.7333 91.7965 37.6424 91.2681L123.494 41.7165C123.848 41.482 124.254 41.3369 124.677 41.2938C125.1 41.2507 125.527 41.3108 125.921 41.469L128.216 42.4305Z" fill="#301D2C"/>
<path opacity="0.1" d="M128.216 42.4305C127.83 42.2977 127.419 42.2548 127.014 42.3052C126.608 42.3555 126.22 42.4977 125.879 42.7208L40.0224 92.2725C39.0604 92.8756 38.2985 93.7502 37.8328 94.7857L35.0625 93.61C35.6718 92.282 36.7333 91.7965 37.6424 91.2681L123.494 41.7165C123.848 41.482 124.254 41.3369 124.677 41.2938C125.1 41.2507 125.527 41.3108 125.921 41.469L128.216 42.4305Z" fill="black"/>
<path d="M45.7769 164.982C44.9249 164.634 44.2966 163.749 44.1109 162.464L34.8099 97.485C34.6004 96.0237 34.529 94.7147 35.0622 93.6104L37.8325 94.7861C37.7611 94.9384 37.6944 95.0955 37.6278 95.2621C37.5612 95.4287 37.5326 95.5191 37.4898 95.6476C37.487 95.6666 37.487 95.6858 37.4898 95.7047C37.4374 95.8523 37.3946 96.0046 37.3565 96.1522C37.3184 96.2997 37.2803 96.4663 37.2565 96.6282C37.2336 96.7462 37.2178 96.8654 37.2089 96.9852C37.1375 97.4888 37.1375 98 37.2089 98.5036L46.548 163.825C46.7337 165.125 47.3763 166.019 48.2378 166.362L45.7769 164.982Z" fill="#301D2C"/>
<path opacity="0.3" d="M48.2383 166.362L48.1002 166.305L45.7773 164.987C44.9253 164.639 44.297 163.758 44.1113 162.469L34.8103 97.4897C34.5961 96.0237 34.5295 94.7147 35.0578 93.6104L37.4378 94.6099C37.0256 95.6399 36.915 96.7658 37.1189 97.8563L37.2141 98.4941L46.5485 163.835C46.5581 163.916 46.5724 163.997 46.5913 164.077C46.598 164.121 46.6076 164.164 46.6199 164.206C46.6291 164.266 46.6434 164.325 46.6627 164.382C46.6627 164.444 46.6913 164.501 46.7103 164.558L46.7674 164.725C46.7895 164.792 46.8166 164.857 46.8483 164.92C46.8769 164.987 46.9055 165.048 46.9388 165.11C46.9721 165.172 47.0007 165.229 47.034 165.286C47.1316 165.456 47.2464 165.616 47.3767 165.762L47.5005 165.891L47.6385 166.015C47.8195 166.161 48.0217 166.278 48.2383 166.362Z" fill="black"/>
<path d="M125.878 42.726L39.2461 92.6441C37.3421 93.7437 36.7566 95.5001 37.0898 97.8801L46.5384 163.854C46.8716 166.196 48.6852 167.186 50.5844 166.105L136.445 116.535C138.349 115.44 139.615 112.65 139.301 110.313L129.948 44.9775C129.591 42.6356 127.777 41.6312 125.878 42.726Z" fill="#301D2C"/>
<path opacity="0.2" d="M125.878 42.726L39.2461 92.6441C37.3421 93.7437 36.7566 95.5001 37.0898 97.8801L46.5384 163.854C46.8716 166.196 48.6852 167.186 50.5844 166.105L136.445 116.535C138.349 115.44 139.615 112.65 139.301 110.313L129.948 44.9775C129.591 42.6356 127.777 41.6312 125.878 42.726Z" fill="black"/>
<path d="M131.4 116.143L54.764 160.364C53.7787 160.935 52.86 160.411 52.6648 159.198L43.6018 95.8752C43.5293 95.2548 43.6276 94.6264 43.8859 94.0577C44.1443 93.489 44.5529 93.0015 45.0679 92.648L121.704 48.4276C122.689 47.8564 123.608 48.38 123.798 49.5938L132.866 112.926C132.939 113.545 132.841 114.172 132.582 114.739C132.324 115.306 131.915 115.792 131.4 116.143Z" fill="#263238"/>
<path d="M43.6019 95.8754L52.6697 159.207L52.6983 159.35L129.334 115.125C129.851 114.774 130.261 114.288 130.519 113.719C130.778 113.151 130.875 112.522 130.8 111.902L121.709 48.4277L45.0728 92.6481C44.557 93.0011 44.1474 93.4883 43.8881 94.0571C43.6289 94.6258 43.53 95.2545 43.6019 95.8754Z" fill="#301D2C"/>
<path opacity="0.85" d="M43.6019 95.8754L52.6697 159.207L52.6983 159.35L129.334 115.125C129.851 114.774 130.261 114.288 130.519 113.719C130.778 113.151 130.875 112.522 130.8 111.902L121.709 48.4277L45.0728 92.6481C44.557 93.0011 44.1474 93.4883 43.8881 94.0571C43.6289 94.6258 43.53 95.2545 43.6019 95.8754Z" fill="white"/>
<path d="M46.2529 131.299C46.2898 131.611 46.2405 131.927 46.1104 132.212C45.9803 132.497 45.7744 132.741 45.5151 132.918C45.0391 133.203 44.5631 132.942 44.4584 132.332C44.4241 132.018 44.4771 131.7 44.6114 131.414C44.7458 131.128 44.9563 130.884 45.22 130.709C45.696 130.424 46.172 130.685 46.2529 131.299Z" fill="#263238"/>
<path d="M43.7918 120.728C43.59 120.866 43.4298 121.056 43.3283 121.279C43.2268 121.501 43.1879 121.747 43.2158 121.989L44.025 127.63C44.0917 128.106 44.4582 128.306 44.8437 128.106C45.0455 127.968 45.2057 127.778 45.3072 127.555C45.4087 127.333 45.4476 127.087 45.4197 126.845L44.6105 121.204C44.5201 120.714 44.1535 120.509 43.7918 120.728Z" fill="#263238"/>
<path d="M107.49 127.716L96.909 133.823L94.4386 135.251L77.8071 144.842C78.9876 134.37 80.9392 119.685 83.0431 114.987L106.367 115.463L107.49 127.716Z" fill="#455A64"/>
<path d="M103.516 121.189C101.959 126.43 97.1993 128.996 97.1993 128.996L96.9089 133.846L94.4385 135.274L95.1334 127.982C95.1334 127.982 101.202 125.512 103.516 121.189Z" fill="#37474F"/>
<path d="M98.3086 83.4382C100.146 82.2815 103.649 81.3628 106.634 82.3862C110.994 79.8872 114.826 80.3775 118.501 80.9344C119.41 81.0725 122.423 80.6345 122.994 81.1534C123.427 81.5485 123.551 82.0102 123.76 82.9289L121.928 87.8079C118.743 88.4409 116.906 89.2359 112.346 89.9403C108.752 90.5068 106.453 90.859 106.058 92.5583C102.851 90.1083 100.209 86.9981 98.3086 83.4382Z" fill="#FFA8A7"/>
<path d="M125.312 86.0229C125.916 85.2661 125.935 84.3379 125.864 83.1241C125.754 81.1772 125.421 77.3502 125.131 75.6699C124.655 72.99 124.488 71.3097 123.931 69.5961C123.212 67.378 123.455 65.9976 122.456 64.4934C121.456 62.9893 116.62 61.8802 115.558 64.0936C114.963 65.3645 117.143 65.9976 117.205 66.9496C117.205 66.9496 115.501 68.2824 116.729 68.7393C117.681 69.1011 118.605 69.2534 118.89 72.2665C119.143 74.9273 118.252 77.8928 118.252 81.915C118.252 83.5715 119.085 88.4457 119.085 88.4457C121.132 87.8936 123.96 87.7174 125.312 86.0229Z" fill="#FFA8A7"/>
<path d="M116.877 68.3485C117.02 68.8721 119.424 69.3005 119.962 69.1958C120.108 69.1753 120.246 69.1165 120.362 69.0254C120.478 68.9343 120.568 68.8141 120.623 68.6769L122.275 69.1815L122.337 67.8059L116.987 67.5488C116.904 67.8071 116.867 68.0776 116.877 68.3485Z" fill="#F28F8F"/>
<path d="M121.928 82.824C121.928 82.824 121.599 81.0818 118.305 79.9014C118.305 80.2203 118.253 80.5916 118.253 80.8867C119.637 81.1694 120.912 81.8416 121.928 82.824Z" fill="#F28F8F"/>
<path d="M115.802 62.9039C115.671 62.4193 115.415 61.9776 115.06 61.6233C114.705 61.269 114.262 61.0146 113.777 60.8858C113.292 60.7569 112.782 60.7582 112.297 60.8893C111.813 61.0205 111.372 61.277 111.018 61.633L110.966 61.6949C110.942 61.7147 110.922 61.7371 110.904 61.7615C110.342 62.4271 109.938 63.2118 109.724 64.0561C109.509 64.9005 109.49 65.7826 109.666 66.6357C109.666 66.7214 109.714 66.8023 109.742 66.8833C109.988 67.5502 110.473 68.1016 111.103 68.4299C111.733 68.7583 112.463 68.8398 113.15 68.6587C113.355 68.6018 113.552 68.5236 113.741 68.4255C114.011 68.2931 114.257 68.1161 114.469 67.9019C115.072 67.2321 115.508 66.4297 115.743 65.5597C115.978 64.6897 116.005 63.7766 115.821 62.8944C115.815 62.8979 115.808 62.9011 115.802 62.9039Z" fill="#455A64"/>
<path d="M112.922 62.1521C112.319 62.8219 111.882 63.6244 111.647 64.4944C111.413 65.3644 111.386 66.2775 111.57 67.1597C111.994 68.7543 113.288 69.1065 114.459 67.9403C115.062 67.2705 115.499 66.4681 115.733 65.5981C115.968 64.7281 115.995 63.815 115.811 62.9328C115.387 61.3382 114.093 60.9859 112.922 62.1521Z" fill="#37474F"/>
<path d="M124.031 66.4454H124.007L114.24 63.7227C114.115 63.6937 113.984 63.7006 113.863 63.7427C113.742 63.7849 113.635 63.8604 113.555 63.9607C113.325 64.2153 113.158 64.52 113.067 64.8506C112.976 65.1812 112.964 65.5285 113.031 65.8647C113.053 65.9907 113.109 66.1084 113.192 66.2049C113.276 66.3014 113.385 66.3731 113.507 66.4121L123.284 69.1538C123.408 69.1793 123.537 69.1701 123.656 69.1273C123.775 69.0845 123.88 69.0097 123.96 68.9111C124.189 68.6561 124.355 68.3511 124.445 68.0205C124.535 67.69 124.547 67.3429 124.479 67.0071C124.461 66.8821 124.41 66.7642 124.331 66.6654C124.253 66.5667 124.149 66.4907 124.031 66.4454Z" fill="#263238"/>
<path d="M122.836 68.6114C122.998 69.2254 123.493 69.3587 123.946 68.9113C124.174 68.6563 124.34 68.3513 124.431 68.0207C124.521 67.6902 124.532 67.3431 124.464 67.0073C124.458 66.8801 124.411 66.7582 124.331 66.6591C124.251 66.56 124.141 66.4888 124.019 66.4555C123.896 66.4223 123.765 66.4287 123.646 66.474C123.527 66.5192 123.425 66.6009 123.355 66.7074C123.126 66.9624 122.96 67.2674 122.87 67.5979C122.78 67.9285 122.769 68.2756 122.836 68.6114Z" fill="#455A64"/>
<path d="M122.637 64.8172C122.185 63.5034 122.337 63.2321 121.247 62.9941C120.157 62.7561 120.147 61.8517 119.062 61.9802C117.977 62.1087 117.158 62.4562 116.682 62.3277C116.206 62.1992 115.23 62.7037 114.778 63.432C114.326 64.1603 114.335 65.2361 114.397 65.9739C114.459 66.7117 115.216 67.6256 116.777 68.0254C118.339 68.4253 119.924 68.768 120.252 68.0254C120.509 67.4352 120.276 66.9306 120.352 66.5974C120.4 66.3967 120.492 66.2093 120.622 66.0494C120.753 65.8895 120.917 65.7611 121.104 65.674L121.871 65.8834L122.637 64.8172Z" fill="#FFA8A7"/>
<path d="M127.426 66.1078C127.296 65.6229 127.041 65.1807 126.685 64.8258C126.33 64.471 125.888 64.216 125.403 64.0867C124.918 63.9573 124.407 63.9581 123.922 64.089C123.438 64.2199 122.996 64.4762 122.642 64.8322L122.585 64.8893L122.523 64.9559C121.963 65.6236 121.561 66.4093 121.347 67.2542C121.134 68.0991 121.114 68.9813 121.29 69.8349C121.29 69.9206 121.342 70.0015 121.371 70.0824C121.617 70.7485 122.103 71.2988 122.733 71.6262C123.363 71.9536 124.093 72.0345 124.779 71.8532C125.273 71.717 125.725 71.4583 126.093 71.1011C126.698 70.4327 127.137 69.6306 127.373 68.7602C127.608 67.8899 127.635 66.9761 127.449 66.0936C127.443 66.0999 127.435 66.1048 127.426 66.1078Z" fill="#455A64"/>
<path d="M124.541 65.3556C123.938 66.0255 123.501 66.8279 123.267 67.6979C123.032 68.5679 123.005 69.481 123.189 70.3632C123.617 71.9578 124.907 72.31 126.078 71.1438C126.681 70.474 127.118 69.6718 127.354 68.8019C127.59 67.932 127.617 67.0189 127.435 66.1363C127.007 64.5369 125.717 64.1894 124.541 65.3556Z" fill="#37474F"/>
<path d="M118.81 71.7573C118.567 70.9671 117.044 69.9675 116.101 69.4582C115.729 69.2904 115.399 69.0432 115.132 68.734C114.866 68.4249 114.67 68.0612 114.559 67.6684C114.521 67.5269 114.517 67.3785 114.546 67.2348C114.574 67.0912 114.636 66.9561 114.726 66.8402C114.947 66.653 115.19 66.4932 115.449 66.3642L116.477 65.8216C116.868 65.6121 117.239 65.3456 117.615 65.1076C117.705 65.0462 117.803 64.9966 117.905 64.96C117.958 64.9437 118.014 64.9386 118.069 64.9452C118.124 64.9517 118.177 64.9698 118.224 64.9981C118.596 65.2599 118.548 65.9786 118.396 66.3404C118.217 66.6842 117.976 66.9923 117.686 67.2496C117.424 67.4681 117.22 67.7498 117.096 68.0683C117.039 68.3682 117.415 68.5966 117.639 68.6966C118.05 68.8891 118.481 69.0375 118.924 69.1393C119.5 69.2535 118.638 71.2004 118.81 71.7573Z" fill="#FFA8A7"/>
<path d="M105.196 90.7637C104.544 87.0223 101.264 83.7332 96.5045 83.2286L90.1023 83.1191C90.1023 83.1191 88.4505 83.3952 85.5945 83.995C82.7385 84.5947 81.2629 85.9418 81.0107 88.2171C80.8441 89.7451 80.9059 90.5971 81.42 93.1437L82.0483 97.5086C82.0483 97.5086 84.257 103.582 84.4283 105.91C84.6865 109.003 84.2085 112.114 83.0337 114.987C91.4589 118.691 99.3129 119.862 105.839 115.159C106.819 109.48 107 100.979 105.196 90.7637Z" fill="#FFA8A7"/>
<path d="M106.919 96.542C106.148 87.5837 98.308 83.4377 98.308 83.4377L92.9958 82.3477L85.5036 84.0137C85.5036 84.0137 87.3743 93.3147 82.0669 97.5035C82.0669 97.5035 82.462 99.16 83.3711 102.578C84.2803 105.995 84.9562 110.57 82.1859 116.001C82.1859 116.001 84.5183 118.305 93.3671 118.928C102.216 119.552 106.386 115.463 106.386 115.463C106.386 115.463 107.671 105.524 106.919 96.542Z" fill="#301D2C"/>
<path opacity="0.1" d="M91.711 118.785C92.187 118.024 92.663 117 92.663 116.334C92.6154 115.163 88.2791 114.659 87.4794 114.197C86.6797 113.735 86.9653 109.956 86.6702 106.909C86.3751 103.863 84.4711 98.8173 83.5286 96.3897L83.738 95.7471C83.2753 96.4122 82.7171 97.0057 82.0815 97.5083C82.0815 97.5083 82.4766 99.1648 83.3858 102.582C84.2949 106 84.9709 110.574 82.2005 116.006C82.1863 116.006 84.2521 118.014 91.711 118.785Z" fill="black"/>
<path d="M85.504 84.0189C85.504 84.0189 81.8531 83.0669 79.4445 84.4949C77.4643 85.6658 76.3886 87.0795 75.4604 89.907C73.8974 91.1357 72.495 92.5557 71.2859 94.1339C69.0963 97.1279 67.4779 100.622 66.2546 102.54C65.5882 103.578 64.7028 104.573 64.9313 106.067C65.0217 106.648 65.4073 106.981 66.0784 107.624L72.79 105.753C74.7607 103.602 79.1351 100.517 81.834 97.0279L82.0673 97.5039C83.2178 96.7867 84.1798 95.8044 84.8729 94.6393C85.5661 93.4741 85.9701 92.1599 86.0514 90.8066C86.3703 85.2803 85.504 84.0189 85.504 84.0189Z" fill="#FFA8A7"/>
<path d="M65.3359 106.853C66.0785 107.609 67.2828 109.347 69.6199 111.346C71.3954 112.869 75.2939 115.154 76.7599 115.997C78.7782 117.158 79.5445 117.729 81.1011 118.657C82.2768 119.352 84.871 120.695 87.3414 120.709C88.7694 120.709 90.5639 119.8 91.6683 117.648C92.2347 116.549 90.4545 115.844 88.0602 115.459C85.0709 114.983 84.4902 114.335 83.7524 113.945C83.2764 113.678 83.2764 113.35 83.462 112.817C83.597 112.438 83.6973 112.048 83.7619 111.651C83.6477 111.57 83.0717 111.651 82.4101 112.174C81.6104 112.817 80.9392 112.974 79.04 111.027C77.0741 109.009 76.2744 107.024 73.704 104.839C71.1336 102.654 65.3359 106.853 65.3359 106.853Z" fill="#FFA8A7"/>
<path d="M83.4667 95.5808C83.5143 94.8572 83.5047 94.5098 83.5047 94.5098C82.9932 95.3738 82.4355 96.2096 81.834 97.0135L82.0672 97.4895C82.588 97.1776 83.0677 96.8018 83.4952 96.3709C83.4574 96.1093 83.4478 95.8444 83.4667 95.5808Z" fill="#F28F8F"/>
<path d="M73.6945 104.83C73.0997 104.51 72.4465 104.315 71.7741 104.254C71.1017 104.193 70.424 104.27 69.7817 104.478C69.7817 104.478 71.4144 102.845 74.5703 104.035L73.6945 104.83Z" fill="#F28F8F"/>
<path d="M87.8362 63.9316C87.3494 64.0685 86.9059 64.3282 86.5483 64.6858C86.1908 65.0434 85.9311 65.4869 85.7942 65.9737C85.4372 67.1494 85.6418 69.3723 86.3796 72.2854C86.8427 74.2078 87.5413 76.0655 88.4598 77.8166C88.7451 78.3122 89.2106 78.6787 89.7592 78.84L89.6545 75.3842L89.5117 72.9709C89.5117 72.9709 91.0492 70.8479 91.2063 69.1153C91.411 66.8876 90.9349 65.9784 90.9349 65.9784L87.8362 63.9316Z" fill="#37474F"/>
<path d="M87.9937 64.7031L85.4233 64.1748C85.4961 63.8194 85.7014 63.505 85.9976 63.2954C86.2937 63.0859 86.6586 62.997 87.0179 63.0467C87.1913 63.0905 87.3542 63.1682 87.4974 63.2754C87.6405 63.3826 87.7609 63.5171 87.8516 63.6712C87.9424 63.8253 88.0017 63.9958 88.0261 64.1729C88.0505 64.3501 88.0395 64.5303 87.9937 64.7031Z" fill="#37474F"/>
<path d="M88.0598 64.0415L86.1558 62.266C86.3962 61.9926 86.7344 61.8244 87.0976 61.7977C87.4608 61.771 87.82 61.8879 88.0978 62.1232C88.2231 62.2507 88.3215 62.402 88.3875 62.5681C88.4535 62.7341 88.4857 62.9117 88.4822 63.0904C88.4786 63.2691 88.4394 63.4452 88.3669 63.6086C88.2944 63.7719 88.1899 63.9191 88.0598 64.0415Z" fill="#37474F"/>
<path d="M93.2292 68.0344C93.2397 69.1471 93.5798 70.2317 94.2066 71.1512C94.8334 72.0706 95.7188 72.7835 96.7508 73.1997C97.7828 73.6159 98.915 73.7168 100.004 73.4895C101.094 73.2623 102.091 72.7171 102.871 71.923C103.65 71.1289 104.177 70.1214 104.384 69.0281C104.59 67.9347 104.469 66.8046 104.033 65.7805C103.598 64.7565 102.869 63.8845 101.938 63.2749C101.007 62.6653 99.9159 62.3454 98.8032 62.3557C98.0643 62.3626 97.3341 62.5149 96.6541 62.804C95.9741 63.093 95.3577 63.5133 94.8401 64.0406C94.3225 64.5679 93.9138 65.192 93.6374 65.8773C93.361 66.5625 93.2223 67.2955 93.2292 68.0344Z" fill="#37474F"/>
<path d="M89.6025 72.585C89.0218 73.0943 88.5411 71.7901 88.0508 71.2855C87.5605 70.781 85.9564 70.1003 85.1948 71.7615C84.4332 73.4228 85.9183 75.8551 87.1464 76.3311C87.4317 76.4589 87.7461 76.5077 88.0567 76.4725C88.3673 76.4374 88.6628 76.3195 88.9123 76.1312L88.9599 83.4664C89.8025 85.1086 93.1249 87.2315 96.9139 86.5794C98.5371 86.3033 97.7802 84.3232 96.9139 83.2141L96.8806 80.5104C97.8446 80.6538 98.821 80.6953 99.7937 80.6342C101.384 80.3724 102.202 79.1681 102.65 77.445C103.397 74.6747 103.678 70.0289 102.583 64.6691C100.798 63.303 94.6291 63.5696 90.9115 65.9591C91.24 70.7334 90.1785 72.0805 89.6025 72.585Z" fill="#FFA8A7"/>
<path d="M103.468 60.8805C103.449 60.8335 103.418 60.7925 103.378 60.7615C103.338 60.7306 103.29 60.7109 103.24 60.7044C103.159 60.7128 103.082 60.7461 103.021 60.7996C102.573 61.1568 102.095 61.4753 101.593 61.7516C101.714 61.1227 101.714 60.4766 101.593 59.8476C101.521 59.4573 101.402 58.5481 100.917 58.4577C100.631 58.4006 100.379 58.6433 100.165 58.8433C98.237 60.6711 95.6952 59.8476 93.358 59.9381C91.4017 60.0095 89.0455 60.8234 88.1744 62.7274C87.7746 63.6033 87.6984 64.5172 88.5124 65.1074C89.2277 65.5787 90.0422 65.8784 90.8924 65.9833C94.7956 66.6354 100.412 68.2062 103.268 64.5553C103.685 64.0109 103.894 63.3359 103.859 62.6513C103.859 62.0493 103.722 61.4551 103.459 60.9139L103.468 60.8805Z" fill="#37474F"/>
<path d="M96.8855 80.5302C96.8855 80.5302 93.3346 79.8495 92.0874 79.2021C91.2544 78.769 90.1358 78.0597 89.9312 77.5742C89.9763 78.012 90.1138 78.4351 90.3346 78.8158C90.5553 79.1965 90.8542 79.5261 91.2116 79.7829C93.1156 81.2109 96.8998 81.6869 96.8998 81.6869L96.8855 80.5302Z" fill="#F28F8F"/>
<path d="M95.9141 71.2385C95.9192 71.4296 95.8485 71.615 95.7174 71.7542C95.5863 71.8933 95.4055 71.9749 95.2144 71.9811C95.0216 71.9773 94.8381 71.8978 94.7036 71.7597C94.569 71.6216 94.4943 71.4361 94.4956 71.2433C94.4956 71.0539 94.5708 70.8723 94.7047 70.7384C94.8386 70.6045 95.0203 70.5293 95.2096 70.5293C95.399 70.5293 95.5806 70.6045 95.7145 70.7384C95.8484 70.8723 95.9236 71.0539 95.9236 71.2433L95.9141 71.2385Z" fill="#263238"/>
<path d="M95.5192 69.0723L93.9389 69.7911C93.8473 69.5745 93.8427 69.331 93.926 69.1112C94.0094 68.8913 94.1742 68.712 94.3863 68.6106C94.4907 68.564 94.6034 68.5391 94.7177 68.5372C94.832 68.5354 94.9454 68.5566 95.0513 68.5998C95.1571 68.6429 95.2531 68.707 95.3335 68.7882C95.4139 68.8694 95.4771 68.9661 95.5192 69.0723Z" fill="#263238"/>
<path d="M96.0093 75.7939L98.8653 76.8316C98.8046 77.0203 98.7068 77.195 98.5777 77.3455C98.4486 77.4959 98.2907 77.6191 98.1134 77.7078C97.9361 77.7964 97.7428 77.8488 97.545 77.8618C97.3472 77.8749 97.1487 77.8483 96.9613 77.7836C96.5753 77.6405 96.2602 77.3529 96.0825 76.9815C95.9048 76.6102 95.8786 76.1843 96.0093 75.7939Z" fill="#B16668"/>
<path d="M96.9377 77.7879C97.1894 77.8786 97.4616 77.8968 97.7231 77.8403C97.7071 77.4859 97.5543 77.1515 97.2969 76.9074C97.0395 76.6633 96.6975 76.5285 96.3427 76.5313C96.2136 76.5346 96.0855 76.5554 95.9619 76.5932C96.0049 76.8606 96.1178 77.112 96.2891 77.3218C96.4605 77.5316 96.6842 77.6924 96.9377 77.7879Z" fill="#F28F8F"/>
<path d="M102.378 69.5441L100.731 68.9491C100.765 68.8402 100.821 68.7394 100.895 68.6528C100.97 68.5661 101.061 68.4953 101.163 68.4446C101.265 68.3939 101.376 68.3644 101.49 68.3578C101.604 68.3513 101.718 68.3678 101.826 68.4064C102.045 68.4902 102.225 68.6545 102.327 68.8659C102.43 69.0773 102.448 69.3198 102.378 69.5441Z" fill="#263238"/>
<path d="M102.011 71.0289C102.007 71.1677 101.961 71.302 101.881 71.4153C101.801 71.5285 101.689 71.6157 101.56 71.6661C101.43 71.7164 101.289 71.7276 101.153 71.6984C101.017 71.6692 100.893 71.6008 100.796 71.5016C100.699 71.4025 100.633 71.277 100.606 71.1407C100.58 71.0045 100.594 70.8634 100.647 70.735C100.7 70.6066 100.789 70.4966 100.904 70.4185C101.019 70.3405 101.154 70.2978 101.293 70.2959C101.485 70.2984 101.668 70.3769 101.803 70.5142C101.938 70.6516 102.013 70.8366 102.011 71.0289Z" fill="#263238"/>
<path d="M98.1182 70.2383L98.5561 74.7365L100.936 73.9273L98.1182 70.2383Z" fill="#F28F8F"/>
<path d="M225.276 168.528L135.517 220.298L89.9448 194.132L179.704 142.362L225.276 168.528Z" fill="#301D2C"/>
<path opacity="0.7" d="M225.276 168.528L135.517 220.298L89.9448 194.132L179.704 142.362L225.276 168.528Z" fill="white"/>
<path d="M225.276 168.528V169.799L135.517 221.569V220.298L225.276 168.528Z" fill="#301D2C"/>
<path opacity="0.5" d="M225.276 168.528V169.799L135.517 221.569V220.298L225.276 168.528Z" fill="white"/>
<path d="M135.517 220.298L89.9448 194.132V195.403L135.517 221.568V220.298Z" fill="#301D2C"/>
<path opacity="0.4" d="M135.517 220.298L89.9448 194.132V195.403L135.517 221.568V220.298Z" fill="white"/>
<path opacity="0.1" d="M141.515 209.197L140.501 208.611C139.811 208.212 139.811 207.569 140.501 207.183L142.767 205.874L135.693 201.786L133.428 203.095C133.04 203.289 132.612 203.391 132.178 203.391C131.744 203.391 131.316 203.289 130.929 203.095L129.915 202.504C129.224 202.109 129.224 201.462 129.915 201.076L136.788 197.064C137.174 196.867 137.602 196.764 138.035 196.764C138.469 196.764 138.896 196.867 139.282 197.064L140.301 197.649C140.991 198.049 140.991 198.692 140.301 199.077L137.797 200.505L144.871 204.594L147.374 203.166C147.761 202.971 148.188 202.869 148.621 202.869C149.055 202.869 149.482 202.971 149.869 203.166L150.887 203.756C151.577 204.151 151.577 204.799 150.887 205.184L144.014 209.149C143.631 209.354 143.204 209.465 142.77 209.473C142.336 209.482 141.905 209.387 141.515 209.197Z" fill="black"/>
<path d="M138.04 195.331C138.04 195.331 138.04 195.331 138.04 195.307C138.04 194.679 137.874 194.063 137.558 193.52C137.243 192.977 136.79 192.528 136.245 192.216C135.7 191.905 135.082 191.744 134.454 191.748C133.827 191.753 133.211 191.923 132.671 192.242H132.647L132.561 192.299C132.528 192.317 132.496 192.337 132.466 192.361C131.574 192.984 130.836 193.802 130.306 194.753C129.777 195.704 129.471 196.762 129.41 197.849V197.887C129.41 197.997 129.41 198.106 129.41 198.211C129.455 198.715 129.608 199.205 129.858 199.645C130.107 200.086 130.449 200.468 130.859 200.766C131.269 201.064 131.738 201.27 132.234 201.371C132.731 201.472 133.243 201.466 133.737 201.352C134.106 201.28 134.461 201.145 134.784 200.953C135.727 200.34 136.511 199.513 137.074 198.539C137.636 197.565 137.961 196.473 138.021 195.35C138.021 195.35 138.04 195.34 138.04 195.331Z" fill="#455A64"/>
<path d="M134.789 193.498C133.846 194.111 133.062 194.938 132.499 195.912C131.937 196.885 131.612 197.978 131.552 199.101C131.552 201.166 133.004 202.004 134.789 200.971C135.731 200.358 136.516 199.531 137.078 198.558C137.64 197.584 137.965 196.491 138.025 195.369C138.04 193.303 136.574 192.465 134.789 193.498Z" fill="#37474F"/>
<path d="M144.632 200.486H144.609L136.288 195.635C136.119 195.545 135.927 195.505 135.736 195.519C135.545 195.534 135.362 195.602 135.208 195.716C134.773 196 134.411 196.381 134.152 196.83C133.892 197.279 133.742 197.783 133.713 198.301C133.699 198.488 133.736 198.675 133.82 198.843C133.903 199.01 134.031 199.152 134.189 199.253L142.509 204.075C142.679 204.16 142.869 204.196 143.058 204.18C143.246 204.164 143.427 204.096 143.58 203.984C144.014 203.701 144.375 203.319 144.634 202.87C144.893 202.421 145.042 201.917 145.07 201.4C145.079 201.223 145.043 201.047 144.967 200.887C144.89 200.728 144.775 200.59 144.632 200.486Z" fill="#263238"/>
<path d="M142.067 203.161C142.067 204.113 142.733 204.498 143.557 204.022C143.991 203.739 144.352 203.357 144.611 202.908C144.869 202.459 145.019 201.955 145.047 201.438C145.047 200.486 144.38 200.1 143.557 200.576C143.123 200.859 142.762 201.241 142.503 201.69C142.244 202.139 142.095 202.643 142.067 203.161Z" fill="#455A64"/>
<path d="M148.807 201.557C148.807 201.089 148.716 200.625 148.537 200.193C148.358 199.76 148.096 199.367 147.766 199.036C147.435 198.705 147.042 198.442 146.61 198.263C146.178 198.084 145.714 197.991 145.246 197.991C144.613 197.985 143.99 198.149 143.442 198.467H143.418L143.333 198.52L143.233 198.582C142.342 199.206 141.605 200.024 141.076 200.975C140.548 201.926 140.242 202.984 140.182 204.07V204.113C140.182 204.217 140.182 204.327 140.182 204.436C140.227 204.941 140.38 205.431 140.631 205.871C140.881 206.312 141.223 206.694 141.633 206.992C142.044 207.289 142.513 207.496 143.01 207.597C143.507 207.698 144.019 207.692 144.513 207.578C144.883 207.508 145.238 207.373 145.56 207.178C146.503 206.565 147.287 205.738 147.85 204.765C148.412 203.791 148.737 202.698 148.797 201.576C148.797 201.576 148.807 201.571 148.807 201.557Z" fill="#455A64"/>
<path d="M145.575 199.724C144.632 200.338 143.847 201.166 143.284 202.14C142.722 203.115 142.397 204.208 142.338 205.332C142.338 207.393 143.766 208.231 145.575 207.198C146.517 206.585 147.302 205.758 147.864 204.784C148.427 203.811 148.751 202.718 148.811 201.595C148.811 199.529 147.36 198.696 145.575 199.724Z" fill="#37474F"/>
<path d="M81.7862 184.611C81.5427 183.733 81.2126 182.882 80.8009 182.069C80.758 181.974 80.7104 181.884 80.6676 181.789C80.2736 181.027 80.0736 180.181 80.0852 179.324C80.0968 178.467 80.3198 177.626 80.7342 176.876C80.7676 176.824 80.7961 176.771 80.8247 176.719C81.3352 175.841 81.5983 174.841 81.5863 173.825C81.5541 173.269 81.3869 172.729 81.0991 172.252C80.8113 171.775 80.4116 171.376 79.9346 171.088C79.6882 170.946 79.4321 170.822 79.1682 170.717C78.9237 170.621 78.7134 170.454 78.5649 170.238C78.4164 170.022 78.3363 169.765 78.3352 169.503V168.027H73.5419V169.527C73.5378 169.789 73.4554 170.045 73.3053 170.26C73.1552 170.475 72.9442 170.641 72.6994 170.736C72.4328 170.837 72.1749 170.959 71.9282 171.102C71.4491 171.386 71.0464 171.782 70.7552 172.256C70.464 172.731 70.2931 173.269 70.2575 173.825C70.2354 174.84 70.4905 175.843 70.9953 176.724L71.0762 176.871C71.487 177.626 71.7058 178.47 71.7133 179.329C71.7207 180.189 71.5167 181.036 71.119 181.798C71.0714 181.888 71.0238 181.979 70.981 182.074C70.5603 182.883 70.2237 183.733 69.9766 184.611C69.8043 185.46 69.726 186.325 69.7434 187.191L69.7148 194.169C69.7148 195.074 70.3051 195.983 71.4951 196.673C72.5627 197.259 73.7453 197.605 74.9604 197.687C75.5369 197.735 76.1164 197.735 76.693 197.687C77.9012 197.613 79.0788 197.277 80.144 196.702C81.3435 196.021 81.9433 195.117 81.948 194.212V189.167C81.948 188.538 81.9766 187.881 81.9766 187.224C82.0106 186.349 81.9468 185.472 81.7862 184.611Z" fill="#455A64"/>
<path d="M80.7347 176.876C80.768 176.824 80.7965 176.771 80.8251 176.719C81.2604 175.971 81.5147 175.131 81.5677 174.268C81.4507 174.618 81.2908 174.952 81.0917 175.262C80.5001 176.127 79.7699 176.887 78.9306 177.514C78.1071 178.185 77.1932 178.942 77.0933 180.003C76.9933 181.065 77.7168 181.955 78.5213 182.574C79.3257 183.193 80.3015 183.626 81.0345 184.34C81.3512 184.655 81.6321 185.005 81.8723 185.382C81.839 185.12 81.8009 184.863 81.7485 184.611C81.505 183.733 81.1749 182.882 80.7632 182.069C80.7204 181.974 80.6728 181.884 80.6299 181.788C80.2418 181.024 80.0482 180.176 80.0665 179.319C80.0848 178.462 80.3143 177.623 80.7347 176.876Z" fill="#37474F"/>
<path d="M72.7375 169.66V170.464C72.763 170.752 72.8646 171.027 73.032 171.262C73.1993 171.498 73.4263 171.684 73.6895 171.802C74.4037 172.163 75.1929 172.352 75.9934 172.352C76.7938 172.352 77.583 172.163 78.2972 171.802C78.5792 171.651 78.8246 171.44 79.016 171.183C79.1662 170.979 79.2493 170.732 79.254 170.479V169.66C79.2558 169.586 79.2478 169.513 79.2302 169.441C79.1656 169.199 79.0497 168.974 78.8904 168.781C78.731 168.588 78.532 168.432 78.3067 168.322L78.2591 168.299C77.5513 167.944 76.7706 167.76 75.9791 167.76C75.1875 167.76 74.4069 167.944 73.699 168.299C73.47 168.403 73.2663 168.556 73.102 168.746C72.9376 168.937 72.8165 169.161 72.747 169.403C72.7323 169.488 72.7291 169.574 72.7375 169.66Z" fill="#301D2C"/>
<path opacity="0.1" d="M72.7375 169.66V170.464C72.763 170.752 72.8646 171.027 73.032 171.262C73.1993 171.498 73.4263 171.684 73.6895 171.802C74.4037 172.163 75.1929 172.352 75.9934 172.352C76.7938 172.352 77.583 172.163 78.2972 171.802C78.5792 171.651 78.8246 171.44 79.016 171.183C79.1662 170.979 79.2493 170.732 79.254 170.479V169.66C79.2558 169.586 79.2478 169.513 79.2302 169.441C79.1656 169.199 79.0497 168.974 78.8904 168.781C78.731 168.588 78.532 168.432 78.3067 168.322L78.2591 168.299C77.5513 167.944 76.7706 167.76 75.9791 167.76C75.1875 167.76 74.4069 167.944 73.699 168.299C73.47 168.403 73.2663 168.556 73.102 168.746C72.9376 168.937 72.8165 169.161 72.747 169.403C72.7323 169.488 72.7291 169.574 72.7375 169.66Z" fill="black"/>
<path opacity="0.2" d="M78.2923 171.002C79.5632 170.274 79.568 169.098 78.2923 168.341C77.5784 167.979 76.7891 167.79 75.9885 167.79C75.1878 167.79 74.3985 167.979 73.6846 168.341C72.4089 169.07 72.4042 170.245 73.6846 170.998C74.3981 171.361 75.1873 171.551 75.9879 171.551C76.7885 171.552 77.5781 171.364 78.2923 171.002Z" fill="black"/>
<path d="M72.7379 168.718V169.194C72.7366 169.27 72.7446 169.347 72.7617 169.422C72.828 169.663 72.9446 169.886 73.1038 170.078C73.263 170.27 73.4612 170.426 73.6852 170.536C74.3121 170.875 75.0099 171.063 75.7225 171.083C76.6121 171.147 77.5021 170.963 78.2929 170.55C78.5767 170.4 78.8237 170.188 79.0164 169.931C79.1199 169.789 79.1929 169.627 79.2306 169.455C79.2481 169.382 79.2561 169.307 79.2544 169.232V168.732C79.2291 168.445 79.1275 168.17 78.96 167.936C78.7926 167.701 78.5656 167.516 78.3024 167.399C78.2453 167.366 78.1881 167.332 78.1263 167.304C77.4292 166.983 76.6689 166.824 75.9018 166.837C75.1346 166.85 74.3803 167.036 73.6947 167.38C73.4306 167.498 73.2026 167.683 73.0344 167.919C72.8662 168.154 72.7638 168.43 72.7379 168.718Z" fill="#301D2C"/>
<path opacity="0.1" d="M72.7379 168.718V169.194C72.7366 169.27 72.7446 169.347 72.7617 169.422C72.828 169.663 72.9446 169.886 73.1038 170.078C73.263 170.27 73.4612 170.426 73.6852 170.536C74.3121 170.875 75.0099 171.063 75.7225 171.083C76.6121 171.147 77.5021 170.963 78.2929 170.55C78.5767 170.4 78.8237 170.188 79.0164 169.931C79.1199 169.789 79.1929 169.627 79.2306 169.455C79.2481 169.382 79.2561 169.307 79.2544 169.232V168.732C79.2291 168.445 79.1275 168.17 78.96 167.936C78.7926 167.701 78.5656 167.516 78.3024 167.399C78.2453 167.366 78.1881 167.332 78.1263 167.304C77.4292 166.983 76.6689 166.824 75.9018 166.837C75.1346 166.85 74.3803 167.036 73.6947 167.38C73.4306 167.498 73.2026 167.683 73.0344 167.919C72.8662 168.154 72.7638 168.43 72.7379 168.718Z" fill="black"/>
<path d="M72.7378 168.704C72.7378 169.737 74.1896 170.579 75.9889 170.608C77.7882 170.636 79.2495 169.779 79.2542 168.746C79.259 167.714 77.8024 166.871 76.0032 166.842C74.2039 166.814 72.7426 167.671 72.7378 168.704Z" fill="#301D2C"/>
<path d="M74.8748 166.781V168.47C74.8725 168.496 74.8725 168.521 74.8748 168.546C74.8985 168.63 74.9395 168.707 74.9953 168.774C75.0511 168.84 75.1204 168.894 75.1985 168.932C75.4146 169.051 75.6563 169.117 75.903 169.122C76.2114 169.147 76.5203 169.083 76.7931 168.937C76.8915 168.886 76.9763 168.813 77.0406 168.723C77.0784 168.674 77.1045 168.617 77.1168 168.556C77.1191 168.531 77.1191 168.505 77.1168 168.48V166.79C77.1098 166.688 77.0757 166.591 77.0179 166.507C76.9601 166.423 76.8808 166.357 76.7883 166.314L76.7312 166.285C76.4896 166.174 76.2259 166.118 75.9598 166.122C75.6936 166.126 75.4318 166.19 75.1937 166.309C75.1034 166.352 75.0263 166.419 74.9702 166.502C74.9141 166.584 74.8812 166.681 74.8748 166.781Z" fill="#301D2C"/>
<path opacity="0.1" d="M74.8748 166.781V168.47C74.8725 168.496 74.8725 168.521 74.8748 168.546C74.8985 168.63 74.9395 168.707 74.9953 168.774C75.0511 168.84 75.1204 168.894 75.1985 168.932C75.4146 169.051 75.6563 169.117 75.903 169.122C76.2114 169.147 76.5203 169.083 76.7931 168.937C76.8915 168.886 76.9763 168.813 77.0406 168.723C77.0784 168.674 77.1045 168.617 77.1168 168.556C77.1191 168.531 77.1191 168.505 77.1168 168.48V166.79C77.1098 166.688 77.0757 166.591 77.0179 166.507C76.9601 166.423 76.8808 166.357 76.7883 166.314L76.7312 166.285C76.4896 166.174 76.2259 166.118 75.9598 166.122C75.6936 166.126 75.4318 166.19 75.1937 166.309C75.1034 166.352 75.0263 166.419 74.9702 166.502C74.9141 166.584 74.8812 166.681 74.8748 166.781Z" fill="black"/>
<path d="M74.8745 166.775C74.8745 167.132 75.3791 167.428 76.0026 167.428C76.6262 167.428 77.1307 167.142 77.1307 166.785C77.1307 166.428 76.6547 166.133 76.0074 166.133C75.36 166.133 74.8745 166.418 74.8745 166.775Z" fill="#301D2C"/>
<path d="M75.6025 166.78C75.6025 166.904 75.7787 167.009 76.0024 167.009C76.2261 167.009 76.4022 166.909 76.4022 166.78C76.4022 166.652 76.2261 166.552 76.0024 166.552C75.7787 166.552 75.6025 166.652 75.6025 166.78Z" fill="#301D2C"/>
<path opacity="0.3" d="M75.6025 166.78C75.6025 166.904 75.7787 167.009 76.0024 167.009C76.2261 167.009 76.4022 166.909 76.4022 166.78C76.4022 166.652 76.2261 166.552 76.0024 166.552C75.7787 166.552 75.6025 166.652 75.6025 166.78Z" fill="black"/>
<path opacity="0.1" d="M192.604 161.526C192.281 162.797 192.433 164.153 192.066 165.41C191.538 167.209 190.015 168.547 188.382 169.465C181.894 173.111 173.679 171.369 166.591 173.649C164.396 174.359 162.093 175.753 161.664 178.019C161.355 179.647 162.14 181.351 163.359 182.47C164.625 183.546 166.109 184.335 167.709 184.783C174.026 186.868 180.842 186.654 187.421 185.64C194.404 184.559 200.987 180.57 203.433 178.709C207.241 175.829 210.021 171.165 209.35 166.452C208.736 162.168 204.728 158.998 200.815 157.551C197.716 156.404 193.447 158.236 192.604 161.526Z" fill="black"/>
<path d="M198.283 72.6234C199.977 71.5524 203.219 70.7194 205.975 71.6714C210.735 70.0292 213.115 70.3291 216.923 70.3243C217.775 70.3243 220.55 70.053 221.074 70.5338C221.473 70.8955 221.592 71.3239 221.783 72.1712L220.088 76.6837C217.147 77.2644 215.452 77.9832 211.235 78.6496C207.903 79.1779 205.789 79.4969 205.423 81.0724C202.467 78.7982 200.032 75.9172 198.283 72.6234Z" fill="#B16668"/>
<path d="M223.244 75.0131C223.806 74.3134 223.82 73.4566 223.758 72.3332C223.653 70.5339 222.996 67.0972 222.725 65.5645C222.297 63.0845 221.811 61.5899 221.459 59.6097C221.083 57.4868 221.307 56.3729 220.545 54.6926C219.85 53.1599 215.195 52.703 214.233 54.745C213.681 55.9207 215.699 56.511 215.756 57.4058C215.756 57.4058 213.914 56.8299 214.3 57.9628C214.776 59.3241 216.513 59.2432 216.723 60.9854C217.023 63.4368 216.723 67.5208 216.723 71.2384C216.723 72.7711 217.494 77.2741 217.494 77.2741C219.374 76.741 221.987 76.5791 223.244 75.0131Z" fill="#B16668"/>
<path d="M220.279 59.6095L220.988 57.3627L214.719 56.168C215.195 56.5916 215.719 56.9724 215.747 57.4294C215.747 57.4294 213.905 56.8534 214.291 57.9863C214.398 58.2845 214.578 58.5511 214.814 58.7622C215.425 59.1184 216.062 59.4287 216.718 59.6904C217.856 60.0378 218.722 59.9284 219.151 59.262C219.17 59.2191 220.279 59.6095 220.279 59.6095Z" fill="#9A4A4D"/>
<path d="M216.714 70.2723C218.02 70.2971 219.27 70.806 220.222 71.7003C220.222 71.7003 219.984 69.9344 216.719 69.3584V70.2342L216.714 70.2723Z" fill="#9A4A4D"/>
<path d="M214.448 53.6499C214.328 53.2013 214.092 52.7922 213.764 52.464C213.435 52.1359 213.026 51.9002 212.577 51.7809C212.129 51.6616 211.656 51.6629 211.208 51.7846C210.76 51.9064 210.352 52.1442 210.026 52.4742C210.007 52.4904 209.99 52.5079 209.973 52.5265L209.916 52.5884C209.398 53.205 209.027 53.9308 208.829 54.7114C208.631 55.492 208.612 56.3073 208.774 57.0961V57.1199C208.774 57.2009 208.821 57.277 208.845 57.3484C209.072 57.9648 209.521 58.4742 210.104 58.7771C210.687 59.0799 211.362 59.1544 211.996 58.9859C212.184 58.9323 212.366 58.8606 212.539 58.7717C212.788 58.6527 213.015 58.4917 213.21 58.2957C213.768 57.6771 214.172 56.9359 214.389 56.132C214.607 55.3281 214.632 54.4843 214.462 53.6689L214.448 53.6499Z" fill="#455A64"/>
<path d="M211.787 52.9547C211.227 53.5744 210.821 54.3181 210.603 55.1248C210.386 55.9315 210.362 56.7783 210.535 57.5957C210.93 59.0713 212.125 59.395 213.206 58.3192C213.763 57.7007 214.167 56.9594 214.385 56.1556C214.602 55.3517 214.627 54.5078 214.457 53.6925C214.062 52.1979 212.868 51.8837 211.787 52.9547Z" fill="#37474F"/>
<path d="M222.055 56.9203H222.031L212.987 54.4071C212.871 54.3801 212.751 54.3864 212.639 54.4251C212.527 54.4639 212.428 54.5335 212.354 54.626C212.139 54.8631 211.985 55.1478 211.902 55.4564C211.819 55.7651 211.811 56.089 211.878 56.4015C211.895 56.5171 211.944 56.6257 212.018 56.7155C212.093 56.8053 212.191 56.8729 212.301 56.9108L221.345 59.4241C221.46 59.447 221.578 59.4382 221.688 59.3988C221.798 59.3594 221.895 59.2908 221.969 59.2004C222.183 58.9623 222.338 58.6769 222.421 58.3675C222.504 58.058 222.512 57.7334 222.445 57.4201C222.428 57.3103 222.383 57.2067 222.315 57.1192C222.247 57.0316 222.157 56.9632 222.055 56.9203Z" fill="#263238"/>
<path d="M220.95 58.9188C220.955 59.0368 220.997 59.1503 221.071 59.2427C221.144 59.3352 221.245 59.4019 221.359 59.4332C221.473 59.4644 221.594 59.4586 221.704 59.4167C221.815 59.3747 221.909 59.2987 221.973 59.1996C222.188 58.9616 222.343 58.6761 222.425 58.3667C222.508 58.0572 222.516 57.7326 222.449 57.4194C222.297 56.8529 221.84 56.7292 221.426 57.1433C221.212 57.3804 221.057 57.665 220.974 57.9737C220.891 58.2824 220.883 58.6063 220.95 58.9188Z" fill="#455A64"/>
<path d="M220.764 55.4156C220.35 54.2018 220.488 53.9495 219.479 53.7305C218.47 53.5116 218.465 52.6738 217.461 52.7785C216.456 52.8833 215.699 53.2545 215.252 53.0975C214.804 52.9404 213.91 53.4497 213.495 54.1209C213.151 54.8517 213.03 55.6682 213.148 56.4675C213.205 57.1482 213.924 57.9574 215.309 58.5239C216.694 59.0903 218.708 59.9519 219.146 58.7952L218.574 58.6381C218.381 58.2004 218.354 57.7074 218.498 57.2511C218.641 56.7948 218.946 56.4063 219.355 56.1581L220.059 56.3533L220.764 55.4156Z" fill="#B16668"/>
<path d="M225.187 56.6055C225.006 55.9302 224.564 55.3544 223.959 55.0045C223.354 54.6546 222.635 54.5593 221.959 54.7396C221.506 54.8591 221.093 55.0993 220.764 55.4345L220.717 55.4916L220.655 55.5535C220.136 56.1697 219.764 56.8956 219.567 57.6765C219.37 58.4573 219.353 59.2728 219.517 60.0612V60.0898C219.541 60.166 219.565 60.2421 219.594 60.3183C219.821 60.9346 220.269 61.4441 220.852 61.7469C221.435 62.0498 222.11 62.1242 222.745 61.9557C222.932 61.9054 223.114 61.8352 223.287 61.7463C223.537 61.6259 223.766 61.465 223.963 61.2703C224.518 60.6506 224.92 59.9086 225.134 59.1046C225.348 58.3006 225.369 57.4574 225.196 56.6436C225.197 56.6302 225.193 56.6169 225.187 56.6055Z" fill="#455A64"/>
<path d="M222.526 55.9108C221.969 56.5298 221.566 57.2712 221.349 58.0751C221.132 58.879 221.108 59.7226 221.279 60.5375C221.669 62.0131 222.864 62.3368 223.949 61.2563C224.504 60.6395 224.907 59.9005 225.124 59.0991C225.34 58.2977 225.365 57.4566 225.196 56.6438C224.806 55.1587 223.611 54.835 222.526 55.9108Z" fill="#37474F"/>
<path d="M166.424 178.167C166.267 178.219 166.243 179.119 166.386 179.428C166.529 179.738 167.533 180.856 169.556 181.251C171.579 181.647 174.364 181.251 175.559 181.18C176.753 181.109 180.514 181.566 181.709 181.727C183.584 181.98 185.041 181.57 185.731 180.89C185.845 180.754 185.928 180.595 185.977 180.425C186.025 180.254 186.037 180.075 186.012 179.9C185.978 179.105 185.907 178.948 185.812 178.948L166.424 178.167Z" fill="#37474F"/>
<path d="M185.502 176.596C185.54 176.755 185.574 176.914 185.602 177.072C185.784 177.871 185.843 178.693 185.778 179.51C185.629 179.781 185.425 180.018 185.18 180.206C184.934 180.393 184.651 180.528 184.35 180.6C182.922 181.047 181.856 180.976 180.29 180.681C178.714 180.448 177.122 180.35 175.53 180.385C174.15 180.552 172.76 180.622 171.37 180.595C170.321 180.548 169.287 180.336 168.304 179.967C167.481 179.614 166.643 179.167 166.443 178.32C166.385 177.753 166.503 177.182 166.779 176.684C167.056 176.186 167.478 175.785 167.99 175.535C169.499 174.65 171.427 174.635 173.126 174.583C174.492 174.54 175.911 174.507 177.125 173.878C177.726 173.485 178.351 173.129 178.995 172.812C179.465 172.718 179.947 172.696 180.423 172.746C181.485 172.722 182.546 172.698 183.603 172.688C183.893 172.688 184.184 172.688 184.469 172.688C185.04 172.736 185.145 174.711 185.212 175.092C185.269 175.397 185.278 175.716 185.359 176.011C185.402 176.206 185.455 176.401 185.502 176.596Z" fill="#455A64"/>
<path d="M176.12 174.264C175.439 174.81 174.986 175.591 174.849 176.453C174.878 177.053 173.826 177.105 173.797 176.506C173.797 176.506 173.893 175.149 174.716 174.502C175.147 174.275 175.639 174.191 176.12 174.264Z" fill="#FAFAFA"/>
<path d="M173.683 174.563C173.683 174.563 172.869 174.992 172.66 176.467C172.66 176.91 171.708 176.872 171.741 176.429C171.741 176.429 171.884 175.153 172.579 174.577C172.869 174.392 173.588 174.387 173.683 174.563Z" fill="#FAFAFA"/>
<path d="M195.203 160.088C194.846 161.487 194.889 162.092 195.303 163.187C195.893 164.762 196.94 165.486 197.645 166.1C198.443 166.807 199.141 167.619 199.72 168.513C200.295 169.492 201.026 170.371 201.886 171.112C202.557 171.669 204.414 171.683 205.304 171.288C206.194 170.893 206.484 170.55 206.403 169.122C206.322 167.694 201.972 167.29 201.972 167.29L195.203 160.088Z" fill="#37474F"/>
<path d="M205.727 164.901C206.094 165.034 206.203 165.734 206.284 167.124C206.351 168.176 206.822 169.713 205.384 170.404C204.223 170.965 202.347 170.646 201.533 169.666C200.524 168.447 199.834 167.372 198.392 165.886C197.145 164.596 195.864 164.182 195.265 161.569C194.884 159.889 195.607 159.189 196.731 158.713C198.278 158.018 200.424 159.665 201.543 160.436C202.447 161.036 205.356 164.773 205.727 164.901Z" fill="#455A64"/>
<path d="M201.543 160.36L201.334 160.293C200.626 160.348 199.945 160.59 199.36 160.993C198.775 161.395 198.306 161.946 198.002 162.587C197.797 163.063 198.454 163.401 198.83 163.035C199.157 162.411 199.632 161.877 200.213 161.479C200.793 161.08 201.463 160.83 202.162 160.75C201.985 160.579 201.774 160.446 201.543 160.36Z" fill="#FAFAFA"/>
<path d="M202.576 161.141C201.905 161.224 201.266 161.477 200.718 161.874C200.171 162.27 199.732 162.799 199.444 163.411C199.244 163.887 199.896 164.225 200.272 163.859C200.548 163.313 200.941 162.836 201.423 162.46C201.906 162.085 202.465 161.821 203.062 161.688C202.909 161.493 202.738 161.302 202.576 161.141Z" fill="#FAFAFA"/>
<path d="M205.38 134.104C205.137 128.982 205.694 120.009 205.637 113.707C207.26 108.162 206.113 105.825 204.685 103.088C203.634 100.998 202.438 98.9842 201.105 97.0615L197.773 111.099L192.428 116.782C192.428 116.782 195.612 133.295 196.398 136.855C197.064 139.882 200.682 165.134 200.682 165.134C201.02 166.781 204.851 166.991 205.76 165.824C206.018 160.222 207.041 144.285 207.055 142.5C207.108 137.269 205.38 134.104 205.38 134.104Z" fill="#B16668"/>
<path d="M182.128 108.938C182.128 108.938 180.01 139.278 180.01 145.299C180.01 147.603 178.753 173.683 178.753 173.683C178.753 174.364 179.386 174.868 180.952 174.802C183.184 174.702 184.451 174.288 184.541 173.85C184.608 173.54 188.03 159.232 188.916 154.557C189.567 151.072 189.693 147.508 189.287 143.985C190.548 137.274 193.095 122.646 193.69 117.843C194.209 113.736 182.128 108.938 182.128 108.938Z" fill="#B16668"/>
<path d="M182.875 97.9991C181.795 104.535 181.599 106.567 180.805 114.945C180.186 121.466 179.805 140.316 179.776 142.948C179.748 145.58 179.248 161.84 179.248 161.84C179.248 161.84 184.165 163.692 187.292 162.316C187.292 162.316 188.678 156.652 189.277 154.081C190.12 150.473 190.101 147.932 189.691 143.871L193.261 121.69C193.261 121.69 196.117 137.626 196.965 142.158C197.812 146.689 198.636 151.092 198.636 151.092C199.972 151.578 201.389 151.803 202.81 151.754C204.253 151.696 205.64 151.181 206.77 150.283C206.77 150.283 207.189 144.276 207.204 142.243C207.227 139.002 206.942 137.388 205.566 134.013L206.018 113.693C206.018 113.693 207.499 110.08 206.494 106.553C205.219 102.14 201.33 95.5049 201.33 95.5049L182.875 97.9991Z" fill="#37474F"/>
<path d="M193.256 121.722L194.684 116.448C194.684 116.448 199.106 116.096 201.458 113.045C200.706 114.473 199.982 116.172 195.993 117.691L194.599 123.074L196.665 140.658L193.256 121.722Z" fill="#263238"/>
<path d="M205.428 78.702C205.128 76.5743 204.371 73.9943 202.324 73.109C200.278 72.2236 196.589 72.5711 196.589 72.5711C196.298 73.5231 192.781 74.7845 191.019 73.109C189.325 73.466 187.245 73.8515 184.965 74.4085C183.156 74.8464 182.109 81.696 180.904 83.9285C179.505 86.5227 181.285 89.1645 183.066 90.5449C183.066 90.5449 183.018 94.6861 182.88 98.0228C186.002 100.641 191.833 101.355 196.341 100.179C199.735 99.2937 201.068 98.237 201.349 96.9185C201.572 95.8903 202.172 92.5583 202.667 90.7638C203.81 86.6036 205.828 81.5342 205.428 78.702Z" fill="#B16668"/>
<path d="M202.324 73.1084C200.272 72.2278 196.583 72.5705 196.583 72.5705C196.293 73.5225 192.775 74.7839 191.014 73.1084C189.32 73.4654 187.24 73.851 184.959 74.4079C183.151 74.8458 181.18 79.2155 180.171 83.6804C179.524 86.5364 181.166 89.0687 182.941 90.4301C182.941 90.4301 182.994 91.6391 183.013 93.1813C186.54 94.8807 191.262 95.7041 196.855 94.6379C198.733 94.2842 200.54 93.6198 202.2 92.672C202.314 92.3293 202.433 91.7867 203.2 89.578C203.966 87.3694 205.827 81.5336 205.427 78.7014C205.128 76.5737 204.371 73.9938 202.324 73.1084Z" fill="#301D2C"/>
<path d="M184.96 74.4079C182.213 74.2223 179.186 75.0553 177.967 80.4531C177.015 81.8193 175.521 83.4424 174.159 85.5225C172.636 87.9025 171.779 89.9398 170.351 92.5435C168.966 95.3139 169.585 96.1469 170.951 97.4178C172.203 98.584 179.847 103.606 180.304 104.187C180.761 104.767 180.304 110.446 181.128 111.255C181.128 111.288 181.128 111.298 181.128 111.255C181.128 111.079 181.285 110.346 181.494 109.432C181.944 107.983 182.584 106.6 183.398 105.319C184.084 104.167 184.712 102.858 184.512 101.511C184.403 100.764 183.336 100.24 182.608 99.536C180.68 97.6939 177.025 94.1001 177.025 94.1001L185.835 84.1993C187.359 82.2286 188.23 76.2072 184.96 74.4079Z" fill="#B16668"/>
<path opacity="0.1" d="M177.039 94.1055C176.278 94.825 175.419 95.4338 174.488 95.9143C175.586 95.7723 176.623 95.331 177.487 94.6386L177.039 94.1055Z" fill="black"/>
<path d="M183.774 52.974V52.9407C183.73 52.6141 183.752 52.2818 183.841 51.9643C183.929 51.6467 184.081 51.3505 184.288 51.0938C184.646 50.7886 185.072 50.5732 185.531 50.4655C186.754 50.0799 187.977 49.6944 189.215 49.3564C191.547 48.7186 193.975 48.2473 196.383 48.552C198.792 48.8566 201.172 50.0276 202.457 52.0791C202.712 52.4279 202.885 52.8298 202.962 53.2549C202.985 53.5405 202.871 53.7975 202.885 54.0879C202.928 54.978 203.361 55.8443 203.476 56.7249C203.588 57.6725 203.634 58.6269 203.614 59.5809C203.614 63.5317 194.327 65.6975 194.389 68.4059C192.847 66.3591 191.306 64.3092 189.767 62.256C189.767 62.0085 189.115 61.3611 188.972 61.1469C188.696 60.7423 188.453 60.3092 188.201 59.8903C187.42 58.5813 186.102 57.8911 185.193 56.7106C184.357 55.635 183.863 54.3334 183.774 52.974Z" fill="#263238"/>
<path d="M185.54 59.8711C185.54 59.8711 183.855 62.1511 184.05 62.4082C184.41 62.6663 184.813 62.8581 185.24 62.9746L185.54 59.8711Z" fill="#9A4A4D"/>
<path d="M190.7 52.636C189.129 53.35 186.416 54.678 185.464 60.2139C184.512 65.8973 185.716 67.9394 186.478 68.7248C186.992 69.2531 189.743 69.5578 191.204 69.2008C193.027 68.7248 197.016 67.0017 198.973 64.1361C201.281 60.7565 201.929 56.1536 199.52 54.2306C196.155 51.5079 192.033 52.0315 190.7 52.636Z" fill="#B16668"/>
<path d="M190.458 68.8722L190.386 73.456C191.938 75.5028 197.669 75.1554 197.383 72.6421L197.493 67.8535L190.458 68.8722Z" fill="#B16668"/>
<path d="M186.64 68.8294C187.273 69.2149 189.072 69.4482 190.448 69.3054L190.481 68.2725C189.883 68.5008 189.265 68.6729 188.635 68.7865C187.976 68.9045 187.303 68.9189 186.64 68.8294Z" fill="#9A4A4D"/>
<path d="M190.034 52.4361C189.374 52.6475 188.754 52.9694 188.201 53.3881C187.925 53.5995 187.696 53.8672 187.53 54.1735C187.397 54.4605 187.34 54.7768 187.364 55.0922C187.388 55.5217 187.526 55.937 187.763 56.2964C187.999 56.6557 188.326 56.9464 188.711 57.139C188.493 57.4131 188.338 57.7315 188.255 58.0718C188.173 58.4121 188.166 58.7663 188.235 59.1096C188.485 59.9114 188.942 60.6335 189.558 61.204C189.589 61.2417 189.628 61.2725 189.672 61.2945C189.717 61.3021 189.762 61.3001 189.806 61.2886C189.849 61.2771 189.89 61.2564 189.925 61.2278C190.919 60.6233 191.567 59.538 192.914 60.0426C194.675 60.709 194.699 62.4512 193.571 63.9458C193.382 64.2438 193.13 64.4962 192.832 64.6847C192.534 64.8732 192.198 64.9931 191.848 65.0358C191.648 65.0612 191.446 65.041 191.255 64.9767C191.065 64.9124 190.891 64.8056 190.748 64.6646C190.748 64.6646 190.896 67.9966 193.357 69.2389C193.357 69.2389 195.879 70.1386 197.493 69.1866C198.497 67.4825 200.168 66.3924 201.301 64.9026C204.3 60.947 206.913 54.2782 200.663 51.9268C200.449 51.8459 200.23 51.7697 200.011 51.7031C196.969 50.7731 193.697 50.9416 190.767 52.1791C190.524 52.2552 190.277 52.36 190.034 52.4361Z" fill="#263238"/>
<path d="M209.916 71.7187C209.012 71.7194 208.115 71.5417 207.279 71.1958C206.443 70.8499 205.683 70.3427 205.043 69.7031C204.403 69.0634 203.895 68.3039 203.549 67.4679C203.202 66.632 203.024 65.7359 203.024 64.831V53.5879C204.851 53.5879 206.604 54.3134 207.896 55.605C209.188 56.8965 209.915 58.6484 209.916 60.4756V71.7187Z" fill="#263238"/>
<path d="M189.358 63.2124C189.194 63.1481 189.045 63.0518 188.92 62.9292C188.794 62.8066 188.693 62.6601 188.625 62.4984C188.556 62.3367 188.52 62.1629 188.52 61.9872C188.519 61.8115 188.553 61.6374 188.62 61.475C188.761 61.147 189.025 60.8873 189.355 60.752C189.685 60.6167 190.056 60.6165 190.386 60.7515L189.358 63.2124Z" fill="#263238"/>
<path d="M202.486 53.3647C202.605 53.4642 202.742 53.539 202.89 53.5848C203.038 53.6306 203.194 53.6464 203.348 53.6313C203.502 53.6163 203.652 53.5706 203.788 53.497C203.925 53.4235 204.045 53.3235 204.142 53.2029C204.339 52.9559 204.43 52.6416 204.396 52.328C204.362 52.0144 204.206 51.7268 203.961 51.5273L202.486 53.3647Z" fill="#263238"/>
<path d="M61.7565 52.9257L59.7382 49.1177L61.3614 44.4244V41.5684L56.3872 44.4244V47.2804L58.5244 50.9836C58.5573 51.0423 58.6094 51.0877 58.672 51.1122L61.7565 52.9257Z" fill="#301D2C"/>
<path opacity="0.2" d="M61.7565 52.9257L59.7382 49.1177L61.3614 44.4244V41.5684L56.3872 44.4244V47.2804L58.5244 50.9836C58.5573 51.0423 58.6094 51.0877 58.672 51.1122L61.7565 52.9257Z" fill="black"/>
<path d="M71.3001 30.2876C71.2723 29.7707 71.1229 29.2676 70.864 28.8193C70.6052 28.371 70.2441 27.9902 69.8103 27.7077L68.5965 27.0032C68.1332 26.7712 67.6223 26.6504 67.1042 26.6504C66.5861 26.6504 66.0752 26.7712 65.6119 27.0032L30.3165 47.4712C29.8826 47.7547 29.5216 48.1365 29.2627 48.5855C29.0039 49.0346 28.8545 49.5383 28.8267 50.0559V60.2899C28.8548 60.8068 29.0044 61.3097 29.2633 61.7579C29.5221 62.2062 29.883 62.5871 30.3165 62.8698L31.5303 63.5695C31.9928 63.8041 32.504 63.9264 33.0226 63.9264C33.5412 63.9264 34.0524 63.8041 34.5149 63.5695L59.5001 49.1182L61.6373 52.8167C61.6682 52.8691 61.7135 52.9116 61.7677 52.9392C61.822 52.9667 61.883 52.9782 61.9436 52.9721C62.0041 52.9661 62.0617 52.9429 62.1095 52.9053C62.1573 52.8676 62.1933 52.8171 62.2133 52.7596L64.4695 46.2527L69.8007 43.1063C70.2347 42.8228 70.5957 42.4411 70.8546 41.992C71.1134 41.543 71.2628 41.0392 71.2906 40.5216L71.3001 30.2876Z" fill="#301D2C"/>
<path opacity="0.2" d="M28.8267 60.2756C28.8548 60.7925 29.0044 61.2954 29.2633 61.7437C29.5221 62.1919 29.883 62.5728 30.3165 62.8556L31.5303 63.5553C31.9504 63.7673 32.4107 63.888 32.8808 63.9094C33.3509 63.9307 33.8202 63.8522 34.2578 63.679C33.5581 63.9408 33.025 63.5458 33.025 62.6937V52.4645C33.0431 51.9455 33.1921 51.4396 33.4581 50.9936L29.2646 48.5518C28.9949 48.9964 28.8441 49.5029 28.8267 50.0226V60.2756Z" fill="black"/>
<path opacity="0.4" d="M71.2521 29.8642C71.076 29.2311 70.5 29.0312 69.8241 29.4263L34.5287 49.8943C34.0868 50.1674 33.7242 50.5514 33.4768 51.0081L29.2832 48.59C29.5289 48.1336 29.89 47.7496 30.3304 47.4762L65.6258 27.0082C66.0883 26.7736 66.5995 26.6514 67.1181 26.6514C67.6366 26.6514 68.1479 26.7736 68.6103 27.0082L69.8241 27.7079C70.1953 27.9524 70.5132 28.2695 70.7586 28.6401C71.004 29.0106 71.1719 29.427 71.2521 29.8642Z" fill="white"/>
<path d="M34.7486 54.9305C34.7117 54.8708 34.6982 54.7996 34.7105 54.7305C34.7208 54.645 34.7483 54.5624 34.7914 54.4878L36.3241 51.7936C36.3622 51.727 36.405 51.6461 36.4622 51.5604C36.5077 51.4787 36.5732 51.4099 36.6526 51.3605L37.5189 50.8607C37.5375 50.8429 37.5622 50.833 37.5879 50.833C37.6136 50.833 37.6383 50.8429 37.6569 50.8607C37.6782 50.8844 37.6943 50.9123 37.7041 50.9427C37.7139 50.973 37.7173 51.0051 37.714 51.0368V58.1244C37.7133 58.2086 37.6938 58.2915 37.6569 58.3672C37.6292 58.4344 37.5809 58.4911 37.5189 58.529L36.5669 59.0717C36.5481 59.0871 36.5246 59.0956 36.5002 59.0956C36.4759 59.0956 36.4524 59.0871 36.4336 59.0717C36.4128 59.0476 36.397 59.0196 36.3872 58.9894C36.3774 58.9591 36.3737 58.9272 36.3765 58.8955V54.0975L35.5244 55.5778C35.497 55.6404 35.448 55.6911 35.3864 55.7206C35.3635 55.7309 35.3376 55.7322 35.3138 55.7243C35.29 55.7164 35.27 55.6998 35.2579 55.6778L34.7486 54.9305Z" fill="#FAFAFA"/>
<path d="M38.5899 56.3109C38.6032 56.1928 38.6337 56.0774 38.6803 55.9681C38.7207 55.8581 38.7981 55.7655 38.8993 55.7063L39.7751 55.2161C39.7905 55.2033 39.8099 55.1963 39.8299 55.1963C39.8499 55.1963 39.8692 55.2033 39.8846 55.2161C39.9023 55.235 39.9157 55.2576 39.924 55.2823C39.9322 55.3069 39.935 55.333 39.9322 55.3589C39.9348 55.3858 39.9348 55.4129 39.9322 55.4398L39.38 57.9435C39.3566 58.0419 39.3231 58.1376 39.2801 58.2291C39.2404 58.3318 39.1664 58.4176 39.0706 58.4719L38.5375 58.7813C38.5226 58.795 38.5031 58.8026 38.4828 58.8026C38.4625 58.8026 38.443 58.795 38.428 58.7813C38.4103 58.7623 38.3969 58.7397 38.3887 58.7151C38.3805 58.6904 38.3777 58.6643 38.3804 58.6385L38.5899 56.3109Z" fill="#FAFAFA"/>
<path d="M44.53 49.2703C44.53 49.4837 44.5157 49.6968 44.4872 49.9082C44.4552 50.1322 44.4059 50.3534 44.3396 50.5698C44.2669 50.8126 44.1762 51.0497 44.0683 51.2791C43.9467 51.5483 43.8101 51.8106 43.659 52.0645L42.6594 53.7876L44.4491 52.7547C44.4677 52.7369 44.4924 52.727 44.5181 52.727C44.5438 52.727 44.5686 52.7369 44.5872 52.7547C44.6084 52.7784 44.6245 52.8063 44.6344 52.8367C44.6442 52.867 44.6476 52.8991 44.6443 52.9308V54.0922C44.6435 54.1764 44.624 54.2593 44.5872 54.335C44.5582 54.4027 44.5103 54.4606 44.4491 54.5016L40.6887 56.6721C40.6696 56.6889 40.6451 56.6981 40.6197 56.6981C40.5943 56.6981 40.5698 56.6889 40.5507 56.6721C40.5299 56.6481 40.5141 56.6201 40.5043 56.5899C40.4945 56.5596 40.4908 56.5277 40.4936 56.496V55.544C40.4938 55.4172 40.5098 55.2909 40.5412 55.168C40.5719 55.0294 40.6266 54.8973 40.703 54.7777L42.8402 51.2267C42.9781 51.0081 43.0839 50.7709 43.1544 50.5222C43.1943 50.3665 43.2167 50.2069 43.221 50.0462C43.221 49.9939 43.221 49.9272 43.221 49.8415C43.2093 49.7608 43.1818 49.6832 43.1401 49.6131C43.0988 49.5483 43.0339 49.5022 42.9592 49.4845C42.8461 49.4741 42.733 49.5045 42.6403 49.5702C42.5115 49.6407 42.4007 49.7401 42.3166 49.8606C42.2383 49.9684 42.1728 50.0851 42.1215 50.2081C42.0815 50.3138 42.0481 50.4219 42.0215 50.5317L41.9787 50.765C41.963 50.8618 41.9237 50.9534 41.8644 51.0315C41.8178 51.0917 41.7595 51.1419 41.6931 51.1791L40.8125 51.6884C40.7971 51.7012 40.7777 51.7082 40.7577 51.7082C40.7377 51.7082 40.7184 51.7012 40.703 51.6884C40.6704 51.6484 40.655 51.597 40.6602 51.5456C40.6682 51.212 40.7112 50.8801 40.7887 50.5555C40.861 50.1932 40.9744 49.8402 41.1266 49.5036C41.2897 49.1623 41.4944 48.8426 41.7359 48.5516C41.9788 48.259 42.2722 48.0123 42.6022 47.8233C42.851 47.6614 43.1387 47.5694 43.4352 47.5567C43.6561 47.5534 43.8702 47.6333 44.035 47.7805C44.2109 47.9468 44.3391 48.1572 44.4063 48.3897C44.4904 48.6756 44.5321 48.9723 44.53 49.2703Z" fill="#FAFAFA"/>
<path d="M45.3824 52.3885C45.3957 52.2705 45.4262 52.155 45.4728 52.0458C45.5148 51.9367 45.5918 51.8446 45.6918 51.784L46.5676 51.2746C46.583 51.2619 46.6023 51.2549 46.6223 51.2549C46.6423 51.2549 46.6617 51.2619 46.6771 51.2746C46.6948 51.2936 46.7082 51.3162 46.7164 51.3409C46.7246 51.3655 46.7275 51.3916 46.7247 51.4174C46.7273 51.4444 46.7273 51.4715 46.7247 51.4984L46.1725 54.0116C46.1491 54.11 46.1156 54.2057 46.0726 54.2972C46.0329 54.4 45.9589 54.4857 45.8631 54.54L45.33 54.8494C45.3151 54.8631 45.2955 54.8707 45.2753 54.8707C45.255 54.8707 45.2354 54.8631 45.2205 54.8494C45.2028 54.8304 45.1894 54.8078 45.1812 54.7832C45.1729 54.7586 45.1701 54.7324 45.1729 54.7066L45.3824 52.3885Z" fill="#FAFAFA"/>
<path d="M51.0653 43.0301C51.0831 43.0127 51.107 43.0029 51.1319 43.0029C51.1568 43.0029 51.1808 43.0127 51.1986 43.0301C51.2195 43.0532 51.2353 43.0803 51.2452 43.1098C51.255 43.1393 51.2586 43.1705 51.2557 43.2015V44.3677C51.2556 44.4525 51.2394 44.5365 51.2081 44.6152C51.1748 44.7009 51.1414 44.7723 51.1129 44.8342L50.2513 46.6715C50.4081 46.6313 50.5724 46.6298 50.7299 46.6671C50.8875 46.7045 51.0336 46.7795 51.1557 46.8857C51.2903 47.048 51.3909 47.2358 51.4514 47.4378C51.5119 47.6398 51.5312 47.8519 51.508 48.0615C51.5301 48.8146 51.3446 49.5594 50.9719 50.2142C50.5991 50.8691 50.0534 51.4088 49.3945 51.7743C49.1187 51.9462 48.8111 52.0611 48.4901 52.1122C48.2605 52.1463 48.0259 52.108 47.819 52.0027C47.6329 51.8932 47.4876 51.7261 47.4048 51.5267C47.3023 51.3045 47.2503 51.0623 47.2525 50.8175C47.2528 50.7502 47.2674 50.6836 47.2954 50.6223C47.319 50.5674 47.3589 50.5209 47.4096 50.4891L48.3045 49.9702C48.4028 49.9131 48.479 49.9036 48.533 49.9417L48.7091 50.0654C48.7834 50.1128 48.8686 50.1406 48.9566 50.1463C49.1137 50.1402 49.2657 50.089 49.3945 49.9988C49.6212 49.8752 49.8204 49.7068 49.98 49.5037C50.1276 49.3041 50.2061 49.0618 50.2037 48.8135C50.2037 48.5613 50.1276 48.4137 49.98 48.3851C49.7776 48.367 49.5753 48.4209 49.4088 48.5375L48.8186 48.8802C48.7998 48.8957 48.7762 48.9041 48.7519 48.9041C48.7276 48.9041 48.704 48.8957 48.6853 48.8802C48.6645 48.8561 48.6487 48.8282 48.6389 48.7979C48.6291 48.7677 48.6254 48.7357 48.6282 48.7041V47.7521C48.6287 47.6673 48.6448 47.5834 48.6758 47.5045C48.7091 47.4189 48.7424 47.3427 48.7757 47.2713L49.504 45.6957L47.6428 46.7715C47.6241 46.787 47.6005 46.7954 47.5762 46.7954C47.5519 46.7954 47.5283 46.787 47.5096 46.7715C47.4887 46.7475 47.473 46.7195 47.4632 46.6892C47.4534 46.659 47.4497 46.6271 47.4524 46.5954V45.4006C47.4533 45.318 47.4728 45.2366 47.5096 45.1626C47.5357 45.0946 47.5823 45.0364 47.6428 44.996L51.0653 43.0301Z" fill="#FAFAFA"/>
<path d="M53.5024 49.0277C53.5016 49.1118 53.4821 49.1948 53.4452 49.2704C53.4176 49.3389 53.3693 49.3971 53.3072 49.437L52.3552 49.9749C52.3374 49.9923 52.3135 50.0021 52.2886 50.0021C52.2636 50.0021 52.2397 49.9923 52.2219 49.9749C52.2006 49.9512 52.1846 49.9232 52.1747 49.8929C52.1649 49.8626 52.1615 49.8305 52.1648 49.7988V48.3708C52.1656 48.2882 52.1852 48.2068 52.2219 48.1328C52.2481 48.0648 52.2946 48.0066 52.3552 47.9662L53.3072 47.4283C53.3263 47.4116 53.3508 47.4023 53.3762 47.4023C53.4016 47.4023 53.4261 47.4116 53.4452 47.4283C53.466 47.4524 53.4818 47.4803 53.4916 47.5106C53.5014 47.5408 53.5051 47.5727 53.5024 47.6044V49.0277Z" fill="#FAFAFA"/>
<path d="M55.5489 47.8236C55.5481 47.9078 55.5286 47.9907 55.4918 48.0664C55.4641 48.1349 55.4159 48.1931 55.3537 48.233L54.4017 48.7709C54.3834 48.7872 54.3597 48.7963 54.3351 48.7963C54.3105 48.7963 54.2868 48.7872 54.2684 48.7709C54.2476 48.7468 54.2319 48.7188 54.2221 48.6886C54.2122 48.6583 54.2086 48.6264 54.2113 48.5947V47.1667C54.2121 47.0826 54.2316 46.9996 54.2684 46.924C54.2957 46.8579 54.3421 46.8015 54.4017 46.7621L55.3537 46.2195C55.3736 46.2044 55.3978 46.1963 55.4227 46.1963C55.4477 46.1963 55.4719 46.2044 55.4918 46.2195C55.5126 46.2435 55.5283 46.2715 55.5382 46.3018C55.548 46.332 55.5516 46.3639 55.5489 46.3956V47.8236Z" fill="#FAFAFA"/>
<path d="M57.5962 46.6476C57.5955 46.7318 57.576 46.8147 57.5391 46.8904C57.5117 46.9576 57.4654 47.0155 57.4058 47.057L56.4538 47.5948C56.4348 47.6116 56.4102 47.6208 56.3848 47.6208C56.3594 47.6208 56.3349 47.6116 56.3158 47.5948C56.295 47.5708 56.2792 47.5428 56.2694 47.5126C56.2596 47.4823 56.256 47.4504 56.2587 47.4187V45.9907C56.2595 45.9066 56.279 45.8236 56.3158 45.748C56.3448 45.6815 56.3928 45.6252 56.4538 45.5861L57.4058 45.0435C57.4246 45.028 57.4482 45.0195 57.4725 45.0195C57.4968 45.0195 57.5204 45.028 57.5391 45.0435C57.5599 45.0675 57.5757 45.0955 57.5855 45.1257C57.5953 45.156 57.599 45.1879 57.5962 45.2196V46.6476Z" fill="#FAFAFA"/>
<path d="M60.4236 39.2697C60.2693 39.3587 60.1309 39.4729 60.0142 39.6076C59.9066 39.7413 59.817 39.8885 59.7477 40.0455C59.6803 40.1984 59.6293 40.358 59.5954 40.5215C59.5619 40.6946 59.5381 40.8694 59.524 41.0451C59.524 41.1451 59.524 41.2784 59.524 41.4497V41.9733C59.524 42.1495 59.524 42.3256 59.524 42.4969C59.524 42.6683 59.524 42.7968 59.524 42.8873C59.5324 43.0366 59.5547 43.1848 59.5906 43.3299C59.6193 43.4449 59.673 43.5521 59.7477 43.6441C59.7817 43.6826 59.8234 43.7135 59.8702 43.7348C59.9169 43.7561 59.9676 43.7674 60.019 43.7679C60.1636 43.7659 60.3044 43.7211 60.4236 43.6393C60.5508 43.5663 60.6676 43.4767 60.7711 43.3728C60.8839 43.2637 60.9802 43.1386 61.0567 43.0015C61.1401 42.8515 61.2041 42.6916 61.2471 42.5255C61.2963 42.3294 61.3203 42.1279 61.3185 41.9257L60.7235 42.2732C60.7036 42.2883 60.6794 42.2964 60.6545 42.2964C60.6295 42.2964 60.6053 42.2883 60.5854 42.2732C60.5646 42.2492 60.5489 42.2212 60.5391 42.1909C60.5292 42.1607 60.5256 42.1288 60.5283 42.0971V40.9357C60.5285 40.8529 60.548 40.7714 60.5854 40.6977C60.6131 40.6292 60.6613 40.571 60.7235 40.5311L62.4466 39.5315C62.4649 39.5151 62.4887 39.506 62.5132 39.506C62.5378 39.506 62.5616 39.5151 62.5799 39.5315C62.601 39.5543 62.6171 39.5814 62.6269 39.611C62.6368 39.6405 62.6402 39.6718 62.637 39.7028V41.107C62.6384 41.5663 62.5809 42.0238 62.4656 42.4684C62.3583 42.8943 62.1984 43.3052 61.9896 43.6917C61.7988 44.0552 61.562 44.3928 61.2852 44.6961C61.0328 44.9757 60.739 45.2149 60.4141 45.4053C60.1401 45.5805 59.825 45.6806 59.5002 45.6957C59.2495 45.6975 59.0064 45.6097 58.8147 45.4481C58.6057 45.2628 58.4538 45.0217 58.3768 44.7532C58.2669 44.4147 58.2076 44.0618 58.2007 43.706C58.2007 43.4172 58.2007 43.0999 58.2007 42.754C58.2007 42.4113 58.2007 42.0781 58.2007 41.7591C58.2117 41.3384 58.2692 40.9201 58.372 40.512C58.475 40.0978 58.6218 39.6956 58.81 39.3125C58.9947 38.9399 59.2266 38.5928 59.5002 38.2796C59.7628 37.976 60.0731 37.7171 60.4188 37.5132C60.6882 37.3431 60.9958 37.2433 61.3137 37.2229C61.5531 37.2123 61.7902 37.2736 61.9944 37.399C62.182 37.5267 62.3316 37.7027 62.4276 37.9083C62.5322 38.1222 62.5906 38.3558 62.5989 38.5937C62.6025 38.6615 62.5877 38.7289 62.5561 38.7889C62.5309 38.8442 62.4915 38.8919 62.4418 38.9269L61.4898 39.4743C61.4184 39.5124 61.3613 39.5124 61.3232 39.4743L61.2042 39.3458C61.1371 39.2512 61.0423 39.1797 60.9329 39.1411C60.8437 39.1275 60.7527 39.1318 60.6653 39.1539C60.5778 39.176 60.4956 39.2153 60.4236 39.2697Z" fill="#FAFAFA"/>
<path d="M67.0783 38.1942C67.0783 38.2989 67.0783 38.4417 67.0783 38.6131C67.0783 38.7844 67.0783 38.9272 67.0783 39.0367C67.0675 39.4017 67.0148 39.7643 66.9212 40.1172C66.8282 40.4744 66.6973 40.8207 66.5309 41.1501C66.3678 41.4701 66.1664 41.769 65.9311 42.0403C65.7046 42.2988 65.4377 42.519 65.1409 42.6924C64.9045 42.8419 64.6346 42.9303 64.3555 42.9494C64.1371 42.9596 63.9223 42.8903 63.751 42.7543C63.571 42.5994 63.4361 42.3987 63.3607 42.1735C63.2593 41.886 63.2062 41.5836 63.2036 41.2787C63.2036 41.1692 63.2036 41.0311 63.2036 40.8598C63.2036 40.6884 63.2036 40.5456 63.2036 40.4314C63.2089 40.0681 63.2584 39.7069 63.3512 39.3556C63.4458 38.9982 63.5782 38.652 63.7463 38.3227C63.9125 37.9994 64.1171 37.6974 64.3555 37.4231C64.5779 37.1608 64.8435 36.9386 65.1409 36.7662C65.3779 36.6149 65.6503 36.5279 65.9311 36.5139C66.1496 36.5092 66.363 36.5798 66.5356 36.7138C66.7171 36.8674 66.8523 37.0685 66.9259 37.2945C67.0261 37.5839 67.0776 37.8879 67.0783 38.1942ZM64.4841 40.4599C64.4776 40.5589 64.4917 40.6582 64.5252 40.7515C64.5588 40.8449 64.6112 40.9303 64.6792 41.0026C64.7508 41.0503 64.8361 41.0734 64.922 41.0682C65.0079 41.0631 65.0898 41.03 65.1552 40.974C65.3603 40.8566 65.5259 40.681 65.6312 40.4695C65.7506 40.231 65.8171 39.9696 65.8264 39.7031C65.8264 39.5889 65.8264 39.4603 65.8264 39.3223C65.8264 39.1843 65.8264 39.0605 65.8264 38.9605C65.8328 38.8615 65.8188 38.7623 65.7852 38.6689C65.7516 38.5756 65.6992 38.4901 65.6312 38.4179C65.5596 38.3702 65.4743 38.3471 65.3884 38.3523C65.3025 38.3574 65.2206 38.3905 65.1552 38.4465C64.9512 38.5652 64.7859 38.7404 64.6792 38.951C64.5612 39.19 64.4948 39.4511 64.4841 39.7174C64.4841 39.8316 64.4841 39.9601 64.4841 40.0982C64.4841 40.2362 64.4745 40.379 64.4841 40.4599Z" fill="#FAFAFA"/>
<path d="M69.0533 37.6653C69.0525 37.7495 69.033 37.8324 68.9962 37.9081C68.97 37.976 68.9235 38.0343 68.8629 38.0747L67.9632 38.5935C67.9449 38.6099 67.9212 38.619 67.8966 38.619C67.872 38.619 67.8483 38.6099 67.83 38.5935C67.8092 38.5695 67.7934 38.5415 67.7836 38.5112C67.7738 38.481 67.7701 38.4491 67.7729 38.4174V33.6764C67.7737 33.5938 67.7932 33.5124 67.83 33.4384C67.8561 33.3705 67.9027 33.3123 67.9632 33.2718L68.8629 32.753C68.8812 32.7366 68.9049 32.7275 68.9295 32.7275C68.9541 32.7275 68.9778 32.7366 68.9962 32.753C69.017 32.777 69.0327 32.805 69.0426 32.8353C69.0524 32.8655 69.056 32.8974 69.0533 32.9291V37.6653ZM69.0533 40.0453C69.0525 40.1295 69.033 40.2124 68.9962 40.2881C68.9688 40.3553 68.9225 40.4132 68.8629 40.4547L67.9632 40.9354C67.9445 40.9509 67.9209 40.9594 67.8966 40.9594C67.8723 40.9594 67.8487 40.9509 67.83 40.9354C67.8092 40.9114 67.7934 40.8834 67.7836 40.8532C67.7738 40.8229 67.7701 40.791 67.7729 40.7593V39.6598C67.7736 39.5756 67.7931 39.4927 67.83 39.417C67.8574 39.3498 67.9037 39.2919 67.9632 39.2504L68.8629 38.7316C68.8816 38.7161 68.9052 38.7076 68.9295 38.7076C68.9538 38.7076 68.9774 38.7161 68.9962 38.7316C69.017 38.7556 69.0327 38.7836 69.0426 38.8138C69.0524 38.8441 69.056 38.876 69.0533 38.9077V40.0453Z" fill="#FAFAFA"/>
<path d="M194.413 41.6308L192.39 37.8228L194.018 33.1294V30.2734L189.043 33.1294V35.9854L191.181 39.6887C191.215 39.746 191.267 39.7909 191.328 39.8172L194.413 41.6308Z" fill="#301D2C"/>
<path opacity="0.2" d="M194.413 41.6308L192.39 37.8228L194.018 33.1294V30.2734L189.043 33.1294V35.9854L191.181 39.6887C191.215 39.746 191.267 39.7909 191.328 39.8172L194.413 41.6308Z" fill="black"/>
<path d="M207.293 17.1075C207.265 16.59 207.116 16.0862 206.857 15.6371C206.598 15.1881 206.237 14.8063 205.803 14.5229L204.589 13.8041C204.127 13.5695 203.616 13.4473 203.097 13.4473C202.579 13.4473 202.067 13.5695 201.605 13.8041L176.429 28.3126C175.995 28.5953 175.634 28.9762 175.374 29.4243C175.115 29.8725 174.964 30.3754 174.935 30.8925V41.1265C174.963 41.6444 175.114 42.1483 175.373 42.5973C175.633 43.0464 175.995 43.428 176.429 43.7112L177.643 44.4109C178.105 44.6454 178.615 44.7677 179.133 44.7677C179.651 44.7677 180.161 44.6454 180.623 44.4109L192.166 37.8231L194.298 41.5216C194.329 41.574 194.374 41.6165 194.429 41.644C194.483 41.6716 194.544 41.683 194.604 41.677C194.665 41.671 194.723 41.6478 194.77 41.6101C194.818 41.5725 194.854 41.5219 194.874 41.4645L197.13 34.9575L205.803 29.9262C206.237 29.6427 206.598 29.261 206.857 28.8119C207.116 28.3629 207.265 27.8591 207.293 27.3415V17.1075Z" fill="#301D2C"/>
<path opacity="0.2" d="M174.935 41.127C174.963 41.6449 175.114 42.1488 175.373 42.5978C175.633 43.0468 175.995 43.4284 176.429 43.7116L177.643 44.4114C178.063 44.6227 178.524 44.7425 178.994 44.763C179.464 44.7835 179.933 44.7042 180.37 44.5304C179.666 44.7969 179.133 44.4018 179.133 43.5498V33.3206C179.15 32.8024 179.301 32.2974 179.571 31.8545L175.372 29.4316C175.105 29.8755 174.954 30.3799 174.935 30.8977V41.127Z" fill="black"/>
<path opacity="0.4" d="M207.246 16.6838C207.069 16.0507 206.493 15.8508 205.818 16.2459L180.637 30.7353C180.196 31.0096 179.834 31.3933 179.585 31.8492L175.392 29.4263C175.642 28.9715 176.004 28.5881 176.444 28.3125L201.605 13.804C202.068 13.572 202.579 13.4512 203.097 13.4512C203.615 13.4512 204.126 13.572 204.589 13.804L205.803 14.5085C206.179 14.7537 206.501 15.0731 206.749 15.4472C206.997 15.8213 207.166 16.2421 207.246 16.6838Z" fill="white"/>
<path d="M181.08 35.6998C181.043 35.642 181.029 35.5721 181.042 35.5046C181.052 35.419 181.08 35.3365 181.123 35.2618L182.656 32.5629C182.694 32.501 182.736 32.4201 182.794 32.3297C182.839 32.2493 182.905 32.1821 182.984 32.1345L183.85 31.6585C183.869 31.6408 183.894 31.6309 183.919 31.6309C183.945 31.6309 183.97 31.6408 183.988 31.6585C184.009 31.6815 184.025 31.7087 184.035 31.7382C184.045 31.7677 184.048 31.7989 184.045 31.8299V38.9223C184.045 39.005 184.026 39.0865 183.988 39.1603C183.961 39.2287 183.912 39.287 183.85 39.3269L182.898 39.8695C182.88 39.885 182.856 39.8935 182.832 39.8935C182.807 39.8935 182.784 39.885 182.765 39.8695C182.744 39.8455 182.728 39.8175 182.719 39.7872C182.709 39.757 182.705 39.7251 182.708 39.6934V34.8668L181.856 36.3471C181.825 36.4076 181.777 36.4575 181.718 36.4899C181.695 36.5002 181.669 36.5015 181.645 36.4936C181.621 36.4856 181.601 36.469 181.589 36.4471L181.08 35.6998Z" fill="#FAFAFA"/>
<path d="M184.94 37.0757C184.954 36.9594 184.985 36.8456 185.031 36.7378C185.072 36.6273 185.149 36.5336 185.25 36.4712L186.116 35.9666C186.131 35.9529 186.15 35.9453 186.171 35.9453C186.191 35.9453 186.21 35.9529 186.225 35.9666C186.243 35.9856 186.257 36.0082 186.265 36.0329C186.273 36.0575 186.276 36.0836 186.273 36.1094C186.276 36.1363 186.276 36.1634 186.273 36.1904L185.721 38.6941C185.697 38.7925 185.664 38.8882 185.621 38.9797C185.581 39.0824 185.507 39.1682 185.411 39.2225L184.878 39.5319C184.863 39.5447 184.844 39.5516 184.824 39.5516C184.804 39.5516 184.784 39.5447 184.769 39.5319C184.751 39.5129 184.738 39.4903 184.729 39.4657C184.721 39.441 184.718 39.4149 184.721 39.3891L184.94 37.0757Z" fill="#FAFAFA"/>
<path d="M190.876 30.0401C190.876 30.2534 190.862 30.4665 190.833 30.6779C190.801 30.9019 190.752 31.1231 190.686 31.3396C190.612 31.5821 190.522 31.8191 190.415 32.0488C190.293 32.3181 190.156 32.5803 190.005 32.8342L189.006 34.5764L190.795 33.5435C190.814 33.5257 190.839 33.5158 190.864 33.5158C190.89 33.5158 190.915 33.5257 190.933 33.5435C190.954 33.5665 190.97 33.5936 190.98 33.6231C190.99 33.6526 190.993 33.6839 190.99 33.7148V34.8906C190.99 34.9747 190.97 35.0576 190.933 35.1333C190.904 35.1997 190.856 35.256 190.795 35.2952L187.035 37.4705C187.016 37.4872 186.991 37.4964 186.966 37.4964C186.94 37.4964 186.916 37.4872 186.897 37.4705C186.876 37.4464 186.86 37.4184 186.85 37.3882C186.841 37.3579 186.837 37.326 186.84 37.2943V36.3424C186.84 36.214 186.856 36.0861 186.887 35.9616C186.919 35.8248 186.974 35.6944 187.049 35.576L189.177 31.9965C189.315 31.7779 189.421 31.5406 189.491 31.292C189.531 31.1363 189.553 30.9766 189.558 30.816C189.558 30.7636 189.558 30.697 189.558 30.6113C189.547 30.5304 189.519 30.4526 189.477 30.3828C189.436 30.3181 189.371 30.272 189.296 30.2543C189.183 30.2383 189.069 30.2674 188.977 30.3352C188.849 30.409 188.739 30.5097 188.653 30.6303C188.574 30.7376 188.508 30.8543 188.458 30.9778C188.418 31.0833 188.384 31.1915 188.358 31.3015L188.315 31.53C188.3 31.6285 188.261 31.7218 188.201 31.8013C188.153 31.8603 188.095 31.9103 188.03 31.9489L187.149 32.4534C187.134 32.4671 187.115 32.4748 187.094 32.4748C187.074 32.4748 187.055 32.4671 187.04 32.4534C187.007 32.4134 186.992 32.362 186.997 32.3106C187.004 31.977 187.048 31.6451 187.125 31.3206C187.207 30.9603 187.33 30.6105 187.492 30.2781C187.655 29.9369 187.86 29.6171 188.101 29.3261C188.344 29.021 188.639 28.7615 188.972 28.5597C189.221 28.3989 189.509 28.3084 189.805 28.298C190.026 28.2946 190.24 28.3745 190.405 28.5217C190.581 28.688 190.709 28.8984 190.776 29.131C190.855 29.4272 190.889 29.7338 190.876 30.0401Z" fill="#FAFAFA"/>
<path d="M191.732 33.1586C191.746 33.0406 191.776 32.9251 191.823 32.8159C191.865 32.7054 191.942 32.6117 192.042 32.5493L192.918 32.0448C192.933 32.031 192.952 32.0234 192.972 32.0234C192.993 32.0234 193.012 32.031 193.027 32.0448C193.045 32.0638 193.058 32.0863 193.067 32.111C193.075 32.1356 193.078 32.1617 193.075 32.1876C193.077 32.2145 193.077 32.2416 193.075 32.2685L192.523 34.7722C192.499 34.8706 192.466 34.9663 192.423 35.0578C192.383 35.1605 192.309 35.2463 192.213 35.3006L191.68 35.61C191.665 35.6228 191.645 35.6298 191.625 35.6298C191.605 35.6298 191.586 35.6228 191.571 35.61C191.553 35.591 191.539 35.5684 191.531 35.5438C191.523 35.5191 191.52 35.493 191.523 35.4672L191.732 33.1586Z" fill="#FAFAFA"/>
<path d="M197.416 23.8003C197.435 23.7848 197.458 23.7764 197.483 23.7764C197.507 23.7764 197.53 23.7848 197.549 23.8003C197.57 23.8244 197.586 23.8523 197.596 23.8826C197.605 23.9128 197.609 23.9447 197.606 23.9764V25.1426C197.606 25.2274 197.59 25.3114 197.559 25.3901C197.525 25.4758 197.492 25.5472 197.464 25.6091L196.588 27.4465C196.745 27.4081 196.909 27.408 197.067 27.4461C197.224 27.4842 197.37 27.5594 197.492 27.6654C197.627 27.8274 197.728 28.0151 197.789 28.2172C197.849 28.4193 197.868 28.6315 197.844 28.8411C197.86 29.6079 197.668 30.3647 197.287 31.0307C196.912 31.6652 196.375 32.1891 195.731 32.5492C195.456 32.7241 195.148 32.8408 194.827 32.8919C194.597 32.9238 194.363 32.8856 194.155 32.7824C193.969 32.6729 193.824 32.5058 193.741 32.3064C193.639 32.0842 193.587 31.8419 193.589 31.5972C193.589 31.5298 193.604 31.4633 193.632 31.402C193.657 31.3467 193.696 31.2991 193.746 31.264L194.641 30.7499C194.741 30.688 194.817 30.6833 194.869 30.7213L195.045 30.8451C195.12 30.8925 195.205 30.9203 195.293 30.926C195.45 30.9199 195.602 30.8687 195.731 30.7785C195.953 30.6522 196.146 30.4802 196.297 30.2739C196.448 30.0755 196.528 29.8327 196.526 29.5837C196.526 29.3267 196.45 29.1839 196.297 29.1553C196.096 29.1353 195.895 29.1895 195.731 29.3076L195.141 29.6456C195.123 29.663 195.099 29.6728 195.074 29.6728C195.049 29.6728 195.025 29.663 195.007 29.6456C194.986 29.6226 194.971 29.5954 194.961 29.5659C194.951 29.5364 194.947 29.5052 194.95 29.4742V28.5603C194.95 28.4755 194.967 28.3915 194.998 28.3128C195.031 28.2271 195.065 28.1509 195.098 28.0795L195.855 26.4707L193.994 27.5417C193.976 27.5591 193.952 27.5689 193.927 27.5689C193.902 27.5689 193.878 27.5591 193.86 27.5417C193.839 27.5186 193.823 27.4915 193.814 27.462C193.804 27.4325 193.8 27.4013 193.803 27.3703V26.1803C193.804 26.0961 193.823 26.0132 193.86 25.9375C193.887 25.8715 193.934 25.8151 193.994 25.7757L197.416 23.8003Z" fill="#FAFAFA"/>
<path d="M199.854 29.7738C199.853 29.858 199.833 29.9409 199.796 30.0166C199.768 30.0843 199.72 30.1422 199.658 30.1832L198.706 30.7211C198.688 30.7374 198.664 30.7465 198.64 30.7465C198.615 30.7465 198.591 30.7374 198.573 30.7211C198.552 30.697 198.537 30.669 198.527 30.6388C198.517 30.6085 198.513 30.5766 198.516 30.5449V29.1169C198.517 29.0328 198.536 28.9498 198.573 28.8742C198.6 28.8081 198.647 28.7517 198.706 28.7123L199.658 28.1697C199.678 28.1546 199.703 28.1465 199.727 28.1465C199.752 28.1465 199.777 28.1546 199.796 28.1697C199.817 28.1937 199.833 28.2217 199.843 28.252C199.853 28.2822 199.856 28.3141 199.854 28.3458V29.7738Z" fill="#FAFAFA"/>
<path d="M201.9 28.5931C201.899 28.6773 201.88 28.7602 201.843 28.8359C201.814 28.9036 201.766 28.9615 201.705 29.0025L200.753 29.5404C200.734 29.5568 200.711 29.5658 200.686 29.5658C200.662 29.5658 200.638 29.5568 200.62 29.5404C200.599 29.5163 200.583 29.4884 200.573 29.4581C200.563 29.4279 200.56 29.396 200.562 29.3643V27.9363C200.563 27.8521 200.583 27.7692 200.62 27.6935C200.647 27.6263 200.693 27.5684 200.753 27.5269L201.705 26.989C201.725 26.974 201.749 26.9658 201.774 26.9658C201.799 26.9658 201.823 26.974 201.843 26.989C201.864 27.0131 201.879 27.0411 201.889 27.0713C201.899 27.1016 201.903 27.1335 201.9 27.1651V28.5931Z" fill="#FAFAFA"/>
<path d="M203.942 27.4132C203.942 27.4974 203.922 27.5803 203.885 27.656C203.858 27.7232 203.812 27.7811 203.752 27.8226L202.8 28.3605C202.781 28.3772 202.756 28.3864 202.731 28.3864C202.706 28.3864 202.681 28.3772 202.662 28.3605C202.641 28.3364 202.625 28.3084 202.616 28.2782C202.606 28.2479 202.602 28.216 202.605 28.1843V26.7563C202.606 26.6722 202.625 26.5892 202.662 26.5136C202.691 26.4459 202.739 26.388 202.8 26.347L203.752 25.8091C203.771 25.7936 203.794 25.7852 203.819 25.7852C203.843 25.7852 203.867 25.7936 203.885 25.8091C203.906 25.8331 203.922 25.8611 203.932 25.8914C203.942 25.9216 203.945 25.9535 203.942 25.9852V27.4132Z" fill="#FAFAFA"/>
</svg>
