<svg width="38" height="38" viewBox="0 0 38 38" fill="none" xmlns="http://www.w3.org/2000/svg">
<path d="M14.5 11.5C14.1022 11.5 13.7206 11.658 13.4393 11.9393C13.158 12.2206 13 12.6022 13 13C13 13.3978 13.158 13.7794 13.4393 14.0607C13.7206 14.342 14.1022 14.5 14.5 14.5C14.8978 14.5 15.2794 14.342 15.5607 14.0607C15.842 13.7794 16 13.3978 16 13C16 12.6022 15.842 12.2206 15.5607 11.9393C15.2794 11.658 14.8978 11.5 14.5 11.5ZM11.5 13C11.5 12.2044 11.8161 11.4413 12.3787 10.8787C12.9413 10.3161 13.7044 10 14.5 10C15.2956 10 16.0587 10.3161 16.6213 10.8787C17.1839 11.4413 17.5 12.2044 17.5 13C17.5 13.7956 17.1839 14.5587 16.6213 15.1213C16.0587 15.6839 15.2956 16 14.5 16C13.7044 16 12.9413 15.6839 12.3787 15.1213C11.8161 14.5587 11.5 13.7956 11.5 13ZM10.768 17C9.79 17 9 17.791 9 18.768V19.128C9 19.335 9 20.536 9.7 21.703C10.248 22.613 11.177 23.43 12.675 23.796C12.8803 23.2507 13.2518 22.7837 13.737 22.461C12.134 22.29 11.376 21.578 10.987 20.931C10.503 20.125 10.5 19.267 10.5 19.125V18.768C10.5 18.62 10.62 18.5 10.768 18.5H15.03C15.0967 17.9714 15.2684 17.4614 15.535 17H10.768ZM22.465 17C22.726 17.452 22.902 17.959 22.969 18.5H27.232C27.38 18.5 27.5 18.62 27.5 18.768V19.125C27.5 19.267 27.497 20.125 27.013 20.93C26.624 21.578 25.866 22.29 24.263 22.461C24.743 22.781 25.119 23.247 25.325 23.796C26.823 23.43 27.752 22.613 28.299 21.703C29 20.536 29 19.336 29 19.127V18.767C29 17.792 28.209 17 27.232 17H22.465ZM22 13C22 12.6022 22.158 12.2206 22.4393 11.9393C22.7206 11.658 23.1022 11.5 23.5 11.5C23.8978 11.5 24.2794 11.658 24.5607 11.9393C24.842 12.2206 25 12.6022 25 13C25 13.3978 24.842 13.7794 24.5607 14.0607C24.2794 14.342 23.8978 14.5 23.5 14.5C23.1022 14.5 22.7206 14.342 22.4393 14.0607C22.158 13.7794 22 13.3978 22 13ZM23.5 10C22.7044 10 21.9413 10.3161 21.3787 10.8787C20.8161 11.4413 20.5 12.2044 20.5 13C20.5 13.7956 20.8161 14.5587 21.3787 15.1213C21.9413 15.6839 22.7044 16 23.5 16C24.2956 16 25.0587 15.6839 25.6213 15.1213C26.1839 14.5587 26.5 13.7956 26.5 13C26.5 12.2044 26.1839 11.4413 25.6213 10.8787C25.0587 10.3161 24.2956 10 23.5 10ZM19 17.5C18.803 17.5 18.608 17.5388 18.426 17.6142C18.244 17.6896 18.0786 17.8001 17.9393 17.9393C17.8001 18.0786 17.6896 18.244 17.6142 18.426C17.5388 18.608 17.5 18.803 17.5 19C17.5 19.197 17.5388 19.392 17.6142 19.574C17.6896 19.756 17.8001 19.9214 17.9393 20.0607C18.0786 20.1999 18.244 20.3104 18.426 20.3858C18.608 20.4612 18.803 20.5 19 20.5C19.3978 20.5 19.7794 20.342 20.0607 20.0607C20.342 19.7794 20.5 19.3978 20.5 19C20.5 18.6022 20.342 18.2206 20.0607 17.9393C19.7794 17.658 19.3978 17.5 19 17.5ZM16 19C16 18.2044 16.3161 17.4413 16.8787 16.8787C17.4413 16.3161 18.2044 16 19 16C19.7956 16 20.5587 16.3161 21.1213 16.8787C21.6839 17.4413 22 18.2044 22 19C22 19.7956 21.6839 20.5587 21.1213 21.1213C20.5587 21.6839 19.7956 22 19 22C18.2044 22 17.4413 21.6839 16.8787 21.1213C16.3161 20.5587 16 19.7956 16 19ZM13.5 24.768C13.5 23.79 14.291 23 15.268 23H22.732C23.709 23 24.5 23.791 24.5 24.768V25.128C24.5 25.335 24.5 26.536 23.8 27.703C23.057 28.937 21.613 30 19 30C16.387 30 14.942 28.937 14.2 27.703C13.5 26.536 13.5 25.336 13.5 25.127V24.768ZM15.268 24.5C15.1971 24.5005 15.1292 24.5289 15.0791 24.5791C15.0289 24.6292 15.0005 24.6971 15 24.768V25.125C15 25.267 15.003 26.125 15.487 26.93C15.933 27.673 16.864 28.5 19 28.5C21.136 28.5 22.067 27.673 22.513 26.93C22.997 26.125 23 25.267 23 25.125V24.768C22.9995 24.6971 22.9711 24.6292 22.9209 24.5791C22.8708 24.5289 22.8029 24.5005 22.732 24.5H15.268Z" fill="white"/>
</svg>
