<svg width="38" height="38" viewBox="0 0 38 38" fill="none" xmlns="http://www.w3.org/2000/svg">
<path d="M10.1615 9.90422C11.3216 8.74395 12.8775 8.06531 14.5171 8.00447C16.1567 7.94364 17.7587 8.50511 19.0015 9.57622C20.2433 8.50689 21.8431 7.94605 23.4807 8.00598C25.1184 8.06592 26.6729 8.74219 27.8332 9.89943C28.9935 11.0567 29.6738 12.6094 29.738 14.2469C29.8023 15.8844 29.2456 17.4857 28.1795 18.7302L20.4145 26.5202C20.0578 26.8771 19.5793 27.0859 19.075 27.1048C18.5708 27.1238 18.078 26.9514 17.6955 26.6222L17.5855 26.5212L9.82153 18.7302C8.75602 17.4868 8.19911 15.8869 8.26215 14.2506C8.32518 12.6143 9.00352 11.062 10.1615 9.90422ZM11.5755 11.3182C10.7578 12.1362 10.2864 13.2377 10.2592 14.394C10.232 15.5503 10.6511 16.6727 11.4295 17.5282L11.5755 17.6822L19.0005 25.1072L24.3035 19.8022L20.7685 16.2682L19.7085 17.3282C19.146 17.891 18.383 18.2073 17.5872 18.2075C16.7915 18.2077 16.0283 17.8917 15.4655 17.3292C14.9027 16.7667 14.5865 16.0036 14.5863 15.2079C14.5861 14.4122 14.902 13.649 15.4645 13.0862L17.5665 10.9832C16.73 10.3156 15.6829 9.96791 14.6132 10.0025C13.5435 10.0372 12.5211 10.4519 11.7295 11.1722L11.5755 11.3182ZM20.0615 14.1462C20.2491 13.9588 20.5034 13.8534 20.7685 13.8534C21.0337 13.8534 21.288 13.9588 21.4755 14.1462L25.7175 18.3882L26.4255 17.6822C27.257 16.8514 27.7303 15.7281 27.7444 14.5528C27.7584 13.3774 27.312 12.2432 26.5006 11.3928C25.6892 10.5423 24.5772 10.0431 23.4025 10.0019C22.2278 9.96066 21.0835 10.3807 20.2145 11.1722L20.0615 11.3182L16.8795 14.5002C16.7062 14.6734 16.6025 14.9043 16.5881 15.1489C16.5737 15.3935 16.6497 15.6349 16.8015 15.8272L16.8795 15.9142C17.0527 16.0876 17.2836 16.1912 17.5282 16.2056C17.7728 16.22 18.0142 16.1441 18.2065 15.9922L18.2935 15.9142L20.0615 14.1462Z" fill="white"/>
</svg>
