<svg width="38" height="38" viewBox="0 0 38 38" fill="none" xmlns="http://www.w3.org/2000/svg">
<g clip-path="url(#clip0_1181_2149)">
<path d="M19 4C17.0385 4 15.5385 5.5 15.5385 7.46154V14.3846C15.5385 16.3462 17.0385 17.8462 19 17.8462H25.9231L30.5385 22.4615V17.8462C32.5 17.8462 34 16.3462 34 14.3846V7.46154C34 5.5 32.5 4 30.5385 4H19ZM23.8323 7.46154H25.8146L27.7623 14.3846H26.0315L25.5619 12.6538H23.8312L23.3996 14.3846H21.8846L23.8323 7.46154ZM24.7692 8.61538C24.6538 9.07692 24.5246 9.64 24.4081 9.98615L24.085 11.5H25.4546L25.1292 9.985C24.8996 9.64 24.7692 9.07692 24.7692 8.61538ZM7.46154 15.5385C5.5 15.5385 4 17.0385 4 19V25.9231C4 27.8846 5.5 29.3846 7.46154 29.3846V34L12.0769 29.3846H19C20.9615 29.3846 22.4615 27.8846 22.4615 25.9231V19H19C16.8077 19 15.07 17.5 14.4931 15.5385H7.46154ZM12.7623 18.8915C14.7238 18.8915 15.6469 20.5069 15.6469 22.3531C15.6469 23.9685 15.0919 24.9931 14.1688 25.4546C14.6304 25.6854 15.1773 25.8077 15.7542 25.9231L15.3227 27.0769C14.515 26.8462 13.6773 26.4862 12.8696 26.1388C12.7542 26.0235 12.5523 26.0315 12.4369 26.0315C11.0523 25.9162 9.76923 24.7692 9.76923 22.4615C9.76923 20.5 10.9162 18.8915 12.7623 18.8915ZM12.7623 20.1538C11.8392 20.1538 11.3915 21.1923 11.3915 22.4615C11.3915 23.8462 11.8392 24.7692 12.7623 24.7692C13.6854 24.7692 14.1677 23.7308 14.1677 22.4615C14.1677 21.1923 13.6854 20.1538 12.7623 20.1538Z" fill="white"/>
</g>
<defs>
<clipPath id="clip0_1181_2149">
<rect width="30" height="30" fill="white" transform="translate(4 4)"/>
</clipPath>
</defs>
</svg>
