<svg width="23" height="21" viewBox="0 0 23 21" fill="none" xmlns="http://www.w3.org/2000/svg">
<path d="M16.369 0.888672C14.273 0.888672 12.482 2.38267 11.498 3.41267C10.514 2.38267 8.727 0.888672 6.632 0.888672C3.021 0.888672 0.5 3.40567 0.5 7.00867C0.5 10.9787 3.631 13.5447 6.66 16.0267C8.09 17.1997 9.57 18.4117 10.705 19.7557C10.896 19.9807 11.176 20.1107 11.47 20.1107H11.528C11.823 20.1107 12.102 19.9797 12.292 19.7557C13.429 18.4117 14.908 17.1987 16.339 16.0267C19.367 13.5457 22.5 10.9797 22.5 7.00867C22.5 3.40567 19.979 0.888672 16.369 0.888672Z" fill="#87BBA4"/>
</svg>
