<svg width="38" height="38" viewBox="0 0 38 38" fill="none" xmlns="http://www.w3.org/2000/svg">
<path d="M8.33333 20.3091V22.8217C8.33333 23.0347 8.41867 23.2307 8.58933 23.4095C8.76 23.5883 8.948 23.6772 9.15333 23.6763H28.8467C29.0511 23.6763 29.2391 23.5874 29.4107 23.4095C29.5822 23.2316 29.6676 23.0352 29.6667 22.8203V20.3091H8.33333ZM9.15333 7H28.8467C29.4422 7 29.9502 7.21864 30.3707 7.65593C30.7902 8.09323 31 8.62316 31 9.24574V22.8217C31 23.4424 30.7902 23.9719 30.3707 24.4101C29.9511 24.8474 29.4431 25.066 28.8467 25.066H22.8973V31L19 28.9669L15.1027 30.9972V25.066H9.15467C8.55733 25.066 8.04889 24.8474 7.62933 24.4101C7.20978 23.9728 7 23.4433 7 22.8217V9.24435C7 8.62362 7.20978 8.09415 7.62933 7.65593C8.04889 7.21864 8.55733 7 9.15467 7M8.33333 17.3157H29.6667V9.24574C29.6667 9.03173 29.5813 8.83532 29.4107 8.65651C29.24 8.47771 29.052 8.38877 28.8467 8.38969H9.15333C8.94889 8.38969 8.76089 8.47863 8.58933 8.65651C8.41778 8.83439 8.33244 9.03034 8.33333 9.24435V17.3157ZM8.33333 22.8217V8.38969H9.15467C8.94933 8.38969 8.76089 8.47863 8.58933 8.65651C8.41778 8.83439 8.33244 9.03034 8.33333 9.24435V22.8217ZM8.33333 22.8217C8.33333 23.0347 8.41867 23.2307 8.58933 23.4095C8.76 23.5883 8.948 23.6772 9.15333 23.6763H8.33333V22.8217Z" fill="white"/>
</svg>
