<svg width="38" height="38" viewBox="0 0 38 38" fill="none" xmlns="http://www.w3.org/2000/svg">
<g clip-path="url(#clip0_1181_2676)">
<path d="M11.05 13.625V16.0125H6.8125V18.35C6.8125 22.2625 7.975 24.4437 10.7687 25.8C11.8074 26.3584 12.766 27.0543 13.6188 27.8688C14.3044 28.5995 15.1402 29.1731 16.0687 29.55L17.125 29.875V32.7062H15.5125C13.5625 32.7062 12.9062 33.15 12.9062 34.4687V35.3563H25.0938V34.5625C25.0938 33.2688 24.2938 32.6875 22.4438 32.6875H20.875V29.875L21.95 29.5563C22.88 29.1793 23.7163 28.6033 24.4 27.8688C25.2898 27.0211 26.2856 26.2921 27.3625 25.7C28.1988 25.2975 28.9457 24.7311 29.5588 24.0343C30.1718 23.3374 30.6386 22.5245 30.9313 21.6437C31.1301 20.5532 31.2222 19.4459 31.2062 18.3375V16.0187H26.95V13.625H11.05ZM19 17.6062L20.2812 20.2563H23.3687L20.95 22.4875L21.6437 25.3375L19 23.9187L16.3563 25.3563L17.05 22.5062L14.625 20.275H17.7188L19 17.6062ZM9.0375 18.4H11.0125V23.325C10.8063 23.45 10.1625 22.7 9.69375 21.8437C9.42754 21.1882 9.25705 20.4978 9.1875 19.7938L9.0375 18.4ZM26.9875 18.4H29.1375L28.9563 19.775C28.9137 20.9196 28.4534 22.009 27.6625 22.8375C27.4762 23.0908 27.2401 23.3035 26.9688 23.4625L26.9875 18.4Z" stroke="white" stroke-linecap="round" stroke-linejoin="round"/>
</g>
<defs>
<clipPath id="clip0_1181_2676">
<rect width="38" height="38" fill="white"/>
</clipPath>
</defs>
</svg>
