<svg width="38" height="38" viewBox="0 0 38 38" fill="none" xmlns="http://www.w3.org/2000/svg">
<path d="M19 19C20.6569 19 22 17.6569 22 16C22 14.3431 20.6569 13 19 13C17.3431 13 16 14.3431 16 16C16 17.6569 17.3431 19 19 19Z" stroke="white" stroke-width="1.5"/>
<path d="M10.661 14.64C11.134 14.936 11.438 15.442 11.438 16C11.438 16.558 11.134 17.064 10.661 17.36C10.34 17.563 10.132 17.724 9.98496 17.916C9.82505 18.1244 9.70778 18.3623 9.63983 18.6161C9.57188 18.8699 9.5546 19.1345 9.58896 19.395C9.64096 19.789 9.87396 20.193 10.339 21C10.806 21.807 11.039 22.21 11.354 22.453C11.5624 22.6129 11.8003 22.7302 12.0541 22.7981C12.3078 22.8661 12.5725 22.8834 12.833 22.849C13.073 22.817 13.316 22.719 13.652 22.541C13.8924 22.4094 14.1624 22.3411 14.4365 22.3425C14.7106 22.3439 14.9799 22.415 15.219 22.549C15.702 22.829 15.989 23.344 16.009 23.902C16.023 24.282 16.059 24.542 16.152 24.765C16.2525 25.0078 16.3999 25.2284 16.5857 25.4143C16.7715 25.6001 16.9921 25.7475 17.235 25.848C17.602 26 18.068 26 19 26C19.932 26 20.398 26 20.765 25.848C21.0078 25.7475 21.2284 25.6001 21.4142 25.4143C21.6001 25.2284 21.7474 25.0078 21.848 24.765C21.94 24.542 21.977 24.282 21.991 23.902C22.011 23.344 22.298 22.828 22.781 22.549C23.0201 22.415 23.2893 22.3439 23.5634 22.3425C23.8375 22.3411 24.1075 22.4094 24.348 22.541C24.684 22.719 24.928 22.817 25.168 22.849C25.6936 22.9181 26.2253 22.7757 26.646 22.453C26.961 22.211 27.194 21.807 27.66 21C27.868 20.64 28.029 20.361 28.149 20.127M27.339 17.361C27.1048 17.2187 26.9107 17.0192 26.7748 16.7814C26.6389 16.5435 26.5657 16.275 26.562 16.001C26.562 15.442 26.866 14.936 27.339 14.639C27.66 14.437 27.867 14.276 28.015 14.084C28.1749 13.8756 28.2921 13.6377 28.3601 13.3839C28.428 13.1301 28.4453 12.8655 28.411 12.605C28.359 12.211 28.126 11.807 27.661 11C27.194 10.193 26.961 9.79 26.646 9.547C26.4375 9.38709 26.1996 9.26981 25.9459 9.20187C25.6921 9.13392 25.4274 9.11664 25.167 9.151C24.927 9.183 24.684 9.281 24.347 9.459C24.1066 9.59042 23.8368 9.65862 23.5629 9.65722C23.289 9.65582 23.0199 9.58486 22.781 9.451C22.5454 9.31091 22.3493 9.11324 22.2112 8.87657C22.073 8.6399 21.9972 8.37199 21.991 8.098C21.977 7.718 21.941 7.458 21.848 7.235C21.7474 6.99218 21.6001 6.77155 21.4142 6.58572C21.2284 6.3999 21.0078 6.25251 20.765 6.152C20.398 6 19.932 6 19 6C18.068 6 17.602 6 17.235 6.152C16.9921 6.25251 16.7715 6.3999 16.5857 6.58572C16.3999 6.77155 16.2525 6.99218 16.152 7.235C16.06 7.458 16.023 7.718 16.009 8.098C16.0027 8.37199 15.927 8.6399 15.7888 8.87657C15.6506 9.11324 15.4545 9.31091 15.219 9.451C14.9799 9.58504 14.7106 9.6561 14.4365 9.6575C14.1624 9.6589 13.8924 9.59059 13.652 9.459C13.316 9.281 13.072 9.183 12.832 9.151C12.3063 9.08187 11.7747 9.22431 11.354 9.547C11.04 9.79 10.806 10.193 10.34 11C10.132 11.36 9.97096 11.639 9.85096 11.873" stroke="white" stroke-width="1.5" stroke-linecap="round"/>
</svg>
