<svg width="38" height="38" viewBox="0 0 38 38" fill="none" xmlns="http://www.w3.org/2000/svg">
<path d="M22.2138 22.7549L23.2862 25.0611C23.2862 25.0611 28.1075 26.0849 28.1075 28.5199C28.1075 30.2499 25.9625 30.2499 25.9625 30.2499H20.25L17.4375 28.6874" stroke="white" stroke-width="1.5" stroke-linecap="round" stroke-linejoin="round"/>
<path d="M15.7863 22.7549L14.7151 25.0611C14.7151 25.0611 9.89258 26.0849 9.89258 28.5199C9.89258 30.2499 12.0376 30.2499 12.0376 30.2499H14.6251L17.4376 28.6874L20.8751 26.4999" stroke="white" stroke-width="1.5" stroke-linecap="round" stroke-linejoin="round"/>
<path d="M7.75 23.9075C7.75 23.9075 10.4287 23.3312 12.0362 22.755C13.6425 14.6825 18.4625 15.2587 19 15.2587C19.5375 15.2587 24.3575 14.6825 25.9637 22.755C27.5712 23.33 30.25 23.9075 30.25 23.9075M19 12.75C19.663 12.75 20.2989 12.4866 20.7678 12.0178C21.2366 11.5489 21.5 10.913 21.5 10.25C21.5 9.58696 21.2366 8.95107 20.7678 8.48223C20.2989 8.01339 19.663 7.75 19 7.75C18.337 7.75 17.7011 8.01339 17.2322 8.48223C16.7634 8.95107 16.5 9.58696 16.5 10.25C16.5 10.913 16.7634 11.5489 17.2322 12.0178C17.7011 12.4866 18.337 12.75 19 12.75Z" stroke="white" stroke-width="1.5" stroke-linecap="round" stroke-linejoin="round"/>
</svg>
