<svg width="22" height="20" viewBox="0 0 22 20" fill="none" xmlns="http://www.w3.org/2000/svg">
<path d="M2.16104 1.90422C3.32111 0.74395 4.87704 0.0653094 6.51664 0.00447365C8.15624 -0.0563621 9.75819 0.505108 11.001 1.57622C12.2428 0.506893 13.8426 -0.0539461 15.4803 0.00598499C17.1179 0.065916 18.6724 0.742195 19.8327 1.89943C20.993 3.05666 21.6733 4.60945 21.7375 6.24691C21.8018 7.88438 21.2451 9.48567 20.179 10.7302L12.414 18.5202C12.0573 18.8771 11.5788 19.0859 11.0746 19.1048C10.5703 19.1238 10.0775 18.9514 9.69504 18.6222L9.58504 18.5212L1.82104 10.7302C0.755532 9.48675 0.198622 7.88693 0.261658 6.2506C0.324693 4.61428 1.00303 3.06204 2.16104 1.90422ZM3.57504 3.31822C2.75728 4.13621 2.2859 5.23767 2.25871 6.39399C2.23152 7.55032 2.65063 8.67271 3.42904 9.52822L3.57504 9.68222L11 17.1072L16.303 11.8022L12.768 8.26822L11.708 9.32822C11.1455 9.89101 10.3825 10.2073 9.58675 10.2075C8.79103 10.2077 8.02783 9.89175 7.46504 9.32922C6.90225 8.7667 6.58598 8.00365 6.58579 7.20793C6.5856 6.41221 6.90152 5.64901 7.46404 5.08622L9.56604 2.98322C8.72951 2.3156 7.68245 1.96791 6.61273 2.00255C5.543 2.03719 4.52063 2.45188 3.72904 3.17222L3.57504 3.31822ZM12.061 6.14622C12.2486 5.95875 12.5029 5.85344 12.768 5.85344C13.0332 5.85344 13.2875 5.95875 13.475 6.14622L17.717 10.3882L18.425 9.68222C19.2565 8.85136 19.7299 7.72814 19.7439 6.55278C19.7579 5.37743 19.3115 4.24324 18.5001 3.39278C17.6887 2.54232 16.5767 2.04309 15.402 2.00188C14.2273 1.96066 13.0831 2.38072 12.214 3.17222L12.061 3.31822L8.87904 6.50022C8.70571 6.67344 8.60202 6.90427 8.58764 7.14889C8.57326 7.39351 8.6492 7.6349 8.80104 7.82722L8.87904 7.91422C9.05226 8.08755 9.28309 8.19125 9.52771 8.20563C9.77233 8.22001 10.0137 8.14407 10.206 7.99222L10.293 7.91422L12.061 6.14622Z" fill="white"/>
</svg>
