<svg width="156" height="66" viewBox="0 0 156 66" fill="none" xmlns="http://www.w3.org/2000/svg">
<g filter="url(#filter0_i_558_53432)">
<path d="M68.767 25.84C68.143 25.696 67.735 25.36 67.543 24.832C67.351 24.304 67.231 23.8 67.183 23.32C67.159 23.128 67.147 22.948 67.147 22.78C67.147 22.588 67.147 22.396 67.147 22.204C67.147 21.148 67.243 20.068 67.435 18.964C67.651 17.86 67.939 16.828 68.299 15.868V15.904C68.299 15.856 68.311 15.784 68.335 15.688C68.383 15.592 68.419 15.496 68.443 15.4L68.551 15.112C68.575 15.064 68.587 15.028 68.587 15.004C68.587 14.98 68.587 14.968 68.587 14.968C68.563 14.632 68.623 14.32 68.767 14.032C68.935 13.72 69.067 13.42 69.163 13.132C69.523 12.052 69.919 10.984 70.351 9.928C70.783 8.872 71.275 7.84 71.827 6.832C72.019 6.496 72.175 6.172 72.295 5.86C72.439 5.548 72.643 5.26 72.907 4.996C73.123 4.996 73.447 5.044 73.879 5.14C74.335 5.212 74.755 5.332 75.139 5.5C75.523 5.644 75.727 5.836 75.751 6.076C75.775 6.34 75.691 6.652 75.499 7.012C75.307 7.372 75.079 7.72 74.815 8.056C74.575 8.392 74.383 8.668 74.239 8.884C74.215 8.86 74.179 8.848 74.131 8.848L74.059 8.884C73.723 9.268 73.459 9.628 73.267 9.964C73.099 10.276 72.919 10.672 72.727 11.152C72.535 11.608 72.247 12.016 71.863 12.376C71.479 12.736 71.191 13.156 70.999 13.636C70.975 13.708 70.927 13.852 70.855 14.068C70.807 14.284 70.759 14.512 70.711 14.752C70.687 14.872 70.651 15.028 70.603 15.22C70.555 15.412 70.507 15.568 70.459 15.688C70.435 16.048 70.303 16.42 70.063 16.804C69.847 17.188 69.643 17.572 69.451 17.956C69.259 18.34 69.175 18.724 69.199 19.108C69.103 19.228 69.055 19.372 69.055 19.54C69.055 19.708 69.031 19.864 68.983 20.008C68.911 20.464 68.827 20.836 68.731 21.124C68.659 21.388 68.587 21.664 68.515 21.952C68.467 22.216 68.395 22.588 68.299 23.068C68.275 23.14 68.263 23.224 68.263 23.32C68.263 23.392 68.263 23.476 68.263 23.572C68.263 23.86 68.299 24.136 68.371 24.4C68.467 24.688 68.599 24.88 68.767 24.976C68.983 25.072 69.163 25.168 69.307 25.264C69.475 25.36 69.559 25.456 69.559 25.552C69.559 25.672 69.295 25.768 68.767 25.84ZM42.883 25.732C41.347 25.732 40.267 25.288 39.643 24.4C39.019 23.536 38.707 22.492 38.707 21.268C38.707 20.596 38.791 19.912 38.959 19.216C39.127 18.496 39.331 17.8 39.571 17.128C39.619 16.96 39.703 16.744 39.823 16.48C39.943 16.216 40.063 16.012 40.183 15.868C40.327 15.676 40.507 15.58 40.723 15.58L40.687 15.508C40.663 15.46 40.639 15.4 40.615 15.328C40.591 15.232 40.603 15.148 40.651 15.076C40.963 14.668 41.287 14.296 41.623 13.96C41.959 13.6 42.259 13.288 42.523 13.024C42.715 12.832 42.895 12.64 43.063 12.448C43.231 12.256 43.411 12.076 43.603 11.908C44.155 11.428 44.803 11.092 45.547 10.9C46.315 10.684 47.107 10.576 47.923 10.576C48.307 10.576 48.667 10.648 49.003 10.792C49.363 10.912 49.711 11.092 50.047 11.332V11.584H50.011V11.656C49.843 11.608 49.687 11.572 49.543 11.548C49.399 11.5 49.267 11.464 49.147 11.44C49.027 11.416 48.895 11.392 48.751 11.368C48.631 11.344 48.511 11.332 48.391 11.332C47.647 11.332 46.879 11.584 46.087 12.088C45.295 12.568 44.539 13.216 43.819 14.032C43.099 14.824 42.451 15.7 41.875 16.66C41.299 17.62 40.843 18.592 40.507 19.576C40.171 20.536 40.003 21.424 40.003 22.24C40.003 23.08 40.219 23.764 40.651 24.292C41.083 24.844 41.791 25.12 42.775 25.12C43.351 25.12 43.963 24.952 44.611 24.616C45.259 24.304 45.871 23.932 46.447 23.5C47.023 23.044 47.491 22.648 47.851 22.312C48.043 22.12 48.223 21.94 48.391 21.772C48.583 21.604 48.763 21.436 48.931 21.268C50.107 20.116 51.199 18.916 52.207 17.668C53.239 16.42 54.247 15.148 55.231 13.852C55.711 13.228 56.203 12.616 56.707 12.016C57.211 11.392 57.679 10.744 58.111 10.072C58.303 9.76 58.483 9.436 58.651 9.1C58.819 8.764 58.963 8.44 59.083 8.128C59.155 7.912 59.203 7.708 59.227 7.516C59.251 7.3 59.335 7.096 59.479 6.904C59.647 6.904 59.911 6.892 60.271 6.868C60.631 6.82 60.991 6.796 61.351 6.796C61.639 6.796 61.891 6.832 62.107 6.904C62.323 6.952 62.431 7.06 62.431 7.228V7.804C62.359 7.972 62.275 8.14 62.179 8.308C62.083 8.452 61.987 8.608 61.891 8.776C61.603 9.304 61.339 9.832 61.099 10.36C60.499 11.656 59.935 13.108 59.407 14.716C58.903 16.324 58.651 17.872 58.651 19.36C58.651 19.888 58.735 20.344 58.903 20.728C59.095 21.112 59.491 21.316 60.091 21.34C60.331 21.22 60.559 21.112 60.775 21.016C61.015 20.92 61.243 20.812 61.459 20.692C62.347 20.116 63.115 19.432 63.763 18.64C64.435 17.824 65.059 16.972 65.635 16.084C66.211 15.172 66.799 14.296 67.399 13.456C67.495 13.312 67.651 13.096 67.867 12.808C68.107 12.52 68.335 12.232 68.551 11.944C68.767 11.632 68.875 11.416 68.875 11.296C69.115 11.032 69.259 10.96 69.307 11.08C69.355 11.104 69.379 11.152 69.379 11.224C69.379 11.296 69.367 11.356 69.343 11.404C69.319 11.548 69.151 11.896 68.839 12.448C68.551 13 68.179 13.648 67.723 14.392C67.267 15.112 66.799 15.856 66.319 16.624C65.863 17.368 65.443 18.028 65.059 18.604C64.675 19.156 64.423 19.516 64.303 19.684C64.087 19.996 63.847 20.308 63.583 20.62C63.319 20.932 63.019 21.184 62.683 21.376C62.371 21.592 62.011 21.748 61.603 21.844C61.195 21.916 60.799 21.952 60.415 21.952C59.239 21.952 58.363 21.7 57.787 21.196C57.211 20.692 56.827 19.852 56.635 18.676C56.611 18.556 56.587 18.424 56.563 18.28C56.563 18.136 56.563 18.004 56.563 17.884C56.563 17.092 56.683 16.3 56.923 15.508C57.187 14.692 57.403 13.912 57.571 13.168L57.823 12.232L57.931 11.764C57.835 11.932 57.703 12.124 57.535 12.34C57.391 12.556 57.235 12.784 57.067 13.024L55.735 14.788C55.399 15.268 55.039 15.736 54.655 16.192C54.271 16.648 53.899 17.116 53.539 17.596C52.843 18.508 52.147 19.42 51.451 20.332C50.755 21.22 49.987 22.048 49.147 22.816C48.259 23.632 47.287 24.316 46.231 24.868C45.199 25.444 44.083 25.732 42.883 25.732ZM80.2501 24.58C79.6501 24.58 79.1581 24.328 78.7741 23.824C78.3901 23.32 78.1741 22.84 78.1261 22.384C78.0781 21.856 78.1261 21.292 78.2701 20.692C78.4141 20.092 78.6181 19.564 78.8821 19.108C78.8821 19.084 78.8701 19.06 78.8461 19.036C78.8461 18.988 78.8461 18.952 78.8461 18.928C78.8461 18.808 78.8701 18.688 78.9181 18.568C78.9901 18.424 79.0381 18.292 79.0621 18.172C79.1341 18.028 79.2061 17.872 79.2781 17.704C79.3741 17.512 79.4581 17.332 79.5301 17.164L79.9261 16.3C79.9741 16.132 79.9981 16.048 79.9981 16.048C79.8301 16.144 79.4461 16.288 78.8461 16.48C78.2701 16.648 77.6101 16.816 76.8661 16.984C76.1221 17.152 75.4381 17.296 74.8141 17.416C74.2141 17.536 73.8061 17.596 73.5901 17.596C73.3981 17.596 73.2061 17.488 73.0141 17.272C72.8461 17.056 72.7021 16.816 72.5821 16.552C72.4861 16.264 72.4261 16.06 72.4021 15.94V15.868C72.4021 15.676 72.4501 15.58 72.5461 15.58C72.6661 15.556 72.7741 15.568 72.8701 15.616C72.9181 15.64 72.9901 15.688 73.0861 15.76C73.2061 15.832 73.2781 15.868 73.3021 15.868C73.4221 15.868 73.5301 15.868 73.6261 15.868C73.7221 15.844 73.8181 15.82 73.9141 15.796C74.1541 15.748 74.3941 15.7 74.6341 15.652C74.8741 15.58 75.1021 15.52 75.3181 15.472L78.8461 14.716C79.1581 14.668 79.5541 14.572 80.0341 14.428C80.5141 14.26 80.8501 14.056 81.0421 13.816C81.1861 13.624 81.3661 13.36 81.5821 13.024C81.7981 12.688 82.0261 12.328 82.2661 11.944C82.5301 11.536 82.7821 11.128 83.0221 10.72C83.2621 10.312 83.5021 9.928 83.7421 9.568C83.4781 9.688 83.3461 9.7 83.3461 9.604C83.3461 9.484 83.3581 9.412 83.3821 9.388C83.4781 9.244 83.6461 9.016 83.8861 8.704C84.1261 8.392 84.3541 8.14 84.5701 7.948C83.6101 8.164 82.5421 8.44 81.3661 8.776C80.1901 9.088 79.0141 9.412 77.8381 9.748C76.6141 10.06 75.4621 10.348 74.3821 10.612C73.3021 10.852 72.4141 10.972 71.7181 10.972C71.4061 10.972 71.0701 10.924 70.7101 10.828C70.3501 10.732 70.0501 10.54 69.8101 10.252C69.6661 10.084 69.5461 9.796 69.4501 9.388C69.3541 8.956 69.3061 8.668 69.3061 8.524C69.3061 8.164 69.4981 7.804 69.8821 7.444C70.2661 7.084 70.7101 6.784 71.2141 6.544C71.7181 6.28 72.1381 6.172 72.4741 6.22C72.8101 5.956 73.3141 5.716 73.9861 5.5C74.6821 5.26 75.2581 5.14 75.7141 5.14C75.9061 5.14 76.0981 5.116 76.2901 5.068C76.4821 5.02 76.6741 4.996 76.8661 4.996C77.0101 4.948 77.1421 4.924 77.2621 4.924C77.3341 4.924 77.4661 4.948 77.6581 4.996C77.8741 5.02 78.0181 5.056 78.0901 5.104L78.0541 5.068C78.1501 5.092 78.1981 5.14 78.1981 5.212C78.1981 5.26 78.1501 5.284 78.0541 5.284C77.6701 5.404 77.2741 5.488 76.8661 5.536C76.4821 5.584 76.0981 5.656 75.7141 5.752C74.8501 5.992 73.9261 6.34 72.9421 6.796C71.9581 7.228 71.1181 7.708 70.4221 8.236C70.3741 8.26 70.3261 8.344 70.2781 8.488C70.2061 8.632 70.1701 8.752 70.1701 8.848C70.1941 8.896 70.3381 8.944 70.6021 8.992C70.8661 9.04 71.0341 9.064 71.1061 9.064C71.2981 9.064 71.4901 9.064 71.6821 9.064C71.8981 9.04 72.1021 9.016 72.2941 8.992C73.0141 8.896 73.8061 8.788 74.6701 8.668C75.5581 8.524 76.3981 8.38 77.1901 8.236C77.9821 8.092 78.6061 7.972 79.0621 7.876C80.5261 7.492 81.8461 7.204 83.0221 7.012C84.2221 6.82 85.5541 6.568 87.0181 6.256C87.2581 6.184 87.6661 6.136 88.2421 6.112C88.8181 6.088 89.2981 6.028 89.6821 5.932C90.3061 5.884 90.8341 5.848 91.2661 5.824C91.7221 5.8 92.2621 5.788 92.8861 5.788C93.2701 5.788 93.6901 5.86 94.1461 6.004C94.6261 6.124 95.0221 6.28 95.3341 6.472C95.6221 6.64 95.9461 6.928 96.3061 7.336C96.6901 7.72 97.0141 8.14 97.2781 8.596C97.5661 9.028 97.7221 9.4 97.7461 9.712C97.7941 10.192 97.7341 10.528 97.5661 10.72C97.3981 10.912 97.1701 11.044 96.8821 11.116C96.6181 11.164 96.3421 11.272 96.0541 11.44C95.9101 11.536 95.7541 11.632 95.5861 11.728C95.4421 11.8 95.2861 11.836 95.1181 11.836H94.9021V11.764H94.8661V11.548H94.9741C95.3581 11.284 95.7421 10.924 96.1261 10.468C96.5101 9.988 96.7021 9.52 96.7021 9.064C96.7021 8.656 96.5221 8.332 96.1621 8.092C95.8261 7.828 95.3941 7.636 94.8661 7.516C94.3621 7.372 93.8461 7.288 93.3181 7.264C92.8141 7.216 92.3821 7.192 92.0221 7.192C91.2781 7.192 90.4621 7.216 89.5741 7.264C88.7101 7.288 87.9181 7.396 87.1981 7.588H87.0901C87.3301 7.78 87.4621 8.02 87.4861 8.308C87.4861 8.38 87.3781 8.56 87.1621 8.848C86.9701 9.136 86.7541 9.424 86.5141 9.712C86.2981 10 86.1301 10.192 86.0101 10.288C85.8421 10.36 85.7461 10.36 85.7221 10.288V10.324C85.7221 10.396 85.7101 10.48 85.6861 10.576H85.3261C85.3261 10.816 85.2061 11.032 84.9661 11.224C84.7261 11.392 84.5341 11.572 84.3901 11.764C84.2941 11.884 84.2461 12.04 84.2461 12.232C84.1021 12.256 83.9101 12.388 83.6701 12.628C83.4541 12.844 83.2501 13.084 83.0581 13.348C82.8901 13.588 82.7941 13.792 82.7701 13.96C82.8421 13.96 82.8901 13.972 82.9141 13.996L82.9861 14.032C83.2741 14.008 83.5981 13.972 83.9581 13.924C84.3421 13.876 84.6781 13.852 84.9661 13.852C85.0381 13.852 85.1101 13.864 85.1821 13.888C85.2541 13.888 85.3261 13.888 85.3981 13.888C85.7341 13.888 86.0701 13.876 86.4061 13.852C86.7421 13.828 87.0781 13.816 87.4141 13.816C87.5581 13.816 87.7981 13.852 88.1341 13.924C88.4941 13.996 88.8661 14.092 89.2501 14.212C89.6341 14.332 89.9581 14.476 90.2221 14.644C90.5101 14.788 90.6541 14.944 90.6541 15.112L90.6901 15.328C90.1141 15.064 89.5501 14.884 88.9981 14.788C88.4461 14.692 87.8941 14.644 87.3421 14.644C86.3821 14.644 85.4941 14.692 84.6781 14.788C83.8621 14.86 83.1421 15.088 82.5181 15.472C81.8941 15.832 81.3901 16.456 81.0061 17.344C80.9101 17.56 80.8501 17.788 80.8261 18.028C80.8021 18.244 80.7541 18.46 80.6821 18.676C80.5141 19.132 80.3221 19.636 80.1061 20.188C79.9141 20.74 79.8181 21.292 79.8181 21.844C79.8181 22.132 79.8301 22.456 79.8541 22.816C79.9021 23.176 79.9981 23.512 80.1421 23.824C80.5501 23.848 80.8501 23.74 81.0421 23.5C81.2581 23.284 81.4861 23.056 81.7261 22.816C81.8461 22.648 82.0261 22.564 82.2661 22.564C82.1701 22.948 81.9301 23.38 81.5461 23.86C81.1621 24.34 80.7301 24.58 80.2501 24.58ZM100.266 24.688C100.026 24.712 99.7744 24.616 99.5104 24.4C99.2704 24.184 99.0904 24.004 98.9704 23.86C98.5864 23.452 98.3344 22.924 98.2144 22.276C98.1184 21.604 98.0704 21.064 98.0704 20.656C98.0704 19.888 98.2144 19.156 98.5024 18.46C98.7904 17.74 99.0784 17.02 99.3664 16.3C98.5504 16.42 97.7344 16.552 96.9184 16.696C96.1264 16.84 95.3104 16.912 94.4704 16.912C93.7984 16.912 93.0904 16.816 92.3464 16.624C91.6024 16.408 91.0984 15.928 90.8344 15.184C90.8104 15.136 90.7984 15.064 90.7984 14.968C90.7984 14.824 90.8464 14.692 90.9424 14.572C91.0144 14.428 91.0384 14.308 91.0144 14.212C91.2304 14.212 91.3384 14.14 91.3384 13.996C91.6024 13.828 91.9624 13.636 92.4184 13.42C92.8744 13.18 93.3424 12.976 93.8224 12.808C94.3264 12.616 94.7344 12.52 95.0464 12.52C95.4064 12.28 95.8384 12.16 96.3424 12.16C96.5344 12.112 96.7144 12.1 96.8824 12.124C97.0744 12.124 97.2664 12.124 97.4584 12.124C97.6024 12.076 97.7464 12.052 97.8904 12.052C98.0584 12.028 98.2264 12.016 98.3944 12.016C98.4664 11.992 98.5624 11.98 98.6824 11.98C98.7784 11.98 98.8744 11.992 98.9704 12.016C99.0904 12.016 99.1984 12.016 99.2944 12.016L99.4024 12.124V12.34H99.3664V12.376C98.9104 12.4 98.4904 12.472 98.1064 12.592C97.7224 12.688 97.3024 12.808 96.8464 12.952C96.6304 13.024 96.3064 13.132 95.8744 13.276C95.4664 13.396 95.0224 13.564 94.5424 13.78C94.0864 13.972 93.6904 14.2 93.3544 14.464C93.0424 14.728 92.8864 15.016 92.8864 15.328C92.8864 15.52 93.0304 15.64 93.3184 15.688C93.6064 15.712 93.8224 15.724 93.9664 15.724C94.4464 15.724 94.8184 15.724 95.0824 15.724C95.3464 15.7 95.6104 15.676 95.8744 15.652C96.1624 15.604 96.5344 15.544 96.9904 15.472L99.8344 15.04C100.122 14.704 100.35 14.344 100.518 13.96C100.71 13.552 100.926 13.156 101.166 12.772C101.814 11.74 102.498 10.732 103.218 9.748C103.938 8.764 104.742 7.828 105.63 6.94C105.966 6.604 106.29 6.292 106.602 6.004C106.914 5.692 107.298 5.464 107.754 5.32C107.946 5.368 108.162 5.464 108.402 5.608C108.642 5.728 108.822 5.884 108.942 6.076C109.062 6.22 109.122 6.4 109.122 6.616C109.122 6.784 109.074 6.94 108.978 7.084C108.882 7.228 108.774 7.36 108.654 7.48C108.606 7.528 108.51 7.636 108.366 7.804C108.222 7.948 108.066 8.092 107.898 8.236C107.754 8.38 107.658 8.452 107.61 8.452H107.43V8.236C107.19 8.356 106.986 8.524 106.818 8.74C106.65 8.956 106.47 9.148 106.278 9.316C106.134 9.436 105.99 9.556 105.846 9.676C105.702 9.772 105.558 9.88 105.414 10C105.318 10.072 105.102 10.324 104.766 10.756C104.454 11.164 104.094 11.644 103.686 12.196C103.302 12.724 102.942 13.228 102.606 13.708C102.294 14.164 102.102 14.488 102.03 14.68C102.51 14.632 102.906 14.572 103.218 14.5C103.53 14.428 103.95 14.356 104.478 14.284C105.15 14.212 105.822 14.152 106.494 14.104C107.19 14.032 107.874 13.948 108.546 13.852L109.266 13.744C109.458 13.696 109.77 13.66 110.202 13.636C110.634 13.612 110.922 13.552 111.066 13.456C111.234 13.192 111.498 12.784 111.858 12.232C112.218 11.656 112.638 11.032 113.118 10.36C113.598 9.664 114.078 9.004 114.558 8.38C115.062 7.732 115.53 7.192 115.962 6.76C116.394 6.304 116.73 6.04 116.97 5.968C117.042 5.92 117.138 5.872 117.258 5.824C117.378 5.776 117.474 5.752 117.546 5.752C117.762 5.752 118.05 5.848 118.41 6.04C118.77 6.208 118.986 6.424 119.058 6.688C118.746 6.832 118.446 6.964 118.158 7.084C117.99 7.18 117.858 7.288 117.762 7.408C117.666 7.528 117.51 7.6 117.294 7.624V7.696H117.186C117.138 7.792 117.066 7.852 116.97 7.876L116.898 7.948C116.874 7.972 116.862 7.984 116.862 7.984H116.898L117.006 8.2H116.862C116.19 8.992 115.566 9.832 114.99 10.72C114.414 11.584 113.934 12.484 113.55 13.42V13.456C113.55 13.504 113.538 13.528 113.514 13.528V13.6C114.018 13.624 114.558 13.708 115.134 13.852C115.71 13.972 116.25 14.176 116.754 14.464C117.258 14.728 117.63 15.112 117.87 15.616C117.918 15.712 117.954 15.808 117.978 15.904C118.002 15.976 118.014 16.072 118.014 16.192C118.014 16.36 117.942 16.552 117.798 16.768C117.678 16.96 117.498 17.056 117.258 17.056L116.97 16.624C117.066 16.504 117.138 16.384 117.186 16.264C117.258 16.12 117.294 16 117.294 15.904C117.294 15.568 117.138 15.316 116.826 15.148C116.514 14.98 116.154 14.86 115.746 14.788C115.362 14.716 115.014 14.68 114.702 14.68C114.366 14.68 113.982 14.728 113.55 14.824C113.118 14.896 112.806 15.064 112.614 15.328C112.326 15.712 112.074 16.276 111.858 17.02C111.666 17.764 111.522 18.52 111.426 19.288C111.33 20.056 111.294 20.704 111.318 21.232C111.342 21.376 111.366 21.58 111.39 21.844C111.438 22.108 111.522 22.36 111.642 22.6C111.762 22.816 111.93 22.924 112.146 22.924C112.386 22.924 112.638 22.816 112.902 22.6C113.166 22.36 113.418 22.096 113.658 21.808C113.922 21.52 114.126 21.292 114.27 21.124L114.522 21.412C114.306 21.604 114.162 21.808 114.09 22.024C114.042 22.24 113.958 22.48 113.838 22.744C113.742 22.984 113.61 23.188 113.442 23.356C113.274 23.524 112.998 23.608 112.614 23.608C112.374 23.608 112.134 23.56 111.894 23.464C111.678 23.344 111.474 23.224 111.282 23.104C111.042 22.984 110.802 22.876 110.562 22.78C110.322 22.684 110.082 22.552 109.842 22.384C109.602 22.216 109.398 22 109.23 21.736C109.062 21.448 108.978 21.04 108.978 20.512C108.978 19.552 109.17 18.508 109.554 17.38C109.962 16.228 110.358 15.232 110.742 14.392H110.67V14.356C110.262 14.38 109.974 14.428 109.806 14.5C109.662 14.548 109.362 14.596 108.906 14.644C108.738 14.668 108.39 14.728 107.862 14.824C107.334 14.896 106.722 14.992 106.026 15.112C105.354 15.208 104.682 15.316 104.01 15.436C103.338 15.556 102.774 15.664 102.318 15.76C101.862 15.856 101.61 15.928 101.562 15.976C101.442 16.096 101.31 16.372 101.166 16.804C101.022 17.236 100.89 17.68 100.77 18.136C100.65 18.592 100.566 18.928 100.518 19.144C100.518 19.216 100.506 19.348 100.482 19.54C100.458 19.732 100.422 19.924 100.374 20.116C100.35 20.284 100.314 20.44 100.266 20.584C100.218 20.728 100.17 20.848 100.122 20.944C100.146 21.016 100.158 21.124 100.158 21.268C100.158 21.388 100.146 21.508 100.122 21.628C100.122 21.748 100.122 21.868 100.122 21.988C100.218 22.9 100.602 23.668 101.274 24.292L101.382 24.364C101.43 24.388 101.454 24.412 101.454 24.436C101.454 24.46 101.454 24.472 101.454 24.472C101.454 24.52 101.406 24.556 101.31 24.58C101.214 24.604 101.142 24.628 101.094 24.652L100.266 24.688Z" fill="#3F5C7A"/>
</g>
<g filter="url(#filter1_i_558_53432)">
<path d="M48.7556 46.964C48.4836 46.964 48.2756 46.876 48.1316 46.7C47.9876 46.524 47.8916 46.308 47.8436 46.052C47.8116 45.812 47.7956 45.588 47.7956 45.38C47.7956 44.836 47.8596 44.244 47.9876 43.604C48.1156 42.948 48.2756 42.3 48.4676 41.66C48.6756 41.004 48.8836 40.42 49.0916 39.908V39.812C49.0916 39.604 49.1396 39.396 49.2356 39.188C49.3476 38.98 49.4356 38.788 49.4996 38.612C49.7876 37.892 50.0836 37.18 50.3876 36.476C50.7076 35.772 51.0676 35.084 51.4676 34.412C51.5956 34.22 51.7076 34.02 51.8036 33.812C51.8996 33.588 52.0276 33.396 52.1876 33.236C52.3636 33.236 52.5556 33.268 52.7636 33.332C52.9716 33.38 53.0756 33.516 53.0756 33.74C53.0756 33.9 53.0116 34.1 52.8836 34.34C52.7556 34.564 52.6116 34.78 52.4516 34.988C52.2916 35.196 52.1636 35.372 52.0676 35.516C52.0516 35.5 52.0276 35.484 51.9956 35.468C51.9796 35.436 51.9636 35.42 51.9476 35.42C51.9316 35.42 51.9236 35.428 51.9236 35.444C51.7156 35.684 51.5316 35.948 51.3716 36.236C51.2276 36.524 51.0916 36.812 50.9636 37.1C50.8356 37.404 50.6836 37.692 50.5076 37.964C50.3316 38.236 50.1796 38.524 50.0516 38.828C50.0196 38.892 49.9716 39.036 49.9076 39.26C49.8436 39.484 49.7796 39.7 49.7156 39.908C49.6516 40.1 49.6116 40.204 49.5956 40.22C49.5636 40.572 49.4436 40.9 49.2356 41.204C49.0436 41.508 48.9476 41.844 48.9476 42.212C48.8836 42.276 48.8436 42.372 48.8276 42.5C48.8276 42.612 48.8116 42.716 48.7796 42.812C48.6676 43.276 48.5476 43.74 48.4196 44.204C48.2916 44.652 48.2276 45.124 48.2276 45.62C48.2276 45.796 48.2436 45.956 48.2756 46.1C48.3076 46.26 48.3636 46.428 48.4436 46.604C48.4756 46.668 48.5396 46.724 48.6356 46.772C48.7476 46.82 48.8116 46.884 48.8276 46.964H48.7556ZM32.7956 46.916C32.1876 46.916 31.6756 46.7 31.2596 46.268C30.8436 45.836 30.6356 45.324 30.6356 44.732C30.6356 44.076 30.7556 43.396 30.9956 42.692C31.2516 41.972 31.5876 41.292 32.0036 40.652C32.4196 39.996 32.8596 39.452 33.3236 39.02L33.9236 38.516C34.1636 38.308 34.4276 38.084 34.7156 37.844C35.0196 37.604 35.3316 37.396 35.6516 37.22C35.9876 37.028 36.3156 36.932 36.6356 36.932C36.8596 36.932 37.0676 36.98 37.2596 37.076C37.4676 37.172 37.6596 37.292 37.8356 37.436V37.484H37.8116V37.532C37.6516 37.5 37.4996 37.46 37.3556 37.412C37.2116 37.364 37.0596 37.34 36.8996 37.34C36.4836 37.34 36.0196 37.532 35.5076 37.916C34.9956 38.284 34.4836 38.772 33.9716 39.38C33.4596 39.972 32.9876 40.612 32.5556 41.3C32.1236 41.972 31.7716 42.612 31.4996 43.22C31.2436 43.828 31.1156 44.332 31.1156 44.732C31.1156 45.276 31.2436 45.724 31.4996 46.076C31.7556 46.444 32.1716 46.628 32.7476 46.628C32.7796 46.628 32.8356 46.62 32.9156 46.604C33.0116 46.588 33.0596 46.564 33.0596 46.532H33.1076L33.1316 46.556V46.532C33.8516 46.356 34.5076 46.02 35.0996 45.524C35.7076 45.044 36.2596 44.556 36.7556 44.06C37.5236 43.292 38.2516 42.492 38.9396 41.66C39.6276 40.812 40.3076 39.964 40.9796 39.116C41.2996 38.7 41.6276 38.284 41.9636 37.868C42.2996 37.452 42.6196 37.02 42.9236 36.572C43.0516 36.364 43.1716 36.156 43.2836 35.948C43.4116 35.724 43.5236 35.5 43.6196 35.276C43.6676 35.148 43.7076 35.012 43.7396 34.868C43.7716 34.724 43.8276 34.596 43.9076 34.484C44.0516 34.484 44.2436 34.508 44.4836 34.556C44.7236 34.588 44.8436 34.716 44.8436 34.94L44.7716 35.156C44.7236 35.268 44.6596 35.38 44.5796 35.492C44.5156 35.588 44.4596 35.692 44.4116 35.804C44.3156 35.964 44.2196 36.14 44.1236 36.332C44.0276 36.508 43.9316 36.684 43.8356 36.86C42.9716 38.588 42.5396 40.436 42.5396 42.404C42.5396 42.644 42.5556 42.9 42.5876 43.172C42.6196 43.428 42.7076 43.652 42.8516 43.844C42.9956 44.02 43.2196 44.108 43.5236 44.108C43.6676 44.028 43.8116 43.964 43.9556 43.916C44.1156 43.852 44.2676 43.772 44.4116 43.676C44.9876 43.292 45.4996 42.828 45.9476 42.284C46.3956 41.74 46.8196 41.164 47.2196 40.556C47.6196 39.948 48.0196 39.372 48.4196 38.828C48.4836 38.748 48.5956 38.612 48.7556 38.42C48.9156 38.212 49.0676 38.012 49.2116 37.82C49.3556 37.612 49.4276 37.468 49.4276 37.388H49.4756L49.4996 37.436C49.4996 37.5 49.3956 37.708 49.1876 38.06C48.9956 38.412 48.7476 38.836 48.4436 39.332C48.1396 39.828 47.8276 40.332 47.5076 40.844C47.1876 41.34 46.8996 41.78 46.6436 42.164C46.4036 42.548 46.2356 42.804 46.1396 42.932C45.9956 43.124 45.8276 43.324 45.6356 43.532C45.4596 43.74 45.2756 43.908 45.0836 44.036C44.8756 44.164 44.6436 44.26 44.3876 44.324C44.1476 44.372 43.9156 44.396 43.6916 44.396C43.0036 44.396 42.4996 44.188 42.1796 43.772C41.8756 43.356 41.7236 42.828 41.7236 42.188C41.7236 41.58 41.8036 40.98 41.9636 40.388C42.1236 39.796 42.2836 39.204 42.4436 38.612C42.4596 38.564 42.4916 38.452 42.5396 38.276C42.6036 38.1 42.6596 37.924 42.7076 37.748C42.7716 37.572 42.7956 37.476 42.7796 37.46H42.7556V37.436C42.7236 37.452 42.6356 37.564 42.4916 37.772C42.3476 37.98 42.1796 38.22 41.9876 38.492C41.8116 38.748 41.6436 38.988 41.4836 39.212C41.3236 39.436 41.2196 39.588 41.1716 39.668C40.9316 39.972 40.6836 40.284 40.4276 40.604C40.1716 40.908 39.9156 41.22 39.6596 41.54C39.2596 42.052 38.8116 42.62 38.3156 43.244C37.8356 43.852 37.3076 44.436 36.7316 44.996C36.1556 45.556 35.5396 46.012 34.8836 46.364C34.2276 46.732 33.5316 46.916 32.7956 46.916ZM51.3178 46.052C51.0618 46.052 50.8698 45.988 50.7418 45.86C50.6298 45.748 50.5338 45.692 50.4538 45.692C50.4378 45.612 50.3658 45.524 50.2378 45.428C50.1098 45.332 50.0458 45.108 50.0458 44.756C50.0458 44.436 50.1178 44.156 50.2618 43.916C50.4058 43.676 50.5338 43.42 50.6458 43.148C50.6778 43.068 50.6938 42.988 50.6938 42.908C50.6938 42.812 50.7098 42.732 50.7418 42.668C50.7738 42.556 50.8218 42.452 50.8858 42.356C50.9498 42.26 51.0138 42.164 51.0778 42.068C51.4458 41.444 51.8778 40.94 52.3738 40.556C52.8698 40.156 53.4538 39.82 54.1258 39.548H54.1498C54.2298 39.516 54.3578 39.492 54.5338 39.476C54.7098 39.444 54.8378 39.428 54.9178 39.428C55.0778 39.428 55.2218 39.46 55.3498 39.524C55.4778 39.588 55.5898 39.62 55.6858 39.62L55.6378 39.668C55.7818 39.732 55.8938 39.828 55.9738 39.956C56.0538 40.068 56.1418 40.172 56.2378 40.268C56.2698 40.3 56.3018 40.332 56.3338 40.364C56.3658 40.396 56.3898 40.428 56.4058 40.46C56.4538 40.508 56.4858 40.58 56.5018 40.676C56.5178 40.772 56.5258 40.86 56.5258 40.94C56.5258 41.356 56.4218 41.732 56.2138 42.068C56.0058 42.404 55.7738 42.732 55.5178 43.052C55.4058 43.212 55.2938 43.372 55.1818 43.532C55.0858 43.692 54.9658 43.844 54.8218 43.988C54.7898 44.02 54.7018 44.1 54.5578 44.228C54.4298 44.356 54.3018 44.484 54.1738 44.612C54.0618 44.724 53.9978 44.796 53.9818 44.828C53.8698 44.876 53.7658 44.948 53.6698 45.044C53.5738 45.14 53.4698 45.228 53.3578 45.308C53.0698 45.516 52.7498 45.692 52.3978 45.836C52.0458 45.98 51.6858 46.052 51.3178 46.052ZM51.1978 45.764C51.1978 45.764 51.3098 45.732 51.5338 45.668C51.7578 45.604 51.9018 45.564 51.9658 45.548C52.0458 45.516 52.1978 45.436 52.4218 45.308C52.6618 45.164 52.8858 45.02 53.0938 44.876C53.3018 44.716 53.4058 44.604 53.4058 44.54C53.5178 44.508 53.6698 44.388 53.8618 44.18C54.0698 43.956 54.2698 43.724 54.4618 43.484C54.6538 43.228 54.7818 43.052 54.8458 42.956C54.8778 42.924 54.9338 42.844 55.0138 42.716C55.0938 42.572 55.1418 42.5 55.1578 42.5C55.1738 42.436 55.1978 42.372 55.2298 42.308C55.2778 42.228 55.3018 42.164 55.3018 42.116C55.3498 42.084 55.3978 41.98 55.4458 41.804C55.4938 41.612 55.5338 41.516 55.5658 41.516L55.5418 41.492C55.5578 41.46 55.5658 41.436 55.5658 41.42C55.5818 41.388 55.5978 41.364 55.6138 41.348C55.6138 41.252 55.6298 41.164 55.6618 41.084C55.6938 40.988 55.7098 40.892 55.7098 40.796C55.7418 40.732 55.7578 40.652 55.7578 40.556C55.7578 40.46 55.7578 40.38 55.7578 40.316L55.7818 40.292V40.268C55.7818 40.124 55.7338 39.996 55.6378 39.884C55.5578 39.772 55.4298 39.716 55.2538 39.716C54.8058 39.716 54.3978 39.828 54.0298 40.052C53.6778 40.26 53.3338 40.492 52.9978 40.748C52.8858 40.828 52.7738 40.916 52.6618 41.012C52.5498 41.092 52.4458 41.188 52.3498 41.3C52.3178 41.316 52.2698 41.348 52.2058 41.396C52.1418 41.444 52.1098 41.492 52.1098 41.54C52.2538 41.524 52.3898 41.468 52.5178 41.372C52.6618 41.26 52.8618 41.204 53.1178 41.204C53.1978 41.204 53.3498 41.276 53.5738 41.42C53.8138 41.564 53.9338 41.676 53.9338 41.756V41.804C53.8378 41.772 53.7658 41.74 53.7178 41.708C53.6858 41.676 53.6058 41.66 53.4778 41.66C53.1578 41.66 52.8298 41.788 52.4938 42.044C52.1738 42.284 51.9098 42.516 51.7018 42.74C51.6058 42.82 51.5098 42.908 51.4138 43.004C51.3338 43.1 51.2618 43.204 51.1978 43.316C51.1498 43.428 51.1258 43.556 51.1258 43.7C51.1578 43.684 51.1898 43.708 51.2218 43.772C51.2538 43.82 51.2698 43.86 51.2698 43.892H51.1978C51.1178 43.892 51.0538 43.876 51.0058 43.844C50.9738 43.796 50.9418 43.772 50.9098 43.772C50.8458 43.82 50.7738 43.948 50.6938 44.156C50.6138 44.364 50.5578 44.468 50.5258 44.468C50.5098 44.532 50.4938 44.604 50.4778 44.684C50.4778 44.748 50.4778 44.812 50.4778 44.876C50.4778 45.132 50.5258 45.34 50.6218 45.5C50.7178 45.676 50.9098 45.764 51.1978 45.764ZM64.2677 46.772C64.1877 46.772 64.1077 46.764 64.0277 46.748C63.9637 46.732 63.8917 46.716 63.8117 46.7L63.7397 46.748C63.4837 46.54 63.3157 46.252 63.2357 45.884C63.1717 45.516 63.1397 45.18 63.1397 44.876C63.1397 44.556 63.1477 44.236 63.1637 43.916C63.1957 43.58 63.2197 43.26 63.2357 42.956C63.2517 42.732 63.2837 42.508 63.3317 42.284C63.3957 42.06 63.4277 41.844 63.4277 41.636C63.4277 41.54 63.4197 41.476 63.4037 41.444L63.3557 41.396L63.3077 41.42C63.1797 41.484 63.0597 41.644 62.9477 41.9C62.8517 42.14 62.7717 42.324 62.7077 42.452C62.6597 42.548 62.5477 42.74 62.3717 43.028C62.2117 43.3 62.0437 43.564 61.8677 43.82C61.6917 44.076 61.5637 44.236 61.4837 44.3C61.3397 44.412 61.1957 44.468 61.0517 44.468C60.8917 44.468 60.7397 44.428 60.5957 44.348C60.4677 44.268 60.4037 44.132 60.4037 43.94C60.4037 43.876 60.4437 43.716 60.5237 43.46C60.6197 43.204 60.7317 42.916 60.8597 42.596C60.9877 42.276 61.0917 41.972 61.1717 41.684C61.2677 41.38 61.3157 41.148 61.3157 40.988C61.3157 40.892 61.2917 40.844 61.2437 40.844C61.1797 40.844 61.0437 40.932 60.8357 41.108C60.6437 41.268 60.4517 41.444 60.2597 41.636C60.0677 41.812 59.9477 41.932 59.8997 41.996L59.7317 42.284C59.4757 42.492 59.2437 42.74 59.0357 43.028C59.0197 43.044 59.0037 43.068 58.9877 43.1C58.9717 43.132 58.9557 43.164 58.9397 43.196C58.9077 43.244 58.8277 43.348 58.6997 43.508C58.5877 43.652 58.4677 43.796 58.3397 43.94C58.2277 44.068 58.1397 44.148 58.0757 44.18C58.0277 44.292 57.9637 44.396 57.8837 44.492C57.8197 44.572 57.7397 44.66 57.6437 44.756C57.5477 44.852 57.4277 45.044 57.2837 45.332C57.1557 45.62 57.0677 45.828 57.0197 45.956C57.0037 45.988 56.9397 46.02 56.8277 46.052C56.7317 46.084 56.6597 46.1 56.6117 46.1C56.5477 46.1 56.4677 46.068 56.3717 46.004C56.2917 45.94 56.2517 45.876 56.2517 45.812C56.2517 45.764 56.3077 45.604 56.4197 45.332C56.5477 45.06 56.6917 44.748 56.8517 44.396C57.0117 44.044 57.1557 43.732 57.2837 43.46C57.4277 43.188 57.5157 43.036 57.5477 43.004C57.5317 42.972 57.5397 42.94 57.5717 42.908C57.6037 42.876 57.6277 42.852 57.6437 42.836C57.6437 42.756 57.6917 42.636 57.7877 42.476C57.8837 42.3 57.9477 42.18 57.9797 42.116C58.1237 41.844 58.2837 41.516 58.4597 41.132C58.6517 40.748 58.8117 40.364 58.9397 39.98C59.0837 39.596 59.1557 39.26 59.1557 38.972C59.0597 38.972 58.9637 38.988 58.8677 39.02C58.7717 39.052 58.6757 39.068 58.5797 39.068C58.5157 39.02 58.4837 38.98 58.4837 38.948C58.4837 38.852 58.5957 38.804 58.8197 38.804C58.9157 38.836 59.0517 38.852 59.2277 38.852C59.4197 38.836 59.5957 38.844 59.7557 38.876C59.9157 38.908 59.9957 39.012 59.9957 39.188C59.9957 39.268 59.9237 39.452 59.7797 39.74C59.6517 40.028 59.4917 40.364 59.2997 40.748C59.1077 41.116 58.9237 41.468 58.7477 41.804C58.5877 42.14 58.4757 42.388 58.4117 42.548C58.3957 42.628 58.3557 42.7 58.2917 42.764C58.2277 42.812 58.1957 42.892 58.1957 43.004C58.1477 43.02 58.1237 43.068 58.1237 43.148C58.1237 43.164 58.1237 43.188 58.1237 43.22C58.1397 43.252 58.1477 43.284 58.1477 43.316H58.1717C58.2037 43.252 58.2997 43.124 58.4597 42.932C58.6197 42.74 58.7877 42.548 58.9637 42.356C59.1397 42.148 59.2517 42.012 59.2997 41.948H59.3477C59.5877 41.676 59.8277 41.42 60.0677 41.18C60.3237 40.924 60.6037 40.7 60.9077 40.508C60.9717 40.476 61.0117 40.436 61.0277 40.388L61.0757 40.412C61.1077 40.412 61.1397 40.404 61.1717 40.388C61.2197 40.372 61.2677 40.364 61.3157 40.364C61.4917 40.364 61.6597 40.436 61.8197 40.58C61.9797 40.724 62.0597 40.892 62.0597 41.084C62.0597 41.324 61.9797 41.572 61.8197 41.828C61.6757 42.068 61.5477 42.3 61.4357 42.524C61.3717 42.652 61.3157 42.788 61.2677 42.932C61.2197 43.06 61.1637 43.188 61.0997 43.316C61.0837 43.38 61.0357 43.484 60.9557 43.628C60.8917 43.772 60.8597 43.876 60.8597 43.94C60.8597 43.956 60.8597 43.972 60.8597 43.988C60.8757 43.988 60.8837 43.996 60.8837 44.012C61.0117 43.98 61.1157 43.916 61.1957 43.82C61.2757 43.708 61.3557 43.604 61.4357 43.508C61.5957 43.3 61.7557 43.092 61.9157 42.884C62.0757 42.676 62.2357 42.468 62.3957 42.26L62.7077 41.9C62.7877 41.772 62.8837 41.628 62.9957 41.468C63.1077 41.308 63.2197 41.196 63.3317 41.132C63.4597 41.084 63.5797 41.06 63.6917 41.06C63.8197 41.06 63.9637 41.076 64.1237 41.108C64.2997 41.14 64.3877 41.236 64.3877 41.396C64.3877 41.636 64.3317 41.868 64.2197 42.092C64.1077 42.3 64.0197 42.516 63.9557 42.74C63.9237 42.852 63.8757 43.06 63.8117 43.364C63.7477 43.652 63.6917 43.948 63.6437 44.252C63.5957 44.54 63.5717 44.748 63.5717 44.876C63.5717 44.972 63.5877 45.036 63.6197 45.068C63.6037 45.084 63.5957 45.124 63.5957 45.188C63.5957 45.252 63.6037 45.324 63.6197 45.404C63.6517 45.468 63.6757 45.54 63.6917 45.62C63.6917 45.78 63.7077 45.98 63.7397 46.22C63.7877 46.476 63.9317 46.604 64.1717 46.604V46.58L64.1957 46.604V46.58C64.2757 46.548 64.3717 46.468 64.4837 46.34C64.6117 46.228 64.7237 46.1 64.8197 45.956C64.9317 45.812 64.9877 45.708 64.9877 45.644H65.0117V45.668C65.0117 45.684 64.9957 45.756 64.9637 45.884C64.9477 46.012 64.9237 46.14 64.8917 46.268C64.8757 46.412 64.8597 46.492 64.8437 46.508C64.6997 46.684 64.5077 46.772 64.2677 46.772ZM64.7812 46.82C64.7172 46.788 64.6532 46.708 64.5892 46.58C64.5092 46.468 64.4372 46.348 64.3732 46.22C64.3092 46.108 64.2452 46.06 64.1812 46.076C64.1812 46.012 64.1732 45.956 64.1572 45.908C64.1252 45.86 64.1092 45.812 64.1092 45.764C64.4452 45.3 64.8533 44.884 65.3333 44.516C65.8293 44.148 66.3253 43.836 66.8213 43.58H66.8933C67.0053 43.468 67.1333 43.372 67.2773 43.292C67.4373 43.212 67.5573 43.116 67.6373 43.004V42.98C67.4293 42.852 67.2053 42.74 66.9653 42.644C66.7253 42.548 66.5173 42.412 66.3413 42.236C66.1813 42.108 66.0293 41.948 65.8853 41.756C65.7573 41.564 65.6933 41.356 65.6933 41.132C65.6933 40.78 65.8613 40.46 66.1973 40.172C66.5333 39.868 66.8373 39.636 67.1093 39.476C67.1893 39.38 67.3413 39.268 67.5653 39.14C67.8053 39.012 68.0453 38.892 68.2853 38.78C68.5413 38.652 68.7253 38.564 68.8373 38.516V38.54C68.9493 38.46 69.0773 38.404 69.2213 38.372L69.5093 38.252H69.5573C69.6853 38.22 69.8213 38.188 69.9653 38.156C70.1093 38.108 70.2453 38.084 70.3733 38.084C70.5173 38.084 70.6853 38.164 70.8773 38.324C71.0693 38.484 71.1653 38.644 71.1653 38.804C71.1653 38.868 71.1173 38.988 71.0213 39.164C70.9413 39.324 70.8453 39.476 70.7333 39.62C70.6373 39.764 70.5573 39.852 70.4933 39.884C70.4773 39.884 70.4613 39.892 70.4453 39.908C70.4453 39.908 70.4373 39.908 70.4213 39.908V39.86C70.5013 39.764 70.5733 39.62 70.6373 39.428C70.7173 39.22 70.7573 39.052 70.7573 38.924C70.7573 38.684 70.6293 38.564 70.3733 38.564C70.1813 38.564 69.9973 38.596 69.8213 38.66C69.6613 38.708 69.4933 38.772 69.3173 38.852C68.7253 39.06 68.2053 39.308 67.7573 39.596C67.3253 39.868 66.9253 40.276 66.5573 40.82C66.4933 40.932 66.4213 41.052 66.3413 41.18C66.2773 41.292 66.2453 41.412 66.2453 41.54C66.2453 41.7 66.3013 41.836 66.4133 41.948C66.5413 42.044 66.6693 42.124 66.7973 42.188C66.8453 42.22 66.9653 42.292 67.1573 42.404C67.3493 42.516 67.5333 42.628 67.7093 42.74C67.9013 42.836 68.0053 42.884 68.0213 42.884C68.1013 42.884 68.1813 42.852 68.2613 42.788C68.3413 42.724 68.4133 42.676 68.4773 42.644C68.7013 42.516 69.0133 42.356 69.4133 42.164C69.8133 41.956 70.1333 41.828 70.3733 41.78L70.7093 41.708C70.7253 41.708 70.7493 41.724 70.7812 41.756C70.7653 41.772 70.7413 41.796 70.7093 41.828C70.6773 41.844 70.6453 41.86 70.6133 41.876C70.5173 41.972 70.3573 42.06 70.1333 42.14C69.9253 42.204 69.7813 42.268 69.7013 42.332C69.6533 42.364 69.6133 42.412 69.5813 42.476C69.5493 42.524 69.5093 42.564 69.4613 42.596C69.3173 42.692 69.1333 42.82 68.9093 42.98C68.6853 43.124 68.5733 43.292 68.5733 43.484C68.5733 43.548 68.5813 43.612 68.5973 43.676C68.6293 43.74 68.6453 43.812 68.6453 43.892C68.6453 44.02 68.6053 44.204 68.5253 44.444C68.4453 44.668 68.3493 44.82 68.2373 44.9V44.996C68.0933 45.044 67.9813 45.148 67.9013 45.308C67.8373 45.452 67.7093 45.516 67.5173 45.5L67.3973 45.644C67.2853 45.644 67.1893 45.684 67.1093 45.764C67.0293 45.86 66.9493 45.948 66.8693 46.028H66.8453C66.7333 46.028 66.6133 46.076 66.4853 46.172C66.3733 46.284 66.2293 46.38 66.0533 46.46C65.8933 46.556 65.6853 46.58 65.4293 46.532C65.3653 46.548 65.3093 46.572 65.2613 46.604C65.2133 46.636 65.1573 46.652 65.0933 46.652C65.0453 46.652 65.0213 46.636 65.0213 46.604C65.0213 46.588 65.0453 46.556 65.0933 46.508C65.1573 46.476 65.3253 46.396 65.5973 46.268C65.8693 46.14 66.0613 46.044 66.1733 45.98C66.1733 45.964 66.2053 45.932 66.2693 45.884C66.3493 45.836 66.3973 45.804 66.4133 45.788C66.6213 45.644 66.8533 45.46 67.1093 45.236C67.3653 44.996 67.5893 44.74 67.7812 44.468C67.9733 44.18 68.0693 43.908 68.0693 43.652C68.0693 43.604 68.0613 43.54 68.0453 43.46C68.0293 43.364 67.9893 43.316 67.9253 43.316C67.8613 43.316 67.7973 43.348 67.7333 43.412C67.6853 43.476 67.6453 43.524 67.6133 43.556C67.5013 43.636 67.3813 43.716 67.2533 43.796C67.1253 43.876 66.9973 43.964 66.8693 44.06C66.7093 44.172 66.5653 44.3 66.4373 44.444C66.3093 44.572 66.1653 44.7 66.0053 44.828C65.7973 44.988 65.6053 45.156 65.4293 45.332C65.2533 45.492 65.0773 45.668 64.9013 45.86C64.7733 45.988 64.7092 46.148 64.7092 46.34C64.7092 46.404 64.7252 46.468 64.7572 46.532C64.7893 46.612 64.8053 46.692 64.8053 46.772L64.7812 46.82ZM79.8728 46.172C79.5208 46.172 79.2408 46.004 79.0328 45.668C78.8408 45.348 78.7448 45.036 78.7448 44.732C78.7448 44.396 78.8008 44.036 78.9128 43.652C79.0248 43.252 79.1688 42.908 79.3448 42.62H79.3688V42.476C79.3688 42.364 79.4248 42.188 79.5368 41.948C79.6488 41.708 79.7688 41.46 79.8968 41.204C80.0248 40.932 80.1288 40.708 80.2088 40.532C80.2888 40.34 80.2888 40.244 80.2088 40.244C80.1448 40.308 79.9288 40.396 79.5608 40.508C79.1928 40.604 78.7768 40.7 78.3128 40.796C77.8488 40.892 77.4168 40.972 77.0168 41.036C76.6168 41.1 76.3528 41.132 76.2248 41.132C76.0648 41.132 75.9368 41.036 75.8408 40.844C75.7608 40.652 75.7208 40.492 75.7208 40.364C75.7208 40.348 75.7208 40.324 75.7208 40.292C75.7368 40.26 75.7608 40.244 75.7928 40.244L75.7688 40.292C75.8008 40.324 75.8488 40.364 75.9128 40.412C75.9768 40.444 76.0328 40.46 76.0808 40.46C76.1608 40.46 76.2808 40.444 76.4408 40.412C76.5848 40.396 76.7288 40.372 76.8728 40.34C77.0328 40.292 77.1848 40.252 77.3288 40.22C77.6968 40.14 78.0648 40.052 78.4328 39.956C78.8008 39.86 79.1608 39.78 79.5128 39.716C79.7848 39.652 80.0168 39.62 80.2088 39.62C80.4168 39.604 80.6248 39.5 80.8328 39.308C80.8968 39.244 80.9288 39.212 80.9288 39.212C80.9288 39.196 80.9288 39.148 80.9288 39.068C81.2008 38.572 81.5048 38.092 81.8408 37.628C82.1768 37.164 82.4968 36.7 82.8008 36.236C82.8808 36.204 82.8968 36.172 82.8488 36.14C82.8008 36.092 82.7848 36.092 82.8008 36.14C82.6408 36.236 82.5608 36.26 82.5608 36.212C82.5608 36.164 82.5688 36.14 82.5848 36.14C82.6648 36.028 82.8088 35.844 83.0168 35.588C83.2408 35.316 83.4168 35.124 83.5448 35.012C82.9368 35.156 82.2488 35.332 81.4808 35.54C80.7288 35.732 79.9608 35.916 79.1768 36.092C78.4088 36.268 77.6968 36.42 77.0408 36.548C76.3848 36.66 75.8488 36.716 75.4328 36.716C75.2248 36.716 75.0248 36.684 74.8328 36.62C74.6408 36.556 74.4808 36.436 74.3528 36.26C74.2888 36.164 74.2248 36.052 74.1608 35.924C74.0968 35.78 74.0648 35.644 74.0648 35.516C74.0648 35.308 74.1848 35.084 74.4248 34.844C74.6808 34.604 74.9688 34.404 75.2888 34.244C75.6088 34.068 75.8648 33.996 76.0568 34.028C76.2808 33.868 76.6088 33.708 77.0408 33.548C77.4728 33.388 77.8168 33.308 78.0728 33.308C78.2008 33.308 78.3208 33.292 78.4328 33.26C78.5608 33.228 78.6808 33.22 78.7928 33.236C78.8248 33.204 78.8648 33.188 78.9128 33.188C78.9608 33.188 79.0008 33.188 79.0328 33.188C79.0648 33.188 79.1528 33.196 79.2968 33.212C79.4408 33.212 79.5128 33.228 79.5128 33.26C79.5448 33.292 79.5448 33.308 79.5128 33.308C79.2728 33.372 79.0248 33.428 78.7688 33.476C78.5288 33.508 78.2888 33.556 78.0488 33.62C77.5048 33.764 76.9128 33.988 76.2728 34.292C75.6488 34.596 75.1128 34.924 74.6648 35.276C74.6168 35.308 74.5688 35.38 74.5208 35.492C74.4888 35.588 74.4728 35.668 74.4728 35.732C74.4728 35.78 74.5608 35.828 74.7368 35.876C74.9128 35.924 75.0248 35.948 75.0728 35.948C75.3448 35.948 75.5848 35.924 75.7928 35.876C76.2408 35.812 76.7368 35.74 77.2808 35.66C77.8248 35.58 78.3448 35.492 78.8408 35.396C79.3368 35.3 79.7208 35.212 79.9928 35.132C80.9048 34.892 81.8248 34.716 82.7528 34.604C83.6808 34.476 84.5928 34.3 85.4888 34.076C85.5528 34.06 85.6088 34.052 85.6568 34.052C85.7048 34.052 85.7608 34.052 85.8248 34.052C85.9368 34.052 86.0488 34.052 86.1608 34.052C86.2888 34.036 86.4248 34.012 86.5688 33.98H88.9208C89.1448 33.98 89.3928 34.028 89.6648 34.124C89.9368 34.204 90.1608 34.308 90.3368 34.436C90.5928 34.612 90.8088 34.892 90.9848 35.276C91.1608 35.66 91.2488 36.004 91.2488 36.308C91.2488 36.708 91.1608 36.948 90.9848 37.028C90.8248 37.092 90.6088 37.188 90.3368 37.316C90.2248 37.364 90.1048 37.436 89.9768 37.532C89.8488 37.628 89.7208 37.676 89.5928 37.676L89.5208 37.652V37.628H89.4968V37.604H89.5208C89.6968 37.476 89.8968 37.324 90.1208 37.148C90.3608 36.956 90.5688 36.748 90.7448 36.524C90.9208 36.3 91.0088 36.076 91.0088 35.852C91.0088 35.58 90.8888 35.364 90.6488 35.204C90.4088 35.028 90.1128 34.9 89.7608 34.82C89.4248 34.724 89.0888 34.66 88.7528 34.628C88.4168 34.596 88.1448 34.58 87.9368 34.58C87.3928 34.58 86.8408 34.612 86.2808 34.676C85.7208 34.74 85.1688 34.772 84.6248 34.772C84.5928 34.772 84.5208 34.788 84.4088 34.82C84.2968 34.852 84.2408 34.876 84.2408 34.892C84.4168 34.988 84.5048 35.148 84.5048 35.372C84.5048 35.404 84.4408 35.508 84.3128 35.684C84.2008 35.86 84.0648 36.044 83.9048 36.236C83.7448 36.428 83.6168 36.572 83.5208 36.668C83.4248 36.748 83.4008 36.716 83.4488 36.572C83.3848 36.572 83.3448 36.596 83.3288 36.644C83.3288 36.692 83.3208 36.748 83.3048 36.812H83.0888C83.1048 37.036 83.0168 37.228 82.8248 37.388C82.6488 37.532 82.5608 37.716 82.5608 37.94C82.4648 37.956 82.3528 38.052 82.2248 38.228C82.0968 38.388 81.9848 38.564 81.8888 38.756C81.8088 38.932 81.7688 39.068 81.7688 39.164C81.8328 39.164 81.8648 39.172 81.8648 39.188C81.8648 39.188 81.8888 39.204 81.9368 39.236C82.1128 39.22 82.2808 39.204 82.4408 39.188C82.6168 39.156 82.7928 39.14 82.9688 39.14H83.2328C83.4408 39.14 83.6408 39.14 83.8328 39.14C84.0408 39.124 84.2488 39.116 84.4568 39.116C84.5528 39.116 84.7128 39.14 84.9368 39.188C85.1768 39.22 85.4248 39.276 85.6808 39.356C85.9528 39.42 86.1848 39.5 86.3768 39.596C86.5688 39.692 86.6648 39.796 86.6648 39.908V39.956C86.3608 39.78 86.0408 39.668 85.7048 39.62C85.3688 39.572 85.0328 39.548 84.6968 39.548C84.1208 39.548 83.5528 39.58 82.9928 39.644C82.4488 39.708 81.9448 39.876 81.4808 40.148C81.0328 40.404 80.6648 40.828 80.3768 41.42C80.3128 41.564 80.2648 41.716 80.2328 41.876C80.2168 42.036 80.1768 42.188 80.1128 42.332C79.9688 42.668 79.8168 43.044 79.6568 43.46C79.4968 43.876 79.4168 44.268 79.4168 44.636C79.4168 44.828 79.4168 45.036 79.4168 45.26C79.4168 45.468 79.4568 45.66 79.5368 45.836H79.6328C79.8408 45.852 80.0168 45.788 80.1608 45.644C80.3048 45.5 80.4328 45.356 80.5448 45.212C80.6568 45.068 80.7608 44.996 80.8568 44.996C80.7928 45.204 80.6808 45.452 80.5208 45.74C80.3608 46.028 80.1448 46.172 79.8728 46.172ZM88.6296 39.524C88.5656 39.524 88.4856 39.484 88.3896 39.404C88.2936 39.324 88.2456 39.252 88.2456 39.188C88.2456 39.156 88.3016 39.084 88.4136 38.972C88.5256 38.844 88.6456 38.724 88.7736 38.612C88.9176 38.484 89.0056 38.404 89.0376 38.372C89.1656 38.404 89.2296 38.476 89.2296 38.588C89.2296 38.652 89.1896 38.764 89.1096 38.924C89.0456 39.068 88.9656 39.204 88.8696 39.332C88.7896 39.46 88.7096 39.524 88.6296 39.524ZM86.0856 45.74C86.0376 45.74 85.9896 45.724 85.9416 45.692C85.9096 45.66 85.8696 45.636 85.8216 45.62C85.7096 45.524 85.6296 45.444 85.5816 45.38C85.5336 45.316 85.5096 45.204 85.5096 45.044C85.5096 44.532 85.6296 44.044 85.8696 43.58C86.1096 43.1 86.3336 42.644 86.5416 42.212C86.5736 42.18 86.5816 42.148 86.5656 42.116C86.5496 42.068 86.5416 42.028 86.5416 41.996C86.5416 41.852 86.5976 41.692 86.7096 41.516C86.8376 41.324 86.9816 41.14 87.1416 40.964C87.3016 40.788 87.4296 40.66 87.5256 40.58C87.6216 40.58 87.7656 40.596 87.9576 40.628C88.1496 40.644 88.2456 40.716 88.2456 40.844C88.2456 40.86 88.1656 40.956 88.0056 41.132C87.8456 41.308 87.7496 41.42 87.7176 41.468C87.5096 41.788 87.2616 42.172 86.9736 42.62C86.7016 43.052 86.4616 43.5 86.2536 43.964C86.0456 44.428 85.9416 44.868 85.9416 45.284C86.1336 45.252 86.3336 45.14 86.5416 44.948C86.7656 44.74 86.9336 44.564 87.0456 44.42H87.0696V44.444C87.0696 44.508 87.0376 44.572 86.9736 44.636C86.9096 44.7 86.8616 44.756 86.8296 44.804C86.7656 44.916 86.6616 45.1 86.5176 45.356C86.3896 45.612 86.2456 45.74 86.0856 45.74ZM90.2449 47.276C90.1649 47.276 90.0369 47.228 89.8609 47.132C89.6849 47.036 89.5649 46.956 89.5009 46.892C89.3889 46.764 89.3089 46.612 89.2609 46.436C89.2289 46.26 89.2129 46.092 89.2129 45.932C89.2129 45.404 89.3329 44.804 89.5729 44.132C89.8129 43.46 90.0609 42.892 90.3169 42.428C90.3489 42.364 90.4129 42.244 90.5089 42.068C90.6209 41.892 90.7249 41.716 90.8209 41.54C90.9169 41.364 90.9649 41.268 90.9649 41.252L90.5329 41.396L90.3889 41.372V41.396C90.2289 41.508 90.0209 41.588 89.7649 41.636C89.5089 41.684 89.2929 41.748 89.1169 41.828L88.3969 42.188H88.3489C88.2849 42.188 88.2289 42.156 88.1809 42.092C88.1489 42.012 88.1329 41.948 88.1329 41.9C88.1329 41.852 88.2209 41.796 88.3969 41.732C88.5729 41.652 88.7809 41.572 89.0209 41.492C89.2769 41.412 89.5089 41.34 89.7169 41.276C89.9409 41.212 90.0849 41.172 90.1489 41.156C90.3569 41.108 90.5489 41.052 90.7249 40.988H90.7489V40.964C90.8609 40.964 90.9809 40.932 91.1089 40.868C91.4129 40.42 91.7089 39.98 91.9969 39.548C92.3009 39.1 92.6449 38.692 93.0289 38.324L93.5569 37.82C93.6849 37.708 93.7809 37.612 93.8449 37.532C93.9089 37.452 94.0209 37.372 94.1809 37.292C94.2929 37.308 94.4449 37.364 94.6369 37.46C94.8449 37.556 94.9489 37.668 94.9489 37.796C94.9489 37.844 94.8689 37.924 94.7089 38.036C94.5649 38.148 94.4129 38.26 94.2529 38.372C94.0929 38.468 93.9809 38.54 93.9169 38.588L93.7489 38.636C93.5569 38.796 93.3809 38.964 93.2209 39.14C93.0609 39.316 92.8929 39.492 92.7169 39.668C92.6209 39.748 92.5409 39.852 92.4769 39.98C92.4129 40.108 92.3329 40.22 92.2369 40.316V40.412C92.2049 40.428 92.1489 40.476 92.0689 40.556C92.0049 40.62 91.9729 40.668 91.9729 40.7C92.2449 40.716 92.5329 40.74 92.8369 40.772C93.1409 40.804 93.3969 40.932 93.6049 41.156C93.4289 41.108 93.2609 41.068 93.1009 41.036C92.9569 40.988 92.7969 40.964 92.6209 40.964C92.3009 40.964 92.0049 41.012 91.7329 41.108C91.7329 41.108 91.6849 41.18 91.5889 41.324C91.4929 41.468 91.3889 41.612 91.2769 41.756C91.1809 41.884 91.1329 41.956 91.1329 41.972C91.0849 42.036 90.9889 42.196 90.8449 42.452C90.7009 42.692 90.5649 42.932 90.4369 43.172C90.3249 43.396 90.2609 43.516 90.2449 43.532C90.2449 43.612 90.2209 43.716 90.1729 43.844C90.1249 43.972 90.0849 44.076 90.0529 44.156L90.0289 44.18V44.204C90.0289 44.3 90.0049 44.404 89.9569 44.516C89.9089 44.628 89.8689 44.724 89.8369 44.804C89.6929 45.236 89.6209 45.684 89.6209 46.148C89.6209 46.276 89.6369 46.436 89.6689 46.628C89.7169 46.82 89.8129 46.956 89.9569 47.036C89.9889 47.052 90.0609 47.068 90.1729 47.084C90.3009 47.1 90.3649 47.132 90.3649 47.18C90.3649 47.244 90.3249 47.276 90.2449 47.276ZM93.6289 41.156C93.6129 41.156 93.6049 41.156 93.6049 41.156C93.6049 41.156 93.6129 41.156 93.6289 41.156ZM102.2 46.22C102.056 46.22 101.92 46.156 101.792 46.028C101.664 45.9 101.56 45.78 101.48 45.668C101.304 45.444 101.176 45.196 101.096 44.924C101.016 44.652 100.976 44.372 100.976 44.084C100.976 43.492 101.072 42.908 101.264 42.332C101.472 41.74 101.688 41.172 101.912 40.628C101.4 40.708 100.888 40.796 100.376 40.892C99.8643 40.988 99.3443 41.036 98.8163 41.036C98.4163 41.036 98.0003 40.972 97.5683 40.844C97.1363 40.716 96.8563 40.42 96.7283 39.956V39.836C96.7283 39.724 96.7523 39.636 96.8003 39.572C96.8643 39.508 96.8963 39.436 96.8963 39.356C97.0403 39.356 97.1043 39.308 97.0883 39.212C97.2643 39.1 97.4963 38.972 97.7843 38.828C98.0723 38.668 98.3603 38.532 98.6483 38.42C98.9523 38.292 99.2003 38.228 99.3923 38.228C99.5043 38.148 99.6323 38.092 99.7763 38.06C99.9363 38.028 100.08 38.012 100.208 38.012C100.32 37.964 100.432 37.948 100.544 37.964C100.656 37.964 100.768 37.964 100.88 37.964C100.96 37.932 101.048 37.916 101.144 37.916C101.256 37.916 101.36 37.916 101.456 37.916C101.488 37.9 101.544 37.892 101.624 37.892C101.688 37.892 101.744 37.9 101.792 37.916C101.856 37.916 101.92 37.916 101.984 37.916L102.008 37.94V38.012H101.984V38.036C101.712 38.052 101.456 38.1 101.216 38.18C100.976 38.244 100.72 38.324 100.448 38.42C100.288 38.468 100.032 38.556 99.6803 38.684C99.3283 38.796 98.9603 38.932 98.5763 39.092C98.2083 39.252 97.8883 39.428 97.6163 39.62C97.3443 39.812 97.2083 40.012 97.2083 40.22C97.2083 40.348 97.2963 40.428 97.4723 40.46C97.6483 40.492 97.7843 40.508 97.8803 40.508C98.1683 40.508 98.4483 40.492 98.7203 40.46C99.0083 40.412 99.2963 40.38 99.5843 40.364V40.34C99.7283 40.324 99.8643 40.3 99.9923 40.268C100.136 40.236 100.28 40.212 100.424 40.196C100.728 40.164 101.024 40.124 101.312 40.076C101.6 40.012 101.896 39.956 102.2 39.908C102.408 39.684 102.576 39.444 102.704 39.188C102.832 38.916 102.976 38.652 103.136 38.396C103.6 37.692 104.072 37.012 104.552 36.356C105.032 35.7 105.568 35.084 106.16 34.508C106.368 34.316 106.576 34.116 106.784 33.908C106.992 33.7 107.232 33.548 107.504 33.452C107.616 33.484 107.728 33.54 107.84 33.62C107.952 33.684 108.008 33.78 108.008 33.908C108.008 34.1 107.896 34.3 107.672 34.508C107.464 34.7 107.296 34.86 107.168 34.988C107.152 35.004 107.096 35.068 107 35.18C106.904 35.276 106.808 35.372 106.712 35.468C106.616 35.564 106.56 35.612 106.544 35.612H106.472L106.496 35.444C106.304 35.524 106.144 35.644 106.016 35.804C105.904 35.948 105.776 36.084 105.632 36.212C105.536 36.292 105.44 36.372 105.344 36.452C105.248 36.516 105.16 36.588 105.08 36.668C105.016 36.732 104.88 36.908 104.672 37.196C104.464 37.484 104.24 37.812 104 38.18C103.76 38.548 103.552 38.884 103.376 39.188C103.2 39.476 103.112 39.652 103.112 39.716C103.432 39.684 103.752 39.636 104.072 39.572C104.408 39.508 104.736 39.46 105.056 39.428C105.472 39.364 105.888 39.316 106.304 39.284C106.736 39.252 107.16 39.204 107.576 39.14C107.656 39.124 107.728 39.108 107.792 39.092C107.872 39.076 107.944 39.068 108.008 39.068C108.12 39.052 108.296 39.044 108.536 39.044C108.792 39.028 109.032 39.004 109.256 38.972C109.496 38.94 109.648 38.9 109.712 38.852C109.824 38.676 109.992 38.396 110.216 38.012C110.44 37.628 110.688 37.204 110.96 36.74C111.248 36.276 111.536 35.828 111.824 35.396C112.128 34.964 112.4 34.596 112.64 34.292C112.896 33.988 113.104 33.812 113.264 33.764C113.296 33.748 113.36 33.74 113.456 33.74C113.584 33.74 113.744 33.796 113.936 33.908C114.144 34.004 114.256 34.124 114.272 34.268C114.192 34.3 114.104 34.34 114.008 34.388C113.928 34.436 113.84 34.476 113.744 34.508C113.632 34.572 113.536 34.652 113.456 34.748C113.392 34.828 113.288 34.868 113.144 34.868V34.892H113.12C113.104 34.956 113.056 35.012 112.976 35.06C112.912 35.092 112.88 35.124 112.88 35.156C112.88 35.156 112.888 35.172 112.904 35.204C112.92 35.22 112.928 35.236 112.928 35.252H112.904C112.456 35.78 112.024 36.34 111.608 36.932C111.208 37.524 110.872 38.132 110.6 38.756C110.584 38.772 110.568 38.796 110.552 38.828C110.552 38.844 110.536 38.86 110.504 38.876L110.528 38.924H110.552V38.972C111.016 39.004 111.512 39.108 112.04 39.284C112.568 39.46 112.928 39.796 113.12 40.292C113.136 40.34 113.144 40.388 113.144 40.436C113.16 40.484 113.168 40.532 113.168 40.58C113.168 40.692 113.128 40.82 113.048 40.964C112.968 41.092 112.864 41.156 112.736 41.156L112.616 40.916C112.776 40.756 112.856 40.58 112.856 40.388C112.856 40.164 112.76 39.996 112.568 39.884C112.376 39.756 112.152 39.668 111.896 39.62C111.656 39.572 111.456 39.548 111.296 39.548C111.088 39.548 110.84 39.58 110.552 39.644C110.264 39.708 110.056 39.836 109.928 40.028C109.736 40.284 109.552 40.66 109.376 41.156C109.216 41.652 109.08 42.164 108.968 42.692C108.872 43.204 108.824 43.636 108.824 43.988C108.824 44.084 108.832 44.228 108.848 44.42C108.864 44.596 108.904 44.764 108.968 44.924C109.048 45.084 109.16 45.164 109.304 45.164C109.448 45.164 109.608 45.092 109.784 44.948C109.96 44.804 110.128 44.644 110.288 44.468C110.464 44.276 110.592 44.124 110.672 44.012L110.744 44.108C110.6 44.252 110.488 44.436 110.408 44.66C110.344 44.868 110.256 45.06 110.144 45.236C110.032 45.412 109.832 45.5 109.544 45.5C109.416 45.5 109.288 45.468 109.16 45.404C109.032 45.324 108.912 45.252 108.8 45.188C108.528 45.012 108.336 44.796 108.224 44.54C108.128 44.268 108.08 43.98 108.08 43.676C108.08 43.244 108.152 42.772 108.296 42.26C108.456 41.748 108.64 41.244 108.848 40.748C109.072 40.252 109.28 39.812 109.472 39.428V39.38H109.448L109.424 39.332C109.152 39.364 108.872 39.396 108.584 39.428C108.296 39.46 108.008 39.492 107.72 39.524C107.32 39.588 106.912 39.668 106.496 39.764C106.096 39.86 105.688 39.94 105.272 40.004C105.112 40.02 104.848 40.052 104.48 40.1C104.128 40.132 103.784 40.18 103.448 40.244C103.112 40.308 102.896 40.388 102.8 40.484C102.72 40.564 102.624 40.756 102.512 41.06C102.4 41.348 102.296 41.644 102.2 41.948C102.104 42.252 102.032 42.476 101.984 42.62C101.968 42.668 101.936 42.788 101.888 42.98C101.856 43.172 101.816 43.356 101.768 43.532C101.72 43.708 101.68 43.804 101.648 43.82C101.648 43.836 101.648 43.852 101.648 43.868C101.664 43.884 101.672 43.908 101.672 43.94C101.672 44.036 101.656 44.132 101.624 44.228C101.608 44.324 101.6 44.428 101.6 44.54C101.6 45.148 101.816 45.692 102.248 46.172L102.272 46.22H102.2ZM113.226 45.716C112.97 45.716 112.778 45.628 112.65 45.452C112.522 45.26 112.458 45.052 112.458 44.828C112.458 44.476 112.546 44.06 112.722 43.58C112.898 43.1 113.058 42.692 113.202 42.356C113.25 42.26 113.306 42.164 113.37 42.068C113.434 41.956 113.466 41.844 113.466 41.732C113.53 41.684 113.602 41.564 113.682 41.372C113.762 41.18 113.81 41.076 113.826 41.06V41.036C113.762 41.052 113.706 41.092 113.658 41.156C113.61 41.204 113.546 41.244 113.466 41.276H113.442C113.426 41.26 113.418 41.252 113.418 41.252C113.418 41.236 113.418 41.228 113.418 41.228C113.418 41.18 113.434 41.156 113.466 41.156C113.498 41.092 113.546 41.044 113.61 41.012C113.674 40.964 113.722 40.908 113.754 40.844C113.866 40.716 113.962 40.588 114.042 40.46C114.138 40.332 114.25 40.212 114.378 40.1C114.474 40.116 114.626 40.164 114.834 40.244C115.042 40.308 115.146 40.404 115.146 40.532C115.146 40.628 115.074 40.772 114.93 40.964C114.802 41.156 114.658 41.348 114.498 41.54C114.354 41.732 114.25 41.876 114.186 41.972C114.026 42.212 113.906 42.412 113.826 42.572C113.746 42.732 113.674 42.892 113.61 43.052C113.546 43.212 113.458 43.42 113.346 43.676C113.266 43.852 113.186 44.036 113.106 44.228C113.026 44.42 112.986 44.62 112.986 44.828V45.044C112.986 45.124 112.994 45.212 113.01 45.308C113.026 45.388 113.066 45.428 113.13 45.428C113.194 45.428 113.266 45.404 113.346 45.356C113.442 45.308 113.514 45.26 113.562 45.212C113.882 44.94 114.178 44.644 114.45 44.324C114.738 44.004 115.018 43.692 115.29 43.388C115.642 43.02 115.994 42.652 116.346 42.284C116.714 41.9 117.058 41.508 117.378 41.108C117.442 41.044 117.522 40.932 117.618 40.772C117.714 40.612 117.81 40.532 117.906 40.532H117.954C118.034 40.532 118.138 40.572 118.266 40.652C118.41 40.716 118.482 40.796 118.482 40.892C118.482 41.1 118.434 41.244 118.338 41.324C118.258 41.404 118.186 41.532 118.122 41.708C118.106 41.788 118.074 41.868 118.026 41.948C117.994 42.012 117.954 42.084 117.906 42.164C117.762 42.404 117.642 42.748 117.546 43.196C117.466 43.644 117.426 44.004 117.426 44.276V44.492C117.426 44.604 117.434 44.724 117.45 44.852C117.466 44.964 117.506 45.036 117.57 45.068C117.714 45.052 117.834 44.964 117.93 44.804C118.042 44.644 118.138 44.492 118.218 44.348C118.314 44.188 118.402 44.108 118.482 44.108V44.204C118.482 44.284 118.458 44.356 118.41 44.42C118.378 44.484 118.346 44.556 118.314 44.636C118.25 44.812 118.178 44.988 118.098 45.164C118.034 45.324 117.874 45.404 117.618 45.404C117.298 45.404 117.082 45.26 116.97 44.972C116.858 44.668 116.802 44.388 116.802 44.132C116.802 43.828 116.834 43.492 116.898 43.124C116.978 42.74 117.074 42.412 117.186 42.14C117.202 42.108 117.218 42.076 117.234 42.044C117.25 42.012 117.25 41.98 117.234 41.948H117.186C117.09 41.948 116.986 42.02 116.874 42.164C116.762 42.292 116.658 42.428 116.562 42.572C116.466 42.7 116.37 42.78 116.274 42.812V42.836L116.082 43.004C115.922 43.292 115.722 43.564 115.482 43.82C115.242 44.076 115.01 44.324 114.786 44.564C114.594 44.772 114.362 45.02 114.09 45.308C113.834 45.58 113.546 45.716 113.226 45.716ZM118.618 47.276C118.49 47.276 118.322 47.26 118.114 47.228C117.89 47.196 117.698 47.124 117.538 47.012C117.362 46.916 117.274 46.78 117.274 46.604C117.274 46.508 117.306 46.46 117.37 46.46C117.466 46.46 117.53 46.516 117.562 46.628C117.578 46.74 117.602 46.828 117.634 46.892C117.714 47.004 117.826 47.068 117.97 47.084C118.114 47.116 118.242 47.132 118.354 47.132C118.434 47.132 118.514 47.132 118.594 47.132C118.69 47.132 118.778 47.124 118.858 47.108C118.906 47.076 118.978 47.06 119.074 47.06C119.154 47.028 119.242 46.988 119.338 46.94C119.434 46.892 119.514 46.86 119.578 46.844C119.706 46.812 119.826 46.756 119.938 46.676C120.05 46.612 120.162 46.548 120.274 46.484C120.882 46.148 121.45 45.764 121.978 45.332C122.522 44.9 123.018 44.428 123.466 43.916C123.562 43.82 123.698 43.668 123.874 43.46C124.05 43.252 124.21 43.044 124.354 42.836C124.514 42.628 124.594 42.468 124.594 42.356C124.674 42.276 124.73 42.172 124.762 42.044C124.81 41.9 124.834 41.772 124.834 41.66C124.834 41.468 124.73 41.372 124.522 41.372C124.298 41.372 124.034 41.42 123.73 41.516C123.426 41.596 123.178 41.676 122.986 41.756C122.922 41.788 122.786 41.868 122.578 41.996C122.386 42.124 122.178 42.268 121.954 42.428C121.73 42.588 121.53 42.74 121.354 42.884C121.194 43.012 121.114 43.1 121.114 43.148C121.082 43.164 121.042 43.172 120.994 43.172C120.946 43.172 120.906 43.18 120.874 43.196C120.81 43.212 120.746 43.276 120.682 43.388C120.634 43.5 120.586 43.58 120.538 43.628C120.378 43.788 120.242 43.972 120.13 44.18C120.034 44.388 119.93 44.588 119.818 44.78C119.77 44.876 119.722 45.012 119.674 45.188C119.642 45.364 119.586 45.524 119.506 45.668C119.442 45.812 119.338 45.884 119.194 45.884C119.082 45.884 118.946 45.804 118.786 45.644C118.626 45.484 118.546 45.348 118.546 45.236C118.546 45.22 118.554 45.196 118.57 45.164C118.586 45.132 118.594 45.108 118.594 45.092C118.658 44.868 118.762 44.676 118.906 44.516C119.066 44.356 119.21 44.196 119.338 44.036C119.466 43.844 119.602 43.652 119.746 43.46C119.89 43.268 120.026 43.068 120.154 42.86C120.362 42.556 120.578 42.204 120.802 41.804C121.042 41.388 121.282 41.052 121.522 40.796L121.546 40.772C121.562 40.692 121.618 40.588 121.714 40.46C121.826 40.316 121.914 40.204 121.978 40.124C122.154 39.868 122.322 39.612 122.482 39.356C122.658 39.084 122.85 38.828 123.058 38.588C123.154 38.46 123.33 38.236 123.586 37.916C123.842 37.596 124.114 37.268 124.402 36.932C124.706 36.58 124.986 36.276 125.242 36.02C125.514 35.764 125.706 35.636 125.818 35.636V35.66L125.986 35.636C126.066 35.636 126.186 35.684 126.346 35.78C126.522 35.876 126.682 35.98 126.826 36.092C126.97 36.204 127.042 36.292 127.042 36.356L126.946 36.332C126.834 36.252 126.73 36.212 126.634 36.212C126.394 36.212 126.162 36.34 125.938 36.596C125.714 36.836 125.506 37.02 125.314 37.148C125.234 37.212 125.154 37.268 125.074 37.316C124.994 37.364 124.914 37.428 124.834 37.508C124.818 37.54 124.802 37.572 124.786 37.604C124.77 37.62 124.754 37.644 124.738 37.676C124.722 37.708 124.674 37.74 124.594 37.772C124.53 37.788 124.482 37.812 124.45 37.844C124.434 37.844 124.378 37.932 124.282 38.108C124.186 38.268 124.122 38.364 124.09 38.396C124.042 38.428 123.962 38.484 123.85 38.564C123.754 38.628 123.69 38.692 123.658 38.756C123.482 39.044 123.274 39.3 123.034 39.524C122.954 39.604 122.834 39.756 122.674 39.98C122.514 40.204 122.354 40.436 122.194 40.676C122.05 40.9 121.946 41.068 121.882 41.18C121.77 41.372 121.65 41.54 121.522 41.684C121.394 41.812 121.306 41.988 121.258 42.212L121.33 42.26C121.634 42.052 121.938 41.868 122.242 41.708C122.546 41.548 122.858 41.388 123.178 41.228C123.242 41.228 123.298 41.22 123.346 41.204C123.394 41.172 123.45 41.156 123.514 41.156C123.578 41.124 123.698 41.1 123.874 41.084C124.066 41.068 124.194 41.052 124.258 41.036C124.306 41.052 124.41 41.076 124.57 41.108C124.73 41.14 124.81 41.188 124.81 41.252C124.97 41.316 125.09 41.444 125.17 41.636C125.25 41.828 125.29 42.012 125.29 42.188C125.29 42.492 125.202 42.772 125.026 43.028C124.866 43.284 124.698 43.524 124.522 43.748C124.458 43.828 124.402 43.908 124.354 43.988C124.306 44.068 124.242 44.148 124.162 44.228C124.13 44.26 124.074 44.292 123.994 44.324C123.914 44.356 123.866 44.388 123.85 44.42C123.738 44.564 123.674 44.636 123.658 44.636C123.642 44.62 123.586 44.652 123.49 44.732C123.378 44.844 123.322 44.916 123.322 44.948C123.322 44.98 123.226 45.044 123.034 45.14C123.002 45.204 122.938 45.276 122.842 45.356C122.746 45.436 122.674 45.5 122.626 45.548L122.41 45.62C122.394 45.7 122.306 45.788 122.146 45.884C122.002 45.996 121.842 46.092 121.666 46.172C121.506 46.268 121.386 46.332 121.306 46.364C121.21 46.412 121.122 46.468 121.042 46.532C120.962 46.596 120.866 46.644 120.754 46.676C120.69 46.692 120.57 46.74 120.394 46.82C120.218 46.9 120.114 46.956 120.082 46.988H120.034C120.018 46.988 120.002 46.988 119.986 46.988C119.97 47.004 119.946 47.012 119.914 47.012C119.706 47.076 119.498 47.132 119.29 47.18C119.082 47.244 118.858 47.276 118.618 47.276Z" fill="#2F455B"/>
</g>
<defs>
<filter id="filter0_i_558_53432" x="38.707" y="4.92383" width="84.3516" height="24.916" filterUnits="userSpaceOnUse" color-interpolation-filters="sRGB">
<feFlood flood-opacity="0" result="BackgroundImageFix"/>
<feBlend mode="normal" in="SourceGraphic" in2="BackgroundImageFix" result="shape"/>
<feColorMatrix in="SourceAlpha" type="matrix" values="0 0 0 0 0 0 0 0 0 0 0 0 0 0 0 0 0 0 127 0" result="hardAlpha"/>
<feOffset dx="6" dy="4"/>
<feGaussianBlur stdDeviation="2"/>
<feComposite in2="hardAlpha" operator="arithmetic" k2="-1" k3="1"/>
<feColorMatrix type="matrix" values="0 0 0 0 0 0 0 0 0 0 0 0 0 0 0 0 0 0 0.25 0"/>
<feBlend mode="normal" in2="shape" result="effect1_innerShadow_558_53432"/>
</filter>
<filter id="filter1_i_558_53432" x="30.6357" y="33.1885" width="96.4058" height="18.0879" filterUnits="userSpaceOnUse" color-interpolation-filters="sRGB">
<feFlood flood-opacity="0" result="BackgroundImageFix"/>
<feBlend mode="normal" in="SourceGraphic" in2="BackgroundImageFix" result="shape"/>
<feColorMatrix in="SourceAlpha" type="matrix" values="0 0 0 0 0 0 0 0 0 0 0 0 0 0 0 0 0 0 127 0" result="hardAlpha"/>
<feOffset dy="4"/>
<feGaussianBlur stdDeviation="2"/>
<feComposite in2="hardAlpha" operator="arithmetic" k2="-1" k3="1"/>
<feColorMatrix type="matrix" values="0 0 0 0 0 0 0 0 0 0 0 0 0 0 0 0 0 0 0.25 0"/>
<feBlend mode="normal" in2="shape" result="effect1_innerShadow_558_53432"/>
</filter>
</defs>
</svg>
