<svg width="156" height="66" viewBox="0 0 156 66" fill="none" xmlns="http://www.w3.org/2000/svg">
<g filter="url(#filter0_i_471_2101)">
<path d="M69.3822 25.84C68.7582 25.696 68.3502 25.36 68.1582 24.832C67.9662 24.304 67.8462 23.8 67.7982 23.32C67.7742 23.128 67.7622 22.948 67.7622 22.78C67.7622 22.588 67.7622 22.396 67.7622 22.204C67.7622 21.148 67.8582 20.068 68.0502 18.964C68.2662 17.86 68.5542 16.828 68.9142 15.868V15.904C68.9142 15.856 68.9262 15.784 68.9502 15.688C68.9982 15.592 69.0342 15.496 69.0582 15.4L69.1662 15.112C69.1902 15.064 69.2022 15.028 69.2022 15.004C69.2022 14.98 69.2022 14.968 69.2022 14.968C69.1782 14.632 69.2382 14.32 69.3822 14.032C69.5502 13.72 69.6822 13.42 69.7782 13.132C70.1382 12.052 70.5342 10.984 70.9662 9.928C71.3982 8.872 71.8902 7.84 72.4422 6.832C72.6342 6.496 72.7902 6.172 72.9102 5.86C73.0542 5.548 73.2582 5.26 73.5222 4.996C73.7382 4.996 74.0622 5.044 74.4942 5.14C74.9502 5.212 75.3702 5.332 75.7542 5.5C76.1382 5.644 76.3422 5.836 76.3662 6.076C76.3902 6.34 76.3062 6.652 76.1142 7.012C75.9222 7.372 75.6942 7.72 75.4302 8.056C75.1902 8.392 74.9982 8.668 74.8542 8.884C74.8302 8.86 74.7942 8.848 74.7462 8.848L74.6742 8.884C74.3382 9.268 74.0742 9.628 73.8822 9.964C73.7142 10.276 73.5342 10.672 73.3422 11.152C73.1502 11.608 72.8622 12.016 72.4782 12.376C72.0942 12.736 71.8062 13.156 71.6142 13.636C71.5902 13.708 71.5422 13.852 71.4702 14.068C71.4222 14.284 71.3742 14.512 71.3262 14.752C71.3022 14.872 71.2662 15.028 71.2182 15.22C71.1702 15.412 71.1222 15.568 71.0742 15.688C71.0502 16.048 70.9182 16.42 70.6782 16.804C70.4622 17.188 70.2582 17.572 70.0662 17.956C69.8742 18.34 69.7902 18.724 69.8142 19.108C69.7182 19.228 69.6702 19.372 69.6702 19.54C69.6702 19.708 69.6462 19.864 69.5982 20.008C69.5262 20.464 69.4422 20.836 69.3462 21.124C69.2742 21.388 69.2022 21.664 69.1302 21.952C69.0822 22.216 69.0102 22.588 68.9142 23.068C68.8902 23.14 68.8782 23.224 68.8782 23.32C68.8782 23.392 68.8782 23.476 68.8782 23.572C68.8782 23.86 68.9142 24.136 68.9862 24.4C69.0822 24.688 69.2142 24.88 69.3822 24.976C69.5982 25.072 69.7782 25.168 69.9222 25.264C70.0902 25.36 70.1742 25.456 70.1742 25.552C70.1742 25.672 69.9102 25.768 69.3822 25.84ZM43.4982 25.732C41.9622 25.732 40.8822 25.288 40.2582 24.4C39.6342 23.536 39.3222 22.492 39.3222 21.268C39.3222 20.596 39.4062 19.912 39.5742 19.216C39.7422 18.496 39.9462 17.8 40.1862 17.128C40.2342 16.96 40.3182 16.744 40.4382 16.48C40.5582 16.216 40.6782 16.012 40.7982 15.868C40.9422 15.676 41.1222 15.58 41.3382 15.58L41.3022 15.508C41.2782 15.46 41.2542 15.4 41.2302 15.328C41.2062 15.232 41.2182 15.148 41.2662 15.076C41.5782 14.668 41.9022 14.296 42.2382 13.96C42.5742 13.6 42.8742 13.288 43.1382 13.024C43.3302 12.832 43.5102 12.64 43.6782 12.448C43.8462 12.256 44.0262 12.076 44.2182 11.908C44.7702 11.428 45.4182 11.092 46.1622 10.9C46.9302 10.684 47.7222 10.576 48.5382 10.576C48.9222 10.576 49.2822 10.648 49.6182 10.792C49.9782 10.912 50.3262 11.092 50.6622 11.332V11.584H50.6262V11.656C50.4582 11.608 50.3022 11.572 50.1582 11.548C50.0142 11.5 49.8822 11.464 49.7622 11.44C49.6422 11.416 49.5102 11.392 49.3662 11.368C49.2462 11.344 49.1262 11.332 49.0062 11.332C48.2622 11.332 47.4942 11.584 46.7022 12.088C45.9102 12.568 45.1542 13.216 44.4342 14.032C43.7142 14.824 43.0662 15.7 42.4902 16.66C41.9142 17.62 41.4582 18.592 41.1222 19.576C40.7862 20.536 40.6182 21.424 40.6182 22.24C40.6182 23.08 40.8342 23.764 41.2662 24.292C41.6982 24.844 42.4062 25.12 43.3902 25.12C43.9662 25.12 44.5782 24.952 45.2262 24.616C45.8742 24.304 46.4862 23.932 47.0622 23.5C47.6382 23.044 48.1062 22.648 48.4662 22.312C48.6582 22.12 48.8382 21.94 49.0062 21.772C49.1982 21.604 49.3782 21.436 49.5462 21.268C50.7222 20.116 51.8142 18.916 52.8222 17.668C53.8542 16.42 54.8622 15.148 55.8462 13.852C56.3262 13.228 56.8182 12.616 57.3222 12.016C57.8262 11.392 58.2942 10.744 58.7262 10.072C58.9182 9.76 59.0982 9.436 59.2662 9.1C59.4342 8.764 59.5782 8.44 59.6982 8.128C59.7702 7.912 59.8182 7.708 59.8422 7.516C59.8662 7.3 59.9502 7.096 60.0942 6.904C60.2622 6.904 60.5262 6.892 60.8862 6.868C61.2462 6.82 61.6062 6.796 61.9662 6.796C62.2542 6.796 62.5062 6.832 62.7222 6.904C62.9382 6.952 63.0462 7.06 63.0462 7.228V7.804C62.9742 7.972 62.8902 8.14 62.7942 8.308C62.6982 8.452 62.6022 8.608 62.5062 8.776C62.2182 9.304 61.9542 9.832 61.7142 10.36C61.1142 11.656 60.5502 13.108 60.0222 14.716C59.5182 16.324 59.2662 17.872 59.2662 19.36C59.2662 19.888 59.3502 20.344 59.5182 20.728C59.7102 21.112 60.1062 21.316 60.7062 21.34C60.9462 21.22 61.1742 21.112 61.3902 21.016C61.6302 20.92 61.8582 20.812 62.0742 20.692C62.9622 20.116 63.7302 19.432 64.3782 18.64C65.0502 17.824 65.6742 16.972 66.2502 16.084C66.8262 15.172 67.4142 14.296 68.0142 13.456C68.1102 13.312 68.2662 13.096 68.4822 12.808C68.7222 12.52 68.9502 12.232 69.1662 11.944C69.3822 11.632 69.4902 11.416 69.4902 11.296C69.7302 11.032 69.8742 10.96 69.9222 11.08C69.9702 11.104 69.9942 11.152 69.9942 11.224C69.9942 11.296 69.9822 11.356 69.9582 11.404C69.9342 11.548 69.7662 11.896 69.4542 12.448C69.1662 13 68.7942 13.648 68.3382 14.392C67.8822 15.112 67.4142 15.856 66.9342 16.624C66.4782 17.368 66.0582 18.028 65.6742 18.604C65.2902 19.156 65.0382 19.516 64.9182 19.684C64.7022 19.996 64.4622 20.308 64.1982 20.62C63.9342 20.932 63.6342 21.184 63.2982 21.376C62.9862 21.592 62.6262 21.748 62.2182 21.844C61.8102 21.916 61.4142 21.952 61.0302 21.952C59.8542 21.952 58.9782 21.7 58.4022 21.196C57.8262 20.692 57.4422 19.852 57.2502 18.676C57.2262 18.556 57.2022 18.424 57.1782 18.28C57.1782 18.136 57.1782 18.004 57.1782 17.884C57.1782 17.092 57.2982 16.3 57.5382 15.508C57.8022 14.692 58.0182 13.912 58.1862 13.168L58.4382 12.232L58.5462 11.764C58.4502 11.932 58.3182 12.124 58.1502 12.34C58.0062 12.556 57.8502 12.784 57.6822 13.024L56.3502 14.788C56.0142 15.268 55.6542 15.736 55.2702 16.192C54.8862 16.648 54.5142 17.116 54.1542 17.596C53.4582 18.508 52.7622 19.42 52.0662 20.332C51.3702 21.22 50.6022 22.048 49.7622 22.816C48.8742 23.632 47.9022 24.316 46.8462 24.868C45.8142 25.444 44.6982 25.732 43.4982 25.732ZM114.699 25.84C114.075 25.696 113.667 25.36 113.475 24.832C113.283 24.304 113.163 23.8 113.115 23.32C113.091 23.128 113.079 22.948 113.079 22.78C113.079 22.588 113.079 22.396 113.079 22.204C113.079 21.148 113.175 20.068 113.367 18.964C113.583 17.86 113.871 16.828 114.231 15.868V15.904C114.231 15.856 114.243 15.784 114.267 15.688C114.315 15.592 114.351 15.496 114.375 15.4L114.483 15.112C114.507 15.064 114.519 15.028 114.519 15.004C114.519 14.98 114.519 14.968 114.519 14.968C114.495 14.632 114.555 14.32 114.699 14.032C114.867 13.72 114.999 13.42 115.095 13.132C115.455 12.052 115.851 10.984 116.283 9.928C116.715 8.872 117.207 7.84 117.759 6.832C117.951 6.496 118.107 6.172 118.227 5.86C118.371 5.548 118.575 5.26 118.839 4.996C119.055 4.996 119.379 5.044 119.811 5.14C120.267 5.212 120.687 5.332 121.071 5.5C121.455 5.644 121.659 5.836 121.683 6.076C121.707 6.34 121.623 6.652 121.431 7.012C121.239 7.372 121.011 7.72 120.747 8.056C120.507 8.392 120.315 8.668 120.171 8.884C120.147 8.86 120.111 8.848 120.063 8.848L119.991 8.884C119.655 9.268 119.391 9.628 119.199 9.964C119.031 10.276 118.851 10.672 118.659 11.152C118.467 11.608 118.179 12.016 117.795 12.376C117.411 12.736 117.123 13.156 116.931 13.636C116.907 13.708 116.859 13.852 116.787 14.068C116.739 14.284 116.691 14.512 116.643 14.752C116.619 14.872 116.583 15.028 116.535 15.22C116.487 15.412 116.439 15.568 116.391 15.688C116.367 16.048 116.235 16.42 115.995 16.804C115.779 17.188 115.575 17.572 115.383 17.956C115.191 18.34 115.107 18.724 115.131 19.108C115.035 19.228 114.987 19.372 114.987 19.54C114.987 19.708 114.963 19.864 114.915 20.008C114.843 20.464 114.759 20.836 114.663 21.124C114.591 21.388 114.519 21.664 114.447 21.952C114.399 22.216 114.327 22.588 114.231 23.068C114.207 23.14 114.195 23.224 114.195 23.32C114.195 23.392 114.195 23.476 114.195 23.572C114.195 23.86 114.231 24.136 114.303 24.4C114.399 24.688 114.531 24.88 114.699 24.976C114.915 25.072 115.095 25.168 115.239 25.264C115.407 25.36 115.491 25.456 115.491 25.552C115.491 25.672 115.227 25.768 114.699 25.84ZM88.8146 25.732C87.2786 25.732 86.1986 25.288 85.5746 24.4C84.9506 23.536 84.6386 22.492 84.6386 21.268C84.6386 20.596 84.7226 19.912 84.8906 19.216C85.0586 18.496 85.2626 17.8 85.5026 17.128C85.5506 16.96 85.6346 16.744 85.7546 16.48C85.8746 16.216 85.9946 16.012 86.1146 15.868C86.2586 15.676 86.4386 15.58 86.6546 15.58L86.6186 15.508C86.5946 15.46 86.5706 15.4 86.5466 15.328C86.5226 15.232 86.5346 15.148 86.5826 15.076C86.8946 14.668 87.2186 14.296 87.5546 13.96C87.8906 13.6 88.1906 13.288 88.4546 13.024C88.6466 12.832 88.8266 12.64 88.9946 12.448C89.1626 12.256 89.3426 12.076 89.5346 11.908C90.0866 11.428 90.7346 11.092 91.4786 10.9C92.2466 10.684 93.0386 10.576 93.8546 10.576C94.2386 10.576 94.5986 10.648 94.9346 10.792C95.2946 10.912 95.6426 11.092 95.9786 11.332V11.584H95.9426V11.656C95.7746 11.608 95.6186 11.572 95.4746 11.548C95.3306 11.5 95.1986 11.464 95.0786 11.44C94.9586 11.416 94.8266 11.392 94.6826 11.368C94.5626 11.344 94.4426 11.332 94.3226 11.332C93.5786 11.332 92.8106 11.584 92.0186 12.088C91.2266 12.568 90.4706 13.216 89.7506 14.032C89.0306 14.824 88.3826 15.7 87.8066 16.66C87.2306 17.62 86.7746 18.592 86.4386 19.576C86.1026 20.536 85.9346 21.424 85.9346 22.24C85.9346 23.08 86.1506 23.764 86.5826 24.292C87.0146 24.844 87.7226 25.12 88.7066 25.12C89.2826 25.12 89.8946 24.952 90.5426 24.616C91.1906 24.304 91.8026 23.932 92.3786 23.5C92.9546 23.044 93.4226 22.648 93.7826 22.312C93.9746 22.12 94.1546 21.94 94.3226 21.772C94.5146 21.604 94.6946 21.436 94.8626 21.268C96.0386 20.116 97.1306 18.916 98.1386 17.668C99.1706 16.42 100.179 15.148 101.163 13.852C101.643 13.228 102.135 12.616 102.639 12.016C103.143 11.392 103.611 10.744 104.043 10.072C104.235 9.76 104.415 9.436 104.583 9.1C104.751 8.764 104.895 8.44 105.015 8.128C105.087 7.912 105.135 7.708 105.159 7.516C105.183 7.3 105.267 7.096 105.411 6.904C105.579 6.904 105.843 6.892 106.203 6.868C106.563 6.82 106.923 6.796 107.283 6.796C107.571 6.796 107.823 6.832 108.039 6.904C108.255 6.952 108.363 7.06 108.363 7.228V7.804C108.291 7.972 108.207 8.14 108.111 8.308C108.015 8.452 107.919 8.608 107.823 8.776C107.535 9.304 107.271 9.832 107.031 10.36C106.431 11.656 105.867 13.108 105.339 14.716C104.835 16.324 104.583 17.872 104.583 19.36C104.583 19.888 104.667 20.344 104.835 20.728C105.027 21.112 105.423 21.316 106.023 21.34C106.263 21.22 106.491 21.112 106.707 21.016C106.947 20.92 107.175 20.812 107.391 20.692C108.279 20.116 109.047 19.432 109.695 18.64C110.367 17.824 110.991 16.972 111.567 16.084C112.143 15.172 112.731 14.296 113.331 13.456C113.427 13.312 113.583 13.096 113.799 12.808C114.039 12.52 114.267 12.232 114.483 11.944C114.699 11.632 114.807 11.416 114.807 11.296C115.047 11.032 115.191 10.96 115.239 11.08C115.287 11.104 115.311 11.152 115.311 11.224C115.311 11.296 115.299 11.356 115.275 11.404C115.251 11.548 115.083 11.896 114.771 12.448C114.483 13 114.111 13.648 113.655 14.392C113.199 15.112 112.731 15.856 112.251 16.624C111.795 17.368 111.375 18.028 110.991 18.604C110.607 19.156 110.355 19.516 110.235 19.684C110.019 19.996 109.779 20.308 109.515 20.62C109.251 20.932 108.951 21.184 108.615 21.376C108.303 21.592 107.943 21.748 107.535 21.844C107.127 21.916 106.731 21.952 106.347 21.952C105.171 21.952 104.295 21.7 103.719 21.196C103.143 20.692 102.759 19.852 102.567 18.676C102.543 18.556 102.519 18.424 102.495 18.28C102.495 18.136 102.495 18.004 102.495 17.884C102.495 17.092 102.615 16.3 102.855 15.508C103.119 14.692 103.335 13.912 103.503 13.168L103.755 12.232L103.863 11.764C103.767 11.932 103.635 12.124 103.467 12.34C103.323 12.556 103.167 12.784 102.999 13.024L101.667 14.788C101.331 15.268 100.971 15.736 100.587 16.192C100.203 16.648 99.8306 17.116 99.4706 17.596C98.7746 18.508 98.0786 19.42 97.3826 20.332C96.6866 21.22 95.9186 22.048 95.0786 22.816C94.1906 23.632 93.2186 24.316 92.1626 24.868C91.1306 25.444 90.0146 25.732 88.8146 25.732Z" fill="#3F5C7A"/>
<path d="M71.4334 25.696C71.1934 25.696 70.9774 25.516 70.7854 25.156C70.5934 24.796 70.4734 24.52 70.4254 24.328L70.4614 24.256V24.148H70.8214C70.8694 24.1 70.9174 24.076 70.9654 24.076H71.0014C71.2654 24.004 71.4694 23.944 71.6134 23.896C71.7574 23.872 71.9494 23.836 72.1894 23.788C72.3334 23.764 72.6214 23.704 73.0534 23.608C73.5094 23.512 73.9414 23.404 74.3494 23.284C74.7574 23.164 74.9614 23.056 74.9614 22.96L75.7174 23.068C75.9094 23.02 76.0894 22.972 76.2574 22.924C76.4494 22.876 76.6414 22.84 76.8334 22.816C77.0254 22.768 77.1094 22.576 77.0854 22.24C77.0614 21.88 77.0614 21.64 77.0854 21.52C77.2054 20.008 77.5654 18.58 78.1654 17.236C78.7654 15.868 79.4734 14.548 80.2894 13.276C81.1054 12.004 81.8854 10.768 82.6294 9.568L78.2014 10C77.9854 10.024 77.8534 9.892 77.8054 9.604C77.7814 9.292 77.7574 9.064 77.7334 8.92C77.7334 8.704 77.8534 8.524 78.0934 8.38C78.3334 8.236 78.5974 8.14 78.8854 8.092C79.1974 8.02 79.4254 7.984 79.5694 7.984C79.6894 7.96 79.8094 7.948 79.9294 7.948C80.0734 7.924 80.2054 7.912 80.3254 7.912C80.3734 7.912 80.4334 7.912 80.5054 7.912C80.5774 7.912 80.6374 7.924 80.6854 7.948H80.7934L80.8294 8.236L80.5774 8.308C80.7694 8.308 80.9734 8.344 81.1894 8.416C81.4054 8.464 81.5974 8.476 81.7654 8.452C82.2454 8.356 82.5574 8.308 82.7014 8.308C82.8934 8.284 83.2054 8.284 83.6374 8.308C83.6854 8.26 83.7454 8.224 83.8174 8.2C83.8894 8.176 83.9374 8.152 83.9614 8.128C83.9854 8.104 83.9974 8.044 83.9974 7.948V7.84C83.9974 7.744 84.0094 7.636 84.0334 7.516C84.0814 7.396 84.1774 7.276 84.3214 7.156C84.4174 7.06 84.5254 6.976 84.6454 6.904C84.7654 6.832 84.8734 6.76 84.9694 6.688C85.0894 6.712 85.2814 6.772 85.5454 6.868C85.8094 6.94 86.0614 7.036 86.3014 7.156C86.5414 7.276 86.6614 7.42 86.6614 7.588C86.6614 7.684 86.6254 7.792 86.5534 7.912C86.4814 8.008 86.4214 8.092 86.3734 8.164C86.6374 8.164 86.8894 8.176 87.1294 8.2C87.3934 8.2 87.6454 8.212 87.8854 8.236C87.9574 8.236 88.1374 8.212 88.4254 8.164C88.7134 8.116 88.9414 8.092 89.1094 8.092C89.4694 8.092 89.8174 8.104 90.1534 8.128C90.5134 8.152 90.8734 8.164 91.2334 8.164L91.5574 8.38C90.8134 8.764 90.0694 8.992 89.3254 9.064C88.5814 9.136 87.8134 9.256 87.0214 9.424C86.1334 9.592 85.4494 9.856 84.9694 10.216C84.5134 10.576 84.0214 11.128 83.4934 11.872C83.3974 12.016 83.3014 12.16 83.2054 12.304C83.1094 12.448 83.0134 12.58 82.9174 12.7C82.3414 13.516 81.7294 14.428 81.0814 15.436C80.4574 16.42 79.9174 17.452 79.4614 18.532C79.0054 19.588 78.7774 20.644 78.7774 21.7C78.7774 22.084 78.8134 22.324 78.8854 22.42C78.9574 22.492 79.1374 22.528 79.4254 22.528C79.5694 22.528 79.7254 22.504 79.8934 22.456C80.0854 22.408 80.2534 22.372 80.3974 22.348C80.4694 22.324 80.5654 22.312 80.6854 22.312C81.1654 22.264 81.6574 22.252 82.1614 22.276C82.6654 22.276 83.1574 22.252 83.6374 22.204C83.7334 22.18 83.8294 22.168 83.9254 22.168C84.0214 22.144 84.1174 22.132 84.2134 22.132C84.3334 22.132 84.5494 22.168 84.8614 22.24C85.1974 22.312 85.5094 22.408 85.7974 22.528C86.1094 22.648 86.2774 22.804 86.3014 22.996C86.0134 22.948 85.7494 22.924 85.5094 22.924C85.2694 22.9 85.0294 22.888 84.7894 22.888C84.5734 22.888 84.1654 22.912 83.5654 22.96C82.9894 22.984 82.3654 23.056 81.6934 23.176C81.0454 23.272 80.4814 23.416 80.0014 23.608C79.5214 23.8 79.2814 24.04 79.2814 24.328C79.2814 24.472 79.4494 24.676 79.7854 24.94L79.9654 25.084C80.0854 25.18 80.1694 25.264 80.2174 25.336C80.2894 25.408 80.3374 25.528 80.3614 25.696C80.2414 25.672 80.1574 25.672 80.1094 25.696H79.9654C79.5814 25.696 79.1494 25.516 78.6694 25.156C78.2134 24.82 77.9494 24.472 77.8774 24.112C77.1814 24.28 76.4614 24.436 75.7174 24.58C74.9974 24.724 74.2894 24.892 73.5934 25.084C73.2334 25.204 72.8854 25.336 72.5494 25.48C72.2134 25.624 71.8414 25.696 71.4334 25.696Z" fill="#BA68C8"/>
</g>
<g filter="url(#filter1_i_471_2101)">
<path d="M45.322 46.964C45.05 46.964 44.842 46.876 44.698 46.7C44.554 46.524 44.458 46.308 44.41 46.052C44.378 45.812 44.362 45.588 44.362 45.38C44.362 44.836 44.426 44.244 44.554 43.604C44.682 42.948 44.842 42.3 45.034 41.66C45.242 41.004 45.45 40.42 45.658 39.908V39.812C45.658 39.604 45.706 39.396 45.802 39.188C45.914 38.98 46.002 38.788 46.066 38.612C46.354 37.892 46.65 37.18 46.954 36.476C47.274 35.772 47.634 35.084 48.034 34.412C48.162 34.22 48.274 34.02 48.37 33.812C48.466 33.588 48.594 33.396 48.754 33.236C48.93 33.236 49.122 33.268 49.33 33.332C49.538 33.38 49.642 33.516 49.642 33.74C49.642 33.9 49.578 34.1 49.45 34.34C49.322 34.564 49.178 34.78 49.018 34.988C48.858 35.196 48.73 35.372 48.634 35.516C48.618 35.5 48.594 35.484 48.562 35.468C48.546 35.436 48.53 35.42 48.514 35.42C48.498 35.42 48.49 35.428 48.49 35.444C48.282 35.684 48.098 35.948 47.938 36.236C47.794 36.524 47.658 36.812 47.53 37.1C47.402 37.404 47.25 37.692 47.074 37.964C46.898 38.236 46.746 38.524 46.618 38.828C46.586 38.892 46.538 39.036 46.474 39.26C46.41 39.484 46.346 39.7 46.282 39.908C46.218 40.1 46.178 40.204 46.162 40.22C46.13 40.572 46.01 40.9 45.802 41.204C45.61 41.508 45.514 41.844 45.514 42.212C45.45 42.276 45.41 42.372 45.394 42.5C45.394 42.612 45.378 42.716 45.346 42.812C45.234 43.276 45.114 43.74 44.986 44.204C44.858 44.652 44.794 45.124 44.794 45.62C44.794 45.796 44.81 45.956 44.842 46.1C44.874 46.26 44.93 46.428 45.01 46.604C45.042 46.668 45.106 46.724 45.202 46.772C45.314 46.82 45.378 46.884 45.394 46.964H45.322ZM29.362 46.916C28.754 46.916 28.242 46.7 27.826 46.268C27.41 45.836 27.202 45.324 27.202 44.732C27.202 44.076 27.322 43.396 27.562 42.692C27.818 41.972 28.154 41.292 28.57 40.652C28.986 39.996 29.426 39.452 29.89 39.02L30.49 38.516C30.73 38.308 30.994 38.084 31.282 37.844C31.586 37.604 31.898 37.396 32.218 37.22C32.554 37.028 32.882 36.932 33.202 36.932C33.426 36.932 33.634 36.98 33.826 37.076C34.034 37.172 34.226 37.292 34.402 37.436V37.484H34.378V37.532C34.218 37.5 34.066 37.46 33.922 37.412C33.778 37.364 33.626 37.34 33.466 37.34C33.05 37.34 32.586 37.532 32.074 37.916C31.562 38.284 31.05 38.772 30.538 39.38C30.026 39.972 29.554 40.612 29.122 41.3C28.69 41.972 28.338 42.612 28.066 43.22C27.81 43.828 27.682 44.332 27.682 44.732C27.682 45.276 27.81 45.724 28.066 46.076C28.322 46.444 28.738 46.628 29.314 46.628C29.346 46.628 29.402 46.62 29.482 46.604C29.578 46.588 29.626 46.564 29.626 46.532H29.674L29.698 46.556V46.532C30.418 46.356 31.074 46.02 31.666 45.524C32.274 45.044 32.826 44.556 33.322 44.06C34.09 43.292 34.818 42.492 35.506 41.66C36.194 40.812 36.874 39.964 37.546 39.116C37.866 38.7 38.194 38.284 38.53 37.868C38.866 37.452 39.186 37.02 39.49 36.572C39.618 36.364 39.738 36.156 39.85 35.948C39.978 35.724 40.09 35.5 40.186 35.276C40.234 35.148 40.274 35.012 40.306 34.868C40.338 34.724 40.394 34.596 40.474 34.484C40.618 34.484 40.81 34.508 41.05 34.556C41.29 34.588 41.41 34.716 41.41 34.94L41.338 35.156C41.29 35.268 41.226 35.38 41.146 35.492C41.082 35.588 41.026 35.692 40.978 35.804C40.882 35.964 40.786 36.14 40.69 36.332C40.594 36.508 40.498 36.684 40.402 36.86C39.538 38.588 39.106 40.436 39.106 42.404C39.106 42.644 39.122 42.9 39.154 43.172C39.186 43.428 39.274 43.652 39.418 43.844C39.562 44.02 39.786 44.108 40.09 44.108C40.234 44.028 40.378 43.964 40.522 43.916C40.682 43.852 40.834 43.772 40.978 43.676C41.554 43.292 42.066 42.828 42.514 42.284C42.962 41.74 43.386 41.164 43.786 40.556C44.186 39.948 44.586 39.372 44.986 38.828C45.05 38.748 45.162 38.612 45.322 38.42C45.482 38.212 45.634 38.012 45.778 37.82C45.922 37.612 45.994 37.468 45.994 37.388H46.042L46.066 37.436C46.066 37.5 45.962 37.708 45.754 38.06C45.562 38.412 45.314 38.836 45.01 39.332C44.706 39.828 44.394 40.332 44.074 40.844C43.754 41.34 43.466 41.78 43.21 42.164C42.97 42.548 42.802 42.804 42.706 42.932C42.562 43.124 42.394 43.324 42.202 43.532C42.026 43.74 41.842 43.908 41.65 44.036C41.442 44.164 41.21 44.26 40.954 44.324C40.714 44.372 40.482 44.396 40.258 44.396C39.57 44.396 39.066 44.188 38.746 43.772C38.442 43.356 38.29 42.828 38.29 42.188C38.29 41.58 38.37 40.98 38.53 40.388C38.69 39.796 38.85 39.204 39.01 38.612C39.026 38.564 39.058 38.452 39.106 38.276C39.17 38.1 39.226 37.924 39.274 37.748C39.338 37.572 39.362 37.476 39.346 37.46H39.322V37.436C39.29 37.452 39.202 37.564 39.058 37.772C38.914 37.98 38.746 38.22 38.554 38.492C38.378 38.748 38.21 38.988 38.05 39.212C37.89 39.436 37.786 39.588 37.738 39.668C37.498 39.972 37.25 40.284 36.994 40.604C36.738 40.908 36.482 41.22 36.226 41.54C35.826 42.052 35.378 42.62 34.882 43.244C34.402 43.852 33.874 44.436 33.298 44.996C32.722 45.556 32.106 46.012 31.45 46.364C30.794 46.732 30.098 46.916 29.362 46.916ZM47.8842 46.052C47.6282 46.052 47.4362 45.988 47.3082 45.86C47.1962 45.748 47.1002 45.692 47.0202 45.692C47.0042 45.612 46.9322 45.524 46.8042 45.428C46.6762 45.332 46.6122 45.108 46.6122 44.756C46.6122 44.436 46.6842 44.156 46.8282 43.916C46.9722 43.676 47.1002 43.42 47.2122 43.148C47.2442 43.068 47.2602 42.988 47.2602 42.908C47.2602 42.812 47.2762 42.732 47.3082 42.668C47.3402 42.556 47.3882 42.452 47.4522 42.356C47.5162 42.26 47.5802 42.164 47.6442 42.068C48.0122 41.444 48.4442 40.94 48.9402 40.556C49.4362 40.156 50.0202 39.82 50.6922 39.548H50.7162C50.7962 39.516 50.9242 39.492 51.1002 39.476C51.2762 39.444 51.4042 39.428 51.4842 39.428C51.6442 39.428 51.7882 39.46 51.9162 39.524C52.0442 39.588 52.1562 39.62 52.2522 39.62L52.2042 39.668C52.3482 39.732 52.4602 39.828 52.5402 39.956C52.6202 40.068 52.7082 40.172 52.8042 40.268C52.8362 40.3 52.8682 40.332 52.9002 40.364C52.9322 40.396 52.9562 40.428 52.9722 40.46C53.0202 40.508 53.0522 40.58 53.0682 40.676C53.0842 40.772 53.0922 40.86 53.0922 40.94C53.0922 41.356 52.9882 41.732 52.7802 42.068C52.5722 42.404 52.3402 42.732 52.0842 43.052C51.9722 43.212 51.8602 43.372 51.7482 43.532C51.6522 43.692 51.5322 43.844 51.3882 43.988C51.3562 44.02 51.2682 44.1 51.1242 44.228C50.9962 44.356 50.8682 44.484 50.7402 44.612C50.6282 44.724 50.5642 44.796 50.5482 44.828C50.4362 44.876 50.3322 44.948 50.2362 45.044C50.1402 45.14 50.0362 45.228 49.9242 45.308C49.6362 45.516 49.3162 45.692 48.9642 45.836C48.6122 45.98 48.2522 46.052 47.8842 46.052ZM47.7642 45.764C47.7642 45.764 47.8762 45.732 48.1002 45.668C48.3242 45.604 48.4682 45.564 48.5322 45.548C48.6122 45.516 48.7642 45.436 48.9882 45.308C49.2282 45.164 49.4522 45.02 49.6602 44.876C49.8682 44.716 49.9722 44.604 49.9722 44.54C50.0842 44.508 50.2362 44.388 50.4282 44.18C50.6362 43.956 50.8362 43.724 51.0282 43.484C51.2202 43.228 51.3482 43.052 51.4122 42.956C51.4442 42.924 51.5002 42.844 51.5802 42.716C51.6602 42.572 51.7082 42.5 51.7242 42.5C51.7402 42.436 51.7642 42.372 51.7962 42.308C51.8442 42.228 51.8682 42.164 51.8682 42.116C51.9162 42.084 51.9642 41.98 52.0122 41.804C52.0602 41.612 52.1002 41.516 52.1322 41.516L52.1082 41.492C52.1242 41.46 52.1322 41.436 52.1322 41.42C52.1482 41.388 52.1642 41.364 52.1802 41.348C52.1802 41.252 52.1962 41.164 52.2282 41.084C52.2602 40.988 52.2762 40.892 52.2762 40.796C52.3082 40.732 52.3242 40.652 52.3242 40.556C52.3242 40.46 52.3242 40.38 52.3242 40.316L52.3482 40.292V40.268C52.3482 40.124 52.3002 39.996 52.2042 39.884C52.1242 39.772 51.9962 39.716 51.8202 39.716C51.3722 39.716 50.9642 39.828 50.5962 40.052C50.2442 40.26 49.9002 40.492 49.5642 40.748C49.4522 40.828 49.3402 40.916 49.2282 41.012C49.1162 41.092 49.0122 41.188 48.9162 41.3C48.8842 41.316 48.8362 41.348 48.7722 41.396C48.7082 41.444 48.6762 41.492 48.6762 41.54C48.8202 41.524 48.9562 41.468 49.0842 41.372C49.2282 41.26 49.4282 41.204 49.6842 41.204C49.7642 41.204 49.9162 41.276 50.1402 41.42C50.3802 41.564 50.5002 41.676 50.5002 41.756V41.804C50.4042 41.772 50.3322 41.74 50.2842 41.708C50.2522 41.676 50.1722 41.66 50.0442 41.66C49.7242 41.66 49.3962 41.788 49.0602 42.044C48.7402 42.284 48.4762 42.516 48.2682 42.74C48.1722 42.82 48.0762 42.908 47.9802 43.004C47.9002 43.1 47.8282 43.204 47.7642 43.316C47.7162 43.428 47.6922 43.556 47.6922 43.7C47.7242 43.684 47.7562 43.708 47.7882 43.772C47.8202 43.82 47.8362 43.86 47.8362 43.892H47.7642C47.6842 43.892 47.6202 43.876 47.5722 43.844C47.5402 43.796 47.5082 43.772 47.4762 43.772C47.4122 43.82 47.3402 43.948 47.2602 44.156C47.1802 44.364 47.1242 44.468 47.0922 44.468C47.0762 44.532 47.0602 44.604 47.0442 44.684C47.0442 44.748 47.0442 44.812 47.0442 44.876C47.0442 45.132 47.0922 45.34 47.1882 45.5C47.2842 45.676 47.4762 45.764 47.7642 45.764ZM60.8341 46.772C60.7541 46.772 60.6741 46.764 60.5941 46.748C60.5301 46.732 60.4581 46.716 60.3781 46.7L60.3061 46.748C60.0501 46.54 59.8821 46.252 59.8021 45.884C59.7381 45.516 59.7061 45.18 59.7061 44.876C59.7061 44.556 59.7141 44.236 59.7301 43.916C59.7621 43.58 59.7861 43.26 59.8021 42.956C59.8181 42.732 59.8501 42.508 59.8981 42.284C59.9621 42.06 59.9941 41.844 59.9941 41.636C59.9941 41.54 59.9861 41.476 59.9701 41.444L59.9221 41.396L59.8741 41.42C59.7461 41.484 59.6261 41.644 59.5141 41.9C59.4181 42.14 59.3381 42.324 59.2741 42.452C59.2261 42.548 59.1141 42.74 58.9381 43.028C58.7781 43.3 58.6101 43.564 58.4341 43.82C58.2581 44.076 58.1301 44.236 58.0501 44.3C57.9061 44.412 57.7621 44.468 57.6181 44.468C57.4581 44.468 57.3061 44.428 57.1621 44.348C57.0341 44.268 56.9701 44.132 56.9701 43.94C56.9701 43.876 57.0101 43.716 57.0901 43.46C57.1861 43.204 57.2981 42.916 57.4261 42.596C57.5541 42.276 57.6581 41.972 57.7381 41.684C57.8341 41.38 57.8821 41.148 57.8821 40.988C57.8821 40.892 57.8581 40.844 57.8101 40.844C57.7461 40.844 57.6101 40.932 57.4021 41.108C57.2101 41.268 57.0181 41.444 56.8261 41.636C56.6341 41.812 56.5141 41.932 56.4661 41.996L56.2981 42.284C56.0421 42.492 55.8101 42.74 55.6021 43.028C55.5861 43.044 55.5701 43.068 55.5541 43.1C55.5381 43.132 55.5221 43.164 55.5061 43.196C55.4741 43.244 55.3941 43.348 55.2661 43.508C55.1541 43.652 55.0341 43.796 54.9061 43.94C54.7941 44.068 54.7061 44.148 54.6421 44.18C54.5941 44.292 54.5301 44.396 54.4501 44.492C54.3861 44.572 54.3061 44.66 54.2101 44.756C54.1141 44.852 53.9941 45.044 53.8501 45.332C53.7221 45.62 53.6341 45.828 53.5861 45.956C53.5701 45.988 53.5061 46.02 53.3941 46.052C53.2981 46.084 53.2261 46.1 53.1781 46.1C53.1141 46.1 53.0341 46.068 52.9381 46.004C52.8581 45.94 52.8181 45.876 52.8181 45.812C52.8181 45.764 52.8741 45.604 52.9861 45.332C53.1141 45.06 53.2581 44.748 53.4181 44.396C53.5781 44.044 53.7221 43.732 53.8501 43.46C53.9941 43.188 54.0821 43.036 54.1141 43.004C54.0981 42.972 54.1061 42.94 54.1381 42.908C54.1701 42.876 54.1941 42.852 54.2101 42.836C54.2101 42.756 54.2581 42.636 54.3541 42.476C54.4501 42.3 54.5141 42.18 54.5461 42.116C54.6901 41.844 54.8501 41.516 55.0261 41.132C55.2181 40.748 55.3781 40.364 55.5061 39.98C55.6501 39.596 55.7221 39.26 55.7221 38.972C55.6261 38.972 55.5301 38.988 55.4341 39.02C55.3381 39.052 55.2421 39.068 55.1461 39.068C55.0821 39.02 55.0501 38.98 55.0501 38.948C55.0501 38.852 55.1621 38.804 55.3861 38.804C55.4821 38.836 55.6181 38.852 55.7941 38.852C55.9861 38.836 56.1621 38.844 56.3221 38.876C56.4821 38.908 56.5621 39.012 56.5621 39.188C56.5621 39.268 56.4901 39.452 56.3461 39.74C56.2181 40.028 56.0581 40.364 55.8661 40.748C55.6741 41.116 55.4901 41.468 55.3141 41.804C55.1541 42.14 55.0421 42.388 54.9781 42.548C54.9621 42.628 54.9221 42.7 54.8581 42.764C54.7941 42.812 54.7621 42.892 54.7621 43.004C54.7141 43.02 54.6901 43.068 54.6901 43.148C54.6901 43.164 54.6901 43.188 54.6901 43.22C54.7061 43.252 54.7141 43.284 54.7141 43.316H54.7381C54.7701 43.252 54.8661 43.124 55.0261 42.932C55.1861 42.74 55.3541 42.548 55.5301 42.356C55.7061 42.148 55.8181 42.012 55.8661 41.948H55.9141C56.1541 41.676 56.3941 41.42 56.6341 41.18C56.8901 40.924 57.1701 40.7 57.4741 40.508C57.5381 40.476 57.5781 40.436 57.5941 40.388L57.6421 40.412C57.6741 40.412 57.7061 40.404 57.7381 40.388C57.7861 40.372 57.8341 40.364 57.8821 40.364C58.0581 40.364 58.2261 40.436 58.3861 40.58C58.5461 40.724 58.6261 40.892 58.6261 41.084C58.6261 41.324 58.5461 41.572 58.3861 41.828C58.2421 42.068 58.1141 42.3 58.0021 42.524C57.9381 42.652 57.8821 42.788 57.8341 42.932C57.7861 43.06 57.7301 43.188 57.6661 43.316C57.6501 43.38 57.6021 43.484 57.5221 43.628C57.4581 43.772 57.4261 43.876 57.4261 43.94C57.4261 43.956 57.4261 43.972 57.4261 43.988C57.4421 43.988 57.4501 43.996 57.4501 44.012C57.5781 43.98 57.6821 43.916 57.7621 43.82C57.8421 43.708 57.9221 43.604 58.0021 43.508C58.1621 43.3 58.3221 43.092 58.4821 42.884C58.6421 42.676 58.8021 42.468 58.9621 42.26L59.2741 41.9C59.3541 41.772 59.4501 41.628 59.5621 41.468C59.6741 41.308 59.7861 41.196 59.8981 41.132C60.0261 41.084 60.1461 41.06 60.2581 41.06C60.3861 41.06 60.5301 41.076 60.6901 41.108C60.8661 41.14 60.9541 41.236 60.9541 41.396C60.9541 41.636 60.8981 41.868 60.7861 42.092C60.6741 42.3 60.5861 42.516 60.5221 42.74C60.4901 42.852 60.4421 43.06 60.3781 43.364C60.3141 43.652 60.2581 43.948 60.2101 44.252C60.1621 44.54 60.1381 44.748 60.1381 44.876C60.1381 44.972 60.1541 45.036 60.1861 45.068C60.1701 45.084 60.1621 45.124 60.1621 45.188C60.1621 45.252 60.1701 45.324 60.1861 45.404C60.2181 45.468 60.2421 45.54 60.2581 45.62C60.2581 45.78 60.2741 45.98 60.3061 46.22C60.3541 46.476 60.4981 46.604 60.7381 46.604V46.58L60.7621 46.604V46.58C60.8421 46.548 60.9381 46.468 61.0501 46.34C61.1781 46.228 61.2901 46.1 61.3861 45.956C61.4981 45.812 61.5541 45.708 61.5541 45.644H61.5781V45.668C61.5781 45.684 61.5621 45.756 61.5301 45.884C61.5141 46.012 61.4901 46.14 61.4581 46.268C61.4421 46.412 61.4261 46.492 61.4101 46.508C61.2661 46.684 61.0741 46.772 60.8341 46.772ZM61.3477 46.82C61.2837 46.788 61.2197 46.708 61.1557 46.58C61.0757 46.468 61.0037 46.348 60.9397 46.22C60.8757 46.108 60.8117 46.06 60.7477 46.076C60.7477 46.012 60.7397 45.956 60.7237 45.908C60.6917 45.86 60.6757 45.812 60.6757 45.764C61.0117 45.3 61.4197 44.884 61.8997 44.516C62.3957 44.148 62.8917 43.836 63.3877 43.58H63.4597C63.5717 43.468 63.6997 43.372 63.8437 43.292C64.0037 43.212 64.1237 43.116 64.2037 43.004V42.98C63.9957 42.852 63.7717 42.74 63.5317 42.644C63.2917 42.548 63.0837 42.412 62.9077 42.236C62.7477 42.108 62.5957 41.948 62.4517 41.756C62.3237 41.564 62.2597 41.356 62.2597 41.132C62.2597 40.78 62.4277 40.46 62.7637 40.172C63.0997 39.868 63.4037 39.636 63.6757 39.476C63.7557 39.38 63.9077 39.268 64.1317 39.14C64.3717 39.012 64.6117 38.892 64.8517 38.78C65.1077 38.652 65.2917 38.564 65.4037 38.516V38.54C65.5157 38.46 65.6437 38.404 65.7877 38.372L66.0757 38.252H66.1237C66.2517 38.22 66.3877 38.188 66.5317 38.156C66.6757 38.108 66.8117 38.084 66.9397 38.084C67.0837 38.084 67.2517 38.164 67.4437 38.324C67.6357 38.484 67.7317 38.644 67.7317 38.804C67.7317 38.868 67.6837 38.988 67.5877 39.164C67.5077 39.324 67.4117 39.476 67.2997 39.62C67.2037 39.764 67.1237 39.852 67.0597 39.884C67.0437 39.884 67.0277 39.892 67.0117 39.908C67.0117 39.908 67.0037 39.908 66.9877 39.908V39.86C67.0677 39.764 67.1397 39.62 67.2037 39.428C67.2837 39.22 67.3237 39.052 67.3237 38.924C67.3237 38.684 67.1957 38.564 66.9397 38.564C66.7477 38.564 66.5637 38.596 66.3877 38.66C66.2277 38.708 66.0597 38.772 65.8837 38.852C65.2917 39.06 64.7717 39.308 64.3237 39.596C63.8917 39.868 63.4917 40.276 63.1237 40.82C63.0597 40.932 62.9877 41.052 62.9077 41.18C62.8437 41.292 62.8117 41.412 62.8117 41.54C62.8117 41.7 62.8677 41.836 62.9797 41.948C63.1077 42.044 63.2357 42.124 63.3637 42.188C63.4117 42.22 63.5317 42.292 63.7237 42.404C63.9157 42.516 64.0997 42.628 64.2757 42.74C64.4677 42.836 64.5717 42.884 64.5877 42.884C64.6677 42.884 64.7477 42.852 64.8277 42.788C64.9077 42.724 64.9797 42.676 65.0437 42.644C65.2677 42.516 65.5797 42.356 65.9797 42.164C66.3797 41.956 66.6997 41.828 66.9397 41.78L67.2757 41.708C67.2917 41.708 67.3157 41.724 67.3477 41.756C67.3317 41.772 67.3077 41.796 67.2757 41.828C67.2437 41.844 67.2117 41.86 67.1797 41.876C67.0837 41.972 66.9237 42.06 66.6997 42.14C66.4917 42.204 66.3477 42.268 66.2677 42.332C66.2197 42.364 66.1797 42.412 66.1477 42.476C66.1157 42.524 66.0757 42.564 66.0277 42.596C65.8837 42.692 65.6997 42.82 65.4757 42.98C65.2517 43.124 65.1397 43.292 65.1397 43.484C65.1397 43.548 65.1477 43.612 65.1637 43.676C65.1957 43.74 65.2117 43.812 65.2117 43.892C65.2117 44.02 65.1717 44.204 65.0917 44.444C65.0117 44.668 64.9157 44.82 64.8037 44.9V44.996C64.6597 45.044 64.5477 45.148 64.4677 45.308C64.4037 45.452 64.2757 45.516 64.0837 45.5L63.9637 45.644C63.8517 45.644 63.7557 45.684 63.6757 45.764C63.5957 45.86 63.5157 45.948 63.4357 46.028H63.4117C63.2997 46.028 63.1797 46.076 63.0517 46.172C62.9397 46.284 62.7957 46.38 62.6197 46.46C62.4597 46.556 62.2517 46.58 61.9957 46.532C61.9317 46.548 61.8757 46.572 61.8277 46.604C61.7797 46.636 61.7237 46.652 61.6597 46.652C61.6117 46.652 61.5877 46.636 61.5877 46.604C61.5877 46.588 61.6117 46.556 61.6597 46.508C61.7237 46.476 61.8917 46.396 62.1637 46.268C62.4357 46.14 62.6277 46.044 62.7397 45.98C62.7397 45.964 62.7717 45.932 62.8357 45.884C62.9157 45.836 62.9637 45.804 62.9797 45.788C63.1877 45.644 63.4197 45.46 63.6757 45.236C63.9317 44.996 64.1557 44.74 64.3477 44.468C64.5397 44.18 64.6357 43.908 64.6357 43.652C64.6357 43.604 64.6277 43.54 64.6117 43.46C64.5957 43.364 64.5557 43.316 64.4917 43.316C64.4277 43.316 64.3637 43.348 64.2997 43.412C64.2517 43.476 64.2117 43.524 64.1797 43.556C64.0677 43.636 63.9477 43.716 63.8197 43.796C63.6917 43.876 63.5637 43.964 63.4357 44.06C63.2757 44.172 63.1317 44.3 63.0037 44.444C62.8757 44.572 62.7317 44.7 62.5717 44.828C62.3637 44.988 62.1717 45.156 61.9957 45.332C61.8197 45.492 61.6437 45.668 61.4677 45.86C61.3397 45.988 61.2757 46.148 61.2757 46.34C61.2757 46.404 61.2917 46.468 61.3237 46.532C61.3557 46.612 61.3717 46.692 61.3717 46.772L61.3477 46.82ZM74.0632 39.524C73.9992 39.524 73.9192 39.484 73.8232 39.404C73.7272 39.324 73.6792 39.252 73.6792 39.188C73.6792 39.156 73.7352 39.084 73.8472 38.972C73.9592 38.844 74.0792 38.724 74.2072 38.612C74.3512 38.484 74.4392 38.404 74.4712 38.372C74.5992 38.404 74.6632 38.476 74.6632 38.588C74.6632 38.652 74.6232 38.764 74.5432 38.924C74.4792 39.068 74.3992 39.204 74.3032 39.332C74.2232 39.46 74.1432 39.524 74.0632 39.524ZM71.5192 45.74C71.4712 45.74 71.4232 45.724 71.3752 45.692C71.3432 45.66 71.3032 45.636 71.2552 45.62C71.1432 45.524 71.0632 45.444 71.0152 45.38C70.9672 45.316 70.9432 45.204 70.9432 45.044C70.9432 44.532 71.0632 44.044 71.3032 43.58C71.5432 43.1 71.7672 42.644 71.9752 42.212C72.0072 42.18 72.0152 42.148 71.9992 42.116C71.9832 42.068 71.9752 42.028 71.9752 41.996C71.9752 41.852 72.0312 41.692 72.1432 41.516C72.2712 41.324 72.4152 41.14 72.5752 40.964C72.7352 40.788 72.8632 40.66 72.9592 40.58C73.0552 40.58 73.1992 40.596 73.3912 40.628C73.5832 40.644 73.6792 40.716 73.6792 40.844C73.6792 40.86 73.5992 40.956 73.4392 41.132C73.2792 41.308 73.1832 41.42 73.1512 41.468C72.9432 41.788 72.6952 42.172 72.4072 42.62C72.1352 43.052 71.8952 43.5 71.6872 43.964C71.4792 44.428 71.3752 44.868 71.3752 45.284C71.5672 45.252 71.7672 45.14 71.9752 44.948C72.1992 44.74 72.3672 44.564 72.4792 44.42H72.5032V44.444C72.5032 44.508 72.4712 44.572 72.4072 44.636C72.3432 44.7 72.2952 44.756 72.2632 44.804C72.1992 44.916 72.0952 45.1 71.9512 45.356C71.8232 45.612 71.6792 45.74 71.5192 45.74ZM74.2145 45.164C74.1185 45.164 74.0065 45.116 73.8785 45.02C73.7665 44.924 73.7105 44.828 73.7105 44.732C73.7105 44.428 73.7905 44.06 73.9505 43.628C74.1105 43.196 74.3025 42.748 74.5265 42.284C74.7665 41.82 74.9985 41.38 75.2225 40.964C75.4625 40.548 75.6625 40.204 75.8225 39.932C75.9025 39.788 75.9665 39.636 76.0145 39.476C76.0785 39.316 76.1665 39.172 76.2785 39.044C76.4065 39.06 76.5505 39.1 76.7105 39.164C76.8865 39.228 76.9745 39.348 76.9745 39.524C76.9745 39.652 76.8945 39.796 76.7345 39.956C76.5905 40.1 76.4785 40.22 76.3985 40.316C76.0465 40.716 75.7265 41.148 75.4385 41.612C75.1665 42.076 74.9185 42.548 74.6945 43.028C74.6465 43.124 74.6065 43.22 74.5745 43.316C74.5425 43.396 74.5105 43.476 74.4785 43.556C74.4465 43.636 74.4065 43.716 74.3585 43.796C74.3105 43.86 74.2865 43.932 74.2865 44.012C74.2865 44.044 74.2945 44.084 74.3105 44.132C74.3265 44.18 74.3585 44.204 74.4065 44.204C74.5345 44.076 74.7345 43.86 75.0065 43.556C75.2785 43.236 75.5745 42.908 75.8945 42.572C76.2145 42.22 76.5025 41.916 76.7585 41.66C77.0305 41.404 77.2145 41.252 77.3105 41.204C77.3425 41.188 77.3745 41.18 77.4065 41.18C77.4385 41.164 77.4705 41.156 77.5025 41.156C77.7585 41.156 77.9585 41.276 78.1025 41.516C78.2465 41.74 78.3185 41.964 78.3185 42.188C78.3185 42.444 78.2945 42.692 78.2465 42.932C78.1985 43.172 78.1745 43.412 78.1745 43.652C78.1745 43.844 78.2145 44.092 78.2945 44.396C78.3745 44.7 78.5425 44.852 78.7985 44.852C78.8625 44.82 78.9345 44.788 79.0145 44.756C79.0945 44.724 79.1665 44.708 79.2305 44.708C79.2785 44.708 79.3025 44.74 79.3025 44.804C79.3025 44.884 79.2545 44.948 79.1585 44.996C79.0785 45.044 79.0065 45.068 78.9425 45.068C78.7025 45.068 78.4545 44.964 78.1985 44.756C77.9425 44.532 77.7825 44.308 77.7185 44.084C77.6545 43.844 77.6065 43.604 77.5745 43.364C77.5585 43.108 77.5505 42.86 77.5505 42.62C77.5505 42.508 77.5585 42.348 77.5745 42.14C77.6065 41.916 77.6225 41.772 77.6225 41.708C77.5265 41.708 77.3985 41.78 77.2385 41.924C77.0785 42.052 76.9265 42.196 76.7825 42.356C76.6385 42.5 76.5345 42.612 76.4705 42.692C76.4385 42.724 76.3905 42.756 76.3265 42.788C76.2785 42.82 76.2305 42.86 76.1825 42.908C76.1185 42.988 76.0465 43.084 75.9665 43.196C75.8865 43.292 75.8065 43.38 75.7265 43.46C75.6945 43.492 75.6225 43.548 75.5105 43.628C75.4145 43.708 75.3505 43.772 75.3185 43.82C75.2385 43.98 75.1345 44.132 75.0065 44.276C74.8785 44.42 74.7585 44.572 74.6465 44.732C74.6145 44.78 74.5825 44.844 74.5505 44.924C74.5185 44.988 74.4785 45.036 74.4305 45.068C74.3825 45.132 74.3105 45.164 74.2145 45.164ZM101.502 46.964C101.23 46.964 101.022 46.876 100.878 46.7C100.734 46.524 100.638 46.308 100.59 46.052C100.558 45.812 100.542 45.588 100.542 45.38C100.542 44.836 100.606 44.244 100.734 43.604C100.862 42.948 101.022 42.3 101.214 41.66C101.422 41.004 101.63 40.42 101.838 39.908V39.812C101.838 39.604 101.886 39.396 101.982 39.188C102.094 38.98 102.182 38.788 102.246 38.612C102.534 37.892 102.83 37.18 103.134 36.476C103.454 35.772 103.814 35.084 104.214 34.412C104.342 34.22 104.454 34.02 104.55 33.812C104.646 33.588 104.774 33.396 104.934 33.236C105.11 33.236 105.302 33.268 105.51 33.332C105.718 33.38 105.822 33.516 105.822 33.74C105.822 33.9 105.758 34.1 105.63 34.34C105.502 34.564 105.358 34.78 105.198 34.988C105.038 35.196 104.91 35.372 104.814 35.516C104.798 35.5 104.774 35.484 104.742 35.468C104.726 35.436 104.71 35.42 104.694 35.42C104.678 35.42 104.67 35.428 104.67 35.444C104.462 35.684 104.278 35.948 104.118 36.236C103.974 36.524 103.838 36.812 103.71 37.1C103.582 37.404 103.43 37.692 103.254 37.964C103.078 38.236 102.926 38.524 102.798 38.828C102.766 38.892 102.718 39.036 102.654 39.26C102.59 39.484 102.526 39.7 102.462 39.908C102.398 40.1 102.358 40.204 102.342 40.22C102.31 40.572 102.19 40.9 101.982 41.204C101.79 41.508 101.694 41.844 101.694 42.212C101.63 42.276 101.59 42.372 101.574 42.5C101.574 42.612 101.558 42.716 101.526 42.812C101.414 43.276 101.294 43.74 101.166 44.204C101.038 44.652 100.974 45.124 100.974 45.62C100.974 45.796 100.99 45.956 101.022 46.1C101.054 46.26 101.11 46.428 101.19 46.604C101.222 46.668 101.286 46.724 101.382 46.772C101.494 46.82 101.558 46.884 101.574 46.964H101.502ZM85.5417 46.916C84.9337 46.916 84.4217 46.7 84.0057 46.268C83.5897 45.836 83.3817 45.324 83.3817 44.732C83.3817 44.076 83.5017 43.396 83.7417 42.692C83.9977 41.972 84.3337 41.292 84.7497 40.652C85.1657 39.996 85.6057 39.452 86.0697 39.02L86.6697 38.516C86.9097 38.308 87.1737 38.084 87.4617 37.844C87.7657 37.604 88.0777 37.396 88.3977 37.22C88.7337 37.028 89.0617 36.932 89.3817 36.932C89.6057 36.932 89.8137 36.98 90.0057 37.076C90.2137 37.172 90.4057 37.292 90.5817 37.436V37.484H90.5577V37.532C90.3977 37.5 90.2457 37.46 90.1017 37.412C89.9577 37.364 89.8057 37.34 89.6457 37.34C89.2297 37.34 88.7657 37.532 88.2537 37.916C87.7417 38.284 87.2297 38.772 86.7177 39.38C86.2057 39.972 85.7337 40.612 85.3017 41.3C84.8697 41.972 84.5177 42.612 84.2457 43.22C83.9897 43.828 83.8617 44.332 83.8617 44.732C83.8617 45.276 83.9897 45.724 84.2457 46.076C84.5017 46.444 84.9177 46.628 85.4937 46.628C85.5257 46.628 85.5817 46.62 85.6617 46.604C85.7577 46.588 85.8057 46.564 85.8057 46.532H85.8537L85.8777 46.556V46.532C86.5977 46.356 87.2537 46.02 87.8457 45.524C88.4537 45.044 89.0057 44.556 89.5017 44.06C90.2697 43.292 90.9977 42.492 91.6857 41.66C92.3737 40.812 93.0537 39.964 93.7257 39.116C94.0457 38.7 94.3737 38.284 94.7097 37.868C95.0457 37.452 95.3657 37.02 95.6697 36.572C95.7977 36.364 95.9177 36.156 96.0297 35.948C96.1577 35.724 96.2697 35.5 96.3657 35.276C96.4137 35.148 96.4537 35.012 96.4857 34.868C96.5177 34.724 96.5737 34.596 96.6537 34.484C96.7977 34.484 96.9897 34.508 97.2297 34.556C97.4697 34.588 97.5897 34.716 97.5897 34.94L97.5177 35.156C97.4697 35.268 97.4057 35.38 97.3257 35.492C97.2617 35.588 97.2057 35.692 97.1577 35.804C97.0617 35.964 96.9657 36.14 96.8697 36.332C96.7737 36.508 96.6777 36.684 96.5817 36.86C95.7177 38.588 95.2857 40.436 95.2857 42.404C95.2857 42.644 95.3017 42.9 95.3337 43.172C95.3657 43.428 95.4537 43.652 95.5977 43.844C95.7417 44.02 95.9657 44.108 96.2697 44.108C96.4137 44.028 96.5577 43.964 96.7017 43.916C96.8617 43.852 97.0137 43.772 97.1577 43.676C97.7337 43.292 98.2457 42.828 98.6937 42.284C99.1417 41.74 99.5657 41.164 99.9657 40.556C100.366 39.948 100.766 39.372 101.166 38.828C101.23 38.748 101.342 38.612 101.502 38.42C101.662 38.212 101.814 38.012 101.958 37.82C102.102 37.612 102.174 37.468 102.174 37.388H102.222L102.246 37.436C102.246 37.5 102.142 37.708 101.934 38.06C101.742 38.412 101.494 38.836 101.19 39.332C100.886 39.828 100.574 40.332 100.254 40.844C99.9337 41.34 99.6457 41.78 99.3897 42.164C99.1497 42.548 98.9817 42.804 98.8857 42.932C98.7417 43.124 98.5737 43.324 98.3817 43.532C98.2057 43.74 98.0217 43.908 97.8297 44.036C97.6217 44.164 97.3897 44.26 97.1337 44.324C96.8937 44.372 96.6617 44.396 96.4377 44.396C95.7497 44.396 95.2457 44.188 94.9257 43.772C94.6217 43.356 94.4697 42.828 94.4697 42.188C94.4697 41.58 94.5497 40.98 94.7097 40.388C94.8697 39.796 95.0297 39.204 95.1897 38.612C95.2057 38.564 95.2377 38.452 95.2857 38.276C95.3497 38.1 95.4057 37.924 95.4537 37.748C95.5177 37.572 95.5417 37.476 95.5257 37.46H95.5017V37.436C95.4697 37.452 95.3817 37.564 95.2377 37.772C95.0937 37.98 94.9257 38.22 94.7337 38.492C94.5577 38.748 94.3897 38.988 94.2297 39.212C94.0697 39.436 93.9657 39.588 93.9177 39.668C93.6777 39.972 93.4297 40.284 93.1737 40.604C92.9177 40.908 92.6617 41.22 92.4057 41.54C92.0057 42.052 91.5577 42.62 91.0617 43.244C90.5817 43.852 90.0537 44.436 89.4777 44.996C88.9017 45.556 88.2857 46.012 87.6297 46.364C86.9737 46.732 86.2777 46.916 85.5417 46.916ZM104.064 46.052C103.808 46.052 103.616 45.988 103.488 45.86C103.376 45.748 103.28 45.692 103.2 45.692C103.184 45.612 103.112 45.524 102.984 45.428C102.856 45.332 102.792 45.108 102.792 44.756C102.792 44.436 102.864 44.156 103.008 43.916C103.152 43.676 103.28 43.42 103.392 43.148C103.424 43.068 103.44 42.988 103.44 42.908C103.44 42.812 103.456 42.732 103.488 42.668C103.52 42.556 103.568 42.452 103.632 42.356C103.696 42.26 103.76 42.164 103.824 42.068C104.192 41.444 104.624 40.94 105.12 40.556C105.616 40.156 106.2 39.82 106.872 39.548H106.896C106.976 39.516 107.104 39.492 107.28 39.476C107.456 39.444 107.584 39.428 107.664 39.428C107.824 39.428 107.968 39.46 108.096 39.524C108.224 39.588 108.336 39.62 108.432 39.62L108.384 39.668C108.528 39.732 108.64 39.828 108.72 39.956C108.8 40.068 108.888 40.172 108.984 40.268C109.016 40.3 109.048 40.332 109.08 40.364C109.112 40.396 109.136 40.428 109.152 40.46C109.2 40.508 109.232 40.58 109.248 40.676C109.264 40.772 109.272 40.86 109.272 40.94C109.272 41.356 109.168 41.732 108.96 42.068C108.752 42.404 108.52 42.732 108.264 43.052C108.152 43.212 108.04 43.372 107.928 43.532C107.832 43.692 107.712 43.844 107.568 43.988C107.536 44.02 107.448 44.1 107.304 44.228C107.176 44.356 107.048 44.484 106.92 44.612C106.808 44.724 106.744 44.796 106.728 44.828C106.616 44.876 106.512 44.948 106.416 45.044C106.32 45.14 106.216 45.228 106.104 45.308C105.816 45.516 105.496 45.692 105.144 45.836C104.792 45.98 104.432 46.052 104.064 46.052ZM103.944 45.764C103.944 45.764 104.056 45.732 104.28 45.668C104.504 45.604 104.648 45.564 104.712 45.548C104.792 45.516 104.944 45.436 105.168 45.308C105.408 45.164 105.632 45.02 105.84 44.876C106.048 44.716 106.152 44.604 106.152 44.54C106.264 44.508 106.416 44.388 106.608 44.18C106.816 43.956 107.016 43.724 107.208 43.484C107.4 43.228 107.528 43.052 107.592 42.956C107.624 42.924 107.68 42.844 107.76 42.716C107.84 42.572 107.888 42.5 107.904 42.5C107.92 42.436 107.944 42.372 107.976 42.308C108.024 42.228 108.048 42.164 108.048 42.116C108.096 42.084 108.144 41.98 108.192 41.804C108.24 41.612 108.28 41.516 108.312 41.516L108.288 41.492C108.304 41.46 108.312 41.436 108.312 41.42C108.328 41.388 108.344 41.364 108.36 41.348C108.36 41.252 108.376 41.164 108.408 41.084C108.44 40.988 108.456 40.892 108.456 40.796C108.488 40.732 108.504 40.652 108.504 40.556C108.504 40.46 108.504 40.38 108.504 40.316L108.528 40.292V40.268C108.528 40.124 108.48 39.996 108.384 39.884C108.304 39.772 108.176 39.716 108 39.716C107.552 39.716 107.144 39.828 106.776 40.052C106.424 40.26 106.08 40.492 105.744 40.748C105.632 40.828 105.52 40.916 105.408 41.012C105.296 41.092 105.192 41.188 105.096 41.3C105.064 41.316 105.016 41.348 104.952 41.396C104.888 41.444 104.856 41.492 104.856 41.54C105 41.524 105.136 41.468 105.264 41.372C105.408 41.26 105.608 41.204 105.864 41.204C105.944 41.204 106.096 41.276 106.32 41.42C106.56 41.564 106.68 41.676 106.68 41.756V41.804C106.584 41.772 106.512 41.74 106.464 41.708C106.432 41.676 106.352 41.66 106.224 41.66C105.904 41.66 105.576 41.788 105.24 42.044C104.92 42.284 104.656 42.516 104.448 42.74C104.352 42.82 104.256 42.908 104.16 43.004C104.08 43.1 104.008 43.204 103.944 43.316C103.896 43.428 103.872 43.556 103.872 43.7C103.904 43.684 103.936 43.708 103.968 43.772C104 43.82 104.016 43.86 104.016 43.892H103.944C103.864 43.892 103.8 43.876 103.752 43.844C103.72 43.796 103.688 43.772 103.656 43.772C103.592 43.82 103.52 43.948 103.44 44.156C103.36 44.364 103.304 44.468 103.272 44.468C103.256 44.532 103.24 44.604 103.224 44.684C103.224 44.748 103.224 44.812 103.224 44.876C103.224 45.132 103.272 45.34 103.368 45.5C103.464 45.676 103.656 45.764 103.944 45.764ZM111.374 47.276C111.294 47.276 111.166 47.228 110.99 47.132C110.814 47.036 110.694 46.956 110.63 46.892C110.518 46.764 110.438 46.612 110.39 46.436C110.358 46.26 110.342 46.092 110.342 45.932C110.342 45.404 110.462 44.804 110.702 44.132C110.942 43.46 111.19 42.892 111.446 42.428C111.478 42.364 111.542 42.244 111.638 42.068C111.75 41.892 111.854 41.716 111.95 41.54C112.046 41.364 112.094 41.268 112.094 41.252L111.662 41.396L111.518 41.372V41.396C111.358 41.508 111.15 41.588 110.894 41.636C110.638 41.684 110.422 41.748 110.246 41.828L109.526 42.188H109.478C109.414 42.188 109.358 42.156 109.31 42.092C109.278 42.012 109.262 41.948 109.262 41.9C109.262 41.852 109.35 41.796 109.526 41.732C109.702 41.652 109.91 41.572 110.15 41.492C110.406 41.412 110.638 41.34 110.846 41.276C111.07 41.212 111.214 41.172 111.278 41.156C111.486 41.108 111.678 41.052 111.854 40.988H111.878V40.964C111.99 40.964 112.11 40.932 112.238 40.868C112.542 40.42 112.838 39.98 113.126 39.548C113.43 39.1 113.774 38.692 114.158 38.324L114.686 37.82C114.814 37.708 114.91 37.612 114.974 37.532C115.038 37.452 115.15 37.372 115.31 37.292C115.422 37.308 115.574 37.364 115.766 37.46C115.974 37.556 116.078 37.668 116.078 37.796C116.078 37.844 115.998 37.924 115.838 38.036C115.694 38.148 115.542 38.26 115.382 38.372C115.222 38.468 115.11 38.54 115.046 38.588L114.878 38.636C114.686 38.796 114.51 38.964 114.35 39.14C114.19 39.316 114.022 39.492 113.846 39.668C113.75 39.748 113.67 39.852 113.606 39.98C113.542 40.108 113.462 40.22 113.366 40.316V40.412C113.334 40.428 113.278 40.476 113.198 40.556C113.134 40.62 113.102 40.668 113.102 40.7C113.374 40.716 113.662 40.74 113.966 40.772C114.27 40.804 114.526 40.932 114.734 41.156C114.558 41.108 114.39 41.068 114.23 41.036C114.086 40.988 113.926 40.964 113.75 40.964C113.43 40.964 113.134 41.012 112.862 41.108C112.862 41.108 112.814 41.18 112.718 41.324C112.622 41.468 112.518 41.612 112.406 41.756C112.31 41.884 112.262 41.956 112.262 41.972C112.214 42.036 112.118 42.196 111.974 42.452C111.83 42.692 111.694 42.932 111.566 43.172C111.454 43.396 111.39 43.516 111.374 43.532C111.374 43.612 111.35 43.716 111.302 43.844C111.254 43.972 111.214 44.076 111.182 44.156L111.158 44.18V44.204C111.158 44.3 111.134 44.404 111.086 44.516C111.038 44.628 110.998 44.724 110.966 44.804C110.822 45.236 110.75 45.684 110.75 46.148C110.75 46.276 110.766 46.436 110.798 46.628C110.846 46.82 110.942 46.956 111.086 47.036C111.118 47.052 111.19 47.068 111.302 47.084C111.43 47.1 111.494 47.132 111.494 47.18C111.494 47.244 111.454 47.276 111.374 47.276ZM114.758 41.156C114.742 41.156 114.734 41.156 114.734 41.156C114.734 41.156 114.742 41.156 114.758 41.156ZM117.305 39.524C117.241 39.524 117.161 39.484 117.065 39.404C116.969 39.324 116.921 39.252 116.921 39.188C116.921 39.156 116.977 39.084 117.089 38.972C117.201 38.844 117.321 38.724 117.449 38.612C117.593 38.484 117.681 38.404 117.713 38.372C117.841 38.404 117.905 38.476 117.905 38.588C117.905 38.652 117.865 38.764 117.785 38.924C117.721 39.068 117.641 39.204 117.545 39.332C117.465 39.46 117.385 39.524 117.305 39.524ZM114.761 45.74C114.713 45.74 114.665 45.724 114.617 45.692C114.585 45.66 114.545 45.636 114.497 45.62C114.385 45.524 114.305 45.444 114.257 45.38C114.209 45.316 114.185 45.204 114.185 45.044C114.185 44.532 114.305 44.044 114.545 43.58C114.785 43.1 115.009 42.644 115.217 42.212C115.249 42.18 115.257 42.148 115.241 42.116C115.225 42.068 115.217 42.028 115.217 41.996C115.217 41.852 115.273 41.692 115.385 41.516C115.513 41.324 115.657 41.14 115.817 40.964C115.977 40.788 116.105 40.66 116.201 40.58C116.297 40.58 116.441 40.596 116.633 40.628C116.825 40.644 116.921 40.716 116.921 40.844C116.921 40.86 116.841 40.956 116.681 41.132C116.521 41.308 116.425 41.42 116.393 41.468C116.185 41.788 115.937 42.172 115.649 42.62C115.377 43.052 115.137 43.5 114.929 43.964C114.721 44.428 114.617 44.868 114.617 45.284C114.809 45.252 115.009 45.14 115.217 44.948C115.441 44.74 115.609 44.564 115.721 44.42H115.745V44.444C115.745 44.508 115.713 44.572 115.649 44.636C115.585 44.7 115.537 44.756 115.505 44.804C115.441 44.916 115.337 45.1 115.193 45.356C115.065 45.612 114.921 45.74 114.761 45.74ZM118.033 46.052C117.777 46.052 117.585 45.988 117.457 45.86C117.345 45.748 117.249 45.692 117.169 45.692C117.153 45.612 117.081 45.524 116.953 45.428C116.825 45.332 116.761 45.108 116.761 44.756C116.761 44.436 116.833 44.156 116.977 43.916C117.121 43.676 117.249 43.42 117.361 43.148C117.393 43.068 117.409 42.988 117.409 42.908C117.409 42.812 117.425 42.732 117.457 42.668C117.489 42.556 117.537 42.452 117.601 42.356C117.665 42.26 117.729 42.164 117.793 42.068C118.161 41.444 118.593 40.94 119.089 40.556C119.585 40.156 120.169 39.82 120.841 39.548H120.865C120.945 39.516 121.073 39.492 121.249 39.476C121.425 39.444 121.553 39.428 121.633 39.428C121.793 39.428 121.937 39.46 122.065 39.524C122.193 39.588 122.305 39.62 122.401 39.62L122.353 39.668C122.497 39.732 122.609 39.828 122.689 39.956C122.769 40.068 122.857 40.172 122.953 40.268C122.985 40.3 123.017 40.332 123.049 40.364C123.081 40.396 123.105 40.428 123.121 40.46C123.169 40.508 123.201 40.58 123.217 40.676C123.233 40.772 123.241 40.86 123.241 40.94C123.241 41.356 123.137 41.732 122.929 42.068C122.721 42.404 122.489 42.732 122.233 43.052C122.121 43.212 122.009 43.372 121.897 43.532C121.801 43.692 121.681 43.844 121.537 43.988C121.505 44.02 121.417 44.1 121.273 44.228C121.145 44.356 121.017 44.484 120.889 44.612C120.777 44.724 120.713 44.796 120.697 44.828C120.585 44.876 120.481 44.948 120.385 45.044C120.289 45.14 120.185 45.228 120.073 45.308C119.785 45.516 119.465 45.692 119.113 45.836C118.761 45.98 118.401 46.052 118.033 46.052ZM117.913 45.764C117.913 45.764 118.025 45.732 118.249 45.668C118.473 45.604 118.617 45.564 118.681 45.548C118.761 45.516 118.913 45.436 119.137 45.308C119.377 45.164 119.601 45.02 119.809 44.876C120.017 44.716 120.121 44.604 120.121 44.54C120.233 44.508 120.385 44.388 120.577 44.18C120.785 43.956 120.985 43.724 121.177 43.484C121.369 43.228 121.497 43.052 121.561 42.956C121.593 42.924 121.649 42.844 121.729 42.716C121.809 42.572 121.857 42.5 121.873 42.5C121.889 42.436 121.913 42.372 121.945 42.308C121.993 42.228 122.017 42.164 122.017 42.116C122.065 42.084 122.113 41.98 122.161 41.804C122.209 41.612 122.249 41.516 122.281 41.516L122.257 41.492C122.273 41.46 122.281 41.436 122.281 41.42C122.297 41.388 122.313 41.364 122.329 41.348C122.329 41.252 122.345 41.164 122.377 41.084C122.409 40.988 122.425 40.892 122.425 40.796C122.457 40.732 122.473 40.652 122.473 40.556C122.473 40.46 122.473 40.38 122.473 40.316L122.497 40.292V40.268C122.497 40.124 122.449 39.996 122.353 39.884C122.273 39.772 122.145 39.716 121.969 39.716C121.521 39.716 121.113 39.828 120.745 40.052C120.393 40.26 120.049 40.492 119.713 40.748C119.601 40.828 119.489 40.916 119.377 41.012C119.265 41.092 119.161 41.188 119.065 41.3C119.033 41.316 118.985 41.348 118.921 41.396C118.857 41.444 118.825 41.492 118.825 41.54C118.969 41.524 119.105 41.468 119.233 41.372C119.377 41.26 119.577 41.204 119.833 41.204C119.913 41.204 120.065 41.276 120.289 41.42C120.529 41.564 120.649 41.676 120.649 41.756V41.804C120.553 41.772 120.481 41.74 120.433 41.708C120.401 41.676 120.321 41.66 120.193 41.66C119.873 41.66 119.545 41.788 119.209 42.044C118.889 42.284 118.625 42.516 118.417 42.74C118.321 42.82 118.225 42.908 118.129 43.004C118.049 43.1 117.977 43.204 117.913 43.316C117.865 43.428 117.841 43.556 117.841 43.7C117.873 43.684 117.905 43.708 117.937 43.772C117.969 43.82 117.985 43.86 117.985 43.892H117.913C117.833 43.892 117.769 43.876 117.721 43.844C117.689 43.796 117.657 43.772 117.625 43.772C117.561 43.82 117.489 43.948 117.409 44.156C117.329 44.364 117.273 44.468 117.241 44.468C117.225 44.532 117.209 44.604 117.193 44.684C117.193 44.748 117.193 44.812 117.193 44.876C117.193 45.132 117.241 45.34 117.337 45.5C117.433 45.676 117.625 45.764 117.913 45.764ZM123.879 45.164C123.783 45.164 123.671 45.116 123.543 45.02C123.431 44.924 123.375 44.828 123.375 44.732C123.375 44.428 123.455 44.06 123.615 43.628C123.775 43.196 123.967 42.748 124.191 42.284C124.431 41.82 124.663 41.38 124.887 40.964C125.127 40.548 125.327 40.204 125.487 39.932C125.567 39.788 125.631 39.636 125.679 39.476C125.743 39.316 125.831 39.172 125.943 39.044C126.071 39.06 126.215 39.1 126.375 39.164C126.551 39.228 126.639 39.348 126.639 39.524C126.639 39.652 126.559 39.796 126.399 39.956C126.255 40.1 126.143 40.22 126.063 40.316C125.711 40.716 125.391 41.148 125.103 41.612C124.831 42.076 124.583 42.548 124.359 43.028C124.311 43.124 124.271 43.22 124.239 43.316C124.207 43.396 124.175 43.476 124.143 43.556C124.111 43.636 124.071 43.716 124.023 43.796C123.975 43.86 123.951 43.932 123.951 44.012C123.951 44.044 123.959 44.084 123.975 44.132C123.991 44.18 124.023 44.204 124.071 44.204C124.199 44.076 124.399 43.86 124.671 43.556C124.943 43.236 125.239 42.908 125.559 42.572C125.879 42.22 126.167 41.916 126.423 41.66C126.695 41.404 126.879 41.252 126.975 41.204C127.007 41.188 127.039 41.18 127.071 41.18C127.103 41.164 127.135 41.156 127.167 41.156C127.423 41.156 127.623 41.276 127.767 41.516C127.911 41.74 127.983 41.964 127.983 42.188C127.983 42.444 127.959 42.692 127.911 42.932C127.863 43.172 127.839 43.412 127.839 43.652C127.839 43.844 127.879 44.092 127.959 44.396C128.039 44.7 128.207 44.852 128.463 44.852C128.527 44.82 128.599 44.788 128.679 44.756C128.759 44.724 128.831 44.708 128.895 44.708C128.943 44.708 128.967 44.74 128.967 44.804C128.967 44.884 128.919 44.948 128.823 44.996C128.743 45.044 128.671 45.068 128.607 45.068C128.367 45.068 128.119 44.964 127.863 44.756C127.607 44.532 127.447 44.308 127.383 44.084C127.319 43.844 127.271 43.604 127.239 43.364C127.223 43.108 127.215 42.86 127.215 42.62C127.215 42.508 127.223 42.348 127.239 42.14C127.271 41.916 127.287 41.772 127.287 41.708C127.191 41.708 127.063 41.78 126.903 41.924C126.743 42.052 126.591 42.196 126.447 42.356C126.303 42.5 126.199 42.612 126.135 42.692C126.103 42.724 126.055 42.756 125.991 42.788C125.943 42.82 125.895 42.86 125.847 42.908C125.783 42.988 125.711 43.084 125.631 43.196C125.551 43.292 125.471 43.38 125.391 43.46C125.359 43.492 125.287 43.548 125.175 43.628C125.079 43.708 125.015 43.772 124.983 43.82C124.903 43.98 124.799 44.132 124.671 44.276C124.543 44.42 124.423 44.572 124.311 44.732C124.279 44.78 124.247 44.844 124.215 44.924C124.183 44.988 124.143 45.036 124.095 45.068C124.047 45.132 123.975 45.164 123.879 45.164Z" fill="#2F455B"/>
</g>
<defs>
<filter id="filter0_i_471_2101" x="39.3223" y="4.99597" width="86.3965" height="24.8441" filterUnits="userSpaceOnUse" color-interpolation-filters="sRGB">
<feFlood flood-opacity="0" result="BackgroundImageFix"/>
<feBlend mode="normal" in="SourceGraphic" in2="BackgroundImageFix" result="shape"/>
<feColorMatrix in="SourceAlpha" type="matrix" values="0 0 0 0 0 0 0 0 0 0 0 0 0 0 0 0 0 0 127 0" result="hardAlpha"/>
<feOffset dx="6" dy="4"/>
<feGaussianBlur stdDeviation="2"/>
<feComposite in2="hardAlpha" operator="arithmetic" k2="-1" k3="1"/>
<feColorMatrix type="matrix" values="0 0 0 0 0 0 0 0 0 0 0 0 0 0 0 0 0 0 0.25 0"/>
<feBlend mode="normal" in2="shape" result="effect1_innerShadow_471_2101"/>
</filter>
<filter id="filter1_i_471_2101" x="27.2012" y="33.236" width="101.766" height="18.04" filterUnits="userSpaceOnUse" color-interpolation-filters="sRGB">
<feFlood flood-opacity="0" result="BackgroundImageFix"/>
<feBlend mode="normal" in="SourceGraphic" in2="BackgroundImageFix" result="shape"/>
<feColorMatrix in="SourceAlpha" type="matrix" values="0 0 0 0 0 0 0 0 0 0 0 0 0 0 0 0 0 0 127 0" result="hardAlpha"/>
<feOffset dy="4"/>
<feGaussianBlur stdDeviation="2"/>
<feComposite in2="hardAlpha" operator="arithmetic" k2="-1" k3="1"/>
<feColorMatrix type="matrix" values="0 0 0 0 0 0 0 0 0 0 0 0 0 0 0 0 0 0 0.25 0"/>
<feBlend mode="normal" in2="shape" result="effect1_innerShadow_471_2101"/>
</filter>
</defs>
</svg>
